<svg viewBox="262.5 145.794 2512.5 1308.411" fill="none" xmlns="http://www.w3.org/2000/svg" overflow="visible" width="2512.5" height="1308.411"><g id="Master/Solo/Meditating"><g id="Backgrounds" fill-rule="evenodd" clip-rule="evenodd" fill="#0089C5" fill-opacity=".25"><path id="Shape" d="M2722 301c2.76 0 5 2.239 5 5v456h8.82c7.72 0 14.01 6.131 14.18 13.78v12.129c0 7.689-6.19 13.923-13.86 14.088l-.32.003h-761.64c-7.72 0-14.01-6.131-14.18-13.78v-12.129c0-7.689 6.19-13.923 13.86-14.088l.32-.003h9.82V306c0-2.761 2.24-5 5-5h733zm13.82 471h-761.64c-2.25 0-4.07 1.732-4.17 3.888l-.01.203v11.818c0 2.181 1.75 3.979 3.97 4.086l.21.005h761.64c2.25 0 4.07-1.732 4.17-3.888l.01-.203v-11.818c0-2.249-1.86-4.091-4.18-4.091zM2024 582.78V762h663V654.818l-119.95 37.81a83 83 0 01-64.28-6.07l-.64-.345-.63-.35-97.55-54.702c-29.81-16.716-66.28-16.118-95.51 1.499l-.88.539-78.21 48.309c-30.25 18.689-69.02 16.008-96.4-6.561l-.82-.69L2024 582.78zM2717 311h-723v451h20V336a4.997 4.997 0 014.78-4.995l.22-.005h673l.22.005c.13.005.25.016.38.031l.26.038.27.054.17.044.26.077.26.092.3.128.12.062.25.131.16.097.26.174.11.08.16.126.18.155.1.099.19.188.12.135.11.134.19.246.11.155.12.204.1.163.06.121A5.025 5.025 0 012697 336v426h20V311zm-232.03 274.947l-1.17 1.052-52.46 48.057 75.05 42.084a73.013 73.013 0 0057 6.154l.65-.204 95.06-29.963-31.76-48.282a94.876 94.876 0 00-9.32-11.968c-35.08-38.301-94.33-41.263-133.05-6.93zm-343.26 30.425l-.81.8-27.85 27.848 25.53 21.603c23.88 20.203 57.95 22.928 84.71 6.869l.81-.492 43.19-26.679-28.81-29.149c-26.68-26.677-69.76-26.944-96.77-.8zM2687 341h-663v228.68l81.39 68.859 28.44-28.438c30.54-30.543 79.87-30.848 110.79-.916l.93.916 30.47 30.827 26.28-16.236c32.14-19.853 72.44-20.896 105.54-2.807l1 .554 13.32 7.468 54.89-50.282c42.76-39.172 109.17-36.263 148.35 6.497 3.51 3.833 6.73 7.921 9.63 12.23l.67.998 33.31 50.653 17.99-5.67V341zm-357 56c39.21 0 71 31.788 71 71s-31.79 71-71 71-71-31.788-71-71 31.79-71 71-71zm0 10c-33.69 0-61 27.311-61 61s27.31 61 61 61 61-27.311 61-61-27.31-61-61-61zm-172.79 71c12.39 0 21.47 4.805 27.37 12.777a33.731 33.731 0 014.66 8.777l.19.531.11.335.26.079c5.98 1.88 10.28 7.502 10.2 14.092-.09 7.986-6.59 14.409-14.58 14.409h-88.37c-3.51 0-5.93-3.521-4.67-6.796l.19-.472c4.96-12.526 13.65-19.631 25.52-20.693l.2-.017.1-.164c.27-.422.55-.858.84-1.306a54.034 54.034 0 017.21-8.684c8.22-8.006 18.49-12.868 30.77-12.868zm0 10c-9.45 0-17.32 3.726-23.79 10.032a43.276 43.276 0 00-5.86 7.06 37.3 37.3 0 00-1.4 2.274l-.3.549-.09.166a4.987 4.987 0 01-4.49 2.819l-.42.003c-6.67.099-11.76 2.641-15.52 7.932l-.11.165h80.19c2.51 0 4.55-2.019 4.58-4.53a4.583 4.583 0 00-4.31-4.633l-.22-.007a5.012 5.012 0 01-4.83-3.96l-.08-.418-.07-.339-.04-.143a22.86 22.86 0 00-.62-2.052 24.035 24.035 0 00-3.28-6.191c-4.06-5.482-10.19-8.727-19.34-8.727zm389-91c12.39 0 21.47 4.805 27.37 12.777a33.731 33.731 0 014.66 8.777l.19.531.11.335.26.079c5.98 1.88 10.28 7.502 10.2 14.092-.09 7.986-6.59 14.409-14.58 14.409h-88.37c-3.51 0-5.93-3.521-4.67-6.796l.19-.472c4.96-12.526 13.65-19.631 25.52-20.693l.2-.017.1-.164c.27-.422.55-.858.84-1.306a54.034 54.034 0 017.21-8.684c8.22-8.006 18.49-12.868 30.77-12.868zm0 10c-9.45 0-17.32 3.726-23.79 10.032a43.276 43.276 0 00-5.86 7.06 37.3 37.3 0 00-1.4 2.274l-.3.549-.09.166a4.987 4.987 0 01-4.49 2.819l-.42.003c-6.67.099-11.76 2.641-15.52 7.932l-.11.165h80.19c2.51 0 4.55-2.019 4.59-4.53a4.598 4.598 0 00-4.32-4.633l-.22-.007a5.012 5.012 0 01-4.83-3.96l-.08-.418-.07-.339-.04-.143a22.86 22.86 0 00-.62-2.052 24.035 24.035 0 00-3.28-6.191c-4.06-5.482-10.19-8.727-19.34-8.727z"/><path id="Shape_2" d="M2749.99 1045.5c2.76 0 5.01 2.23 5.01 4.99 0 2.69-2.12 4.89-4.78 5.01h-.21l-366 .5c-2.76 0-5.01-2.23-5.01-4.99 0-2.69 2.12-4.89 4.78-5.01h.21l366-.5zm-424.99.5a5.002 5.002 0 01.22 10H2127a5.002 5.002 0 01-.22-10H2325z"/></g><g id="Background" fill-rule="evenodd" clip-rule="evenodd" fill="#0089C5" fill-opacity=".25"><path id="Shape_3" d="M494.637 289.3a5 5 0 016.539-.162l.187.162 64.57 58.7H648c19.137 0 34.686 15.358 34.995 34.421L683 383v448c0 19.137-15.358 34.686-34.421 34.995L648 866H348c-19.137 0-34.686-15.358-34.995-34.421L313 831V383c0-19.137 15.358-34.686 34.421-34.995L348 348h82.066l64.571-58.7zM648 358H348c-13.669 0-24.776 10.97-24.997 24.587L323 383v448c0 13.669 10.97 24.776 24.587 24.997L348 856h300c13.669 0 24.776-10.97 24.997-24.587L673 831V383c0-13.669-10.97-24.776-24.587-24.997L648 358zm0 20a4.999 4.999 0 014.995 4.783L653 383v448a4.999 4.999 0 01-4.783 4.995L648 836H348a4.999 4.999 0 01-4.995-4.783L343 831V383a4.999 4.999 0 014.783-4.995L348 378h300zm-5 10H353v438h290V388zm-145 30c22.091 0 40 17.909 40 40 0 9.46-3.284 18.153-8.774 25.001A39.826 39.826 0 01538 508c0 9.46-3.284 18.153-8.774 25.001A39.826 39.826 0 01538 558c0 9.46-3.284 18.153-8.774 25.001A39.826 39.826 0 01538 608c0 9.46-3.284 18.153-8.774 25.001A39.826 39.826 0 01538 658a39.836 39.836 0 01-8.773 25A39.832 39.832 0 01538 708c0 9.46-3.284 18.153-8.774 25.001A39.826 39.826 0 01538 758c0 22.091-17.909 40-40 40s-40-17.909-40-40a39.836 39.836 0 018.773-25A39.832 39.832 0 01458 708a39.836 39.836 0 018.773-25A39.832 39.832 0 01458 658a39.836 39.836 0 018.773-25A39.832 39.832 0 01458 608a39.836 39.836 0 018.773-25A39.832 39.832 0 01458 558a39.836 39.836 0 018.773-25A39.832 39.832 0 01458 508a39.836 39.836 0 018.773-25A39.832 39.832 0 01458 458c0-22.091 17.909-40 40-40zm24.002 322l-.379.282A39.812 39.812 0 01498 748a39.825 39.825 0 01-24.002-7.998A29.857 29.857 0 00468 758c0 16.569 13.431 30 30 30 16.569 0 30-13.431 30-30a29.867 29.867 0 00-5.998-18zM498 728a29.86 29.86 0 00-16.589 5A29.86 29.86 0 00498 738a29.86 29.86 0 0016.589-5A29.86 29.86 0 00498 728zm24.002-38l-.379.282A39.812 39.812 0 01498 698a39.825 39.825 0 01-24.002-7.998A29.857 29.857 0 00468 708a29.867 29.867 0 005.998 18A39.814 39.814 0 01498 718a39.825 39.825 0 0124.002 7.998A29.857 29.857 0 00528 708a29.867 29.867 0 00-5.998-18zM498 678a29.86 29.86 0 00-16.589 5A29.86 29.86 0 00498 688a29.86 29.86 0 0016.589-5A29.86 29.86 0 00498 678zm24.002-38l-.379.282A39.812 39.812 0 01498 648a39.825 39.825 0 01-24.002-7.998A29.857 29.857 0 00468 658a29.867 29.867 0 005.998 18A39.814 39.814 0 01498 668a39.825 39.825 0 0124.002 7.998A29.857 29.857 0 00528 658a29.867 29.867 0 00-5.998-18zM498 628a29.86 29.86 0 00-16.589 5A29.86 29.86 0 00498 638a29.86 29.86 0 0016.589-5A29.86 29.86 0 00498 628zm24.002-38l-.379.282A39.812 39.812 0 01498 598a39.825 39.825 0 01-24.002-7.998A29.857 29.857 0 00468 608a29.867 29.867 0 005.998 18A39.814 39.814 0 01498 618a39.825 39.825 0 0124.002 7.998A29.857 29.857 0 00528 608a29.867 29.867 0 00-5.998-18zM498 578a29.86 29.86 0 00-16.589 5A29.86 29.86 0 00498 588a29.86 29.86 0 0016.589-5A29.86 29.86 0 00498 578zm24.002-38l-.379.282A39.812 39.812 0 01498 548a39.825 39.825 0 01-24.002-7.998A29.857 29.857 0 00468 558a29.867 29.867 0 005.998 18A39.814 39.814 0 01498 568a39.825 39.825 0 0124.002 7.998A29.857 29.857 0 00528 558a29.867 29.867 0 00-5.998-18zM498 528a29.86 29.86 0 00-16.589 5A29.86 29.86 0 00498 538a29.86 29.86 0 0016.589-5A29.86 29.86 0 00498 528zm24.002-38l-.379.282A39.812 39.812 0 01498 498a39.825 39.825 0 01-24.002-7.998A29.857 29.857 0 00468 508a29.867 29.867 0 005.998 18A39.814 39.814 0 01498 518a39.825 39.825 0 0124.002 7.998A29.857 29.857 0 00528 508a29.867 29.867 0 00-5.998-18zM498 478a29.86 29.86 0 00-16.589 5A29.86 29.86 0 00498 488a29.86 29.86 0 0016.589-5A29.86 29.86 0 00498 478zm0-50c-16.569 0-30 13.431-30 30a29.867 29.867 0 005.998 18A39.814 39.814 0 01498 468a39.825 39.825 0 0124.002 7.998A29.857 29.857 0 00528 458c0-16.569-13.431-30-30-30zm0-128.243L444.932 348h106.135L498 299.757z"/><path id="Shape_4" d="M417.66 1087.63c21.112-30.29 60.78-34.26 90.863-27.89 23.258 4.93 30.773 28.93 31.833 43.68 7.216 2.43 14.2 5.4 20.616 8.82 17.927 9.55 26.886 19.83 31.32 28.23 62.092 19.25 102.099 48.85 118.896 88.03 20.05 46.76-.724 89.32-1.619 91.11a4.978 4.978 0 01-4.236 2.76l-.236.01H310.256a5 5 0 01-4.892-3.96l-.063-.36c-.333-2.07-3.564-23.23-1.179-51.31l.144-1.63c2.47-26.78 10.774-64.26 35.99-94.02 19.219-22.68 45.343-37.79 77.978-45.21-1.077-2.56-2.296-5.83-3.272-9.47-3.161-11.77-2.228-21.72 2.698-28.79zm45.656 42.99c-51.175 1.18-89.98 16.94-115.391 46.9-39.788 46.91-35.385 115.79-33.344 134.31l.061.55h387.19l.248-.62c4.194-10.53 15.06-44.15-.139-79.45-14.987-34.81-50.462-61.69-105.47-79.99 3.193 13.68 1.675 24.66-.278 31.65 13.394 4.92 25.293 10.42 35.599 16.48a4.999 4.999 0 01-2.541 9.31c-.861 0-1.734-.22-2.53-.69-23.219-13.66-55.069-24.42-94.667-31.99-22.743-4.34-43.754-6.54-62.451-6.54-28.335 0-51.704 5.07-69.456 15.08a4.992 4.992 0 01-6.811-1.9 5 5 0 011.899-6.81c18.212-10.27 41.568-15.74 69.467-16.32-2.753-12.34-2.727-22.22-1.386-29.97zm183.036 85.8a4.99 4.99 0 017.061-.38c8.273 7.42 14.686 15.52 19.059 24.06a5.002 5.002 0 01-2.173 6.73 4.9 4.9 0 01-2.275.55c-1.817 0-3.57-.99-4.455-2.72-3.813-7.45-9.477-14.58-16.836-21.18a5.001 5.001 0 01-.381-7.06zm-267.046-28.2a4.999 4.999 0 017.059.42c1.834 2.06 1.646 5.22-.418 7.06a76.874 76.874 0 00-7.329 7.46 4.98 4.98 0 01-3.803 1.75c-1.15 0-2.305-.39-3.247-1.2a5 5 0 01-.552-7.05 86.53 86.53 0 018.29-8.44zm127.75-81.78c-15.859-1.4-24.233 6.27-27.817 10.96-9.489 12.42-7.199 31.18-4.262 43.21 3.427.08 6.915.21 10.476.41l-.396-1.49c-2.611-10.17-5.14-26.54 2.129-36.06l.276-.35c2.932-3.64 8.517-7.61 18.724-6.72 32.014 2.79 64.634 19.94 69.807 36.7 3.342 10.83 2.476 19.35 1.177 24.56 3.265.97 6.444 1.98 9.563 3.01l.164-.64c1.65-6.61 2.64-16.95-1.348-29.88-6.406-20.75-39.844-37.78-70.204-42.67a5.132 5.132 0 01-1.473-.23c-2.296-.34-4.574-.62-6.816-.81zm-1.739 19.92c-7.268-.64-9.464 2.24-10.184 3.18-5.34 6.99-1.641 23.85.986 32.3 11.992 1.11 24.615 2.9 37.812 5.42 11.894 2.27 23.103 4.84 33.644 7.69.895-3.75 1.53-10.26-1.137-18.9-1.282-4.15-7.272-11-20.242-17.77-12.207-6.37-27.107-10.72-40.879-11.92zm1.132-56.83c-26.949-5.72-62.268-2.46-80.586 23.82-5.84 8.38-1.114 22.98 2.381 30.54 2.942-.51 5.935-.96 8.975-1.35l-.445-.63c-4.075-5.79-8.637-14.66-2.64-25.17.078-.14.163-.27.254-.4 15.804-22.46 49.715-25.48 72.065-15.41 6.928 3.13 11.562 9.15 13.326 17.16 3.363.61 6.737 1.35 10.098 2.22-.462-3.08-1.267-6.89-2.671-10.79-4.037-11.2-11.02-17.93-20.757-19.99zm-4.105 20.52c-18.739-8.45-47.102-5.68-59.637 11.85-3.212 5.82-.68 10.39 3.502 15.97l.673.89c.672.88 1.313 1.73 1.892 2.57 5.628-.44 11.417-.69 17.35-.76 1.606-4 3.496-7.05 5.168-9.24l.298-.38c4.985-6.35 16.131-16.25 36.338-14.48l.864.09c-1.21-2.62-3.2-5.04-6.448-6.51zM922.748 921c15.824 0 27.758 22.343 27.758 51.972 0 21.267-6.15 38.778-15.473 46.968 9.323 8.19 15.473 25.71 15.473 46.97 0 29.33-11.696 51.53-27.284 51.97H625.756c-14.876 0-26.304-19.74-27.623-46.72l-.037-.82h-12.219c-11.235 0-20.504-11.27-24.938-28.41l-.265-1.05H339.017a5 5 0 01-5-5c0-2.69 2.122-4.88 4.783-5h220.071c-.488-3.99-.752-8.17-.752-12.51 0-29.336 11.697-51.526 27.285-51.967l.473-.007h12.266c1.38-26.544 12.571-46.004 27.17-46.39l.443-.006h296.992zm0 103.94H642.535c6.754 9.3 10.978 24.35 10.978 41.97 0 17.37-4.101 32.23-10.682 41.56l-.296.41h280.213c8.383 0 17.758-17.94 17.758-41.97 0-23.78-9.188-41.61-17.506-41.96l-.252-.01zm-296.992 0c-3.999 0-8.225 3.99-11.593 10.94-3.976 8.21-6.165 19.23-6.165 31.03 0 11.81 2.189 22.83 6.165 31.04 3.368 6.95 7.594 10.93 11.593 10.93 3.999 0 8.224-3.98 11.592-10.93 3.975-8.21 6.165-19.23 6.165-31.04 0-11.8-2.19-22.82-6.165-31.03-3.368-6.95-7.593-10.94-11.592-10.94zm-39.879-47.544c-3.999 0-8.225 3.986-11.593 10.937-3.975 8.206-6.165 19.227-6.165 31.037 0 5.38.459 10.59 1.33 15.45l.179.97c.016.07.026.14.039.21 1.045 5.34 2.6 10.24 4.617 14.4 3.368 6.95 7.594 10.94 11.593 10.94 3.999 0 8.225-3.99 11.592-10.94 3.975-8.21 6.165-19.23 6.165-31.03 0-11.81-2.19-22.832-6.165-31.037-3.367-6.951-7.593-10.937-11.592-10.937zm-275.621 54.484a5 5 0 015 5c0 2.69-2.122 4.88-4.783 4.99l-.217.01H287a5 5 0 01-5-5c0-2.69 2.122-4.88 4.783-5h23.473zM625.756 931c-3.999 0-8.225 3.987-11.593 10.938-3.976 8.206-6.165 19.227-6.165 31.034 0 11.806 2.189 22.827 6.165 31.028 3.368 6.96 7.594 10.94 11.593 10.94 3.999 0 8.224-3.98 11.592-10.94 3.975-8.201 6.165-19.222 6.165-31.028 0-11.807-2.19-22.828-6.165-31.034-3.368-6.951-7.593-10.938-11.592-10.938zm296.992 0H642.535c6.754 9.299 10.978 24.345 10.978 41.972 0 17.367-4.101 32.228-10.682 41.558l-.296.41h280.213c8.383 0 17.758-17.947 17.758-41.968 0-23.783-9.188-41.612-17.506-41.967l-.252-.005z"/></g><g id="Master/Character/Frontal" transform="translate(941 180)"><g id="Master/Character/Frontal"><g id="Bodies" transform="translate(290 352)"><g id="Bodies/Blue A"><g id="Patterns"><path id="Mask" fill-rule="evenodd" clip-rule="evenodd" d="M362.086 371.318c20.533-11.706 39.739-27.408 50.11-48.647 10.37-21.241 10.15-48.77-5.117-66.814-13.151-15.546-34.279-21.415-54.265-25.314-65.534-12.782-133.492-13.013-199.11-.676-18.345 3.449-37.26 8.239-51.472 20.34-21.575 18.369-27.406 51.264-17.673 77.876 9.733 26.612 32.793 46.9 58.836 58.066 25.523 10.943 53.708 13.934 81.247 13.983 29.781.054 58.464.047 87.431-8.027 17.434-4.858 34.288-11.823 50.013-20.787" fill="#7192F0"/><mask id="mask0_203_4091723898522-aa4a-4b7d-abe0-8c4b11905554" style="mask-type:alpha" maskUnits="userSpaceOnUse" x="80" y="220" width="340" height="181" fill="#fff"><path id="Mask_2" fill-rule="evenodd" clip-rule="evenodd" d="M362.086 371.318c20.533-11.706 39.739-27.408 50.11-48.647 10.37-21.241 10.15-48.77-5.117-66.814-13.151-15.546-34.279-21.415-54.265-25.314-65.534-12.782-133.492-13.013-199.11-.676-18.345 3.449-37.26 8.239-51.472 20.34-21.575 18.369-27.406 51.264-17.673 77.876 9.733 26.612 32.793 46.9 58.836 58.066 25.523 10.943 53.708 13.934 81.247 13.983 29.781.054 58.464.047 87.431-8.027 17.434-4.858 34.288-11.823 50.013-20.787" fill="#fff"/></mask><g mask="url(#mask0_203_4091723898522-aa4a-4b7d-abe0-8c4b11905554)"><g id="Patterns_2"><g id="Group" fill="#fff"><path id="Path 51" d="M527.949 211.503l.102.994-500 51-.102-.994 500-51z"/><path id="Path 52" d="M28.06 295.504l500 60-.12.992-500-60 .12-.992z"/><path id="Path 53" d="M28.048 325.502l500 48-.096.996-500-48 .096-.996z"/><path id="Path 54" d="M28.014 383.5l500 14-.028 1-500-14 .028-1z"/><path id="Path 59" d="M28.02 283.5l500 20-.04 1-500-20 .04-1z"/></g></g></g></g><g id="Patterns_3"><path id="Mask_3" fill-rule="evenodd" clip-rule="evenodd" d="M173 432.67c6.305-16.93 21.413-25.616 45.304-29.306 22.39-3.457 62.495-5.522 85.319-4.151 17.587 1.057 30.691 5.28 41.19 15.453 26.62 25.796-16.585 50.946-46.081 59.734-29.828 8.888-74.515 9.156-101.758-4.156-16.55-8.087-29.462-22.837-23.974-37.574" fill="#418FE7"/><mask id="mask1_203_4091723898522-aa4a-4b7d-abe0-8c4b11905554" style="mask-type:alpha" maskUnits="userSpaceOnUse" x="171" y="398" width="183" height="83" fill="#fff"><path id="Mask_4" fill-rule="evenodd" clip-rule="evenodd" d="M173 432.67c6.305-16.93 21.413-25.616 45.304-29.306 22.39-3.457 62.495-5.522 85.319-4.151 17.587 1.057 30.691 5.28 41.19 15.453 26.62 25.796-16.585 50.946-46.081 59.734-29.828 8.888-74.515 9.156-101.758-4.156-16.55-8.087-29.462-22.837-23.974-37.574" fill="#fff"/></mask><g mask="url(#mask1_203_4091723898522-aa4a-4b7d-abe0-8c4b11905554)"><g id="Patterns_4"><g id="Group_2" fill="#fff"><path id="Path 49" d="M358.072 209.012l-6.984 291-1-.024 6.984-291 1 .024z"/><path id="Path 50" d="M325.479 499.976l-.998.048-13.968-291 .998-.048 13.968 291z"/><path id="Path 51_2" d="M305.107 499.949l-.994.102-29.682-291 .994-.102 29.682 291z"/><path id="Path 52_2" d="M256.218 209.06l-34.92 291-.993-.12 34.92-291 .993.12z"/><path id="Path 53_2" d="M238.76 209.048l-27.936 291-.996-.096 27.936-291 .996.096z"/><path id="Path 54_2" d="M205.006 209.014l-8.148 291-1-.028 8.148-291 1 .028z"/><path id="Path 55" d="M176.486 499.954l-.996.092-26.772-291 .996-.092 26.772 291z"/><path id="Path 59_2" d="M263.206 209.02l-11.64 291-1-.04 11.64-291 1 .04z"/></g></g></g></g><g id="Patterns_5"><path id="Mask_5" fill-rule="evenodd" clip-rule="evenodd" d="M120.01 191.589c-29.395-27.218-39.704-74.804-19.772-109.555 17.713-30.884 53.796-46.476 88.754-53.226 19.605-3.785 40.571-5.315 58.958 2.468 16.478 6.973 29.303 20.922 37.754 36.693 15.002 27.997 16.957 62.653 5.199 92.159-9.386 23.551-30.178 49.485-54.889 58.197-20.176 7.114-51.822 2.816-71.726-2.633-16.365-4.482-31.793-12.543-44.278-24.103" fill="#418FE7"/><mask id="mask2_203_4091723898522-aa4a-4b7d-abe0-8c4b11905554" style="mask-type:alpha" maskUnits="userSpaceOnUse" x="89" y="25" width="210" height="198" fill="#fff"><path id="Mask_6" fill-rule="evenodd" clip-rule="evenodd" d="M120.01 191.589c-29.395-27.218-39.704-74.804-19.772-109.555 17.713-30.884 53.796-46.476 88.754-53.226 19.605-3.785 40.571-5.315 58.958 2.468 16.478 6.973 29.303 20.922 37.754 36.693 15.002 27.997 16.957 62.653 5.199 92.159-9.386 23.551-30.178 49.485-54.889 58.197-20.176 7.114-51.822 2.816-71.726-2.633-16.365-4.482-31.793-12.543-44.278-24.103" fill="#fff"/></mask><g mask="url(#mask2_203_4091723898522-aa4a-4b7d-abe0-8c4b11905554)"><g id="Patterns_6"><g id="Group_3" fill="#fff"><path id="Path 48" d="M590.465 263.074l-.693.722L229.148-82.687l.693-.72 360.624 346.481z"/><path id="Path 49_2" d="M212.178-65.715l345.068 362.039-.724.69L211.454-65.025l.724-.69z"/><path id="Path 50_2" d="M526.108 327.412l-.672.74L154.912-8.431l.672-.74 370.524 336.583z"/><path id="Path 51_3" d="M501.339 352.143l-.632.775-389.616-317.49.632-.776 389.616 317.491z"/><path id="Path 52_3" d="M88.466 58.065l311.127 395.98-.786.618L87.68 58.683l.786-.618z"/><path id="Path 53_3" d="M67.245 79.27l319.613 387.494-.772.636L66.474 79.905l.771-.636z"/><path id="Path 54_3" d="M26.21 120.256l343.655 363.453-.727.687L25.484 120.943l.727-.687z"/><path id="Path 55_2" d="M345.072 508.417l-.639.769-386.08-321.027.639-.769 386.08 321.027z"/><path id="Path 56" d="M304.087 549.453l-.693.721-360.625-346.483.693-.721 360.625 346.483z"/><path id="Path 57" d="M281.458 572.079l-.691.723-361.332-345.775.692-.723 361.331 345.775z"/><path id="Path 59_3" d="M96.925 49.55l339.411 367.695-.734.678L96.19 50.228l.735-.678z"/></g></g></g></g><g id="Patterns_7"><path id="Mask_7" fill-rule="evenodd" clip-rule="evenodd" d="M300.791 200.575c-12.796-19.615-12.563-47.55 2.37-65.59 14.934-18.041 44.182-23.039 63.1-9.233 11.372 8.3 18.063 21.818 20.838 35.62 2.616 13.016 2.024 26.89-3.191 39.1-5.816 13.615-20.106 30.401-36.169 29.018-18.349-1.581-37.016-13.689-46.948-28.915" fill="#64BBF6"/><mask id="mask3_203_4091723898522-aa4a-4b7d-abe0-8c4b11905554" style="mask-type:alpha" maskUnits="userSpaceOnUse" x="291" y="117" width="98" height="113" fill="#fff"><path id="Mask_8" fill-rule="evenodd" clip-rule="evenodd" d="M300.791 200.575c-12.796-19.615-12.563-47.55 2.37-65.59 14.934-18.041 44.182-23.039 63.1-9.233 11.372 8.3 18.063 21.818 20.838 35.62 2.616 13.016 2.024 26.89-3.191 39.1-5.816 13.615-20.106 30.401-36.169 29.018-18.349-1.581-37.016-13.689-46.948-28.915" fill="#fff"/></mask><g mask="url(#mask3_203_4091723898522-aa4a-4b7d-abe0-8c4b11905554)"><g id="Patterns_8"><g id="Group_4" fill="#fff"><path id="Path 51_4" d="M286.252 89.05l.995-.1 17.85 174.999-.995.102-17.85-175z"/><path id="Path 52_4" d="M315.653 263.94l21-175 .993.12-21 175-.993-.12z"/><path id="Path 53_4" d="M326.152 263.952l16.8-175 .995.096-16.8 175-.995-.096z"/><path id="Path 54_4" d="M346.45 263.986l4.9-175 1 .028-4.9 175-1-.028z"/><path id="Path 55_3" d="M363.602 89.046l.996-.092 16.1 175-.996.092-16.1-175z"/><path id="Path 56_2" d="M383.9 89.01l1-.02 3.5 175-1 .02-3.5-175z"/><path id="Path 59_4" d="M311.45 263.98l7-175 .999.04-7 175-.999-.04z"/></g></g></g></g><g id="Patterns_9"><path id="Mask_9" fill-rule="evenodd" clip-rule="evenodd" d="M298.869 96.947c-12.468-17.475-11.84-43.16 1.427-60.036 13.267-16.875 37.04-19.552 57.01-11.676 19.968 7.876 32.506 26.63 30.803 48.028-3.684 46.293-62.474 61.199-89.24 23.684" fill="#7192F0"/><mask id="mask4_203_4091723898522-aa4a-4b7d-abe0-8c4b11905554" style="mask-type:alpha" maskUnits="userSpaceOnUse" x="289" y="21" width="100" height="98" fill="#fff"><path id="Mask_10" fill-rule="evenodd" clip-rule="evenodd" d="M298.869 96.947c-12.468-17.475-11.84-43.16 1.427-60.036 13.267-16.875 37.04-19.552 57.01-11.676 19.968 7.876 32.506 26.63 30.803 48.028-3.684 46.293-62.474 61.199-89.24 23.684" fill="#fff"/></mask><g mask="url(#mask4_203_4091723898522-aa4a-4b7d-abe0-8c4b11905554)"><g id="Patterns_10"><g id="Group_5" fill="#fff"><path id="Path 49_3" d="M273.012 24.016l227 5.448-.024 1-227-5.448.024-1z"/><path id="Path 50_3" d="M499.976 49.44l.048 1-227 10.895-.048-.998 227-10.896z"/><path id="Path 51_5" d="M499.949 65.333l.102.994-227 23.154-.102-.994 227-23.154z"/><path id="Path 52_5" d="M273.06 103.47l227 27.24-.12.992-227-27.24.12-.992z"/><path id="Path 53_5" d="M273.048 117.088l227 21.792-.096.996-227-21.792.096-.996z"/><path id="Path 59_5" d="M273.02 98.018l227 9.08-.04 1-227-9.08.04-1z"/></g></g></g></g></g></g><g id="Lower/Frontal" transform="translate(125 700)"><g id="Lower/Frontal/One Foot"><g id="Legs" fill-rule="evenodd" clip-rule="evenodd" fill="#001D2D"><path id="Leg2" d="M293.492 87.015a4 4 0 00-4.333 3.637c-5.916 67.733-3.317 144.907 5.553 226.388l.271 2.471c5.991 54.313 13.748 102.301 20.969 138.624a5.98 5.98 0 01-1.76 5.513l-.191.173-21.462 18.634c-6.915 6.004-2.779 17.316 6.28 17.542l.276.003h54.302c7.508 0 13.678-5.919 13.984-13.419l.265-6.364c1.869-44.197 4.716-95.693 8.633-146.682l.555-7.12c6.018-76.19 13.349-134.734 22.03-167.189a4 4 0 00-7.728-2.067c-9.121 34.097-16.674 95.605-22.833 175.763l-.563 7.42c-3.821 51.122-6.574 102.356-8.352 145.912a5.99 5.99 0 01-5.767 5.742l-.224.004h-54.302c-1.797 0-2.657-2.167-1.422-3.4l.111-.104 21.462-18.634a13.983 13.983 0 004.553-13.286l-.654-3.315c-6.992-35.699-14.428-82.203-20.21-134.627-9.035-81.913-11.73-159.467-5.806-227.286a4 4 0 00-3.637-4.333z"/><path id="Leg1" d="M584.578 73.612c30.055-3.706 55.51-3.558 77.379.983 51.252 10.644 82.457 45.623 92.924 110.622 5.383 33.424-8.716 60.308-39.229 80.681-25.675 17.143-62.47 29.403-107.715 37.374-36.445 6.421-76.939 9.784-117.11 10.505-29.261.525-56.881-.515-68.116-2.128l-.995-.151c-1.993-.322-4.008.491-5.3 2.166l-16.052 20.817-.185.234c-6.164 7.598-18.286 3.398-18.681-6.478l-2.567-63.937-.009-.306c-.184-8.459 6.059-16.136 14.223-15.951 38.392.867 73.786-6.391 115.958-22.064 11.365-4.224 23.046-8.96 37.766-15.24l4.189-1.793c1.24-.533 5.119-2.215 10.146-4.395 9.51-4.125 23.127-10.03 30.74-13.297l5.273-2.243 11.823-21.349.107-.183a4 4 0 016.891 4.059l-6.913 12.483a1061.194 1061.194 0 0116.605-6.701 4 4 0 112.929 7.445c-8.408 3.307-16.956 6.808-26.311 10.757l-.573.243a4.15 4.15 0 01-.331.14l-3.362 1.425c-6.373 2.711-22.703 9.793-33.652 14.542-3.453 1.497-6.371 2.763-8.273 3.586l-6.159 2.644c-14.133 6.029-25.507 10.655-36.502 14.776l-2.978 1.108c-42.453 15.649-78.458 22.937-117.554 22.055-3.237-.073-6.211 3.642-6.039 7.939l2.567 63.937.011.175c.226 2.47 3.078 3.382 4.526 1.504l16.052-20.818.212-.268c3.084-3.804 7.899-5.685 12.698-4.91 9.75 1.574 36.85 2.668 65.911 2.208l3.992-.072c39.054-.796 78.328-4.119 113.655-10.343 44.25-7.795 80.074-19.732 104.661-36.148 28.072-18.744 40.618-42.668 35.773-72.756-9.956-61.825-38.762-94.115-86.653-104.06-21.208-4.405-46.238-4.487-76.058-.716-24.284 3.07-50.938 8.504-85.26 17l-4.047 1.007a4 4 0 11-1.941-7.761c36.571-9.146 64.639-14.945 90.244-18.183l1.31-.163z"/></g></g></g><g id="Upper/Frontal" transform="translate(0 327)"><g id="Upper/Frontal/Raised Shoulders"><path id="Arms" fill-rule="evenodd" clip-rule="evenodd" d="M123.17 0c19.334 0 37.018 5.824 52.675 15.511 5.468 3.384 10.3 7.01 14.453 10.644a85.227 85.227 0 013.456 3.186l.369.364a40.91 40.91 0 011.391 1.434 4 4 0 01-5.774 5.53l-.397-.419c-.235-.247-.52-.537-.853-.868l-.674-.658a78.295 78.295 0 00-2.784-2.55c-3.836-3.356-8.319-6.72-13.395-9.861-14.473-8.954-30.748-14.315-48.467-14.315a3.999 3.999 0 110-7.998zm32.88 22.134c-12.494-4.82-27.121-6.98-43.528-5.007a3.999 3.999 0 10.955 7.941c15.043-1.808 28.368.159 39.694 4.528 2.915 1.125 5.457 2.325 7.604 3.516.737.41 1.368.785 1.891 1.116l.118.076c.112.072.203.13.272.177l.322.218a4 4 0 004.456-6.64c-.518-.367-1.388-.924-2.597-1.613l-.582-.328c-2.462-1.365-5.336-2.722-8.605-3.984zm77.096-3.74a3.999 3.999 0 00-5.655-.047c-15.119 14.863-19.537 37.5-11.094 56.926 5.713 13.141 12.491 29.404 20.11 48.174l2.378 5.871 2.938 7.291a5841.479 5841.479 0 0120.815 52.572l2.205 5.648a7788.28 7788.28 0 014.704 12.102l6.548 16.96c1.304 2.975 5.49 3.235 7.129.364a410.137 410.137 0 0128.655-43.505c18.468-24.496 38.251-45.123 58.021-61.998 6.908-5.896 13.315-10.898 19.055-15.022l.54-.386a180.2 180.2 0 013.898-2.712l.854-.572.738-.486.63-.408.434-.275a3.999 3.999 0 10-4.2-6.806c-.216.133-.539.337-.963.613l-1.065.7a180.062 180.062 0 00-4.512 3.107l-1.02.73c-5.918 4.25-12.5 9.389-19.581 15.433-20.196 17.238-40.381 38.284-59.216 63.267l-1.254 1.673a418.039 418.039 0 00-23.6 35.228l-.141.235-6.264-16.169-4.145-10.633c-7.733-19.789-15.526-39.475-22.984-57.957l-1.603-3.967-2.08-5.131c-6.779-16.682-12.886-31.362-18.167-43.614l-1.522-3.516c-7.123-16.387-3.394-35.489 9.366-48.034a3.999 3.999 0 00.048-5.655zM124.488 48.139l-.271.03c-.877.097-1.505.199-1.89.282a4 4 0 001.685 7.819l.395-.064c.127-.018.266-.037.418-.056l.491-.056c2.7-.28 6.41-.328 11.185.024 15.815 1.167 28.84 13.081 31.568 28.822 6.03 34.795 13.677 72.501 22.756 108.832 12.74 50.985 26.537 91.959 41.299 118.765 8.659 15.723 22.264 21.84 39.22 18.642 14.777-2.787 31.951-12.597 50.646-28.297 33.721-28.322 70.98-74.99 96.615-119.804a3.999 3.999 0 10-6.942-3.971c-25.193 44.04-61.868 89.977-94.817 117.65-17.738 14.897-33.81 24.078-46.984 26.562-13.615 2.568-23.769-1.998-30.732-14.641-14.061-25.532-27.415-64.868-39.789-113.835l-.757-3.01c-9.025-36.117-16.635-73.641-22.634-108.258-3.352-19.343-19.371-33.996-38.861-35.433-5.24-.386-9.424-.334-12.601-.003zm-10.423-13.207c13.877-3.333 26.951-2.223 38.492 1.653a59.253 59.253 0 016.289 2.502l.538.256a28.39 28.39 0 011.863.972 4 4 0 01-3.856 7.005l-.567-.31-.496-.256a36.317 36.317 0 00-.879-.427 51.357 51.357 0 00-5.439-2.16c-10.206-3.428-21.784-4.41-34.078-1.458a3.999 3.999 0 11-1.867-7.777zM956.11 48.098c-3.126-.294-7.177-.327-12.199.043-19.49 1.437-35.508 16.09-38.86 35.433-5.999 34.615-13.61 72.14-22.635 108.258-12.586 50.365-26.199 90.792-40.547 116.845-6.962 12.643-17.116 17.209-30.731 14.641-12.827-2.419-28.402-11.186-45.587-25.398l-1.397-1.164c-32.949-27.673-69.624-73.61-94.816-117.65a4 4 0 00-6.943 3.971c25.635 44.814 62.894 91.482 96.615 119.804 18.695 15.7 35.869 25.51 50.646 28.297 16.956 3.198 30.561-2.919 39.219-18.642 14.468-26.27 28.007-66.147 40.534-115.718l.766-3.047c9.079-36.332 16.727-74.039 22.756-108.832 2.728-15.74 15.753-27.655 31.568-28.821 4.775-.352 8.485-.306 11.185-.025.44.046.803.094 1.091.14l.077.012.338.062a4 4 0 001.483-7.857c-.424-.092-1.142-.206-2.161-.312l-.402-.04zM847.853 18.395a3.999 3.999 0 015.655-.049c15.12 14.864 19.538 37.5 11.094 56.927l-1.514 3.499c-5.383 12.49-11.639 27.539-18.596 44.678l-2.377 5.868-2.938 7.291a5816.174 5816.174 0 00-19.711 49.749l-4.766 12.216a7281.11 7281.11 0 00-5.42 13.974l-4.296 11.154c-1.207 3.151-5.534 3.484-7.207.553a410.204 410.204 0 00-28.654-43.503c-18.468-24.496-38.252-45.124-58.023-62-6.62-5.65-12.78-10.48-18.334-14.502l-.721-.52a182.817 182.817 0 00-4.871-3.389l-.925-.614-1.298-.836a3.999 3.999 0 114.2-6.806l.474.298c.288.184.653.42 1.091.709l.463.306c1.468.975 3.146 2.13 5.017 3.467l.516.37c5.917 4.25 12.499 9.39 19.58 15.434 20.197 17.238 40.382 38.285 59.218 63.268a418.268 418.268 0 0123.689 34.966l1.305 2.169 3.493-9.031 4.709-12.116 3.312-8.482a5792.373 5792.373 0 0119.739-49.818l2.943-7.303 2.381-5.88c7.643-18.827 14.444-35.147 20.186-48.358 7.124-16.387 3.395-35.489-9.366-48.034a3.999 3.999 0 01-.048-5.655zM966.935 34.93c-13.877-3.333-26.951-2.223-38.492 1.653a59.275 59.275 0 00-6.289 2.502 35.51 35.51 0 00-2.14 1.08l-.26.148a4 4 0 004.042 6.902l.07-.04.549-.292c.165-.085.343-.175.532-.268l.605-.29a51.248 51.248 0 015.438-2.16c10.205-3.428 21.783-4.41 34.077-1.458a4 4 0 001.868-7.777zM924.95 22.134c12.494-4.82 27.121-6.98 43.528-5.007a3.999 3.999 0 11-.955 7.941c-15.043-1.808-28.368.159-39.694 4.528-2.915 1.125-5.457 2.325-7.604 3.516l-.605.342c-.387.223-.739.433-1.055.63l-.733.472-.034.024a3.999 3.999 0 11-4.632-6.52l.264-.184c.626-.424 1.602-1.029 2.915-1.758 2.462-1.365 5.336-2.722 8.605-3.984zM961.829 4A3.998 3.998 0 00957.83.001c-19.335 0-37.019 5.824-52.675 15.511-5.469 3.384-10.3 7.01-14.454 10.644a83.753 83.753 0 00-3.825 3.55c-.534.53-.939.948-1.211 1.24l-.179.194a3.998 3.998 0 105.926 5.372l.392-.414c.204-.211.439-.45.706-.715l.673-.658a80.084 80.084 0 012.784-2.55c3.837-3.356 8.319-6.72 13.396-9.861C923.836 13.36 940.11 7.999 957.83 7.999A3.999 3.999 0 00961.829 4z" fill="#001D2D"/></g></g><g id="Heads" transform="translate(440 181)"><g id="Heads/Wide"><g id="Patterns"><path id="Mask" fill-rule="evenodd" clip-rule="evenodd" d="M57.366 40.325c-18.192 4.708-35.599 14.438-46.655 29.66C-.346 85.204-4.097 106.33 3.883 123.37c5.985 12.779 17.776 22.118 30.68 27.784 12.903 5.666 26.976 8.038 40.924 10.023 26.308 3.745 53.811 6.178 78.878-2.653 25.067-8.833 46.983-31.869 46.373-58.485-.471-20.63-14.375-39.258-32.042-49.865-31.134-18.693-76.995-18.736-111.33-9.85" fill="#FF996B"/><mask id="mask0_203_43638adb7771f-24af-4b13-adc4-494de073d748" style="mask-type:alpha" maskUnits="userSpaceOnUse" x="-1" y="34" width="202" height="131" fill="#fff"><path id="Mask_2" fill-rule="evenodd" clip-rule="evenodd" d="M57.366 40.325c-18.192 4.708-35.599 14.438-46.655 29.66C-.346 85.204-4.097 106.33 3.883 123.37c5.985 12.779 17.776 22.118 30.68 27.784 12.903 5.666 26.976 8.038 40.924 10.023 26.308 3.745 53.811 6.178 78.878-2.653 25.067-8.833 46.983-31.869 46.373-58.485-.471-20.63-14.375-39.258-32.042-49.865-31.134-18.693-76.995-18.736-111.33-9.85" fill="#fff"/></mask><g mask="url(#mask0_203_43638adb7771f-24af-4b13-adc4-494de073d748)"><g id="Patterns_2"><g id="Group" fill="#fff"><path id="Path 7" d="M291.108 147.73c-35.75 43.173-65.366 64.782-88.925 64.782-7.616 0-15.277-.656-23.861-1.945l-1.463-.225c-3.434-.537-7.043-1.176-11.206-1.971l-3.403-.66-11.429-2.284c-24.929-4.967-41.023-7.066-61.773-7.066-15.405 0-29.59 1.81-49.244 5.66l-2.823.562c-2.73.554-13.7 2.777-16.864 3.377l-1.451.272c-5.461 1.012-9.787 1.664-13.665 2.025-9.927.924-16.84-.139-21.737-3.789l-.28-.214.614-.789c4.577 3.562 11.163 4.674 20.743 3.847l.567-.05c4.012-.374 8.518-1.063 14.294-2.147l3.122-.604c5.315-1.05 15.266-3.072 15.078-3.034l1.112-.221c20.284-4.01 34.765-5.895 50.534-5.895 20.157 0 35.934 1.973 59.577 6.612l14.083 2.809c.772.151 1.507.294 2.234.434l1.78.34c4.366.827 8.127 1.477 11.749 2.022 8.538 1.283 16.149 1.934 23.712 1.934 22.938 0 51.993-21.032 87.09-63.138l1.065-1.282.77.638z"/><path id="Path 10" d="M291.105 138.504c-19.734 23.45-42.973 39.5-69.708 48.143-9.303 3.008-20.641 3.799-34.998 2.794l-2.171-.162c-9.154-.717-16.385-1.694-34.336-4.537l-14.022-2.23c-8.929-1.401-15.069-2.285-21.614-3.086-23.686-2.899-42.256-3.055-58.754.304l-.784.163c-36.693 7.751-60.54 4.588-71.5-9.602l-.329-.433.803-.596c10.402 14.012 33.629 17.343 69.722 9.882l1.097-.229c16.296-3.443 34.527-3.442 57.617-.75l2.249.269c6.886.842 13.321 1.776 23.007 3.304l15.711 2.497c16.515 2.594 23.294 3.462 32.513 4.147 14.65 1.088 26.136.335 35.481-2.686 26.251-8.487 49.11-24.165 68.581-47.044l.67-.792.765.644z"/><path id="Path 11" d="M290.751 125.993l-.056.998c-14.668-.815-26.248 3.123-42.829 12.872l-1.769 1.05c-.591.353-1.206.723-1.871 1.126l-6.374 3.881c-12.252 7.442-19.974 11.438-29.331 14.58-11.823 3.97-24.15 5.446-38.068 4.111l-.91-.091c-34.446-3.591-68.555-1.447-108.733 4.831l-2.802.444c-8.039 1.299-27.556 4.647-30.985 5.181-18.447 2.871-33.079-3.208-43.817-18.207l-.324-.457.818-.575c10.44 14.867 24.618 20.968 42.612 18.335l.557-.084c3.51-.547 23.973-4.059 31.593-5.279l.56-.089c40.42-6.401 74.686-8.683 109.224-5.238l1.401.143c14.147 1.475 26.61.038 38.556-3.973 8.724-2.93 16.029-6.616 27.024-13.215l8.876-5.392c.777-.47 1.489-.896 2.183-1.309l.346-.205c16.88-10.009 28.659-14.16 43.473-13.471l.646.033z"/><path id="Path 12" fill-rule="evenodd" clip-rule="evenodd" d="M38.232 131.534c9.525 1.232 17.242 3.995 20.967 7.778 4.372 4.441 3.128 9.949-4.271 15.872-14.462 11.577-28.714 15.634-39.956 12.395-10.349-2.981-16.81-11.935-16.81-23.244 0-10.495 19.29-15.49 40.07-12.801zm-22.983 35.084c10.897 3.14 24.826-.825 39.054-12.215 6.984-5.591 8.078-10.433 4.183-14.39-3.53-3.587-11.06-6.281-20.383-7.488-20.224-2.617-38.94 2.23-38.94 11.81 0 10.871 6.173 19.428 16.086 22.283z"/><path id="Path 12_2" fill-rule="evenodd" clip-rule="evenodd" d="M35.18 137.993c6.03.788 10.921 2.556 13.3 4.998 2.836 2.91 2.027 6.529-2.703 10.354-9.142 7.393-18.17 9.989-25.308 7.912-6.592-1.918-10.708-7.682-10.708-14.948 0-6.836 12.243-10.039 25.419-8.316zm-14.431 22.304c6.79 1.976 15.492-.527 24.4-7.729 4.318-3.493 4.98-6.453 2.615-8.88-2.186-2.242-6.886-3.942-12.714-4.704-12.622-1.65-24.289 1.402-24.289 7.325 0 6.831 3.832 12.197 9.988 13.988z"/><path id="Path 12_3" fill-rule="evenodd" clip-rule="evenodd" d="M31.942 145.106c2.324.299 4.216.971 5.169 1.931 1.216 1.226.864 2.773-1.041 4.287-6.933 5.508-14.012 3.484-14.012-2.841 0-2.702 4.415-3.939 9.307-3.443l.577.066zm-8.884 3.377c0 5.373 6.043 7.1 12.39 2.058 1.487-1.182 1.687-2.059.953-2.799-.76-.766-2.464-1.371-4.586-1.644-4.559-.585-8.757.494-8.757 2.385z"/><path id="Path 13" d="M290.746 116.149l-.047.999-2.589-.115c-27.025-1.136-48.96.049-67.313 3.256-14.771 2.582-26.461 6.237-38.844 11.601l-.954.416c-3.276 1.438-15.893 7.362-19.088 8.736-12.923 5.556-23.442 7.726-37.846 6.868-20.361-1.213-34.626-5.358-51.13-13.334l-1.19-.582c-2.14-1.067-11.339-5.706-14.09-6.988-9.984-4.651-17.932-6.782-27.635-6.782-20.934 0-36.25 6.956-46.005 20.866l-.312.451-.825-.565c9.937-14.501 25.67-21.752 47.142-21.752 9.626 0 17.556 2.063 27.32 6.536l.737.34c2.98 1.389 13.432 6.669 14.47 7.176 16.747 8.184 31.021 12.411 51.577 13.636 13.963.831 24.204-1.21 36.657-6.475l.735-.314c3.176-1.366 15.788-7.287 19.081-8.733 12.809-5.622 24.794-9.423 40.028-12.086 18.72-3.271 41.132-4.446 68.819-3.215l1.302.06z"/><path id="Path 14" fill-rule="evenodd" clip-rule="evenodd" d="M203.592 130.854c17.879-4.721 34.61-5.996 36.545-2.124 1.231 2.465-.531 5.251-4.659 8.354-2.843 2.137-6.755 4.389-11.651 6.814l-.204.1c-3.129 1.538-9.624 4.472-12.977 5.986a285.78 285.78 0 00-2.017.915l-.607.298c-5.045 2.458-12.035 4.952-18.056 5.936-9.204 1.504-15.438-.509-17.166-7.135-1.738-6.667 10.566-13.652 29.617-18.829l1.175-.315zm20.392 11.849c4.565-2.286 8.225-4.413 10.894-6.419 3.775-2.837 5.296-5.243 4.364-7.107-1.583-3.168-18.172-1.904-35.394 2.644l-.571.152c-18.765 5.027-31.038 11.909-29.509 17.773 1.561 5.986 7.278 7.831 16.037 6.4 6.122-1 13.307-3.607 18.303-6.106.122-.061.955-.438 2.191-.996 3.311-1.496 9.511-4.298 12.67-5.839l1.015-.502z"/><path id="Path 14_2" fill-rule="evenodd" clip-rule="evenodd" d="M198.776 137.715c9.688-2.544 18.641-3.222 19.755-1.005.728 1.449-.269 3.017-2.553 4.724-1.531 1.144-3.627 2.344-6.25 3.636l-.328.159c-1.747.843-5.018 2.312-6.724 3.078-.506.228-.875.393-1.024.462l-.507.245c-2.696 1.288-6.364 2.578-9.539 3.094-5.011.814-8.455-.291-9.416-3.955-.973-3.712 5.554-7.431 15.73-10.209l.856-.229zm11.45 5.987c2.136-1.089 3.866-2.107 5.153-3.069 1.93-1.442 2.684-2.628 2.258-3.474-.739-1.47-9.057-.886-17.799 1.315l-.808.208c-10.028 2.633-16.641 6.285-15.873 9.217.793 3.024 3.722 3.964 8.289 3.222 3.239-.526 7.049-1.901 9.694-3.216.067-.034.521-.238 1.192-.539 1.854-.833 5.364-2.411 6.954-3.194l.94-.47z"/><path id="Path 15" d="M290.872 107.557l-.298.955c-21.846-6.822-40.498-9.45-58.074-8.709l-1.422.067c-12.728.653-23.65 2.798-40.376 7.362l-2.217.609-7.333 2.041c-18.491 5.121-28.778 7.358-42.084 8.564l-.636.057c-18.108 1.585-37.226.212-59.375-4.788l-1.19-.271c-66.695-15.37-100.372-2.192-101.433 39.468l-.022 1.271-1-.009c.41-43.039 34.095-57.072 100.653-42.165l2.027.46c22.555 5.198 41.928 6.642 60.253 5.038l1.26-.115c12.723-1.193 22.808-3.377 40.412-8.233l8.536-2.374 1.889-.519c17.411-4.75 28.578-6.894 42.016-7.462 17.394-.734 35.825 1.809 57.301 8.408l1.113.345z"/><path id="Path 16" d="M304.025 88.034l-.781.625c-15.734-19.68-32.259-27.193-51.769-25.395-8.265.762-17.07 3.153-27.508 7.23l-1.302.514c-3.495 1.393-7.191 2.975-11.443 4.882l-2.437 1.1a887.224 887.224 0 00-3.956 1.815l-10.064 4.668c-25.067 11.589-40.241 17.095-57.69 19.52-43.921 6.104-94.663-2.291-152.225-25.174l-1.746-.698.373-.928c58.132 23.35 109.285 31.949 153.461 25.809l1.219-.175c16.618-2.464 31.433-7.852 55.311-18.857l11.884-5.507a682.736 682.736 0 013.836-1.753l2.419-1.088c4.458-1.99 8.314-3.621 11.996-5.06 10.518-4.108 19.409-6.522 27.781-7.293 19.656-1.812 36.366 5.678 52.163 25.171l.478.594z"/><path id="Path 17" d="M298.361 62.694l-.52.854c-12.336-7.513-25.416-12.286-46.751-14.465-30.53-3.117-70.584.917-122.228 14.12l-1.568.402C50.054 83.538-4.498 81.117-36.356 56.272l-.958-.76.628-.778c31.096 25.054 84.896 27.91 161.404 8.498l2.326-.595c52.51-13.55 93.182-17.71 124.148-14.548 21.194 2.164 34.344 6.885 46.65 14.29l.519.315z"/><path id="Path 18" fill-rule="evenodd" clip-rule="evenodd" d="M64.453 12.786c16.597 0 32.628 5.682 42.519 14.117 9.587 8.174 10.869 16.988 1.969 21.287-9.115 4.404-30.415 9.115-50.285 10.996l-1.384.127c-24.22 2.138-41.887-.133-47.33-7.587-12.18-16.676 18.925-38.94 54.51-38.94zm-6.581 45.469c19.957-1.826 41.54-6.572 50.634-10.965 8.09-3.908 6.935-11.852-2.182-19.627-9.708-8.277-25.508-13.877-41.871-13.877-34.923 0-65.17 21.65-53.704 37.35 5.144 7.045 22.583 9.286 46.435 7.18l.688-.061z"/><path id="Path 18_2" fill-rule="evenodd" clip-rule="evenodd" d="M63.346 27.312c11.114 0 21.852 2.875 28.49 7.15 6.546 4.217 7.461 8.973 1.288 11.225-6.052 2.209-20.108 4.568-33.302 5.535l-1.274.09c-16.245 1.083-28.056-.064-31.747-3.882-4.044-4.182-1.313-9.315 6.34-13.453 7.558-4.086 18.795-6.665 30.205-6.665zM59.113 50.27c13.292-.93 27.623-3.316 33.668-5.522 5.19-1.894 4.476-5.603-1.487-9.444-6.469-4.167-17.019-6.992-27.948-6.992-11.251 0-22.325 2.542-29.729 6.545-7.16 3.872-9.531 8.327-6.097 11.878 3.306 3.42 14.485 4.582 29.79 3.653l1.803-.118z"/><path id="Path 18_3" fill-rule="evenodd" clip-rule="evenodd" d="M76.034 39.197c1.558.766 2.533 1.6 2.75 2.456.263 1.045-.553 1.833-2.166 2.282-7.952 2.215-28.813 3.276-32.206.598-1.116-.881-1.318-1.987-.581-3.044.622-.891 1.903-1.734 3.703-2.477 3.675-1.517 9.125-2.471 14.657-2.471 5.393 0 10.606 1.065 13.843 2.656zm-31.002 4.551c3.044 2.403 23.672 1.353 31.318-.776l.196-.058c1.007-.31 1.355-.67 1.268-1.016-.123-.488-.906-1.157-2.22-1.803-3.091-1.52-8.155-2.554-13.403-2.554-5.408 0-10.73.932-14.276 2.396-1.639.676-2.775 1.423-3.264 2.124-.425.61-.331 1.125.38 1.687z"/><path id="Path 19" d="M304.057 51.163l-.843.538c-5.024-7.87-14.775-12.292-29.549-14.18l-.655-.081c-11.441-1.39-21.901-1.357-46.839-.393l-7.002.268c-8.396.31-14.335.457-20.132.465h-.544c-14.538 0-25.122-2.468-36.866-8.021l-.679-.324c-5.093-2.45-24.191-13.15-26.796-14.53-12.864-6.816-25.579-12.44-41.303-17.86a346.97 346.97 0 00-5.187-1.741C45.665-18.435 7.888-4.98-25.756 35.739l-1.018 1.242-.776-.63C6.596-5.64 45.133-19.662 87.973-5.648a355.23 355.23 0 015.202 1.747c15.324 5.282 27.806 10.76 40.339 17.339l1.47.778c3.676 1.988 21.528 11.974 26.398 14.317 11.661 5.61 22.048 8.15 36.286 8.244l1.91.001c5.071-.015 10.308-.137 17.26-.38l15.193-.571c20.835-.742 30.536-.665 41.099.619 15.185 1.845 25.335 6.293 30.693 14.357l.234.358z"/></g></g></g></g></g></g><g id="Eyes" transform="translate(500 251)"><g id="Eyes/Tiny"><path id="Fill 1" d="M75.53 28.9c3.189.532 6.683-1.098 8.139-3.984C86.888 18.535 79.472 13 73.598 15.7c-6.168 2.837-4.678 12.1 1.932 13.2" fill="#001D2D"/><path id="Fill 4" d="M24.92 28.9c-3.19.532-6.684-1.098-8.14-3.984C13.56 18.535 20.976 13 26.85 15.7c6.168 2.836 4.68 12.099-1.93 13.2" fill="#001D2D"/><path id="Fill 5" fill-rule="evenodd" clip-rule="evenodd" d="M32.592 37.556c-2.547.002-5.157.015-7.547.877-2.391.86-4.558 2.759-4.973 5.22-.38 2.251.783 4.549 2.497 6.096 1.713 1.545 3.914 2.46 6.106 3.237 12.753 4.517 26.878 5.246 40.046 2.065 2.638-.637 5.294-1.455 7.477-3.037 2.184-1.582 3.845-4.06 3.801-6.72-.063-3.821-3.633-6.885-7.43-7.766-5.151-1.195-11.83.013-17.208.002-7.59-.014-15.18.017-22.77.026" fill="#FFD6CE"/><path id="Fill 6" fill-rule="evenodd" clip-rule="evenodd" d="M30.088 44.086l10.259.3c3.408.084 6.809.173 10.203.185 3.393.035 6.778-.001 10.15-.08 3.372-.091 6.724-.251 10.077-.482l.029-.002c1.104-.077 2.082.524 2.185 1.34.088.697-.488 1.325-1.343 1.544-3.423.876-6.97 1.38-10.511 1.696-3.547.324-7.105.427-10.65.411-3.544-.042-7.078-.201-10.586-.528-3.507-.32-6.994-.773-10.416-1.464l-.005-.001c-1.07-.216-1.7-1.033-1.409-1.825.25-.68 1.103-1.12 2.017-1.094" fill="#E5A193"/></g></g><g id="Head Accesory" transform="translate(440)"><g id="Head Accesory/Cap"><path id="Fill 1" fill-rule="evenodd" clip-rule="evenodd" d="M111.985 154C77.141 154 58 169.852 58 199.969v.001h138.699a2.97 2.97 0 000-5.939h-57.877C139.985 176.21 146.829 154 111.985 154" fill="#FF7272"/></g></g></g></g><ellipse id="Shadow" cx="1481" cy="1368" rx="250" ry="20" fill="#0089C5" fill-opacity=".25"/><g id="Bubbles" transform="translate(1032 180)"><g id="Bubbles/Object"><path id="Bubble" d="M149.99 0c82.837 0 149.99 67.154 149.99 149.992 0 28.532-7.993 55.89-22.78 79.5l-.677 1.07 22.778 56.544c2.89 7.175-3.647 14.488-11.005 12.589l-.238-.064-.226-.067-63.057-19.529-1.102.631c-21.711 12.269-46.222 18.974-71.703 19.305l-1.034.01-.946.002C67.153 299.983 0 232.83 0 149.992 0 67.154 67.153 0 149.99 0z" fill="#E4EDF1"/><path id="Path" d="M149.99 12C73.78 12 12 73.781 12 149.992c0 75.448 60.55 136.754 135.672 137.973l2.281.019.909-.003c23.302-.145 45.876-6.077 65.968-17.236l.885-.496 5.629-3.219 62.761 19.436-23.027-57.165 3.486-5.439c13.998-22.039 21.416-47.493 21.416-73.87C287.98 73.781 226.199 12 149.99 12z" fill="#fff"/><g id="Object"><g id="Group 12"><mask id="mask0_203_430561671b92b-daf0-4c46-b505-f412d853c62b" style="mask-type:alpha" maskUnits="userSpaceOnUse" x="96" y="80" width="109" height="140" fill="#fff"><g id="masterstickerslight-bulb-mask-2" fill="#fff"><path id="Vector" d="M150.5 219.718c28.684 0 27.711-.002 28.236-23.292.448-19.92 26.264-19.92 26.264-61.691C205 98.725 174.263 80 150.5 80S96 98.725 96 134.735c0 41.771 24.382 41.771 25.158 61.691.908 23.283.658 23.292 29.342 23.292z" fill="#fff"/></g></mask><g mask="url(#mask0_203_430561671b92b-daf0-4c46-b505-f412d853c62b)"><path id="Mask" d="M150.5 219.538c28.684 0 27.711-.002 28.236-23.173.448-19.817 26.264-19.817 26.264-61.373 0-35.825-30.737-54.454-54.5-54.454S96 99.167 96 134.992c0 41.556 24.382 41.556 25.158 61.373.908 23.164.658 23.173 29.342 23.173z" fill="#FFE05F"/><path id="Path-117" d="M134.299 135.537a6.94 6.94 0 019.668-1.76 6.967 6.967 0 012.744 3.877l.074.297.191.838a.943.943 0 001.654.385l.073-.104 1.217-2.003c2.3-3.786 7.228-4.987 11.006-2.682a8.018 8.018 0 013.196 3.692l.125.309a2.636 2.636 0 004.431.823l.134-.162 1.076-1.418a5.624 5.624 0 017.891-1.073 5.648 5.648 0 012.132 5.488l-.048.239-11.869 52.891a3.023 3.023 0 01-3.611 2.29 3.028 3.028 0 01-2.319-3.444l.034-.174 11.454-51.047-.147.187a8.693 8.693 0 01-3.283 2.46l-.322.13c-4.481 1.708-9.496-.547-11.201-5.037a1.964 1.964 0 00-3.428-.458l-.089.134-1.218 2.004a6.989 6.989 0 01-4.412 3.185c-3.684.842-7.353-1.401-8.31-5.034l-.058-.234-.19-.837a.904.904 0 00-1.556-.404l-.071.089-.666.965a9.883 9.883 0 01-13.032 2.972l-.06-.036 13.47 50.848a3.028 3.028 0 01-1.975 3.652l-.17.051a3.02 3.02 0 01-3.645-1.979l-.051-.171-13.957-52.689a5.373 5.373 0 013.806-6.571 5.355 5.355 0 014.733 1.004l.195.165a3.847 3.847 0 005.437-.334l.146-.176.135-.184.666-.964z" fill="#fff"/><path id="Rectangle" d="M179 201.538h-58v4h58v-4z" fill="#fff"/><path id="Rectangle-Copy" d="M179 193.538h-58v4h58v-4z" fill="#fff"/><path id="Rectangle_2" d="M179 210.538h-58v3h58v-3z" fill="#fff"/></g></g></g></g></g><g id="Plants" transform="translate(2091 866)"><g id="Plants/Basic"><path id="Path 132" d="M202.814 16.485c8.998-10.573 23.027-9.858 31.333 1.595 8.306 11.453 7.745 29.308-1.253 39.88-21.17 24.871-31.061 48.286-31.297 70.637l-.004.818c0 39.759-16.788 81.02-48.85 124.642-9.624 13.095-26.278 11.595-34.358-3.096l-.517-.956c-8.306-15.618-18.251-46.6-31.11-95.421l-.808-3.075c-11.17-42.653-24.523-69.146-38.682-80.313l-.472-.366c-10.5-8.02-13.906-25.355-7.605-38.72 6.3-13.366 19.92-17.7 30.421-9.68 24.836 18.965 43.701 55.776 57.978 109.594l1.906 7.234c4.22 15.923 8.088 29.689 11.541 41.174l.528 1.75.371-.7c10.175-19.413 15.146-36.598 15.306-51.333l.004-.734c0-40.119 15.75-77.898 45.568-112.93z" fill="#82D1C4"/><path id="Path 132_2" d="M104.215 42.852c8.619-9.525 20.964-7.175 27.572 5.249C154.306 90.436 166 130.743 166 169.279c0 39.122-12.037 77.593-35.09 115.155-5.385 8.774-13.959 11.87-21.577 7.791-19.724-10.559-33.074-24.208-39.226-43.604-7.1-22.385-2.735-45.655 9.773-66.894l.44-.74c1.022-1.706 1.816-3.239 2.393-4.569l.202-.481-.048-.058c-.8-.966-1.851-2.024-3.158-3.14l-.445-.374c-4.074-3.372-9.846-6.751-17.244-9.95-10.403-4.498-16.306-20.3-13.185-35.295 3.12-14.994 14.084-23.503 24.487-19.005 21.68 9.375 36.447 21.598 44.185 39.655 9.657 22.537 8.988 41.281 9.157 22.465l.004-.956c0-24.453-8.408-53.434-26.095-86.686-6.608-12.424-4.978-30.217 3.642-39.741z" fill="#59BCAB"/><path id="Path 132_3" d="M104.131 25.782C107.643 9.62 119.979.448 131.685 5.297c11.706 4.848 18.348 21.881 14.837 38.044l-.614 2.853c-9.766 45.81-11.733 76.652-7.808 89.787l1.836 5.848c3.652 11.698 7.998 26.124 13.044 43.295l3.426 11.714.178-.579c1.749-5.844 2.605-12.52 2.669-20.222l.004-.929c0-28.332 9.632-51.04 27.547-63.106 14.642-9.862 33.729-12.005 57.744-7.961 12.131 2.043 20.766 17.277 19.287 34.028-1.479 16.75-12.513 28.673-24.644 26.63l-1.759-.284c-15.353-2.368-25.905-1.075-31.224 2.508-2.174 1.464-2.664 2.5-2.693 7.656l-.002.529c0 45.789-16.25 80.91-46.511 100.892-11.581 7.648-25.43.128-30.136-16.365l-4.816-16.82c-9.158-31.862-16.574-56.914-22.226-75.096l-2.147-6.844c-9.597-30.29-6.75-74.321 6.454-135.093z" fill="#42AB99"/><path id="Rectangle" fill-rule="evenodd" clip-rule="evenodd" d="M60 240h140v14.894a52.169 52.169 0 01-16.474 38.045A26.083 26.083 0 01165.68 300H94.32a26.086 26.086 0 01-17.846-7.061A52.169 52.169 0 0160 254.894V240z" fill="#E4EDF1"/><path id="Combined Shape" fill-rule="evenodd" clip-rule="evenodd" d="M182 254a4 4 0 00-4-4h-19l-.2.005A4 4 0 00159 258h19l.2-.005A4 4 0 00182 254zm4 14a4 4 0 00-4-4h-9l-.2.005A4 4 0 00173 272h9l.2-.005A4 4 0 00186 268zm-27 2a4 4 0 01.2 7.995l-.2.005h-13a4 4 0 01-.2-7.995l.2-.005h13zm11 18a4 4 0 00-4-4h-13l-.2.005A4 4 0 00153 292h13l.2-.005A4 4 0 00170 288z" fill="#B9CCD4"/></g></g><g id="Plants" transform="translate(2391 1120)"><g id="Plants/Fern"><g id="Group"><path id="Star Copy 2" d="M188 158.388c-5.285 11.028-21.677 8.431-23.296-3.69-8.435 8.855-23.222 1.32-21.016-10.708-10.758 5.815-22.493-5.92-16.678-16.678-12.028 2.206-19.563-12.581-10.708-21.016-12.121-1.619-14.718-18.01-3.69-23.296-11.028-5.285-8.431-21.677 3.69-23.296-8.855-8.435-1.32-23.222 10.708-21.016-5.815-10.758 5.92-22.493 16.678-16.678-2.206-12.028 12.581-19.563 21.016-10.708C166.323-.819 182.715-3.416 188 7.612c5.285-11.028 21.677-8.431 23.296 3.69 8.435-8.855 23.222-1.32 21.016 10.708 10.758-5.815 22.493 5.92 16.678 16.678 12.028-2.206 19.563 12.581 10.708 21.016 12.121 1.619 14.718 18.01 3.69 23.296 11.028 5.285 8.431 21.677-3.69 23.296 8.855 8.435 1.32 23.222-10.708 21.016 5.815 10.758-5.92 22.493-16.678 16.678 2.206 12.028-12.581 19.563-21.016 10.708-1.619 12.121-18.011 14.718-23.296 3.69z" fill="#42AB99"/><path id="Star Copy" d="M94 196.162c-4.358 9.093-17.874 6.952-19.209-3.043-6.955 7.302-19.148 1.089-17.329-8.829-8.87 4.795-18.547-4.882-13.752-13.752-9.918 1.819-16.13-10.374-8.83-17.329-9.994-1.335-12.135-14.851-3.042-19.209-9.093-4.358-6.952-17.874 3.043-19.209-7.302-6.955-1.09-19.148 8.83-17.329-4.796-8.87 4.88-18.547 13.751-13.752-1.819-9.918 10.374-16.13 17.329-8.83 1.335-9.994 14.85-12.135 19.209-3.042 4.358-9.093 17.874-6.952 19.209 3.043 6.955-7.302 19.148-1.09 17.329 8.83 8.87-4.796 18.547 4.88 13.752 13.751 9.918-1.819 16.131 10.374 8.829 17.329 9.995 1.335 12.136 14.851 3.043 19.209 9.093 4.358 6.952 17.874-3.043 19.209 7.302 6.955 1.089 19.148-8.829 17.329 4.795 8.87-4.882 18.547-13.752 13.752 1.819 9.918-10.374 16.131-17.329 8.829-1.335 9.995-14.85 12.136-19.209 3.043z" fill="#59BCAB"/><path id="Star" d="M150 272.388c-5.285 11.028-21.677 8.431-23.296-3.69-8.435 8.855-23.222 1.32-21.016-10.708-10.758 5.815-22.493-5.92-16.678-16.678-12.028 2.206-19.563-12.581-10.708-21.016-12.121-1.619-14.718-18.011-3.69-23.296-11.028-5.285-8.431-21.677 3.69-23.296-8.855-8.435-1.32-23.222 10.708-21.016-5.815-10.758 5.92-22.493 16.678-16.678-2.206-12.028 12.581-19.563 21.016-10.708 1.619-12.121 18.011-14.718 23.296-3.69 5.285-11.028 21.677-8.431 23.296 3.69 8.435-8.855 23.222-1.32 21.016 10.708 10.758-5.815 22.493 5.92 16.678 16.678 12.028-2.206 19.563 12.581 10.708 21.016 12.121 1.619 14.718 18.011 3.69 23.296 11.028 5.285 8.431 21.677-3.69 23.296 8.855 8.435 1.32 23.222-10.708 21.016 5.815 10.758-5.92 22.493-16.678 16.678 2.206 12.028-12.581 19.563-21.016 10.708-1.619 12.121-18.011 14.718-23.296 3.69z" fill="#82D1C4"/><path id="Rectangle" fill-rule="evenodd" clip-rule="evenodd" d="M80 240h140v14.894a52.169 52.169 0 01-16.474 38.045A26.083 26.083 0 01185.68 300h-71.36a26.085 26.085 0 01-17.846-7.061A52.169 52.169 0 0180 254.894V240z" fill="#E4EDF1"/><path id="Combined Shape" fill-rule="evenodd" clip-rule="evenodd" d="M199 253a4 4 0 00-4-4h-19l-.2.005A4 4 0 00176 257h19l.2-.005A4 4 0 00199 253zm4 14a4 4 0 00-4-4h-9l-.2.005A4 4 0 00190 271h9l.2-.005A4 4 0 00203 267zm-27 2a4 4 0 01.2 7.995l-.2.005h-13a4 4 0 01-.2-7.995l.2-.005h13zm11 18a4 4 0 00-4-4h-13l-.2.005A4 4 0 00170 291h13l.2-.005A4 4 0 00187 287z" fill="#B9CCD4"/></g></g></g></g></svg>