<svg viewBox="400 500 1250 1125" xmlns="http://www.w3.org/2000/svg" xmlns:xlink="http://www.w3.org/1999/xlink" overflow="visible" width="1250" height="1125"><defs><path d="M18.527 196.155C6.012 170.75-2.863 142.63 1.424 114.635 6.545 81.2 24.608 47.15 54.319 30.982c95.035-51.721 206.2-27.993 233.801-5.465 62.78 51.242 31.222 144.549-11.564 190.805-50.774 54.89-212.776 71.695-258.029-20.166" id="masterspot-illustrationsui-path-1"/><path d="M4.065 56.5c4.78 10.58 13.42 19.54 23.142 26.91 9.332 7.072 20.42 12.331 32.199 13.741 30.257 3.622 55.112-17.755 55.698-50.728C115.772 8.823 61.843.74 42.25.167 10.329-.763-8.832 27.96 4.065 56.5" id="masterspot-illustrationsui-path-3"/><path d="M36.14 8.777c-9.565 2.47-19.344 5.806-26.344 12.778-11.363 11.318-12.483 30.4-5.212 44.696 7.27 14.296 21.457 24.11 36.593 29.413 24.568 8.611 52.74 6.31 75.585-6.174 12.744-6.963 24.365-17.849 27.596-32.008 2.029-8.894.539-18.343-2.948-26.773C124.142-11.03 70.785-.165 36.14 8.777" id="masterspot-illustrationsui-path-5"/><path d="M43.467 1.65c-6.7.798-13.46 1.928-19.594 4.742C9.415 13.029.24 29.007.307 44.916c.023 5.199.96 10.475 3.397 15.068 3.521 6.632 9.906 11.345 16.727 14.482 13.802 6.349 29.456 6.955 44.642 7.377 20.163.56 41.305.768 59.23-8.478 6.585-3.398 12.683-8.17 16.326-14.622 3.089-5.473 4.25-11.868 4.275-18.154.036-8.776-2.172-17.751-7.418-24.787-9.28-12.446-23.35-11.718-37.168-13.62a223.777 223.777 0 00-56.85-.532" id="masterspot-illustrationsui-path-7"/><path d="M57.866 5.825c-18.193 4.708-35.6 14.438-46.655 29.66C.154 50.704-3.598 71.83 4.383 88.87c5.985 12.779 17.775 22.118 30.679 27.784s26.976 8.038 40.925 10.023c26.308 3.745 53.81 6.178 78.878-2.653 25.067-8.833 46.983-31.87 46.373-58.485-.471-20.63-14.375-39.258-32.042-49.865C138.062-3.018 92.2-3.06 57.866 5.825" id="masterspot-illustrationsui-path-9"/><path d="M9.415 1.563c-14.017-3.823-11 16 0 19s18 3 28 0c13.693-4.107 12.482-23.16 0-19-9 3-17 3-28 0z" id="masterspot-illustrationsui-path-11"/></defs><g id="Master/Spot Illustrations/UI" stroke="none" stroke-width="1" fill="none" fill-rule="evenodd"><g id="UI" transform="translate(404 521)" fill="#0089C5" fill-opacity=".25"><path d="M760 292c15.31 0 27.749 12.287 28 27.537V838c0 15.31-12.287 27.749-27.537 27.996L760 866h-50v44c0 15.31-12.287 27.749-27.537 28H28c-15.31 0-27.749-12.287-28-27.537V442c0-15.31 12.287-27.749 27.537-27.996L28 414h52v-94c0-15.31 12.287-27.749 27.537-28H760zM80 422H28c-10.93 0-19.813 8.769-20 19.656V910c0 10.93 8.769 19.813 19.656 20H682c10.93 0 19.813-8.769 20-19.656V866H108l-.463-.004c-.223-.003-.444-.01-.666-.018l-.569-.029-.633-.045-.557-.051-.533-.06-.656-.088-.766-.122-.243-.044-.842-.168-.49-.11-.699-.173-.599-.165-.337-.098-.797-.252-.58-.2-.518-.192-.607-.239-.443-.185-.527-.231-.612-.286-.687-.343-.46-.243-.556-.308-.443-.258-.607-.37-.44-.284-.599-.403-.29-.204-.676-.497-.584-.455-.43-.35-.226-.19-.26-.225-.705-.636-.446-.425-.267-.264-.565-.583-.176-.188-.402-.444-.292-.334-.468-.56-.394-.494-.366-.48-.376-.518-.468-.681-.297-.455-.177-.282-.385-.637-.192-.333a27.946 27.946 0 01-.347-.63l-.153-.29-.3-.598-.155-.322-.169-.363-.15-.338a27.819 27.819 0 01-.444-1.066l-.178-.469-.22-.616-.048-.143a27.78 27.78 0 01-1.217-5.218 28.2 28.2 0 01-.238-2.984L80 838V422zm700-62H88v478a20.301 20.301 0 00.084 1.842 19.86 19.86 0 00.506 3l.154.582.157.528.17.522a19.856 19.856 0 00.643 1.64l.17.37.176.367.139.275.142.272c.105.197.213.392.325.585l.306.513.198.314.204.31.162.238.27.381.132.18c.25.337.512.667.783.988l.149.173.15.172.23.256.235.252.22.227.395.394.167.159.243.226.332.297.134.115c.431.371.879.724 1.341 1.057l.468.327a19.899 19.899 0 0010.737 3.432L108 858h652c10.93 0 19.813-8.769 20-19.656V360zm-20-60H108c-10.93 0-19.813 8.769-20 19.656V352h692v-32c0-10.814-8.583-19.624-19.309-19.988l-.347-.01L760 300zm-646 12c7.732 0 14 6.268 14 14s-6.268 14-14 14-14-6.268-14-14 6.268-14 14-14zm40 0c7.732 0 14 6.268 14 14s-6.268 14-14 14-14-6.268-14-14 6.268-14 14-14zm40 0c7.732 0 14 6.268 14 14s-6.268 14-14 14-14-6.268-14-14 6.268-14 14-14zm-80 8a6 6 0 100 12 6 6 0 000-12zm40 0a6 6 0 100 12 6 6 0 000-12zm40 0a6 6 0 100 12 6 6 0 000-12z" id="Shape"/><path d="M214 993a5 5 0 110 10h-1a5 5 0 010-10h1zm21 20.999c5.522 0 10-4.477 10-10s-4.478-10-10-10c-5.524 0-10 4.477-10 10s4.476 10 10 10zm19.934 53.382a5 5 0 01-8.655-5.01l.5-.865a5 5 0 118.656 5.01l-.501.865zm-18.328 17.58a5 5 0 11-5-8.66l.865-.5a5 5 0 115 8.659l-.865.5zm-24.574 6.04a5 5 0 11-.006-10l1-.001a5 5 0 01.006 10h-1zm-24.401-7.06a5 5 0 015.007-8.656l.865.5a5 5 0 01-5.007 8.656l-.865-.5zm-17.582-18.319a5 5 0 018.658-5.004l.5.866a5 5 0 11-8.658 5.004l-.5-.866zm-6.05-24.575a5 5 0 1110-.01l.001 1a5 5 0 01-10 .01v-1zm7.053-24.405a5 5 0 018.658 5.005l-.501.866a5 5 0 01-8.657-5.005l.5-.866zm18.314-17.586a5 5 0 115.006 8.656l-.865.5a5 5 0 01-5.007-8.656l.866-.5zm24.572-6.057a5 5 0 01.013 10l-1 .001a5 5 0 11-.013-10l1-.001z" id="Oval"/><path d="M519 148c15.31 0 27.749 12.287 28 27.537V208c0 15.31-12.287 27.749-27.537 27.996L519 236H167c-15.31 0-27.749-12.287-28-27.537V176c0-15.31 12.287-27.749 27.537-27.996L167 148h352zm-180 8H167c-10.814 0-19.624 8.583-19.988 19.309l-.01.347L147 176v32c0 10.93 8.769 19.813 19.656 19.997L167 228h172v-72zm180 0H347v72h172c10.93 0 19.813-8.769 19.997-19.656L539 208v-32c0-10.93-8.769-19.813-19.656-19.997L519 156zm-260.172 20.172a4 4 0 01.151 5.497l-.15.16L248.656 192l10.171 10.172a4 4 0 01-5.497 5.807l-.16-.15L243 197.656l-10.172 10.171a4 4 0 01-5.807-5.497l.15-.16L237.344 192l-10.171-10.172a4 4 0 015.497-5.807l.16.15L243 186.344l10.172-10.171a4 4 0 015.656 0zm205 0a4 4 0 01.151 5.497l-.15.16-26 26a4 4 0 01-5.498.15l-.16-.15-9-9a4 4 0 015.498-5.808l.16.15 6.171 6.172 23.172-23.171a4 4 0 015.656 0zM1207 476.008c15.31 0 27.749 12.287 28 27.537v152.463c0 15.31-12.287 27.749-27.537 27.996l-.463.004H872c-15.31 0-27.749-12.287-28-27.537V504.008c0-15.31 12.287-27.749 27.537-27.996l.463-.004h335zm-215 8H872c-10.814 0-19.624 8.583-19.988 19.309l-.01.347-.002.344v152c0 10.93 8.769 19.813 19.656 19.997l.344.003h120v-192zm215 0h-207v192h207c10.93 0 19.813-8.769 19.997-19.655l.003-.345v-152c0-10.93-8.769-19.813-19.656-19.997l-.344-.003zm-245 161.5a4 4 0 01.2 7.995l-.2.005h-80a4 4 0 01-.2-7.995l.2-.005h80zm147.047-12.5l43 .5a4 4 0 01.106 7.997l-.2.003-43-.5a4 4 0 01-.106-7.997l.2-.003zm-26.047 0a4 4 0 01.2 7.995l-.2.005h-49a4 4 0 01-.2-7.995l.2-.005h49zm-121-8.5a4 4 0 01.2 7.995l-.2.005h-80a4 4 0 01-.2-7.995l.2-.005h80zm-40-124.5c29.823 0 54 24.177 54 54 0 15.213-6.29 28.957-16.413 38.771a4 4 0 01-2.124 1.953c-9.487 8.268-21.89 13.276-35.463 13.276s-25.976-5.008-35.463-13.276a4 4 0 01-1.018-.586 3.984 3.984 0 01-1.106-1.366C874.29 582.965 868 569.22 868 554.008c0-29.823 24.177-54 54-54zm112.08 95l25 .5a4 4 0 01.04 7.998l-.2.001-25-.5a4 4 0 01-.04-7.997l.2-.001zm75.944 0l83 .5a4 4 0 01.152 7.996l-.2.004-83-.5a4 4 0 01-.152-7.996l.2-.004zm-215.737-5.315l-.537.621a45.802 45.802 0 0028.25 9.694 45.802 45.802 0 0028.25-9.694c-18.842-21.977-36.593-22.4-55.393-1.268l-.57.647zM922 508.008c-25.405 0-46 20.595-46 46 0 11.876 4.5 22.7 11.888 30.861 22.363-25.814 45.86-25.814 68.223-.002C963.5 576.708 968 565.884 968 554.008c0-25.405-20.595-46-46-46zm112.054 49l37 .5a4.001 4.001 0 01.092 7.997l-.2.003-37-.5a4.001 4.001 0 01-.092-7.997l.2-.003zm74.976 0l67 .5a4 4 0 01.14 7.997l-.2.003-67-.5a4 4 0 01-.14-7.996l.2-.004zm-187.03-36c10.217 0 18.5 8.283 18.5 18.5s-8.283 18.5-18.5 18.5-18.5-8.283-18.5-18.5 8.283-18.5 18.5-18.5zm0 8c-5.799 0-10.5 4.701-10.5 10.5s4.701 10.5 10.5 10.5 10.5-4.701 10.5-10.5-4.701-10.5-10.5-10.5zm161-9.5a4 4 0 01.2 7.995l-.2.005h-49a4 4 0 01-.2-7.995l.2-.005h49zm102 0a4 4 0 01.2 7.995l-.2.005h-75a4 4 0 01-.2-7.995l.2-.005h75zM756 998c15.31 0 27.749 12.287 28 27.537V1058c0 15.31-12.287 27.749-27.537 27.996L756 1086H340c-15.31 0-27.749-12.287-28-27.537V1026c0-15.31 12.287-27.749 27.537-27.996L340 998h416zm0 8H340c-10.93 0-19.813 8.769-20 19.656V1058c0 10.93 8.769 19.813 19.656 19.997l.344.003h416c10.93 0 19.813-8.769 20-19.656V1026c0-10.93-8.769-19.813-19.656-19.997L756 1006zm-17 13c10.493 0 19 8.507 19 19s-8.507 19-19 19c-3.8 0-7.338-1.115-10.307-3.036l-8.865 8.864a4 4 0 01-5.807-5.497l.15-.16 8.865-8.864A18.911 18.911 0 01720 1038c0-10.493 8.507-19 19-19zm0 8c-6.075 0-11 4.925-11 11s4.925 11 11 11 11-4.925 11-11-4.925-11-11-11zm80-913c15.31 0 27.749 12.287 27.996 27.537L847 142v32c0 15.31-12.287 27.749-27.537 27.996L819 202H678.656l-32.828 32.828c-2.43 2.43-6.523.858-6.812-2.453l-.012-.186L639 232v-30h-4c-15.156 0-27.5-12.042-27.985-27.08l-.011-.457L607 174v-32c0-15.31 12.287-27.749 27.537-27.996L635 114h184zm0 8H635c-10.93 0-19.813 8.769-19.997 19.656L615 142v32c0 10.93 8.769 19.813 19.656 19.997L635 194h8a4 4 0 013.995 3.8l.005.2v24.342l27.172-27.17a4 4 0 012.377-1.146l.224-.02L677 194h142c10.93 0 19.813-8.769 19.997-19.656L839 174v-32c0-10.93-8.769-19.813-19.656-19.997L819 122zm2.198 25.597a4 4 0 01-.629 5.469l-.166.132-11.313 8.5a22.832 22.832 0 01-27.08.258l-.35-.258a14.832 14.832 0 00-17.53-.212l-.29.212a22.832 22.832 0 01-27.08.258l-.35-.258a14.832 14.832 0 00-17.53-.212l-.29.212a22.832 22.832 0 01-27.08.258l-.35-.258a14.832 14.832 0 00-17.53-.212l-.29.212a22.832 22.832 0 01-27.08.258l-.35-.258-11.313-8.5a4 4 0 014.633-6.52l.173.124 11.312 8.5a14.832 14.832 0 0017.53.212l.29-.212a22.832 22.832 0 0127.08-.258l.35.258a14.832 14.832 0 0017.53.212l.29-.212a22.832 22.832 0 0127.08-.258l.35.258a14.832 14.832 0 0017.53.212l.29-.212a22.832 22.832 0 0127.08-.258l.35.258a14.832 14.832 0 0017.53.212l.29-.212 11.312-8.5a4 4 0 015.6.795zM956 0c15.464 0 28 12.536 28 28v32l-.004.463C983.75 75.713 971.31 88 956 88h-4v30l-.004.19c-.15 3.436-4.35 5.113-6.824 2.638L912.344 88H764c-15.464 0-28-12.536-28-28V28c0-15.464 12.536-28 28-28h192zm0 8H764c-11.046 0-20 8.954-20 20v32c0 11.046 8.954 20 20 20h150l.227.006a4 4 0 012.601 1.166L944 108.342V84a4 4 0 014-4h8c11.046 0 20-8.954 20-20V28c0-11.046-8.954-20-20-20zm-16.175 30.044l.35.258 11.318 8.5a4 4 0 01-4.63 6.52l-.174-.124-11.318-8.5a14.848 14.848 0 00-17.543-.212l-.29.212a22.848 22.848 0 01-27.09.258l-.35-.258a14.848 14.848 0 00-17.542-.212l-.29.212a22.848 22.848 0 01-27.09.258l-.35-.258a14.848 14.848 0 00-17.543-.212l-.29.212a22.848 22.848 0 01-27.09.258l-.35-.258a14.848 14.848 0 00-17.833 0 4 4 0 01-4.804-6.396 22.848 22.848 0 0127.09-.258l.35.258a14.848 14.848 0 0017.543.212l.29-.212a22.848 22.848 0 0127.09-.258l.35.258a14.848 14.848 0 0017.543.212l.29-.212a22.848 22.848 0 0127.09-.258l.35.258a14.848 14.848 0 0017.542.212l.29-.212a22.848 22.848 0 0127.09-.258zm73.951 705.972a3.898 3.898 0 012.873 1.002l.18.17 40 40c.877.878 1.233 1.973 1.172 3.027L1058 948.016a4 4 0 01-3.8 3.995l-.2.005h-28v24a4 4 0 01-3.8 3.995l-.2.005h-24v24a4 4 0 01-3.8 3.995l-.2.005H848a4 4 0 01-3.995-3.8l-.005-.2v-188a4 4 0 013.8-3.995l.2-.005h24v-24a4 4 0 013.8-3.995l.2-.005h24v-36a4 4 0 013.8-3.995l.2-.005h109.776zM875.8 980.011l-.099-.006-.253-.027-.163-.026-.207-.043-.185-.048-.23-.074-.285-.113-.172-.082-.253-.139-.118-.073-.156-.106-.153-.115-.192-.161-.125-.117-.12-.12-.138-.156-.147-.183-.12-.168-.121-.19-.113-.203-.09-.185-.056-.128a3.971 3.971 0 01-.16-.465l-.023-.085a3.994 3.994 0 01-.113-.73l-.008-.252v-156h-20v180h138v-20H876l-.2-.005zM900 792.016h-20v180h138v-20H904l-.2-.005-.099-.006-.253-.027-.163-.026-.207-.043-.185-.048-.23-.074-.285-.113-.172-.082-.253-.139-.118-.073-.156-.106-.153-.115-.192-.161-.125-.117-.12-.12-.138-.156-.147-.183-.12-.168-.121-.19-.113-.203-.09-.185-.056-.128a3.971 3.971 0 01-.16-.465l-.023-.085a3.994 3.994 0 01-.113-.73l-.008-.252v-156zm109.999-40H908v192h142v-152h-36l-.2-.005-.247-.02-.185-.025-.217-.04-.184-.045-.19-.055-.216-.077-.234-.099-.194-.096-.18-.1-.118-.074-.156-.106-.153-.115-.109-.089-.208-.189-.12-.12-.138-.156-.147-.183-.13-.183-.111-.176-.086-.15-.117-.237-.057-.129a3.972 3.972 0 01-.16-.464l-.022-.085a3.994 3.994 0 01-.113-.73l-.008-.252-.001-36zm8.001 5.658v26.342h26.343L1018 757.674zM192 512c13.122 0 23.785 10.531 23.997 23.603L216 536v41c0 13.122-10.531 23.785-23.603 23.997L192 601h-41c-13.122 0-23.785-10.531-23.997-23.603L127 577v-41c0-13.122 10.531-23.785 23.603-23.997L151 512h41zm0 8h-41c-8.731 0-15.83 6.994-15.997 15.685L135 536v41c0 8.731 6.994 15.83 15.685 15.997L151 593h41c8.731 0 15.83-6.994 15.997-15.685L208 577v-41c0-8.731-6.994-15.83-15.685-15.997L192 520zm-40 13a4 4 0 013.995 3.8l.005.2v36h36a4 4 0 013.995 3.8l.005.2a4 4 0 01-3.8 3.995l-.2.005h-40a4 4 0 01-3.995-3.8L148 577v-40a4 4 0 014-4zm41.928.495a4 4 0 011.674 5.244l-.097.189-11 20a4 4 0 01-5.379 1.606l-.184-.104-6.297-3.779-6.067 12.138a4 4 0 01-5.18 1.876l-.187-.087a4 4 0 01-1.876-5.18l.087-.187 8-16a4 4 0 015.453-1.745l.183.104 6.438 3.864 9-16.362a4 4 0 015.432-1.577zM171 390c24.3 0 44 19.7 44 44s-19.7 44-44 44-44-19.7-44-44 19.7-44 44-44zm-13.608 52.102l.008.07C158.994 458.265 165.1 470 171 470c5.87 0 11.944-11.617 13.576-27.583-9.174.552-18.236.447-27.184-.315zm-22.068-3.258l.059.424c1.794 12.24 9.75 22.48 20.616 27.467-3.572-6.553-5.948-15.49-6.723-25.508a179.86 179.86 0 01-13.952-2.383zm71.198 1.038l-.982.165a206.83 206.83 0 01-12.86 1.715c-.816 9.8-3.17 18.537-6.679 24.974 10.684-4.905 18.554-14.885 20.52-26.854zM171 398l-.206.005c-6.727.31-13.654 15.751-13.792 35.398l-.002.632c9.201.842 18.534.955 27.999.34L185 434c0-19.93-6.999-35.682-13.794-35.995L171 398zm15.001 3.265l.168.31c4.225 7.925 6.731 19.225 6.828 31.677l.003.434a202.13 202.13 0 0013.927-1.994c-.856-13.537-9.195-25.042-20.926-30.427zM156 401.264l-.037.018c-11.402 5.249-19.59 16.282-20.806 29.34a172.148 172.148 0 0013.848 2.497c.115-12.564 2.684-23.945 6.995-31.855z" id="Shape"/><path d="M936.492 240.216a4.185 4.185 0 015.293 5.293l-21.843 65.527a4.185 4.185 0 01-6.928 1.636l-17.334-17.333-20.793 20.793a6.377 6.377 0 01-9.26-8.765l.24-.254 20.793-20.793-17.332-17.333a4.185 4.185 0 01-.204-5.7l.204-.218c.46-.46 1.02-.805 1.636-1.01l65.528-21.843z" id="Cursor"/></g><g id="Arm1" transform="matrix(-1 0 0 1 1380 857)" stroke="#001D2D" stroke-linecap="round" stroke-linejoin="round" stroke-width="8"><path d="M379 222.384C318.222 328.892 194.819 459.49 153.975 385.141c-40.541-73.797-69.675-226.165-79.75-284.445-3.8-21.981-21.952-38.733-44.144-40.374-11.73-.867-17.081.29-17.081.29" id="Stroke-1"/><path d="M352 114.475S271.061 164.578 208.763 274c0 0-45.498-119.2-74.864-186.967-9.769-22.544-4.643-48.8 12.83-66.033" id="Stroke-3"/><path d="M58 50S34.556 35.346 3 43.435" id="Stroke-5"/><path d="M65 35S40.36 16.85 0 21.881" id="Stroke-7"/><path d="M100 37S66.102 0 13 0" id="Stroke-9"/></g><g transform="translate(361 388)" id="Master/Character/Bust"><defs><path d="M256.963 311.34C443.936 235.343 398.48-.581 230.905.812 63.331 2.205 24.21 38.512 3.469 128.569c-22.704 98.585 66.52 258.767 253.494 182.77" id="mastercharacterbust-path-1"/><path d="M307.298 52.903C306.186-19.451 7.358-14.002.92 51.547c-6.437 65.549 47.515 73.297 111.678 69.357 54.479-3.345 195.812 4.353 194.699-68.001" id="mastercharacterbust-path-3"/><path d="M32.885 134.865C10.36 118.804-3.667 90.08 1.584 62.998c4.33-22.33 20.924-41.08 41.07-51.8C63.03.358 87.497-3.024 109.83 2.861c22.333 5.884 42.188 21.21 52.603 41.738 10.415 20.53 10.902 45.997.412 66.488-17.619 34.411-61.393 46.752-97.026 38.387-11.771-2.764-23.083-7.586-32.934-14.61" id="mastercharacterbust-path-5"/><path d="M9.415 1.563c-14.017-3.823-11 16 0 19s18 3 28 0c13.693-4.107 12.482-23.16 0-19-9 3-17 3-28 0z" id="mastercharacterbust-path-7"/></defs><g id="Master/Character/Bust" stroke="none" stroke-width="1" fill="none" fill-rule="evenodd"><g id="Bodies" transform="translate(290 534)"><defs><path d="M257.463 310.84C444.436 234.843 398.98-1.081 231.405.312 63.831 1.705 24.71 38.012 3.969 128.069c-22.704 98.585 66.52 258.767 253.494 182.77" id="bodiespurple-b-path-1"/><path d="M307.798 52.403C306.686-19.951 7.858-14.502 1.42 51.047c-6.437 65.549 47.515 73.297 111.678 69.357 54.479-3.345 195.812 4.353 194.699-68.001" id="bodiespurple-b-path-3"/></defs><g id="Bodies/Purple B" stroke="none" stroke-width="1" fill="none" fill-rule="evenodd"><g id="Patterns" transform="translate(60.5 143.5)"><mask id="bodiespurple-b-mask-2" fill="#fff"><use xlink:href="#bodiespurple-b-path-1"/></mask><use id="Mask" fill="#7344BE" xlink:href="#bodiespurple-b-path-1"/><g mask="url(#bodiespurple-b-mask-2)" id="Group"><g transform="rotate(90 337.5 194)" fill="#FFF" fill-rule="nonzero"><path d="M499.496 58.935c13.99 107.257 33.639 178.527 58.91 213.774 38.235 53.328 13.91 214.995-43.283 284.537l-1.743 2.079-.76-.65c58.164-68.022 83.297-231.933 44.974-285.384-25.142-35.065-44.685-105.392-58.668-211.015l-.422-3.211.992-.13z" id="Path-4"/><path d="M486.5 58.97c5.33 87.963 18.657 167.926 39.98 239.888 21.157 71.408 8.285 162.727-38.59 273.961l-1.43 3.377-.92-.392c47.959-112.57 61.276-204.79 39.98-276.662-21.13-71.318-34.416-150.475-39.857-237.473l-.162-2.639.998-.06z" id="Path-5"/><path d="M496.756 291.693c-11.76 2.752-18.724 36.88-19.272 83.324-.522 44.207 5.075 84.816 14.138 95.31 9.076 10.509 16.606 6.57 22.59-9.36l.181-.487c4.796-13.031 8.553-33.103 12.103-61.418 2.97-23.693 1.829-51.886-3.046-73.323-5.426-23.86-14.723-36.847-26.694-34.046zm25.719 34.268c4.848 21.32 5.985 49.396 3.029 72.977l-.371 2.925c-3.391 26.382-6.995 45.324-11.513 57.818l-.165.454c-5.793 15.737-12.55 19.41-21.077 9.538-8.835-10.23-14.413-50.706-13.894-94.645.54-45.818 7.47-79.78 18.5-82.361 11.197-2.62 20.176 9.923 25.491 33.294z" id="Path-6"/><path d="M502.552 324.485c-6.256 1.795-9.886 23.253-10.238 52.756l-.01.896c-.273 28.41 2.657 54.484 7.428 61.259 2.539 3.605 4.984 4.688 7.23 3.19 1.945-1.295 3.621-4.518 5.133-9.556l.242-.824c2.399-8.388 4.3-21.026 6.098-38.622 1.556-15.219.958-33.326-1.596-47.097-2.863-15.441-7.783-23.869-14.287-22.002zm13.304 22.184c2.536 13.675 3.13 31.687 1.584 46.813l-.36 3.442c-1.747 16.318-3.613 28.059-5.942 35.819-1.449 4.826-3.04 7.886-4.73 9.012-1.69 1.126-3.592.283-5.858-2.935-4.552-6.463-7.458-31.985-7.253-59.829l.007-.844c.282-29.26 3.915-51.091 9.524-52.701 5.622-1.614 10.27 6.347 13.028 21.223z" id="Path-6"/><path d="M478.547 268.676l-3.557 17.797c-7.985 40.1-11.412 66.157-11.489 99.379L463.5 387c0 25.331 3.004 48.632 9.396 81.12l5.554 27.667c.273 1.384.5 2.547.657 3.379l.5 2.672c1.557 8.435 2.58 15.196 3.17 21.257l.06.625c1.501 16.146-.237 27.347-6.178 35.24l-.264.347-.79-.614c5.963-7.667 7.738-18.726 6.236-34.88l-.122-1.248c-.595-5.87-1.597-12.429-3.096-20.548l-.798-4.218c-1.445-7.426-5.288-26.363-5.39-26.86l-.774-3.92c-6.146-31.446-9.081-54.324-9.16-79.004L462.5 387c0-33.467 3.343-59.505 11.236-99.343l3.396-16.982c.387-1.949.731-3.7 1.058-5.382l.717-3.729c1.42-7.462 2.526-13.828 3.445-19.952C484.44 227.71 485.5 215.316 485.5 203c0-37.427-34.23-84.746-102.733-141.88l-2.086-1.735.638-.77C451.425 116.703 486.5 164.805 486.5 203c0 12.37-1.064 24.813-3.159 38.76l-.256 1.68c-.913 5.908-2.007 12.106-3.391 19.336l-.712 3.682c-.14.72-.285 1.456-.435 2.218z" id="Path-7"/><path d="M407.6 59.3l.8-.6 1.664 2.21C437.087 96.626 456.467 114.5 468 114.5c11.392 0 14.728-18.04 9.661-54.324l-.156-1.105.99-.142C483.873 96.572 480.493 115.5 468 115.5c-11.987 0-31.493-17.982-58.723-53.974L407.6 59.3z" id="Path-8"/><path d="M433.474 58.842c5.957 17.87 14.864 29.086 26.707 33.692 5.72 2.225 8.884.718 9.827-4.62.95-5.381-.41-14.53-4.092-27.405l-.396-1.369.96-.28c4.02 13.736 5.53 23.463 4.512 29.227-1.057 5.994-4.894 7.821-11.173 5.379-12.008-4.67-21.028-15.9-27.07-33.648l-.223-.66.948-.316z" id="Path-9"/><path d="M366.322 58.618c38.07 32.059 64.124 69.804 78.154 113.228 4.896 15.155 6.168 33.656 4.504 57.12l-.159 2.154c-1.2 15.744-2.798 27.534-7.785 58.967l-3.04 19.104c-2.338 14.845-3.81 24.977-5.122 35.57l-.148 1.202c-4.738 38.739-4.972 69.078.578 96.046l.185.888c12.576 59.57 7.45 98.242-15.49 115.973l-.7.531-.597-.802c22.9-17.012 28.331-54.9 16.182-113.707l-.373-1.789c-5.642-26.724-5.586-56.665-1.084-94.713l.454-3.751c1.339-10.806 2.843-21.13 5.26-36.447l3.237-20.343c4.833-30.536 6.345-41.972 7.526-57.87 1.772-23.864.545-42.582-4.38-57.825-13.83-42.81-39.398-80.078-76.712-111.812l-1.134-.96.644-.764z" id="Path-10"/><path d="M346.5 58.972l1 .056c-1.323 23.791 5.014 42.598 20.687 69.363l1.472 2.492a728.993 728.993 0 003.367 5.592l5.284 8.676 1.59 2.631c11.073 18.406 17.208 30.499 22.078 45.009 6.472 19.288 8.859 39.403 6.633 62.14l-.114 1.12c-5.858 56.244-2.329 111.927 7.958 177.584l.902 5.643c2.278 13.956 7.307 43.306 8.137 48.645 4.649 29.886-5.184 53.565-29.466 70.96l-.74.526-.575-.818c24.265-17.051 34.23-40.233 29.928-69.622l-.23-1.496c-1.171-7.324-6.853-40.461-8.63-51.69-10.435-65.936-14.133-121.794-8.453-178.128l.175-1.707c2.401-23.054.06-43.368-6.473-62.839-4.993-14.877-11.333-27.216-23.04-46.555l-6.445-10.593c-1.22-2.013-2.25-3.73-3.247-5.411l-.976-1.658c-15.602-26.644-22.025-45.506-20.86-69.186l.039-.734z" id="Path-11"/><path d="M368.055 435.769c-6.087 5.996-10.556 18.489-12.55 33.917-4.349 33.623 3.723 64.814 20.495 64.814 18.245 0 32.675-10.417 37.48-27.112 5.233-18.176-1.332-41.253-20.09-64.7-9.523-11.904-18.267-13.88-25.335-6.92zm24.555 7.543c18.57 23.213 25.043 45.968 19.91 63.8C407.84 523.37 393.807 533.5 376 533.5c-15.856 0-23.78-30.62-19.504-63.686l.186-1.376c2.05-14.59 6.362-26.33 12.075-31.957 6.582-6.484 14.661-4.658 23.853 6.831z" id="Path-12"/><path d="M374.034 453.202c-3.906 3.809-6.759 11.703-8.032 21.448-2.776 21.255 2.382 40.986 13.207 40.986 11.674 0 20.918-6.606 23.996-17.19 3.344-11.5-.846-26.08-12.803-40.875-6.113-7.564-11.79-8.834-16.368-4.369zm15.59 4.998c11.767 14.56 15.864 28.814 12.62 39.967-2.95 10.147-11.796 16.469-23.035 16.469-9.912 0-14.92-19.156-12.215-39.857 1.246-9.541 4.03-17.246 7.738-20.861 4.096-3.994 9.112-2.872 14.893 4.282z" id="Path-12"/><path d="M380.613 471.69c-1.5 1.489-2.572 4.508-3.049 8.224-1.045 8.146.901 15.722 5.18 15.722 4.44 0 7.97-2.568 9.144-6.674 1.262-4.418-.31-9.985-4.772-15.606-2.357-2.968-4.662-3.493-6.503-1.666zm5.72 2.288c8.341 10.506 5.44 20.658-3.59 20.658-3.36 0-5.16-7.006-4.187-14.594.452-3.516 1.457-6.347 2.762-7.642 1.355-1.345 2.99-.973 5.014 1.578z" id="Path-12"/><path d="M330.5 58.977l1 .046-.135 2.982c-1.934 44.54-.02 80.623 5.245 110.775 4.23 24.216 10.232 43.35 19.06 63.668l.856 1.948c2.746 6.147 11.149 24.08 13.612 29.711l.223.513c9.013 20.975 12.53 38.036 11.138 61.41-1.978 33.233-8.762 56.46-21.836 83.44l-.54 1.108c-1.18 2.39-9.163 18.212-11.479 23.149l-.092.197C339.974 454.198 336.5 467.167 336.5 483c0 34.166 11.364 59.183 34.09 75.108l.693.48-.566.824C347.24 543.313 335.5 517.822 335.5 483c0-15.705 3.385-28.624 10.733-44.607l.601-1.293c2.507-5.313 10.668-21.48 11.472-23.127 13.32-27.272 20.202-50.526 22.195-84.003 1.381-23.207-2.104-40.115-11.059-60.955l-.482-1.103c-2.88-6.5-11.508-24.907-13.713-29.933-9.128-20.81-15.3-40.278-19.622-65.027-5.338-30.563-7.239-67.185-5.193-112.48l.069-1.495z" id="Path-13"/><path d="M350.776 141.553c-6.072 3.036-4.004 30.202 3.616 59.075 8.41 31.872 19.952 52.668 30.734 49.856 10.57-2.758 13.789-12.735 11.367-27.565-1.608-9.853-5.717-21.32-9.737-29.519l-.37-.753c-.82-1.757-8.195-18.281-11.376-24.709l-.758-1.518c-3.646-7.242-7.05-13.073-10.287-17.383-4.96-6.603-9.37-9.394-13.189-7.484zm12.39 8.085c3.305 4.4 6.806 10.442 10.57 17.984l.608 1.228c3.321 6.783 10.5 22.872 11.172 24.297l.037.077c4.075 8.15 8.322 19.864 9.954 29.857 2.348 14.384-.704 23.845-10.633 26.435-9.802 2.557-21.045-17.497-29.267-48.21l-.249-.934c-7.445-28.215-9.503-55.24-4.134-57.925 3.218-1.609 7.246.94 11.941 7.19z" id="Path-14"/><path d="M363.748 176.691c-3.315 1.667-2.328 15.632 1.55 30.818l.245.95c4.5 17.146 10.659 28.308 16.584 26.753 5.755-1.51 7.5-6.95 6.2-14.961-.847-5.215-2.99-11.264-5.105-15.642l-.278-.57c-.44-.953-4.343-9.744-6.03-13.172-2.091-4.25-4.034-7.645-5.879-10.116-2.692-3.604-5.12-5.15-7.287-4.06zm6.486 4.659c1.719 2.301 3.542 5.456 5.502 9.391l.574 1.17c1.867 3.881 5.582 12.262 5.773 12.645 2.15 4.327 4.395 10.553 5.256 15.855 1.229 7.567-.351 12.492-5.466 13.834-5.041 1.322-11.03-9.53-15.362-26.04l-.358-1.393c-3.614-14.384-4.555-27.92-1.956-29.227 1.564-.787 3.61.515 6.037 3.765z" id="Path-14"/><path d="M316.523 58.851l.954.298c-11.1 35.563-15.376 65.935-14.168 94.557l.073 1.62c1.018 20.99 4.493 38.837 11.97 66.282l1.373 4.985 2.733 9.815c8.533 30.758 12.211 47.603 14.181 69.582l.064.719c2.586 29.56.322 60.778-7.893 96.99l-.323 1.413c-25.019 108.636-3.516 163.62 64.444 165.352l2.074.036-.01 1c-70.406-.67-92.877-56.346-67.482-166.612 8.347-36.243 10.743-67.445 8.292-96.943l-.098-1.149c-1.864-21.3-5.292-37.627-13.13-66.195l-4.307-15.517-.883-3.217c-7.688-28.213-11.158-46.33-12.077-68.12-1.198-28.397 2.979-58.5 13.818-93.624l.395-1.272z" id="Path-15"/><path d="M284.688 37.61l.624.78c-32.066 25.654-44.323 52.631-41.39 84.47 1.24 13.475 5.133 27.823 11.77 44.824l.594 1.51c2.405 6.072 5.152 12.493 8.517 19.977l1.957 4.321c.676 1.483 1.383 3.024 2.155 4.7l7.88 17.003 2.211 4.813c17.32 37.906 25.71 61.718 29.49 88.923 9.912 71.374-3.724 153.846-40.898 247.416l-1.134 2.84-.928-.373c37.97-94.592 51.956-177.84 41.969-249.745-3.88-27.933-12.655-52.306-31.058-92.24l-7.645-16.495a1227.407 1227.407 0 01-4.056-8.858l-1.274-2.828c-3.457-7.717-6.258-14.315-8.712-20.6-6.667-17.081-10.584-31.515-11.834-45.097-2.935-31.86 9.193-58.937 40.798-84.565l.964-.776z" id="Path-16"/><path d="M243.573 46.74l.854.52c-5.187 8.522-9.023 16.102-12.754 26.333-5.108 14.007-8.816 30.38-10.8 49.833-5.071 49.692 1.49 114.871 22.956 198.897l.655 2.552c32.375 125.537 28.445 214.166-11.862 265.883l-1.233 1.556-.778-.628c41.21-51.18 45.536-140.032 12.905-266.561-22.016-85.367-28.773-151.479-23.638-201.8 1.993-19.535 5.719-35.989 10.855-50.074 3.636-9.969 7.372-17.442 12.34-25.684l.5-.827z" id="Path-17"/><path d="M185.37 358.05c-13.661 16.03-22.87 42.03-22.87 68.95 0 57.669 35.995 107.988 62.795 88.404 11.987-8.76 15.669-37.423 12.203-76.698-2.904-32.91-10.744-68.794-18.048-83.923-6.865-14.222-20.92-12.177-34.08 3.268zm33.18-2.833c7.241 15 15.058 50.777 17.952 83.577 3.433 38.908-.22 67.342-11.797 75.802C198.882 533.467 163.5 484.005 163.5 427c0-26.686 9.127-52.455 22.63-68.3 12.762-14.976 25.945-16.894 32.42-3.483z" id="Path-18"/><path d="M197.683 382.634c-6.916 10.744-11.573 28.149-11.573 46.166 0 18.507 4.18 36.732 10.795 48.974l.405.736c6.566 11.728 14.502 15.758 20.97 9.501 6.107-5.909 7.966-25.073 6.213-51.387l-.1-1.454c-1.542-21.61-5.41-44.788-9.023-54.693-3.549-9.732-10.952-8.306-17.687 2.157zm16.748-1.815c3.614 9.912 7.515 33.419 9.015 55.148l.049.724c1.731 25.974-.114 44.993-5.911 50.601-5.97 5.775-13.423 1.807-19.799-9.993-6.532-12.09-10.675-30.151-10.675-48.5 0-17.832 4.607-35.049 11.414-45.623l.389-.594c6.164-9.236 12.264-10.311 15.419-2.027l.099.264z" id="Path-18"/><path d="M209.183 403.998c-1.277.322-2.58 1.848-3.787 4.305-2.564 5.218-4.286 13.65-4.286 22.376 0 8.958 1.545 17.782 3.993 23.719 1.186 2.876 2.526 4.915 3.916 5.884 1.578 1.101 3.191.807 4.523-.882 2.304-2.92 2.99-12.18 2.34-24.953l-.094-1.717c-.603-10.147-1.981-20.787-3.273-25.43-.69-2.48-1.846-3.678-3.332-3.302zm2.368 3.57c3.488 12.53 5.198 46.153 1.206 51.213-1.013 1.284-2.035 1.47-3.166.681-1.199-.836-2.444-2.73-3.563-5.445-2.396-5.81-3.918-14.504-3.918-23.338 0-8.58 1.691-16.863 4.183-21.935 1.088-2.214 2.226-3.548 3.135-3.777.808-.204 1.56.575 2.123 2.6z" id="Path-18"/><path d="M224.73 37.579l.54.842c-12.942 8.269-20.175 24.312-23.23 48.604l-.092.746c-2.103 17.315-2.205 33.242-.95 67.985l.75 19.756c.515 14.011.752 23.81.752 33.488 0 23.708-4.039 40.925-13.135 60.092l-.399.835c-3.977 8.272-21.362 39.325-23.61 43.57-11.086 20.934-20.234 41.63-29.048 67.218a564.99 564.99 0 00-2.833 8.44c-22.372 68.433-.455 130.004 65.819 184.799l2.022 1.658-.632.776c-68.151-55.457-90.894-118-68.16-187.543a565.997 565.997 0 012.838-8.456c8.655-25.127 17.634-45.55 28.446-66.102l.908-1.714c3.047-5.654 19.507-35.088 23.35-43.08C197.377 250.122 201.5 232.897 201.5 209l-.003-1.853c-.03-9.49-.29-19.35-.815-33.41l-.6-15.66c-1.33-36.008-1.285-52.317.805-69.86l.068-.567c3.003-24.724 10.247-41.188 23.372-49.81l.404-.261z" id="Path-19"/><path d="M181.5 28c0 39.531-5.004 77.503-14.625 116.885l-.678 2.751c-7.2 28.956-15.791 55.375-30.541 96.154l-10.281 28.297a2615.09 2615.09 0 00-2.986 8.296l-.856 2.395c-4.692 13.162-8.491 24.27-11.884 34.876l-.328 1.025c-8.577 26.937-14.398 50.403-17.826 73.395-11.194 75.06 12.144 134.109 70.035 177.22l1.765 1.302-.59.808c-59.486-43.445-83.56-103.296-72.2-179.478 3.372-22.607 9.047-45.662 17.37-71.997l.494-1.553c3.154-9.905 6.649-20.203 10.884-32.166l1.338-3.767c.99-2.778 2.002-5.597 3.114-8.677l11.01-30.315c15.205-42.036 23.858-68.793 31.189-98.803 9.445-38.664 14.431-75.958 14.592-114.71L180.5 28h1z" id="Path-20"/><path d="M59 19.5c-22.402 0-40.5 23.754-40.5 53s18.098 53 40.5 53 40.5-23.754 40.5-53-18.098-53-40.5-53zm0 1c21.781 0 39.5 23.256 39.5 52s-17.719 52-39.5 52-39.5-23.256-39.5-52 17.719-52 39.5-52z" id="Oval"/><path d="M59-.5C26.114-.5-.5 32.203-.5 72.5s26.614 73 59.5 73c32.886 0 59.5-32.703 59.5-73S91.886-.5 59-.5zm0 1c32.283 0 58.5 32.215 58.5 72s-26.217 72-58.5 72S.5 112.285.5 72.5 26.717.5 59 .5z" id="Oval"/><path d="M59 31.5c-12.509 0-22.5 18.393-22.5 41s9.991 41 22.5 41 22.5-18.393 22.5-41-9.991-41-22.5-41zm0 1c11.792 0 21.5 17.872 21.5 40s-9.708 40-21.5 40-21.5-17.872-21.5-40 9.708-40 21.5-40z" id="Oval"/><path d="M152.5 46.996l1 .008c-.661 81.298-27.5 152.791-80.509 214.459l-1.614 1.865c-39.231 45.044-53.52 107.765-40.388 169.818 13.227 62.504 52.654 117.281 110.492 149.447l1.758.968-.478.878c-59.058-32.17-99.33-87.668-112.75-151.085-13.195-62.351 1.167-125.393 40.612-170.682 53.382-61.291 80.663-132.359 81.85-213.223l.027-2.453z" id="Path-21"/><path d="M135.498 46.959c7.276 87.968-17.568 145.893-74.548 173.661l-1.737.832-.426-.904c57.21-26.961 82.524-83.877 75.924-170.862l-.21-2.645.997-.082z" id="Path-22"/></g></g></g><g id="Patterns" transform="translate(97 26)"><mask id="bodiespurple-b-mask-4" fill="#fff"><use xlink:href="#bodiespurple-b-path-3"/></mask><use id="Mask" fill="#B164E7" xlink:href="#bodiespurple-b-path-3"/><g mask="url(#bodiespurple-b-mask-4)" id="Group"><g transform="translate(-49 -149)"><path d="M344.59 38.669c.436 36.703 7.424 68.162 20.963 94.378" id="Path-3" stroke="#FFF"/><path d="M327.397 38.604c9.162 70.27 22.028 116.96 38.562 140.03 25.1 35.023 9.151 141.065-28.363 186.698l-1.143 1.364-.76-.65c38.056-44.526 54.508-151.869 29.453-186.83-16.491-23.01-29.3-69.125-38.464-138.377l-.277-2.105.992-.13z" id="Path-4" fill="#FFF" fill-rule="nonzero"/><path d="M318.884 38.639c3.492 57.639 12.22 110.034 26.185 157.185 13.873 46.845 5.435 106.735-25.286 179.671l-.938 2.214-.92-.391c31.404-73.745 40.122-134.15 26.185-181.21-13.817-46.651-22.514-98.418-26.094-155.3l-.13-2.109.998-.06z" id="Path-5" fill="#FFF" fill-rule="nonzero"/><path d="M325.392 191.01c-7.83 1.833-12.398 24.228-12.759 54.776l-.016 1.738c-.178 28.34 3.463 54.059 9.32 60.843 6.117 7.086 11.233 4.304 15.21-6.506 3.148-8.557 5.611-21.722 7.938-40.292 1.949-15.548 1.2-34.046-1.998-48.116-3.574-15.722-9.72-24.31-17.695-22.444zm16.72 22.665c3.172 13.953 3.916 32.334 1.981 47.77l-.332 2.605c-2.184 16.844-4.508 28.995-7.405 37.059l-.147.406c-3.757 10.212-8.04 12.54-13.515 6.199-5.749-6.66-9.4-33.165-9.06-61.916l.025-1.786c.51-29.017 5.004-50.4 11.96-52.029 7.202-1.686 13.03 6.458 16.493 21.692z" id="Path-6" fill="#FFF" fill-rule="nonzero"/><path d="M329.18 212.503c-4.22 1.212-6.6 15.283-6.831 34.737l-.015 1.78c-.089 18.195 1.817 34.674 4.906 39.062 1.71 2.43 3.405 3.18 4.973 2.135 1.318-.878 2.431-3.02 3.432-6.357 1.651-5.503 2.941-13.958 4.16-25.885 1.02-9.99.629-21.875-1.047-30.917l-.164-.852c-1.915-9.676-5.125-14.934-9.413-13.703zm8.594 14.737c1.659 8.946 2.048 20.735 1.036 30.633l-.152 1.465c-1.168 11.097-2.411 19.038-3.97 24.234-.938 3.127-1.967 5.104-3.03 5.813-1.01.674-2.163.163-3.6-1.88-6.818-9.683-6.22-71.853 1.399-74.04 3.53-1.014 6.528 4.123 8.317 13.775z" id="Path-6" fill="#FFF" fill-rule="nonzero"/><path d="M310.36 187.594l2.246-11.233c.254-1.29.483-2.46.704-3.61l.362-1.898c.88-4.655 1.573-8.664 2.153-12.525 1.366-9.103 2.06-17.218 2.06-25.28 0-24.465-22.4-55.442-67.24-92.858l-1.366-1.136.638-.77c45.964 38.101 68.968 69.664 68.968 94.763 0 8.117-.698 16.28-2.071 25.43l-.24 1.558c-.53 3.4-1.155 6.959-1.919 11.002l-.974 5.038-2.34 11.714c-5.29 26.574-7.524 43.731-7.524 65.853 0 16.15 1.864 31.043 5.825 51.458l4.208 21.045.189.979c1.196 6.309 1.966 11.226 2.395 15.588l.05.521c.984 10.581-.15 17.947-4.037 23.158l-.219.288-.79-.614c3.875-4.983 5.031-12.192 4.05-22.74l-.102-1.038c-.38-3.674-1.004-7.768-1.92-12.774l-.549-2.926c-.917-4.737-3.634-18.126-3.589-17.901l-.45-2.278c-4.121-21.05-6.06-36.245-6.06-52.766 0-22.2 2.241-39.415 7.543-66.048z" id="Path-7" fill="#FFF" fill-rule="nonzero"/><path d="M240.093 38.287c24.965 21.032 42.052 45.797 51.253 74.29 3.203 9.918 4.044 22.01 2.97 37.326l-.224 2.965c-.722 8.986-1.719 16.474-4.362 33.286l-2.75 17.32c-1.514 9.655-2.464 16.255-3.325 23.293-3.088 25.263-3.253 45.068.33 62.664l.168.81c8.251 39.101 4.884 64.51-10.212 76.182l-.46.35-.597-.803c14.933-11.098 18.482-35.868 10.535-74.352l-.244-1.17c-3.726-17.655-3.663-37.442-.653-62.636l.265-2.171c.85-6.85 1.808-13.436 3.315-23.014l2.738-17.251c2.697-17.185 3.641-24.48 4.363-33.962l.053-.697c1.16-15.62.357-27.868-2.862-37.834-9.041-27.998-25.748-52.376-50.13-73.14l-.815-.692.644-.764z" id="Path-10" fill="#FFF" fill-rule="nonzero"/><path d="M226.825 38.641l.998.056c-.881 15.87 3.45 28.35 14.166 46.444l1.363 2.281c.403.671.835 1.384 1.31 2.168l3.32 5.454.866 1.431c7.372 12.238 11.436 20.225 14.656 29.826 4.23 12.61 5.8 25.758 4.372 40.604l-.093.93c-3.826 36.752-1.536 73.143 5.161 116.02l.605 3.795c1.474 9.05 4.819 28.58 5.368 32.111 3.055 19.651-3.413 35.235-19.373 46.674l-.487.346-.575-.818c15.843-11.139 22.344-26.268 19.535-45.465l-.227-1.45c-.91-5.606-4.447-26.264-5.577-33.406l-.51-3.262c-6.43-41.708-8.646-77.337-5.057-113.249l.143-1.399c1.57-15.085.04-28.374-4.233-41.113l-.372-1.091c-3.198-9.223-7.3-17.138-14.622-29.248l-4.306-7.081a420.163 420.163 0 01-2.127-3.548c-10.663-18.003-15.079-30.558-14.338-46.359l.034-.65z" id="Path-11" fill="#FFF" fill-rule="nonzero"/><path d="M240.997 285.483c-4.022 3.963-6.961 12.183-8.273 22.33-2.86 22.132 2.453 42.673 13.598 42.673 12.029 0 21.55-6.877 24.72-17.893 3.445-11.973-.872-27.153-13.192-42.56-6.296-7.874-12.14-9.196-16.853-4.55zm16.072 5.174c12.133 15.173 16.358 30.031 13.012 41.66-3.044 10.58-12.168 17.17-23.759 17.17-10.23 0-15.395-19.97-12.606-41.546 1.285-9.945 4.157-17.976 7.983-21.746 4.228-4.167 9.406-2.997 15.37 4.462z" id="Path-12" fill="#FFF" fill-rule="nonzero"/><path d="M244.914 296.908c-2.593 2.53-4.474 7.736-5.312 14.158l-.104.84c-1.59 13.702 1.822 26.217 8.927 26.217 7.723 0 13.847-4.379 15.885-11.39 2.209-7.598-.552-17.21-8.418-26.947-4.062-5.028-7.895-5.886-10.978-2.878zm10.2 3.507c7.676 9.502 10.343 18.788 8.236 26.038-1.912 6.576-7.638 10.67-14.925 10.67-6.271 0-9.524-12.203-7.884-25.516l.052-.412c.812-6.218 2.624-11.235 5.019-13.571 2.6-2.537 5.772-1.827 9.502 2.79z" id="Path-12" fill="#FFF" fill-rule="nonzero"/><path d="M249.223 309.026c-1.016 1.009-1.73 3.02-2.047 5.49-.697 5.435.603 10.499 3.564 10.499 6.704 0 8.85-7.511 3-14.882-1.602-2.018-3.227-2.388-4.517-1.107zm3.733 1.729c5.385 6.784 3.535 13.26-2.216 13.26-2.044 0-3.198-4.494-2.572-9.371.291-2.27.938-4.093 1.76-4.908.803-.798 1.759-.58 3.028 1.019z" id="Path-12" fill="#FFF" fill-rule="nonzero"/><path d="M216.343 38.646l.999.046-.12 2.679c-1.214 28.846.046 52.255 3.466 71.84 2.752 15.766 6.651 28.242 12.375 41.46l.422.97c1.502 3.426 7.602 16.437 9.214 20.143l.088.203c5.914 13.77 8.223 24.978 7.31 40.326-1.292 21.715-5.71 36.923-14.214 54.53l-1.096 2.22c-1.637 3.27-5.56 11.078-6.865 13.857l-.08.17c-4.954 10.646-7.224 19.122-7.224 29.47 0 22.335 7.417 38.676 22.25 49.08l.462.32-.566.824c-15.43-10.586-23.146-27.346-23.146-50.223 0-10.268 2.2-18.724 6.972-29.145l.513-1.104c1.693-3.577 6.952-14 7.473-15.067 8.717-17.855 13.219-33.075 14.523-54.99.886-14.901-1.292-25.827-6.91-39.118l-.321-.755c-1.455-3.387-7.76-16.83-9.3-20.34-5.985-13.651-10.031-26.424-12.866-42.659-3.484-19.961-4.734-43.862-3.42-73.391l.06-1.346z" id="Path-13" fill="#FFF" fill-rule="nonzero"/><path d="M229.72 92.62c-4.099 2.051-2.742 19.88 2.28 38.916l.334 1.251c5.508 20.289 12.94 33.394 20.01 31.548 7.035-1.836 9.173-8.464 7.574-18.26-1.048-6.422-3.708-13.88-6.327-19.257l-.305-.622c-.502-1.075-5.212-11.632-7.356-15.999l-.102-.206c-2.58-5.218-4.978-9.385-7.252-12.415-3.295-4.388-6.25-6.259-8.855-4.956zm8.056 5.557c2.137 2.846 4.403 6.749 6.838 11.617l.524 1.06c2.25 4.614 7.049 15.384 7.288 15.863 2.663 5.327 5.44 12.99 6.505 19.519 1.526 9.351-.444 15.463-6.839 17.132-6.334 1.653-13.754-11.721-19.125-32.087l-.287-1.102c-4.613-17.978-5.84-35-2.512-36.664 2.005-1.003 4.578.626 7.608 4.662z" id="Path-14" fill="#FFF" fill-rule="nonzero"/><path d="M238.218 115.65c-2.337 1.176-1.615 10.715 1.087 21.02l.231.864c2.954 10.855 6.913 17.824 10.844 16.792 3.88-1.019 5.052-4.673 4.188-10-.552-3.399-1.936-7.329-3.313-10.204l-.264-.547c-.417-.917-2.844-6.379-3.915-8.556-1.374-2.794-2.652-5.027-3.868-6.657-1.75-2.345-3.359-3.409-4.842-2.78l-.148.069zm4.189 3.31c1.099 1.473 2.266 3.486 3.52 5.993l.412.837c1.154 2.393 3.458 7.583 3.781 8.284l.033.07c1.402 2.821 2.867 6.886 3.428 10.342.792 4.883-.215 8.022-3.455 8.873-3.15.827-7.044-6.233-9.853-16.943l-.213-.827c-2.356-9.35-2.982-18.245-1.392-19.045.92-.463 2.195.348 3.739 2.417z" id="Path-14" fill="#FFF" fill-rule="nonzero"/><path d="M207.193 38.52l.955.298c-7.266 23.29-10.064 43.176-9.274 61.914.601 14.257 2.878 26.111 7.937 44.66l2.773 10c5.472 19.773 7.858 30.75 9.143 44.963l.058.649c1.718 19.643.172 40.402-5.386 64.547-16.37 71.11-2.329 107.03 42.056 108.162l1.354.024-.01 1c-45.8-.437-60.734-36.32-44.865-107.25l.49-2.16c5.536-24.045 7.073-44.699 5.365-64.236l-.117-1.286c-1.312-14.046-3.751-25.063-9.303-45.052l-1.998-7.186-.782-2.857c-4.897-18.076-7.12-29.832-7.714-43.936-.783-18.547 1.928-38.202 8.963-61.106l.355-1.148z" id="Path-15" fill="#FFF" fill-rule="nonzero"/><path d="M186.395 24.515l.625.78c-20.964 16.779-28.968 34.404-27.052 55.212.811 8.814 3.357 18.203 7.7 29.331l.52 1.322c1.587 3.99 3.404 8.222 5.63 13.163l2.016 4.43 5.654 12.215c12.339 26.716 18.2 42.889 20.782 61.484 6.499 46.81-2.44 100.892-26.803 162.244l-.743 1.862-.928-.373c24.864-61.97 34.021-116.502 27.483-163.596l-.18-1.256c-2.529-17.117-7.961-32.43-18.881-56.378l-7.511-16.26c-.43-.94-.835-1.825-1.23-2.696l-.94-2.085c-2.308-5.148-4.17-9.535-5.801-13.712-4.374-11.209-6.943-20.683-7.764-29.603-1.928-20.94 6.042-38.742 26.79-55.574l.633-.51z" id="Path-16" fill="#FFF" fill-rule="nonzero"/><path d="M159.42 30.544l.855.52-.626 1.04c-7.643 12.854-12.522 26.659-14.781 48.807-3.32 32.547.976 75.246 15.035 130.299l.429 1.672c21.221 82.324 18.644 140.463-7.803 174.41l-.808 1.021-.78-.626c26.686-33.157 29.728-90.514 9.056-172.076l-.634-2.48c-14.427-55.968-18.856-99.318-15.49-132.321 2.275-22.302 7.203-36.244 14.916-49.216l.631-1.05z" id="Path-17" fill="#FFF" fill-rule="nonzero"/><path d="M121.307 234.557c-8.977 10.538-15.024 27.618-15.024 45.301 0 37.91 23.687 71.038 41.412 58.08 7.924-5.793 10.34-24.618 8.065-50.423l-.13-1.426c-2-21.19-7.02-43.918-11.71-53.637-4.565-9.46-13.922-8.099-22.613 2.105zm21.712-1.67c4.682 9.7 9.738 32.724 11.681 54.007l.064.709c2.243 25.437-.144 44.033-7.659 49.527-16.748 12.245-39.822-20.025-39.822-57.272 0-17.45 5.966-34.3 14.785-44.653 8.291-9.734 16.777-10.97 20.951-2.319z" id="Path-18" fill="#FFF" fill-rule="nonzero"/><path d="M129.36 250.687c-4.55 7.07-7.61 18.51-7.61 30.35 0 12.158 2.746 24.13 7.094 32.18 4.397 8.143 9.84 11.042 14.273 6.752 3.961-3.833 5.218-15.93 4.2-32.615l-.077-1.2c-.962-14.443-3.56-30.19-5.986-36.847-2.387-6.547-7.417-5.578-11.895 1.38zm10.954-1.037c2.352 6.45 4.893 21.74 5.884 35.918l.044.653c1.13 16.965-.076 29.406-3.82 33.03-3.802 3.679-8.567 1.14-12.699-6.509-4.265-7.896-6.972-19.706-6.972-31.704 0-11.656 3.009-22.908 7.45-29.81 4.101-6.375 8.085-7.142 10.113-1.578z" id="Path-18" fill="#FFF" fill-rule="nonzero"/><path d="M136.996 264.615c-.9.227-1.782 1.261-2.593 2.913-1.692 3.446-2.826 8.998-2.826 14.741 0 5.893 1.016 11.698 2.63 15.611.788 1.914 1.682 3.274 2.625 3.933 1.111.775 2.27.564 3.198-.613 2.842-3.605 1.712-25.834-.643-34.3-.474-1.704-1.3-2.56-2.391-2.285zm1.428 2.553l.151.57c2.167 8.57 3.18 29.66.67 32.843-.61.772-1.177.875-1.84.412-.753-.526-1.552-1.742-2.274-3.494-1.56-3.785-2.554-9.461-2.554-15.23 0-5.599 1.103-11.001 2.723-14.3.692-1.41 1.41-2.25 1.94-2.384.414-.105.836.334 1.184 1.583z" id="Path-18" fill="#FFF" fill-rule="nonzero"/><path d="M147.131 24.484l.539.843c-8.394 5.365-13.108 15.776-15.117 31.55l-.171 1.407c-1.348 11.55-1.339 22.457-.42 46.835l.4 10.52c.313 8.599.462 14.765.47 20.793v.548c0 15.503-2.63 26.784-8.55 39.309l-.332.697c-2.48 5.16-12.9 23.816-15.184 28.027l-.287.535c-7.258 13.713-13.248 27.269-19.02 44.03a370.241 370.241 0 00-1.854 5.53c-14.633 44.78-.3 85.062 43.065 120.932l1.323 1.086-.631.775c-44.7-36.389-59.625-77.453-44.707-123.104a371.242 371.242 0 011.86-5.544c5.632-16.359 11.474-29.678 18.493-43.058l.86-1.624c2.262-4.173 12.71-22.878 15.18-28.018 5.98-12.443 8.686-23.527 8.782-38.725l.001-1.942c-.015-5.294-.139-10.753-.387-17.928l-.621-16.593c-.796-22.3-.715-32.659.654-43.94 1.965-16.19 6.704-27.005 15.294-32.706l.36-.235z" id="Path-19" fill="#FFF" fill-rule="nonzero"/><path d="M119.075 18.351c0 25.924-3.28 50.824-9.585 76.648l-.557 2.254c-4.484 17.96-9.808 34.506-18.628 59.054L81.534 180.5a1496.92 1496.92 0 00-1.754 4.893l-.75 2.11c-2.828 7.986-5.153 14.833-7.248 21.414-5.617 17.646-9.428 33.018-11.672 48.077-7.324 49.133 7.94 87.77 45.814 115.988l1.154.852-.59.807c-39.022-28.512-54.819-67.803-47.367-117.795 2.253-15.117 6.076-30.539 11.708-48.232l.834-2.595c1.975-6.096 4.17-12.507 6.797-19.899l2.133-5.958 6.883-18.961 2.252-6.245c8.955-24.974 14.259-41.635 18.79-60.193 6.154-25.202 9.417-49.515 9.553-74.763l.004-1.648h1z" id="Path-20" fill="#FFF" fill-rule="nonzero"/><path d="M99.732 30.8l1 .008C100.295 84.671 82.344 131.975 46.89 172.7c-53.383 61.319-32.203 164.586 44.683 208.31l2.347 1.307-.478.878C14.096 339.956-8.216 234.475 46.136 172.043c34.945-40.14 52.801-86.678 53.578-139.636l.018-1.607z" id="Path-21" fill="#FFF" fill-rule="nonzero"/><path d="M88.44 30.804c4.804 58.113-11.792 96.126-49.788 114.04" id="Path-22" stroke="#FFF"/></g></g></g></g></g><g id="Heads" transform="translate(508 359)"><defs><path d="M57.866 5.825c-18.193 4.708-35.6 14.438-46.655 29.66C.154 50.704-3.598 71.83 4.383 88.87c5.985 12.779 17.775 22.118 30.679 27.784s26.976 8.038 40.925 10.023c26.308 3.745 53.81 6.178 78.878-2.653 25.067-8.833 46.983-31.87 46.373-58.485-.471-20.63-14.375-39.258-32.042-49.865C138.062-3.018 92.2-3.06 57.866 5.825" id="headswide-path-1"/></defs><g id="Heads/Wide" stroke="none" stroke-width="1" fill="none" fill-rule="evenodd"><g id="Patterns" transform="translate(-.5 34.5)"><mask id="headswide-mask-2" fill="#fff"><use xlink:href="#headswide-path-1"/></mask><use id="Mask" fill="#FF996B" xlink:href="#headswide-path-1"/><g mask="url(#headswide-mask-2)" id="Group"><g transform="rotate(90 224.5 103)" fill="#FFF" fill-rule="nonzero"><path d="M234.73 35.892c43.174 35.75 64.782 65.366 64.782 88.926 0 7.616-.656 15.276-1.945 23.86l-.225 1.463a337.21 337.21 0 01-1.97 11.206l-.66 3.403-2.285 11.43c-4.967 24.928-7.066 41.022-7.066 61.773 0 15.404 1.81 29.59 5.66 49.243l.562 2.823c.554 2.73 2.777 13.7 3.377 16.864l.272 1.451c1.012 5.462 1.664 9.787 2.025 13.665.924 9.927-.139 16.841-3.79 21.737l-.213.28-.789-.614c3.562-4.577 4.674-11.163 3.847-20.743l-.05-.567c-.374-4.011-1.063-8.517-2.147-14.293l-.604-3.123a3821.446 3821.446 0 00-3.034-15.078l-.221-1.112c-4.01-20.284-5.895-34.765-5.895-50.533 0-20.158 1.973-35.935 6.612-59.578l2.81-14.083.433-2.233.34-1.78c.827-4.367 1.477-8.127 2.022-11.75 1.283-8.537 1.934-16.15 1.934-23.711 0-22.94-21.032-51.994-63.138-87.09l-1.282-1.066.638-.77z" id="Path-7"/><path d="M225.504 35.894c23.45 19.735 39.5 42.974 48.143 69.709 3.008 9.303 3.799 20.64 2.794 34.998l-.162 2.171c-.716 9.154-1.694 16.385-4.537 34.336l-2.23 14.022c-1.401 8.929-2.285 15.07-3.086 21.614-2.899 23.686-3.055 42.256.304 58.754l.163.784c7.751 36.693 4.588 60.54-9.602 71.5l-.433.329-.596-.803c14.012-10.402 17.343-33.629 9.882-69.722l-.23-1.098c-3.442-16.295-3.441-34.526-.75-57.616l.27-2.25c.842-6.885 1.776-13.32 3.304-23.006l2.497-15.711c2.594-16.515 3.462-23.294 4.147-32.513 1.088-14.65.335-26.136-2.686-35.481-8.487-26.252-24.165-49.11-47.044-68.581l-.792-.67.644-.766z" id="Path-10"/><path d="M212.993 36.25l.998.055c-.815 14.668 3.123 26.248 12.872 42.83l1.05 1.768c.353.591.723 1.206 1.126 1.871l3.88 6.374c7.443 12.252 11.439 19.974 14.58 29.331 3.97 11.823 5.447 24.15 4.112 38.068l-.091.91c-3.59 34.446-1.446 68.555 4.83 108.733l.445 2.802c1.299 8.039 4.647 27.556 5.18 30.985 2.872 18.448-3.207 33.08-18.206 43.817l-.457.325-.575-.819c14.867-10.44 20.968-24.618 18.335-42.611l-.084-.558c-.547-3.51-4.059-23.973-5.279-31.592l-.09-.56c-6.4-40.421-8.682-74.687-5.237-109.225l.143-1.4c1.475-14.148.038-26.61-3.973-38.557-2.93-8.724-6.616-16.029-13.215-27.023l-5.392-8.877a375.37 375.37 0 01-1.31-2.183l-.204-.345c-10.01-16.881-14.16-28.66-13.471-43.474l.033-.646z" id="Path-11"/><path d="M226.312 267.802c-3.784 3.724-6.546 11.441-7.778 20.967-2.69 20.78 2.306 40.069 12.8 40.069 11.31 0 20.264-6.46 23.245-16.81 3.239-11.242-.818-25.493-12.395-39.955-5.923-7.4-11.431-8.644-15.872-4.271zm15.091 4.896c11.39 14.227 15.355 28.156 12.215 39.054-2.855 9.912-11.412 16.086-22.284 16.086-9.579 0-14.426-18.716-11.809-38.941 1.207-9.323 3.901-16.852 7.488-20.383 3.957-3.895 8.8-2.8 14.39 4.184z" id="Path-12"/><path d="M229.99 278.52c-2.44 2.379-4.21 7.27-4.997 13.3-1.723 13.176 1.48 25.419 8.316 25.419 7.266 0 13.03-4.116 14.948-10.708 2.077-7.138-.519-16.166-7.912-25.308-3.825-4.73-7.444-5.539-10.354-2.703zm9.577 3.332c7.203 8.907 9.706 17.609 7.73 24.4-1.791 6.155-7.157 9.987-13.988 9.987-5.923 0-8.975-11.667-7.325-24.289.762-5.828 2.462-10.528 4.704-12.714 2.427-2.365 5.387-1.703 8.88 2.616z" id="Path-12"/><path d="M234.037 289.889c-.96.952-1.632 2.845-1.93 5.169l-.067.577c-.496 4.892.74 9.307 3.443 9.307 6.325 0 8.35-7.079 2.84-14.012-1.513-1.905-3.06-2.257-4.286-1.041zm3.504 1.663c5.043 6.347 3.315 12.39-2.058 12.39-1.891 0-2.97-4.198-2.385-8.757.273-2.123.878-3.827 1.644-4.586.74-.734 1.617-.535 2.799.953z" id="Path-12"/><path d="M203.149 36.254l.999.046-.116 2.59c-1.135 27.025.05 48.96 3.257 67.313 2.582 14.77 6.237 26.461 11.6 38.844l.417.954c1.438 3.276 7.362 15.892 8.736 19.088 5.556 12.923 7.726 23.442 6.868 37.846-1.213 20.36-5.358 34.625-13.334 51.13l-.582 1.19c-1.067 2.14-5.706 11.339-6.988 14.09-4.651 9.984-6.782 17.931-6.782 27.635 0 20.934 6.956 36.25 20.866 46.004l.45.313-.564.825c-14.501-9.937-21.752-25.67-21.752-47.142 0-9.626 2.063-17.556 6.536-27.321l.34-.736c1.389-2.98 6.669-13.433 7.176-14.47 8.184-16.747 12.411-31.022 13.636-51.577.831-13.964-1.21-24.204-6.476-36.657l-.313-.735c-1.366-3.177-7.288-15.789-8.733-19.081-5.622-12.81-9.423-24.794-12.086-40.028-3.271-18.72-4.446-41.132-3.215-68.82l.06-1.301z" id="Path-13"/><path d="M215.73 86.864c-3.872 1.934-2.597 18.665 2.124 36.544l.315 1.175c5.177 19.052 12.162 31.355 18.829 29.617 6.626-1.727 8.639-7.962 7.135-17.166-.984-6.02-3.478-13.01-5.936-18.056l-.298-.607c-.482-1.033-4.888-10.898-6.9-14.994l-.101-.203c-2.425-4.897-4.677-8.808-6.814-11.652-3.103-4.128-5.89-5.89-8.354-4.658zm7.554 5.259c2.006 2.668 4.133 6.328 6.419 10.894l.502 1.015c2.117 4.338 6.61 14.411 6.835 14.86 2.5 4.996 5.106 12.181 6.106 18.303 1.431 8.76-.415 14.477-6.4 16.037-5.864 1.529-12.746-10.744-17.773-29.509l-.152-.57c-4.548-17.223-5.812-33.812-2.644-35.395 1.864-.932 4.27.59 7.107 4.365z" id="Path-14"/><path d="M223.71 108.47c-2.217 1.113-1.539 10.066 1.005 19.754l.23.856c2.777 10.176 6.496 16.703 10.208 15.73 3.664-.96 4.77-4.405 3.955-9.416-.516-3.175-1.806-6.843-3.094-9.54l-.245-.506c-.3-.653-2.447-5.482-3.54-7.748l-.16-.328c-1.291-2.623-2.491-4.72-3.635-6.25-1.707-2.284-3.275-3.281-4.724-2.553zm3.923 3.151c.962 1.287 1.98 3.017 3.069 5.153l.47.94c1.066 2.165 3.606 7.893 3.733 8.146 1.315 2.645 2.69 6.455 3.216 9.694.742 4.567-.198 7.496-3.222 8.289-2.932.768-6.584-5.845-9.217-15.873l-.208-.808c-2.2-8.742-2.785-17.06-1.315-17.8.846-.425 2.032.33 3.474 2.259z" id="Path-14"/><path d="M194.557 36.128l.955.298c-6.823 21.846-9.45 40.498-8.709 58.074l.067 1.422c.653 12.728 2.798 23.65 7.361 40.376l.61 2.217 2.041 7.333c5.121 18.49 7.358 28.778 8.564 42.084l.057.636c1.585 18.108.212 37.226-4.788 59.375l-.271 1.19c-15.37 66.695-2.192 100.372 39.468 101.433l1.271.022-.01 1c-43.038-.41-57.07-34.095-42.164-100.653l.46-2.027c5.198-22.555 6.642-41.928 5.038-60.253l-.115-1.26c-1.193-12.723-3.377-22.808-8.233-40.411l-2.374-8.537-.52-1.89c-4.75-17.41-6.893-28.577-7.46-42.015-.735-17.394 1.808-35.825 8.407-57.3l.345-1.114z" id="Path-15"/><path d="M175.034 22.974l.625.781c-19.68 15.734-27.193 32.26-25.395 51.77.762 8.264 3.153 17.07 7.23 27.508l.514 1.302c1.393 3.495 2.974 7.19 4.882 11.443l1.1 2.436a884.748 884.748 0 001.815 3.957l4.668 10.064c11.589 25.066 17.095 40.24 19.52 57.69 6.104 43.921-2.291 94.663-25.174 152.224l-.698 1.747-.928-.373c23.35-58.132 31.948-109.286 25.81-153.46l-.176-1.22c-2.464-16.618-7.852-31.433-18.857-55.31l-5.507-11.885a678 678 0 01-1.753-3.836l-1.088-2.42c-1.99-4.457-3.621-8.313-5.06-11.995-4.108-10.518-6.522-19.41-7.293-27.78-1.812-19.657 5.678-36.367 25.171-52.164l.594-.479z" id="Path-16"/><path d="M149.694 28.639l.854.52c-7.513 12.336-12.286 25.415-14.465 46.75-3.117 30.53.917 70.585 14.12 122.229l.402 1.568c19.933 77.24 17.512 131.792-7.333 163.65l-.76.958-.778-.628c25.054-31.096 27.91-84.896 8.498-161.405l-.595-2.325c-13.55-52.51-17.71-93.182-14.548-124.148 2.164-21.194 6.885-34.344 14.29-46.65l.315-.52z" id="Path-17"/><path d="M113.902 220.028c-8.434 9.892-14.116 25.923-14.116 42.52 0 35.585 22.264 66.69 38.94 54.511 7.454-5.443 9.725-23.111 7.587-47.331l-.127-1.384c-1.881-19.87-6.593-41.17-10.996-50.284-4.299-8.9-13.113-7.619-21.288 1.968zm20.388-1.533c4.393 9.093 9.139 30.677 10.965 50.633l.061.688c2.106 23.852-.135 41.291-7.18 46.436-15.7 11.466-37.35-18.782-37.35-53.705 0-16.363 5.6-32.163 13.877-41.87 7.775-9.118 15.719-10.273 19.627-2.182z" id="Path-18"/><path d="M121.463 235.164c-4.276 6.638-7.15 17.376-7.15 28.49 0 11.41 2.578 22.647 6.664 30.204 4.138 7.654 9.27 10.385 13.453 6.341 3.818-3.69 4.965-15.502 3.881-31.747l-.089-1.274c-.967-13.194-3.326-27.25-5.535-33.302-2.252-6.173-7.008-5.258-11.224 1.288zm10.285-.946c2.206 6.046 4.592 20.377 5.522 33.669l.118 1.802c.929 15.306-.233 26.485-3.653 29.791-3.551 3.434-8.006 1.063-11.878-6.097-4.003-7.404-6.545-18.478-6.545-29.73 0-10.928 2.825-21.478 6.992-27.947 3.84-5.964 7.55-6.678 9.444-1.488z" id="Path-18"/><path d="M128.653 248.217c-.857.216-1.69 1.192-2.456 2.749-1.59 3.237-2.656 8.45-2.656 13.843 0 5.533.955 10.982 2.471 14.658.743 1.8 1.586 3.08 2.477 3.703 1.057.736 2.163.535 3.044-.582 2.678-3.393 1.617-24.253-.598-32.206-.449-1.612-1.237-2.428-2.282-2.165zm1.319 2.434c2.13 7.646 3.179 28.274.776 31.318-.562.712-1.077.806-1.687.38-.7-.489-1.448-1.625-2.124-3.264-1.464-3.546-2.396-8.868-2.396-14.276 0-5.248 1.035-10.311 2.554-13.402.646-1.314 1.315-2.097 1.803-2.22.345-.087.706.26 1.016 1.267l.058.197z" id="Path-18"/><path d="M138.162 22.943l.539.843c-7.87 5.024-12.292 14.775-14.18 29.55l-.082.654c-1.39 11.44-1.356 21.901-.392 46.839l.268 7.002c.31 8.396.457 14.335.465 20.133v.543c0 14.538-2.468 25.122-8.021 36.866l-.324.679c-2.45 5.093-13.15 24.191-14.53 26.796-6.816 12.864-12.44 25.58-17.86 41.303a347.045 347.045 0 00-1.741 5.187c-13.739 41.997-.283 79.774 40.435 113.418l1.242 1.018-.631.776c-41.989-34.146-56.011-72.683-41.997-115.523a348.045 348.045 0 011.747-5.202c5.282-15.324 10.76-27.806 17.339-40.34l.778-1.469c1.988-3.676 11.974-21.528 14.317-26.398 5.61-11.66 8.15-22.048 8.244-36.286l.001-1.91c-.015-5.07-.137-10.307-.38-17.26l-.571-15.193c-.743-20.835-.665-30.536.619-41.1 1.845-15.184 6.293-25.334 14.357-30.692l.358-.234z" id="Path-19"/><path d="M111.86 17.216c0 23.794-2.948 46.67-8.62 70.336l-.383 1.579c-4.242 17.354-9.2 32.936-17.538 56.183l-2.497 6.914-5.496 15.112c-.868 2.4-1.63 4.516-2.371 6.595l-.733 2.06c-2.644 7.458-4.819 13.857-6.779 20.008-5.274 16.553-8.853 30.972-10.96 45.098-6.877 46.083 7.454 82.319 43.014 108.784l1.084.799-.59.808c-36.657-26.756-51.498-63.628-44.498-110.539 2.058-13.79 5.51-27.85 10.56-43.875l.438-1.379c2.052-6.442 4.34-13.154 7.152-21.062l1.706-4.766 6.776-18.653c9.713-26.764 15.16-43.505 19.76-62.325 5.777-23.63 8.84-46.426 8.971-70.097l.004-1.58h1z" id="Path-20"/><path d="M93.633 28.895l1 .008c-.41 50.538-17.271 94.923-50.573 133.135-50.122 57.51-30.235 154.367 41.956 195.378l2.204 1.226-.478.878C13.207 318.945-7.752 219.966 43.306 161.381c32.814-37.651 49.581-81.304 50.31-130.98l.017-1.506z" id="Path-21"/></g></g></g></g></g><g id="Face" transform="translate(589 429)"><g id="Mouth" transform="translate(0 30)" fill-rule="evenodd"><g id="Mouth/Smile" stroke="none" stroke-width="1" fill="none" fill-rule="evenodd"><path d="M55.847 16.407l-.125.076c-2.513 1.505-4.96 2.685-7.5 3.461a26.257 26.257 0 01-7.722 1.182 26.065 26.065 0 01-7.72-1.183c-2.54-.778-4.989-1.962-7.496-3.472l-.128-.078a2.756 2.756 0 00-2.876.024 2.706 2.706 0 00-.859 3.748c1.928 3.045 4.83 5.541 8.165 7.24 3.34 1.697 7.125 2.592 10.91 2.595 3.787.005 7.574-.888 10.918-2.584 3.335-1.693 6.239-4.187 8.166-7.237.53-.84.578-1.943.028-2.85a2.75 2.75 0 00-3.76-.922" id="Fill-4" fill="#001D2D"/></g></g><g id="Eyes"><g id="Eyes/Joy" stroke="none" stroke-width="1" fill="#001D2D" fill-rule="nonzero"><path d="M74.155 1.01a4 4 0 014.279 3.7l.072 1.045c.392 5.925.229 9.056-1.085 12.77-2.003 5.662-7.01 9.977-12.748 9.94-5.542-.04-10.38-4.13-12.466-9.561C50.764 15.144 50.55 12 50.76 5.573a4 4 0 017.996.26l-.038 1.354c-.102 4.44.109 6.637.958 8.85.996 2.595 3.148 4.414 5.052 4.427 1.966.013 4.196-1.908 5.15-4.608.898-2.535.977-5.044.577-10.567a4 4 0 013.7-4.279z" id="Stroke-1" transform="matrix(1 0 0 -1 0 29.464)"/><path d="M5.333 1l.2.01a4 4 0 013.7 4.28l-.064.917c-.325 4.892-.206 7.258.64 9.648.955 2.7 3.185 4.621 5.15 4.608 1.906-.013 4.057-1.832 5.053-4.424l.156-.429c.793-2.296.929-4.737.763-9.775a4 4 0 117.996-.264l.03 1.04c.153 5.723-.114 8.738-1.476 12.294-2.085 5.43-6.924 9.52-12.469 9.558-5.734.038-10.74-4.276-12.745-9.938C.877 14.598.774 11.324 1.254 4.71A4 4 0 015.333 1z" id="Stroke-3" transform="matrix(1 0 0 -1 0 29.463)"/></g></g></g><g id="Head Accesory" transform="matrix(-1 0 0 1 708 166)"><g id="Head Accesory/Bow" stroke="none" stroke-width="1" fill="none" fill-rule="evenodd"><path d="M95.829 135c-20.597-17.655-33.47-23.54-38.62-17.655-5.15 5.884-5.15 13.608 0 23.171-10.299 14.713-9.563 23.54 2.207 26.483 11.77 2.942 23.907-3.678 36.413-19.862 14.712 15.448 29.424 22.068 44.137 19.862 14.712-2.207 14.712-11.035 0-26.483 11.034-20.597 11.77-31.999 2.207-34.206-9.563-2.207-25.011 7.356-46.344 28.69z" id="Path-182" fill="#A98AFF"/><path d="M134.91 122.586a1 1 0 01-.393 1.27l-.103.054-30.457 13.844c.029.714.043 1.462.043 2.246 0 1.14-.013 2.185-.04 3.143l30.378 10.916a1 1 0 01-.564 1.915l-.112-.033-29.79-10.706C103.24 156.102 100.283 153 95 153c-2.346 1.564-5.303-.54-6.481-8.227l-20.105 9.137a1 1 0 01-.931-1.766l.103-.054 20.672-9.397a52.02 52.02 0 01-.21-3.145l-18.386-6.607a1 1 0 01.564-1.915l.112.033 17.663 6.348L88 137c0-9.209 2.272-12.252 6.815-9.13L95 128c5.149-2.86 8.089-.32 8.819 7.62l29.767-13.53a1 1 0 011.324.496z" id="Combined-Shape" fill="#7344BE"/></g></g></g></g><g id="Arm2" transform="matrix(-1 0 0 1 1062 976)" stroke="#001D2D" stroke-linecap="round" stroke-linejoin="round" stroke-width="8"><path d="M226 0c134 102 248 405 104 405-96 0-205.333.667-328 2" id="Path-192"/><path d="M11 360c127.333-52.667 225.333-80.667 294-84" id="Path-193"/><path d="M185 156c42 50.667 68.667 92 80 124" id="Path-194"/><path d="M2 377c22-6.667 36.333-10.667 43-12" id="Path-195"/><path d="M0 393c19.333-4.667 34.333-8 45-10" id="Path-196"/></g></g></svg>