<svg width="20" height="20" viewBox="0 0 20 20" fill="none" xmlns="http://www.w3.org/2000/svg"><path d="M6.36 10.399c-.019-1.67.69-2.92 2.15-3.678 2.373-1.233 5.246.244 5.66 2.875a3.93 3.93 0 01-3.052 4.476c-2.173.48-4.365-1.006-4.712-3.194-.024-.152-.031-.306-.047-.48zm1.024 1.553c.804 1.24 1.943 1.801 3.41 1.615 1.847-.234 3.144-2.047 2.828-3.91-.329-1.946-2.249-3.2-4.152-2.721a3.388 3.388 0 00-2.086 5.016z" fill="#C25939"/><path d="M9.57 12.148c-.06.166-.113.318-.173.467-.086.212-.24.271-.43.148a8.233 8.233 0 01-.653-.47c-.188-.15-.185-.319 0-.47.474-.385.953-.764 1.43-1.146.076-.062.163-.123.253-.063.108.073.077.197.04.296-.148.41-.307.815-.466 1.238zM8.067 8.787c.543.348 1.073.69 1.601 1.034.087.057.208.12.164.247-.049.14-.182.126-.308.12-.556-.023-1.113-.04-1.67-.058-.373-.013-.467-.142-.357-.5.062-.205.126-.41.196-.613.058-.17.159-.282.374-.23zm3.329 2.356l.83.693c.206.174.211.328-.002.492a8.56 8.56 0 01-.627.438c-.223.141-.375.081-.464-.17-.198-.555-.394-1.112-.59-1.668-.037-.107-.094-.231.027-.31.108-.072.2.013.285.083.176.146.354.288.541.441zm.097-1.708c.32-.211.626-.416.936-.617.18-.116.344-.078.42.121.104.269.192.545.26.824.05.198-.063.32-.269.33-.616.034-1.232.067-1.848.098-.104.005-.21-.01-.247-.127-.035-.11.05-.175.128-.227.2-.134.405-.263.62-.402zm-.697-1.105c-.114.416-.225.816-.332 1.217-.026.098-.06.186-.175.188-.116.002-.156-.092-.182-.184-.17-.606-.335-1.213-.504-1.82-.048-.17.018-.289.179-.322.323-.066.654-.06.977-.006.184.03.24.163.193.349-.048.188-.1.375-.155.578zm.033.447c.12-.323.232-.632.348-.94.087-.227.24-.288.44-.155.23.15.452.315.665.489.164.134.156.307-.01.442-.473.386-.95.768-1.426 1.15-.08.065-.173.13-.272.06-.1-.072-.067-.182-.032-.278.091-.252.187-.502.287-.768zm-1.161 3.478c.135-.444.266-.873.399-1.302a.598.598 0 01.07-.165c.085-.121.195-.116.27.011.066.112.076.242.106.365l.36 1.482c.071.3-.029.431-.341.427a11.728 11.728 0 01-.743-.038c-.209-.016-.305-.16-.248-.36.038-.136.082-.27.127-.42zm-.475-4.562c.088.051.116.129.146.203.224.553.448 1.107.67 1.66.039.095.088.199-.012.277-.106.083-.203.014-.29-.052-.482-.365-.964-.73-1.443-1.097-.185-.141-.192-.322-.012-.473.2-.168.41-.324.622-.479a.303.303 0 01.319-.04zm.317 3.029c-.455.297-.897.588-1.342.875-.226.146-.386.088-.475-.172a15.194 15.194 0 01-.215-.69c-.072-.25.005-.384.263-.4.635-.039 1.27-.074 1.907-.068.077 0 .15.017.183.098.032.083-.02.144-.077.19-.072.06-.154.106-.244.167zm3.165.962c-.107.04-.184 0-.258-.05l-1.537-1.028c-.079-.053-.17-.113-.139-.22.034-.12.148-.123.25-.118.629.028 1.258.056 1.886.087.152.007.252.105.234.247a2.65 2.65 0 01-.342 1.015c-.016.027-.053.04-.094.067z" fill="#C25939"/></svg>