<svg viewBox="350 325 1300 1350" fill="none" xmlns="http://www.w3.org/2000/svg" overflow="visible" width="1300" height="1350"><g id="Master/Spot Illustrations/Running"><g id="Dust" fill-rule="evenodd" clip-rule="evenodd" fill="#0089C5" fill-opacity=".25"><path id="Path 83" d="M1394.82 1529.7c-32.94-.9-1.26.68-2.69-8.11 1.98 12.14 19.87 10.69 19.87-1.61l-.01-.84c-.02-.56-.06-1.11-.12-1.66l-.02-.2.04-.21c1.3-6.46 20.59-6.34 3.33-6.82l-5.28-.14-.24-.55c-9.52-20.81-47.51-34.32-94.67-35.8l-1.22-.04-.14-.39c-8.12-22.03-29.16-44.09-53.15-57.79-12.9-7.38-25.3-11.4-35.38-10.87l-.41.02c-4.19.28-7.92 1.36-11.08 3.15l-.49.28-.39-.59a78.78 78.78 0 00-6.19-7.93c-14.82-16.63-36.39-26.6-65.18-26.6-16.7 0-29.08 4.89-36.74 14.44-6.51 8.11-8.86 18.52-8.13 30.42l.06.93c.56 7.45 2.29 15.17 4.83 22.91l.4 1.22-.21.05c-9.58 2.08-17.61 6.33-23.54 12.48-8.54 8.88-11.83 20.96-9.17 32.97 5.58 25.15 33.64 42.26 72.81 41.56l5.11-.08c24.98-.34 80.91-.55 140.7-.55h20.58c14.31.01 27.76.04 39.74.07l23.12.1c9.14.05 16.43.11 21.62.18l4.96.08.93.03-3.65-.11zM1141.4 1383c59.19 0 71.03 46.51 71.03 46.51 0-39.75 83.72 7.61 93.87 54.11 54.97 0 95.7 16.91 95.7 36.36-.14-.85-213.11-.85-260.47 0-76.98 1.37-82.17-68.49-25.5-68.49l-.24-.5c-2.92-6.18-30.63-67.99 25.61-67.99z"/><path id="Path 83 Copy 2" d="M708.889 1442c-45.807 0-68.276 20.61-69.426 53.55-.38 10.9 1.621 22.26 5.198 33.55l.311.97.219.67-.288.03c-16.97 2.37-30.93 8.97-40.717 19.14-12.046 12.52-16.673 29.5-12.912 46.44 3.764 16.97 15.53 32.42 33.414 43.32 19.218 11.71 44.687 17.84 74.914 17.3l3.051-.05c51.33-.83 176.472-.82 375.307.05 8 .03 12.8-8.89 8.36-15.55l-.58-.85c-18.22-26.45-55.06-39.74-109.881-41.02l-1.314-.02-.368-1.05c-12.01-33.39-49.089-60.44-92.556-71.96-21.588-5.71-42.395-6.69-58.503-2.3l-.576.16c-5.738 1.61-10.832 3.92-15.172 6.86l-.32.22-.004-.02c-2.074-10.03-5.022-19.88-9.005-29.26-7.116-16.75-17.068-30.82-30.327-41.24-15.69-12.33-35.304-18.94-58.825-18.94zm258.07 167.45c57.351 0 94.361 12.51 111.041 37.52l-52.94-.22c-172.129-.66-280.675-.58-325.636.22-120.472 2.15-128.589-107.18-39.919-107.18l-.302-.63c-3.684-7.93-38.322-87.16 49.686-87.16 88.972 0 91.726 102.87 91.805 111.02l.002.47.045-1.8c2.949-59.64 150.496-24.28 166.218 47.76z"/><path id="Path 83 Copy" d="M410.095 1222c-17.59 0-29.644 3.42-36.6 10.95-6.92 7.49-7.484 17.17-3.682 27.32l.262.68c1.698 4.32 4.131 8.66 7.119 12.98l.152.22-.354.11c-6.034 1.87-11.299 4.66-15.601 8.32-8.675 7.36-12.768 17.75-10.981 28.3 3.672 21.69 28.811 35.74 64.811 35.1l3.556-.06c29.491-.45 83.9-.43 163.161.06 8.673.05 13.297-10.2 7.514-16.67l-1.541-1.71c-25.094-27.78-46.559-44.95-65.029-51.49l-.642-.22c-13.69-4.68-25.958-3.5-35.989 3.23l-.167.11c-2.019-6.17-4.625-12.26-7.912-18.1-13.658-24.25-36.094-39.13-68.077-39.13zm0 10c64.31 0 70.494 68.08 70.494 68.08 18.138-31.36 51.942-19.39 101.411 35.9l-30.862-.17c-65.794-.33-111.159-.28-136.096.17-69.887 1.25-69.989-54.47-18.55-54.47l-.512-.51c-5.159-5.25-46.335-49 14.115-49z"/></g><path id="Sweat" fill-rule="evenodd" clip-rule="evenodd" d="M1252 557.081s9-98 51-73-51 73-51 73zM1284 577s39-55 53-26-53 26-53 26z" fill="#0089C5" fill-opacity=".25"/><path id="Thought Cloud (Stroke)" fill-rule="evenodd" clip-rule="evenodd" d="M793.205 698.689a104.74 104.74 0 01-28.634 15.817 105.182 105.182 0 01-8.929 13.104c-27.746 34.752-75.184 48.733-118.033 33.107a105.975 105.975 0 01-5.684 1.892c-46.384 13.996-96.824-5.684-121.279-48.103a105.107 105.107 0 01-14.455-6.518c-39.042-21.29-61.049-65.579-53.1-110.491a105.163 105.163 0 01-6.883-14.285 104.558 104.558 0 01-7.082-33.072c-.229-4.689-.143-9.38.252-14.039 2.301-27.106 15.07-53.138 37.174-71.662.348-1.978.749-3.934 1.203-5.869 11.072-47.166 53.335-81.01 102.298-80.979a105.228 105.228 0 0112.873-9.259c37.958-23.166 87.318-20.08 122.238 9.259 2.008-.001 4.005.055 5.988.166 48.373 2.713 89.041 38.457 97.513 86.682a104.636 104.636 0 0131.141 44.362 43.845 43.845 0 018.266-6.386c16.815-10.027 38.993-7.852 53.481 6.526l.585.072c23.585 3.066 40.583 24.601 38.002 48.315.104.167.207.334.308.502 12.309 20.352 6.07 47.068-14.079 59.835-.066.186-.133.37-.201.554-8.237 22.312-33.015 34.092-55.559 26.299-10.245 3.541-20.951 3.041-30.356-.653a44.42 44.42 0 01-9.115-4.871 104.987 104.987 0 01-2.827 10.081c-6.531 19.491-18.698 36.835-35.106 49.614zm44.171-45.218c-10.682 30.735-34.218 56.46-66.002 69.143-27.937 45.138-83.35 65.307-133.765 48.687-50.416 16.62-105.829-3.549-133.766-48.687-49.304-19.675-78.789-70.744-71.176-123.279-25.122-46.764-14.882-104.837 24.719-140.188 10.815-51.971 55.988-89.876 109.047-91.501 41.691-32.861 100.66-32.861 142.351 0 53.059 1.625 98.233 39.53 109.047 91.501a114.558 114.558 0 0126.125 34.091c19.561-11.097 44.668-9.006 62.138 6.273 26.459 4.788 45.471 28.627 44.25 55.488 12.754 23.671 5.969 53.399-15.792 69.192a53.754 53.754 0 01-2.533 5.153c11.484-8.664 27.889-8.034 38.658 1.89 13.632 7.661 19.171 24.709 12.645 38.919-3.073 15.332-17.575 25.869-33.106 24.054-15.531 1.815-30.033-8.722-33.106-24.054-3.491-7.601-3.53-16.015-.724-23.369-12.886 9.214-29.634 12.665-45.778 8.201-11.303 3.125-22.892 2.365-33.232-1.514zm97.646-62.245a34.45 34.45 0 001.496-6.746c.997-8.46-1.15-17.348-6.878-24.755 4.453-20.955-11.34-40.758-32.76-41.08-6.786-8.253-16.489-12.389-26.199-12.41a34.685 34.685 0 00-3.334.155c-8.451.806-16.653 4.754-22.666 11.843-.116.136-.23.273-.344.412-.489.007-.974.024-1.457.052a105.45 105.45 0 012.055 9.93c3.631 23.086-.398 47.405-12.808 68.87l.118.685a104.7 104.7 0 01.815 29.543c9.706 9.056 24.401 12.113 37.549 6.023 19.438 9.004 42.259-1.986 47.339-22.798 8.515-4.259 14.359-11.502 17.074-19.724zM777.838 421.34a95.48 95.48 0 00-24.877-20.874c-15.124-8.805-32.817-13.524-51.463-12.802-36.246-32.885-91.533-32.885-127.779 0-48.903-1.893-91.256 33.645-97.884 82.134-38.679 29.985-48.28 84.432-22.189 125.838-10.356 47.832 17.288 95.712 63.89 110.659 22.812 43.299 74.766 62.208 120.073 43.703 45.307 18.505 97.26-.404 120.072-43.703 34.922-11.2 59.197-40.894 64.815-75.203a43.582 43.582 0 01-7.647-13.427 41.878 41.878 0 01-.496-.318c-19.919-12.996-25.89-39.774-13.276-60.019a43.584 43.584 0 013.124-21.591c4.5-10.762 13.19-19.512 24.228-23.945a43.543 43.543 0 011.594-.604 94.848 94.848 0 00-4.04-9.171c-6.185-12.243-15.11-23.311-26.601-32.219-2.527-18.488-10.247-35.093-21.544-48.458zm39.138 85.026c-5.528-10.887-13.482-20.727-23.721-28.664a10.004 10.004 0 01-3.781-6.55c-5.93-43.389-43.829-75.19-87.589-73.496a10 10 0 01-7.106-2.586c-32.434-29.427-81.907-29.427-114.34 0a10.003 10.003 0 01-7.107 2.586c-43.76-1.694-81.658 30.107-87.589 73.496a10.004 10.004 0 01-3.781 6.55c-34.611 26.831-43.202 75.552-19.855 112.602a10 10 0 011.313 7.448c-9.267 42.801 15.469 85.646 57.17 99.021a10 10 0 015.793 4.861c20.413 38.745 66.903 55.665 107.444 39.107a10 10 0 017.563 0c40.542 16.558 87.031-.362 107.444-39.107a10 10 0 015.793-4.861c29.834-9.569 50.997-34.226 57.221-63.18a53.555 53.555 0 01-5.182-9.401c-21.762-15.794-28.547-45.521-15.793-69.193-.919-20.203 9.603-38.669 26.103-48.633zm5.594 94.604a95.307 95.307 0 011.009 9.36l.03.537c.028.539.052 1.077.071 1.615a34.072 34.072 0 01-.411-1.532 33.907 33.907 0 01-10.539-8.174 33.943 33.943 0 01-6.409-11.178 34.42 34.42 0 01-1.569-6.694c-1.121-8.586 1.001-17.648 6.825-25.179-2.845-13.386 2.573-26.302 12.441-33.971a33.776 33.776 0 019.057-5.03l.121.467a95.33 95.33 0 011.937 9.482c3.324 21.877-.948 44.944-13.562 64.963a100.73 100.73 0 01.709 3.604 104 104 0 01.29 1.73zm-7.298-14.29c8.612-15.276 12.032-32.28 10.646-48.806-4.181 5.359-6.11 12.476-4.56 19.772a9.998 9.998 0 01-1.87 8.195c-4.812 6.224-6.044 13.927-4.216 20.839zm134.729 66.72a10 10 0 01-5.422 3.938c-.057.017-.083.032-.09.036a.282.282 0 00-.018.014.33.33 0 00-.066.12.312.312 0 00-.017.136.09.09 0 00.006.022.412.412 0 00.052.082 10 10 0 012.071 6.373.37.37 0 00.006.097.058.058 0 00.008.021.304.304 0 00.094.101.319.319 0 00.124.058h.007a.318.318 0 00.109-.024c2.168-.77 4.534-.77 6.701 0a.328.328 0 00.117.024.319.319 0 00.124-.058.304.304 0 00.094-.101c.003-.006.006-.012.008-.021.001-.008.008-.037.006-.097a10 10 0 012.071-6.373.44.44 0 00.042-.063c.006-.01.008-.016.009-.019a.063.063 0 00.007-.022.312.312 0 00-.017-.136.356.356 0 00-.066-.12l-.009-.008-.009-.006c-.007-.004-.033-.019-.09-.036a10 10 0 01-5.422-3.938.374.374 0 00-.062-.075c-.006-.006-.012-.009-.019-.013a.303.303 0 00-.134-.026.362.362 0 00-.135.026l-.019.013c-.005.005-.027.025-.061.075zm.351-10.113c-.423-.005-.846.015-1.267.06a10.168 10.168 0 00-7.333 4.4c-3.278.966-5.611 3.349-6.691 6.198a10.57 10.57 0 00-.385 1.243 10.172 10.172 0 001.845 8.658c-.198 7.207 6.902 12.366 13.695 9.95 6.793 2.416 13.893-2.743 13.695-9.95 4.397-5.714 1.685-14.061-5.231-16.099-2.009-2.932-5.16-4.418-8.328-4.46zm-23.635 23.745c1.506 10.675 11.265 18.246 21.82 17.295.558-.05 1.118-.124 1.679-.223 10.619 1.867 20.835-5.075 23.192-15.407.124-.546.227-1.101.307-1.665 5.056-9.523 1.611-21.384-7.487-26.819a20.213 20.213 0 00-1.489-.806c-7.493-7.752-19.839-8.141-27.819-1.167-.422.369-.831.758-1.227 1.167-9.688 4.731-13.873 16.352-9.706 26.097.22.515.463 1.024.73 1.528z" fill="#E4EDF1"/><g id="Food" transform="translate(516.107 424.698)"><g id="Food/Avocado"><g id="Avocado"><ellipse id="Oval" cx="125" cy="125" rx="94" ry="125" fill="#B5E581"/><circle id="Oval_2" cx="125" cy="156" r="47" fill="#6A6434"/></g></g></g><g id="Master/Character/Side" transform="translate(560 390)"><g id="Master/Character/Side"><g id="Bodies" transform="translate(297 340.421)"><g id="Bodies/Blue A"><g id="Patterns"><path id="Mask" fill-rule="evenodd" clip-rule="evenodd" d="M362.086 371.318c20.533-11.706 39.739-27.408 50.11-48.647 10.37-21.241 10.15-48.77-5.117-66.814-13.151-15.546-34.279-21.415-54.265-25.314-65.534-12.782-133.492-13.013-199.11-.676-18.345 3.449-37.26 8.239-51.472 20.34-21.575 18.369-27.406 51.264-17.673 77.876 9.733 26.612 32.793 46.9 58.836 58.066 25.523 10.943 53.708 13.934 81.247 13.983 29.781.054 58.464.047 87.431-8.027 17.434-4.858 34.288-11.823 50.013-20.787" fill="#7192F0"/><mask id="mask0_203_4091723898522-aa4a-4b7d-abe0-8c4b11905554" style="mask-type:alpha" maskUnits="userSpaceOnUse" x="80" y="220" width="340" height="181" fill="#fff"><path id="Mask_2" fill-rule="evenodd" clip-rule="evenodd" d="M362.086 371.318c20.533-11.706 39.739-27.408 50.11-48.647 10.37-21.241 10.15-48.77-5.117-66.814-13.151-15.546-34.279-21.415-54.265-25.314-65.534-12.782-133.492-13.013-199.11-.676-18.345 3.449-37.26 8.239-51.472 20.34-21.575 18.369-27.406 51.264-17.673 77.876 9.733 26.612 32.793 46.9 58.836 58.066 25.523 10.943 53.708 13.934 81.247 13.983 29.781.054 58.464.047 87.431-8.027 17.434-4.858 34.288-11.823 50.013-20.787" fill="#fff"/></mask><g mask="url(#mask0_203_4091723898522-aa4a-4b7d-abe0-8c4b11905554)"><g id="Patterns_2"><g id="Group" fill="#fff"><path id="Path 51" d="M527.949 211.503l.102.994-500 51-.102-.994 500-51z"/><path id="Path 52" d="M28.06 295.504l500 60-.12.992-500-60 .12-.992z"/><path id="Path 53" d="M28.048 325.502l500 48-.096.996-500-48 .096-.996z"/><path id="Path 54" d="M28.014 383.5l500 14-.028 1-500-14 .028-1z"/><path id="Path 59" d="M28.02 283.5l500 20-.04 1-500-20 .04-1z"/></g></g></g></g><g id="Patterns_3"><path id="Mask_3" fill-rule="evenodd" clip-rule="evenodd" d="M173 432.67c6.305-16.93 21.413-25.616 45.304-29.306 22.39-3.457 62.495-5.522 85.319-4.151 17.587 1.057 30.691 5.28 41.19 15.453 26.62 25.796-16.585 50.946-46.081 59.734-29.828 8.888-74.515 9.156-101.758-4.156-16.55-8.087-29.462-22.837-23.974-37.574" fill="#418FE7"/><mask id="mask1_203_4091723898522-aa4a-4b7d-abe0-8c4b11905554" style="mask-type:alpha" maskUnits="userSpaceOnUse" x="171" y="398" width="183" height="83" fill="#fff"><path id="Mask_4" fill-rule="evenodd" clip-rule="evenodd" d="M173 432.67c6.305-16.93 21.413-25.616 45.304-29.306 22.39-3.457 62.495-5.522 85.319-4.151 17.587 1.057 30.691 5.28 41.19 15.453 26.62 25.796-16.585 50.946-46.081 59.734-29.828 8.888-74.515 9.156-101.758-4.156-16.55-8.087-29.462-22.837-23.974-37.574" fill="#fff"/></mask><g mask="url(#mask1_203_4091723898522-aa4a-4b7d-abe0-8c4b11905554)"><g id="Patterns_4"><g id="Group_2" fill="#fff"><path id="Path 49" d="M358.072 209.012l-6.984 291-1-.024 6.984-291 1 .024z"/><path id="Path 50" d="M325.479 499.976l-.998.048-13.968-291 .998-.048 13.968 291z"/><path id="Path 51_2" d="M305.107 499.949l-.994.102-29.682-291 .994-.102 29.682 291z"/><path id="Path 52_2" d="M256.218 209.06l-34.92 291-.993-.12 34.92-291 .993.12z"/><path id="Path 53_2" d="M238.76 209.048l-27.936 291-.996-.096 27.936-291 .996.096z"/><path id="Path 54_2" d="M205.006 209.014l-8.148 291-1-.028 8.148-291 1 .028z"/><path id="Path 55" d="M176.486 499.954l-.996.092-26.772-291 .996-.092 26.772 291z"/><path id="Path 59_2" d="M263.206 209.02l-11.64 291-1-.04 11.64-291 1 .04z"/></g></g></g></g><g id="Patterns_5"><path id="Mask_5" fill-rule="evenodd" clip-rule="evenodd" d="M120.01 191.589c-29.395-27.218-39.704-74.804-19.772-109.555 17.713-30.884 53.796-46.476 88.754-53.226 19.605-3.785 40.571-5.315 58.958 2.468 16.478 6.973 29.303 20.922 37.754 36.693 15.002 27.997 16.957 62.653 5.199 92.159-9.386 23.551-30.178 49.485-54.889 58.197-20.176 7.114-51.822 2.816-71.726-2.633-16.365-4.482-31.793-12.543-44.278-24.103" fill="#418FE7"/><mask id="mask2_203_4091723898522-aa4a-4b7d-abe0-8c4b11905554" style="mask-type:alpha" maskUnits="userSpaceOnUse" x="89" y="25" width="210" height="198" fill="#fff"><path id="Mask_6" fill-rule="evenodd" clip-rule="evenodd" d="M120.01 191.589c-29.395-27.218-39.704-74.804-19.772-109.555 17.713-30.884 53.796-46.476 88.754-53.226 19.605-3.785 40.571-5.315 58.958 2.468 16.478 6.973 29.303 20.922 37.754 36.693 15.002 27.997 16.957 62.653 5.199 92.159-9.386 23.551-30.178 49.485-54.889 58.197-20.176 7.114-51.822 2.816-71.726-2.633-16.365-4.482-31.793-12.543-44.278-24.103" fill="#fff"/></mask><g mask="url(#mask2_203_4091723898522-aa4a-4b7d-abe0-8c4b11905554)"><g id="Patterns_6"><g id="Group_3" fill="#fff"><path id="Path 48" d="M590.465 263.074l-.693.722L229.148-82.687l.693-.72 360.624 346.481z"/><path id="Path 49_2" d="M212.178-65.715l345.068 362.039-.724.69L211.454-65.025l.724-.69z"/><path id="Path 50_2" d="M526.108 327.412l-.672.74L154.912-8.431l.672-.74 370.524 336.583z"/><path id="Path 51_3" d="M501.339 352.143l-.632.775-389.616-317.49.632-.776 389.616 317.491z"/><path id="Path 52_3" d="M88.466 58.065l311.127 395.98-.786.618L87.68 58.683l.786-.618z"/><path id="Path 53_3" d="M67.245 79.27l319.613 387.494-.772.636L66.474 79.905l.771-.636z"/><path id="Path 54_3" d="M26.21 120.256l343.655 363.453-.727.687L25.484 120.943l.727-.687z"/><path id="Path 55_2" d="M345.072 508.417l-.639.769-386.08-321.027.639-.769 386.08 321.027z"/><path id="Path 56" d="M304.087 549.453l-.693.721-360.625-346.483.693-.721 360.625 346.483z"/><path id="Path 57" d="M281.458 572.079l-.691.723-361.332-345.775.692-.723 361.331 345.775z"/><path id="Path 59_3" d="M96.925 49.55l339.411 367.695-.734.678L96.19 50.228l.735-.678z"/></g></g></g></g><g id="Patterns_7"><path id="Mask_7" fill-rule="evenodd" clip-rule="evenodd" d="M300.791 200.575c-12.796-19.615-12.563-47.55 2.37-65.59 14.934-18.041 44.182-23.039 63.1-9.233 11.372 8.3 18.063 21.818 20.838 35.62 2.616 13.016 2.024 26.89-3.191 39.1-5.816 13.615-20.106 30.401-36.169 29.018-18.349-1.581-37.016-13.689-46.948-28.915" fill="#64BBF6"/><mask id="mask3_203_4091723898522-aa4a-4b7d-abe0-8c4b11905554" style="mask-type:alpha" maskUnits="userSpaceOnUse" x="291" y="117" width="98" height="113" fill="#fff"><path id="Mask_8" fill-rule="evenodd" clip-rule="evenodd" d="M300.791 200.575c-12.796-19.615-12.563-47.55 2.37-65.59 14.934-18.041 44.182-23.039 63.1-9.233 11.372 8.3 18.063 21.818 20.838 35.62 2.616 13.016 2.024 26.89-3.191 39.1-5.816 13.615-20.106 30.401-36.169 29.018-18.349-1.581-37.016-13.689-46.948-28.915" fill="#fff"/></mask><g mask="url(#mask3_203_4091723898522-aa4a-4b7d-abe0-8c4b11905554)"><g id="Patterns_8"><g id="Group_4" fill="#fff"><path id="Path 51_4" d="M286.252 89.05l.995-.1 17.85 174.999-.995.102-17.85-175z"/><path id="Path 52_4" d="M315.653 263.94l21-175 .993.12-21 175-.993-.12z"/><path id="Path 53_4" d="M326.152 263.952l16.8-175 .995.096-16.8 175-.995-.096z"/><path id="Path 54_4" d="M346.45 263.986l4.9-175 1 .028-4.9 175-1-.028z"/><path id="Path 55_3" d="M363.602 89.046l.996-.092 16.1 175-.996.092-16.1-175z"/><path id="Path 56_2" d="M383.9 89.01l1-.02 3.5 175-1 .02-3.5-175z"/><path id="Path 59_4" d="M311.45 263.98l7-175 .999.04-7 175-.999-.04z"/></g></g></g></g><g id="Patterns_9"><path id="Mask_9" fill-rule="evenodd" clip-rule="evenodd" d="M298.869 96.947c-12.468-17.475-11.84-43.16 1.427-60.036 13.267-16.875 37.04-19.552 57.01-11.676 19.968 7.876 32.506 26.63 30.803 48.028-3.684 46.293-62.474 61.199-89.24 23.684" fill="#7192F0"/><mask id="mask4_203_4091723898522-aa4a-4b7d-abe0-8c4b11905554" style="mask-type:alpha" maskUnits="userSpaceOnUse" x="289" y="21" width="100" height="98" fill="#fff"><path id="Mask_10" fill-rule="evenodd" clip-rule="evenodd" d="M298.869 96.947c-12.468-17.475-11.84-43.16 1.427-60.036 13.267-16.875 37.04-19.552 57.01-11.676 19.968 7.876 32.506 26.63 30.803 48.028-3.684 46.293-62.474 61.199-89.24 23.684" fill="#fff"/></mask><g mask="url(#mask4_203_4091723898522-aa4a-4b7d-abe0-8c4b11905554)"><g id="Patterns_10"><g id="Group_5" fill="#fff"><path id="Path 49_3" d="M273.012 24.016l227 5.448-.024 1-227-5.448.024-1z"/><path id="Path 50_3" d="M499.976 49.44l.048 1-227 10.895-.048-.998 227-10.896z"/><path id="Path 51_5" d="M499.949 65.333l.102.994-227 23.154-.102-.994 227-23.154z"/><path id="Path 52_5" d="M273.06 103.47l227 27.24-.12.992-227-27.24.12-.992z"/><path id="Path 53_5" d="M273.048 117.088l227 21.792-.096.996-227-21.792.096-.996z"/><path id="Path 59_5" d="M273.02 98.018l227 9.08-.04 1-227-9.08.04-1z"/></g></g></g></g></g></g><g id="Upper/Side" transform="translate(0 235)"><g id="Upper/Side/Running"><path id="Combined Shape" fill-rule="evenodd" clip-rule="evenodd" d="M884.953 48l.706.005c23.517.333 42.869 18.06 44.647 45.455l.296 4.612c1.446 22.822 2.398 42.278 2.979 66.016l.104 4.528c.757 35.391.185 68.85-2.091 99.213l-.198 2.57c-2.984 37.959-8.563 69.114-17.199 91.952-10.547 27.891-25.676 43.236-45.991 43.236-53.209 0-117.426-46.785-193.211-139.98a4.003 4.003 0 01.579-5.63 4 4 0 015.629.579c74.388 91.477 136.908 137.027 187.003 137.027 31.131 0 49.224-47.846 55.408-130.352 2.351-31.359 2.868-66.126 1.967-102.947l-.12-4.669c-.627-23.085-1.633-42.424-3.14-65.636-1.503-23.163-17.369-37.696-36.775-37.97-17.956-.255-31.187 11.8-31.391 31.614 20.782.643 34.25 6.564 36.4 17.859 9.571 1.406 14.151-5.101 14.542-21.903a4 4 0 117.999.186c-.488 21.019-8.51 31.72-23.259 29.709-1.629 3.397-5.149 5.829-10.141 7.241-6.026 1.703-14.684 2.142-26.098 1.398a4.002 4.002 0 01.52-7.988l1.172.073c18.843 1.108 27.484-1.384 27.566-5.351v-.128c-.066-7.97-11.486-13.117-32.383-13.15l-.019.002a15.156 15.156 0 00-2.095.456 17.679 17.679 0 00-5.43 2.641c-4.996 3.61-8.026 9.729-8.026 19.451 0 14.106 12.959 22.47 40.798 24.716a4.002 4.002 0 013.575 4.898l-6.029 25.931c-11.941 51.484-21.406 93.061-28.395 124.727-.838 3.797-6.051 4.289-7.584.715-35.403-82.525-88.708-131.856-160.071-148.382a4.003 4.003 0 011.804-7.799c70.305 16.282 123.691 63.249 160.026 140.565l.631 1.357 2.549-11.397c6.499-28.969 14.582-64.278 24.251-105.927l3.987-17.152-.891-.103c-27.607-3.281-42.338-13.704-42.648-31.57l-.005-.579c0-12.256 4.233-20.803 11.343-25.94a25.574 25.574 0 017.348-3.678l.561-.169-.001-.441c.091-24.026 16.4-39.56 38.14-39.886l.661-.005zM254.61 64.805c41.86-31.406 124.147-9.048 247.533 65.819a4.004 4.004 0 011.346 5.498 4 4 0 01-5.496 1.346c-120.672-73.22-200.423-94.889-238.582-66.26-38.113 28.596-38.113 107.906 1.427 237.776a4.004 4.004 0 01-.974 3.971l-.158.152-10.203 9.307c-12.548 11.444-15.879 29.851-8.193 44.95l.236.457.933 1.773a40.04 40.04 0 0039.581 21.185l.695-.079c14.975-1.747 26.268-14.438 26.268-29.52v-18.011a4.001 4.001 0 017.997-.2l.005.2v14.681l2.096.389c7.768 1.439 15.231-3.694 16.669-11.464.159-.859.239-1.731.239-2.605a26.815 26.815 0 00-17.731-25.233l-.381-.134-14.193-4.867a4.002 4.002 0 01-2.658-4.384l.63-4.199c9.975-66.761 14.439-112.681 13.405-137.551l-.036-.812-.02-.097a3.961 3.961 0 01-.057-.475l-.01-.263a4.041 4.041 0 014.047-4.093c1.576 0 2.948.914 3.599 2.252l.093.208.249.291c.216.247.48.538.786.866l.387.41.544.563c1.696 1.741 3.974 3.92 6.633 6.319l.446.402c8.317 7.465 18.678 15.664 30.292 23.666 32.546 22.421 68.804 39.377 106.808 47.153a4.002 4.002 0 01-1.603 7.842c-39.163-8.013-76.375-25.415-109.743-48.403-11.901-8.198-22.531-16.61-31.098-24.3a209.86 209.86 0 01-2.282-2.078l-.892-.83-.002.598c-.179 26.023-4.462 67.372-12.84 124.18l-.928 6.243 11.038 3.787a34.82 34.82 0 0123.516 32.493l.003.446c0 1.363-.125 2.723-.373 4.063-2.221 11.996-13.649 19.96-25.631 17.941l-.363-.064-.939-.175-.042.332c-2.251 16.659-15.409 30.068-32.432 32.314l-.569.07-.202.024c-19.527 2.279-38.45-7.573-47.801-24.828l-.281-.525-.933-1.773c-9.588-18.224-5.797-40.583 9.189-54.628l.457-.423 8.338-7.606-.468-1.55c-38.876-129.296-38.862-209.774 1.384-241.578l1.245-.959z" fill="#001D2D"/></g></g><g id="Heads" transform="translate(501.137 165.421)"><g id="Heads/Wide"><g id="Patterns"><path id="Mask" fill-rule="evenodd" clip-rule="evenodd" d="M57.366 40.325c-18.192 4.708-35.599 14.438-46.655 29.66C-.346 85.204-4.097 106.33 3.883 123.37c5.985 12.779 17.776 22.118 30.68 27.784 12.903 5.666 26.976 8.038 40.924 10.023 26.308 3.745 53.811 6.178 78.878-2.653 25.067-8.833 46.983-31.869 46.373-58.485-.471-20.63-14.375-39.258-32.042-49.865-31.134-18.693-76.995-18.736-111.33-9.85" fill="#FF996B"/><mask id="mask0_203_43638adb7771f-24af-4b13-adc4-494de073d748" style="mask-type:alpha" maskUnits="userSpaceOnUse" x="-1" y="34" width="202" height="131" fill="#fff"><path id="Mask_2" fill-rule="evenodd" clip-rule="evenodd" d="M57.366 40.325c-18.192 4.708-35.599 14.438-46.655 29.66C-.346 85.204-4.097 106.33 3.883 123.37c5.985 12.779 17.776 22.118 30.68 27.784 12.903 5.666 26.976 8.038 40.924 10.023 26.308 3.745 53.811 6.178 78.878-2.653 25.067-8.833 46.983-31.869 46.373-58.485-.471-20.63-14.375-39.258-32.042-49.865-31.134-18.693-76.995-18.736-111.33-9.85" fill="#fff"/></mask><g mask="url(#mask0_203_43638adb7771f-24af-4b13-adc4-494de073d748)"><g id="Patterns_2"><g id="Group" fill="#fff"><path id="Path 7" d="M291.108 147.73c-35.75 43.173-65.366 64.782-88.925 64.782-7.616 0-15.277-.656-23.861-1.945l-1.463-.225c-3.434-.537-7.043-1.176-11.206-1.971l-3.403-.66-11.429-2.284c-24.929-4.967-41.023-7.066-61.773-7.066-15.405 0-29.59 1.81-49.244 5.66l-2.823.562c-2.73.554-13.7 2.777-16.864 3.377l-1.451.272c-5.461 1.012-9.787 1.664-13.665 2.025-9.927.924-16.84-.139-21.737-3.789l-.28-.214.614-.789c4.577 3.562 11.163 4.674 20.743 3.847l.567-.05c4.012-.374 8.518-1.063 14.294-2.147l3.122-.604c5.315-1.05 15.266-3.072 15.078-3.034l1.112-.221c20.284-4.01 34.765-5.895 50.534-5.895 20.157 0 35.934 1.973 59.577 6.612l14.083 2.809c.772.151 1.507.294 2.234.434l1.78.34c4.366.827 8.127 1.477 11.749 2.022 8.538 1.283 16.149 1.934 23.712 1.934 22.938 0 51.993-21.032 87.09-63.138l1.065-1.282.77.638z"/><path id="Path 10" d="M291.105 138.504c-19.734 23.45-42.973 39.5-69.708 48.143-9.303 3.008-20.641 3.799-34.998 2.794l-2.171-.162c-9.154-.717-16.385-1.694-34.336-4.537l-14.022-2.23c-8.929-1.401-15.069-2.285-21.614-3.086-23.686-2.899-42.256-3.055-58.754.304l-.784.163c-36.693 7.751-60.54 4.588-71.5-9.602l-.329-.433.803-.596c10.402 14.012 33.629 17.343 69.722 9.882l1.097-.229c16.296-3.443 34.527-3.442 57.617-.75l2.249.269c6.886.842 13.321 1.776 23.007 3.304l15.711 2.497c16.515 2.594 23.294 3.462 32.513 4.147 14.65 1.088 26.136.335 35.481-2.686 26.251-8.487 49.11-24.165 68.581-47.044l.67-.792.765.644z"/><path id="Path 11" d="M290.751 125.993l-.056.998c-14.668-.815-26.248 3.123-42.829 12.872l-1.769 1.05c-.591.353-1.206.723-1.871 1.126l-6.374 3.881c-12.252 7.442-19.974 11.438-29.331 14.58-11.823 3.97-24.15 5.446-38.068 4.111l-.91-.091c-34.446-3.591-68.555-1.447-108.733 4.831l-2.802.444c-8.039 1.299-27.556 4.647-30.985 5.181-18.447 2.871-33.079-3.208-43.817-18.207l-.324-.457.818-.575c10.44 14.867 24.618 20.968 42.612 18.335l.557-.084c3.51-.547 23.973-4.059 31.593-5.279l.56-.089c40.42-6.401 74.686-8.683 109.224-5.238l1.401.143c14.147 1.475 26.61.038 38.556-3.973 8.724-2.93 16.029-6.616 27.024-13.215l8.876-5.392c.777-.47 1.489-.896 2.183-1.309l.346-.205c16.88-10.009 28.659-14.16 43.473-13.471l.646.033z"/><path id="Path 12" fill-rule="evenodd" clip-rule="evenodd" d="M38.232 131.534c9.525 1.232 17.242 3.995 20.967 7.778 4.372 4.441 3.128 9.949-4.271 15.872-14.462 11.577-28.714 15.634-39.956 12.395-10.349-2.981-16.81-11.935-16.81-23.244 0-10.495 19.29-15.49 40.07-12.801zm-22.983 35.084c10.897 3.14 24.826-.825 39.054-12.215 6.984-5.591 8.078-10.433 4.183-14.39-3.53-3.587-11.06-6.281-20.383-7.488-20.224-2.617-38.94 2.23-38.94 11.81 0 10.871 6.173 19.428 16.086 22.283z"/><path id="Path 12_2" fill-rule="evenodd" clip-rule="evenodd" d="M35.18 137.993c6.03.788 10.921 2.556 13.3 4.998 2.836 2.91 2.027 6.529-2.703 10.354-9.142 7.393-18.17 9.989-25.308 7.912-6.592-1.918-10.708-7.682-10.708-14.948 0-6.836 12.243-10.039 25.419-8.316zm-14.431 22.304c6.79 1.976 15.492-.527 24.4-7.729 4.318-3.493 4.98-6.453 2.615-8.88-2.186-2.242-6.886-3.942-12.714-4.704-12.622-1.65-24.289 1.402-24.289 7.325 0 6.831 3.832 12.197 9.988 13.988z"/><path id="Path 12_3" fill-rule="evenodd" clip-rule="evenodd" d="M31.942 145.106c2.324.299 4.216.971 5.169 1.931 1.216 1.226.864 2.773-1.041 4.287-6.933 5.508-14.012 3.484-14.012-2.841 0-2.702 4.415-3.939 9.307-3.443l.577.066zm-8.884 3.377c0 5.373 6.043 7.1 12.39 2.058 1.487-1.182 1.687-2.059.953-2.799-.76-.766-2.464-1.371-4.586-1.644-4.559-.585-8.757.494-8.757 2.385z"/><path id="Path 13" d="M290.746 116.149l-.047.999-2.589-.115c-27.025-1.136-48.96.049-67.313 3.256-14.771 2.582-26.461 6.237-38.844 11.601l-.954.416c-3.276 1.438-15.893 7.362-19.088 8.736-12.923 5.556-23.442 7.726-37.846 6.868-20.361-1.213-34.626-5.358-51.13-13.334l-1.19-.582c-2.14-1.067-11.339-5.706-14.09-6.988-9.984-4.651-17.932-6.782-27.635-6.782-20.934 0-36.25 6.956-46.005 20.866l-.312.451-.825-.565c9.937-14.501 25.67-21.752 47.142-21.752 9.626 0 17.556 2.063 27.32 6.536l.737.34c2.98 1.389 13.432 6.669 14.47 7.176 16.747 8.184 31.021 12.411 51.577 13.636 13.963.831 24.204-1.21 36.657-6.475l.735-.314c3.176-1.366 15.788-7.287 19.081-8.733 12.809-5.622 24.794-9.423 40.028-12.086 18.72-3.271 41.132-4.446 68.819-3.215l1.302.06z"/><path id="Path 14" fill-rule="evenodd" clip-rule="evenodd" d="M203.592 130.854c17.879-4.721 34.61-5.996 36.545-2.124 1.231 2.465-.531 5.251-4.659 8.354-2.843 2.137-6.755 4.389-11.651 6.814l-.204.1c-3.129 1.538-9.624 4.472-12.977 5.986a285.78 285.78 0 00-2.017.915l-.607.298c-5.045 2.458-12.035 4.952-18.056 5.936-9.204 1.504-15.438-.509-17.166-7.135-1.738-6.667 10.566-13.652 29.617-18.829l1.175-.315zm20.392 11.849c4.565-2.286 8.225-4.413 10.894-6.419 3.775-2.837 5.296-5.243 4.364-7.107-1.583-3.168-18.172-1.904-35.394 2.644l-.571.152c-18.765 5.027-31.038 11.909-29.509 17.773 1.561 5.986 7.278 7.831 16.037 6.4 6.122-1 13.307-3.607 18.303-6.106.122-.061.955-.438 2.191-.996 3.311-1.496 9.511-4.298 12.67-5.839l1.015-.502z"/><path id="Path 14_2" fill-rule="evenodd" clip-rule="evenodd" d="M198.776 137.715c9.688-2.544 18.641-3.222 19.755-1.005.728 1.449-.269 3.017-2.553 4.724-1.531 1.144-3.627 2.344-6.25 3.636l-.328.159c-1.747.843-5.018 2.312-6.724 3.078-.506.228-.875.393-1.024.462l-.507.245c-2.696 1.288-6.364 2.578-9.539 3.094-5.011.814-8.455-.291-9.416-3.955-.973-3.712 5.554-7.431 15.73-10.209l.856-.229zm11.45 5.987c2.136-1.089 3.866-2.107 5.153-3.069 1.93-1.442 2.684-2.628 2.258-3.474-.739-1.47-9.057-.886-17.799 1.315l-.808.208c-10.028 2.633-16.641 6.285-15.873 9.217.793 3.024 3.722 3.964 8.289 3.222 3.239-.526 7.049-1.901 9.694-3.216.067-.034.521-.238 1.192-.539 1.854-.833 5.364-2.411 6.954-3.194l.94-.47z"/><path id="Path 15" d="M290.872 107.557l-.298.955c-21.846-6.822-40.498-9.45-58.074-8.709l-1.422.067c-12.728.653-23.65 2.798-40.376 7.362l-2.217.609-7.333 2.041c-18.491 5.121-28.778 7.358-42.084 8.564l-.636.057c-18.108 1.585-37.226.212-59.375-4.788l-1.19-.271c-66.695-15.37-100.372-2.192-101.433 39.468l-.022 1.271-1-.009c.41-43.039 34.095-57.072 100.653-42.165l2.027.46c22.555 5.198 41.928 6.642 60.253 5.038l1.26-.115c12.723-1.193 22.808-3.377 40.412-8.233l8.536-2.374 1.889-.519c17.411-4.75 28.578-6.894 42.016-7.462 17.394-.734 35.825 1.809 57.301 8.408l1.113.345z"/><path id="Path 16" d="M304.025 88.034l-.781.625c-15.734-19.68-32.259-27.193-51.769-25.395-8.265.762-17.07 3.153-27.508 7.23l-1.302.514c-3.495 1.393-7.191 2.975-11.443 4.882l-2.437 1.1a887.224 887.224 0 00-3.956 1.815l-10.064 4.668c-25.067 11.589-40.241 17.095-57.69 19.52-43.921 6.104-94.663-2.291-152.225-25.174l-1.746-.698.373-.928c58.132 23.35 109.285 31.949 153.461 25.809l1.219-.175c16.618-2.464 31.433-7.852 55.311-18.857l11.884-5.507a682.736 682.736 0 013.836-1.753l2.419-1.088c4.458-1.99 8.314-3.621 11.996-5.06 10.518-4.108 19.409-6.522 27.781-7.293 19.656-1.812 36.366 5.678 52.163 25.171l.478.594z"/><path id="Path 17" d="M298.361 62.694l-.52.854c-12.336-7.513-25.416-12.286-46.751-14.465-30.53-3.117-70.584.917-122.228 14.12l-1.568.402C50.054 83.538-4.498 81.117-36.356 56.272l-.958-.76.628-.778c31.096 25.054 84.896 27.91 161.404 8.498l2.326-.595c52.51-13.55 93.182-17.71 124.148-14.548 21.194 2.164 34.344 6.885 46.65 14.29l.519.315z"/><path id="Path 18" fill-rule="evenodd" clip-rule="evenodd" d="M64.453 12.786c16.597 0 32.628 5.682 42.519 14.117 9.587 8.174 10.869 16.988 1.969 21.287-9.115 4.404-30.415 9.115-50.285 10.996l-1.384.127c-24.22 2.138-41.887-.133-47.33-7.587-12.18-16.676 18.925-38.94 54.51-38.94zm-6.581 45.469c19.957-1.826 41.54-6.572 50.634-10.965 8.09-3.908 6.935-11.852-2.182-19.627-9.708-8.277-25.508-13.877-41.871-13.877-34.923 0-65.17 21.65-53.704 37.35 5.144 7.045 22.583 9.286 46.435 7.18l.688-.061z"/><path id="Path 18_2" fill-rule="evenodd" clip-rule="evenodd" d="M63.346 27.312c11.114 0 21.852 2.875 28.49 7.15 6.546 4.217 7.461 8.973 1.288 11.225-6.052 2.209-20.108 4.568-33.302 5.535l-1.274.09c-16.245 1.083-28.056-.064-31.747-3.882-4.044-4.182-1.313-9.315 6.34-13.453 7.558-4.086 18.795-6.665 30.205-6.665zM59.113 50.27c13.292-.93 27.623-3.316 33.668-5.522 5.19-1.894 4.476-5.603-1.487-9.444-6.469-4.167-17.019-6.992-27.948-6.992-11.251 0-22.325 2.542-29.729 6.545-7.16 3.872-9.531 8.327-6.097 11.878 3.306 3.42 14.485 4.582 29.79 3.653l1.803-.118z"/><path id="Path 18_3" fill-rule="evenodd" clip-rule="evenodd" d="M76.034 39.197c1.558.766 2.533 1.6 2.75 2.456.263 1.045-.553 1.833-2.166 2.282-7.952 2.215-28.813 3.276-32.206.598-1.116-.881-1.318-1.987-.581-3.044.622-.891 1.903-1.734 3.703-2.477 3.675-1.517 9.125-2.471 14.657-2.471 5.393 0 10.606 1.065 13.843 2.656zm-31.002 4.551c3.044 2.403 23.672 1.353 31.318-.776l.196-.058c1.007-.31 1.355-.67 1.268-1.016-.123-.488-.906-1.157-2.22-1.803-3.091-1.52-8.155-2.554-13.403-2.554-5.408 0-10.73.932-14.276 2.396-1.639.676-2.775 1.423-3.264 2.124-.425.61-.331 1.125.38 1.687z"/><path id="Path 19" d="M304.057 51.163l-.843.538c-5.024-7.87-14.775-12.292-29.549-14.18l-.655-.081c-11.441-1.39-21.901-1.357-46.839-.393l-7.002.268c-8.396.31-14.335.457-20.132.465h-.544c-14.538 0-25.122-2.468-36.866-8.021l-.679-.324c-5.093-2.45-24.191-13.15-26.796-14.53-12.864-6.816-25.579-12.44-41.303-17.86a346.97 346.97 0 00-5.187-1.741C45.665-18.435 7.888-4.98-25.756 35.739l-1.018 1.242-.776-.63C6.596-5.64 45.133-19.662 87.973-5.648a355.23 355.23 0 015.202 1.747c15.324 5.282 27.806 10.76 40.339 17.339l1.47.778c3.676 1.988 21.528 11.974 26.398 14.317 11.661 5.61 22.048 8.15 36.286 8.244l1.91.001c5.071-.015 10.308-.137 17.26-.38l15.193-.571c20.835-.742 30.536-.665 41.099.619 15.185 1.845 25.335 6.293 30.693 14.357l.234.358z"/></g></g></g></g></g></g><g id="Eyes" transform="translate(582 235.421)"><g id="Eyes/Tiny"><path id="Fill 1" d="M75.53 28.9c3.189.532 6.683-1.098 8.139-3.984C86.888 18.535 79.472 13 73.598 15.7c-6.168 2.837-4.678 12.1 1.932 13.2" fill="#001D2D"/><path id="Fill 4" d="M24.92 28.9c-3.19.532-6.684-1.098-8.14-3.984C13.56 18.535 20.976 13 26.85 15.7c6.168 2.836 4.68 12.099-1.93 13.2" fill="#001D2D"/><path id="Fill 5" fill-rule="evenodd" clip-rule="evenodd" d="M32.592 37.556c-2.547.002-5.157.015-7.547.877-2.391.86-4.558 2.759-4.973 5.22-.38 2.251.783 4.549 2.497 6.096 1.713 1.545 3.914 2.46 6.106 3.237 12.753 4.517 26.878 5.246 40.046 2.065 2.638-.637 5.294-1.455 7.477-3.037 2.184-1.582 3.845-4.06 3.801-6.72-.063-3.821-3.633-6.885-7.43-7.766-5.151-1.195-11.83.013-17.208.002-7.59-.014-15.18.017-22.77.026" fill="#FFD6CE"/><path id="Fill 6" fill-rule="evenodd" clip-rule="evenodd" d="M30.088 44.086l10.259.3c3.408.084 6.809.173 10.203.185 3.393.035 6.778-.001 10.15-.08 3.372-.091 6.724-.251 10.077-.482l.029-.002c1.104-.077 2.082.524 2.185 1.34.088.697-.488 1.325-1.343 1.544-3.423.876-6.97 1.38-10.511 1.696-3.547.324-7.105.427-10.65.411-3.544-.042-7.078-.201-10.586-.528-3.507-.32-6.994-.773-10.416-1.464l-.005-.001c-1.07-.216-1.7-1.033-1.409-1.825.25-.68 1.103-1.12 2.017-1.094" fill="#E5A193"/></g></g><g id="Lower/Side" transform="translate(0 700)"><g id="Lower/Side/Running"><path id="Legs" fill-rule="evenodd" clip-rule="evenodd" d="M576.896 119.923a4.001 4.001 0 011.056 5.558c-91.828 134.924-154.808 187.096-211.263 176.19-26.122-5.046-50.875-23.419-78.344-56.272l-1.304-1.566c-20.824-25.122-40.097-53.624-78.039-113.584l-19.695-31.168-7.863-12.395a5086.854 5086.854 0 00-5.948-9.333l-3.431-5.364-30.453-4.564c-11.174-1.674-14.327-16.18-5.039-22.397l.286-.186 66.237-41.99c8.435-5.349 19.958-3.358 24.843 5.053 15.247 26.243 33.247 51.975 56.143 78.915 24.222 28.503 53.053 57.242 87.327 86.395 12.786-13.464 30.349-34.438 51.397-61.045l.71-.899c3.003-3.8 6.06-7.694 9.165-11.672 12.739-16.32 25.789-33.42 38.522-50.377l4.295-5.73c2.075-2.773 4.071-5.448 5.978-8.012l7.72-10.417 2.571-3.493a3.996 3.996 0 015.588-.86 4.002 4.002 0 01.98 5.422l-.21.295-4.769 6.469-4.751 6.404a3777.085 3777.085 0 01-8.278 11.091c-13.621 18.181-27.657 36.602-41.342 54.134a2459.564 2459.564 0 01-7.684 9.796l-3.671 4.644c-20.367 25.691-37.427 46.036-50.095 59.416a998.177 998.177 0 0010.175 8.394 4.002 4.002 0 01.58 5.627 3.996 3.996 0 01-5.624.576c-41.919-34.119-76.384-67.689-104.675-100.979-23.213-27.313-41.486-53.434-56.965-80.078-2.429-4.182-8.636-5.317-13.405-2.46l-.242.148L141.142 51.6c-3.333 2.113-2.34 7.147 1.451 7.88l.198.034 32.25 4.834a4 4 0 012.774 1.797l4.294 6.708c2.274 3.56 4.6 7.21 7.029 11.034l28.876 45.65c36.649 57.837 55.457 85.502 75.82 109.961l.643.771c26.399 31.573 49.771 48.921 73.723 53.548 52.064 10.057 113.041-40.456 203.141-172.841a3.997 3.997 0 015.555-1.053zm99.792-81.283a4.002 4.002 0 015.13-2.385C752.203 61.938 828.1 100.656 905.345 147.68l4.564 2.787c48.981 29.997 91.191 58.752 122.791 81.947a6.881 6.881 0 006.64.842l.25-.103 26.34-11.718c9.51-4.23 19.17 5.466 15.04 14.898l-.13.286-29.34 62.743c-3.73 7.976-13.02 11.67-21.21 8.424l-8.97-3.554c-56.579-22.372-122.469-47.734-187.256-71.527l-8.778-3.216c-100.525-36.747-175.301-61.028-212.094-67.558a3.997 3.997 0 111.403-7.873c38.192 6.779 115.499 31.994 219.638 70.19l10.253 3.77c65.835 24.27 132.37 49.965 188.764 72.335 4.16 1.649 8.86-.153 10.88-4.117l.12-.256 29.35-62.744c1.29-2.764-1.47-5.647-4.25-4.564l-.17.068-26.34 11.718a14.904 14.904 0 01-14.88-1.598l-2.95-2.156c-32.08-23.412-74.642-52.252-123.829-82.194-76.834-46.773-152.289-85.266-222.11-110.742a3.995 3.995 0 01-2.383-5.127z" fill="#001D2D"/></g></g><g id="Head Accesory" transform="scale(-1 1) rotate(45 -208.97 -563.98)"><g id="Head Accesory/Cap"><path id="Fill 1" fill-rule="evenodd" clip-rule="evenodd" d="M111.985 154C77.141 154 58 169.852 58 199.969v.001h138.699a2.97 2.97 0 000-5.939h-57.877C139.985 176.21 146.829 154 111.985 154" fill="#FF7272"/></g></g></g></g></g></svg>