<svg viewBox="208 208 624 624" xmlns="http://www.w3.org/2000/svg" overflow="visible" xmlns:xlink="http://www.w3.org/1999/xlink" width="624px" height="624px"><g id="Master/Composition/Sticker" stroke="none" stroke-width="1" fill="none" fill-rule="evenodd"><g id="Stickers" fill="#000" transform="scale(1 1)"><g id="Stickers/Banana" stroke="none" stroke-width="1" fill="none" fill-rule="evenodd"><g id="Ink" transform="translate(216.000000, 219.000000)" fill="#000"><path d="M386.055655,128.186839 C400.684408,123.685398 405.341703,121.208072 387.812421,114.98137 C381.846872,114.027879 383.238468,124.245889 386.055655,128.186839 M399.809315,183.594418 C397.02393,179.92386 390.568197,183.137925 386.342966,182.626696 C382.091416,182.962771 380.521073,184.899311 380.232665,189.932781 C382.229589,197.265139 397.182938,187.360216 399.809315,183.594418 M393.809771,174.972494 C404.277993,177.89646 417.049092,167.60401 405.393243,166.109733 C399.027433,167.223052 392.236138,167.914908 386.117065,169.873341 C379.869688,175.528606 389.493521,175.990573 393.809771,174.972494 M383.793352,155.950838 C383.078363,167.34347 403.180288,155.380495 410.627354,157.815126 C415.540159,157.728644 415.915199,146.697266 409.558161,148.449895 C401.912609,149.340987 394.520373,152.475138 386.57106,150.935978 C384.636644,150.920652 383.485205,154.505822 383.793352,155.950838 M383.988548,140.208929 C384.394293,151.788756 402.634177,139.871758 409.884951,140.439912 C416.941624,139.167861 412.838116,130.316047 407.523953,130.449602 C400.413546,133.107554 384.01377,129.996393 383.988548,140.208929 M394.569721,345.686819 C366.746578,361.608261 361.186774,399.26514 359.32254,428.832124 C359.496901,439.716811 402.529999,416.745447 405.169535,410.62931 C408.041552,405.260859 410.030799,398.978327 418.317867,403.336361 C434.703387,397.192857 448.851826,383.403908 462.299532,371.986098 C470.015267,360.629591 455.8438,358.601096 474.820604,348.16524 C457.691584,327.463206 427.196007,321.722554 404.451257,336.957613 C403.175902,337.894684 402.169215,341.017887 404.568594,341.499559 C414.512637,340.936879 414.423812,348.630491 416.361518,355.609258 C413.088143,371.747451 389.870755,359.584145 394.569721,345.686819 M523.987032,213.206285 C523.603219,169.507708 520.175222,121.289081 486.940318,89.9158282 C454.693458,63.3352097 421.994795,29.3707821 376.534902,41.259317 C365.149916,43.4213664 378.504411,58.6969296 378.311408,65.7129167 C382.435751,78.1542795 379.413499,94.2464952 386.471269,104.998723 C442.382934,114.442773 435.648663,196.390467 383.226406,204.797828 C365.208036,208.656676 364.755137,274.384072 349.831396,292.054858 C320.886423,337.812581 292.347195,388.711055 242.583116,414.568071 C231.894476,420.984158 221.18171,427.216334 209.426071,429.752774 C207.489461,435.017227 201.432894,432.049472 197.471945,434.231226 C193.962799,435.969623 195.218415,440.895812 195.185517,444.097835 C196.576016,457.474078 198.067403,458.989155 211.339652,458.299489 C256.171188,455.002226 301.756094,451.36232 344.575353,436.941725 C358.913505,435.726598 342.0707,419.484407 347.687527,398.010604 C351.88644,349.828102 398.390304,304.000318 448.810155,317.205787 C463.08251,314.820417 486.838333,345.745934 492.33234,333.944975 C512.174369,297.58861 525.892937,254.249098 523.987032,213.206285 M538.842783,205.6725 C539.642211,306.433855 479.131371,400.868888 383.615701,436.419549 C352.050931,451.030624 317.94203,461.154489 283.046861,465.909902 C246.170121,471.371403 208.602518,481.448196 171.380346,472.328179 C162.118393,470.213202 161.927584,458.093683 160.269512,450.564278 C156.040991,419.660655 202.711539,425.104641 220.162961,409.29486 C270.738531,384.610277 284.197203,357.369549 315.313461,314.473394 C349.33244,268.544897 360.788705,205.511578 364.778166,149.559929 C364.006154,121.869276 365.252997,94.1545397 361.912729,66.6149566 C357.120551,49.1674916 343.804438,14.4827457 366.287099,5.27734144 C431.677845,-8.28828699 395.434944,5.97904962 440.545019,28.9723081 C511.792749,75.9725253 541.448324,118.371682 538.842783,205.6725" id="Fill-1"/><path d="M214.877715,297.717155 C236.679683,299.638257 257.248736,295.989805 277.680677,289.674798 C280.793677,289.172356 284.568107,287.076111 286.670863,290.757402 C282.077049,316.941311 230.227722,312.362411 208.678041,314 C162.916504,311.504209 117.882212,300.522731 73.338233,290.192565 C49.2261954,283.539313 30.5953629,265.178832 9.68298013,252.234655 C-8.97856552,243.010081 5.02444933,219.346045 5.31732141,203.550317 C7.78205386,190.210973 11.7440537,187.089046 25.1152546,190.365318 C50.3779395,196.554441 75.2347717,193.920725 100.169484,189.010148 C149.361024,185.282881 192.246491,161.109835 237.770001,145.149911 C263.270713,131.952871 291.668335,119.414807 309.549986,95.9729835 C316.351857,86.8753887 323.214059,77.0673693 332.326,70.0988591 C337.007566,69.0742714 334.29274,76.3011178 333.454709,78.5068275 C319.961753,108.24067 298.019382,133.843323 269.363988,149.70254 C247.116678,162.564619 259.838515,196.605889 230.34509,206.863808 C198.936479,217.978833 165.686174,193.742298 134.217234,202.604544 C97.7793404,207.869787 61.8613769,214.25704 24.360588,209.072802 C22.0011579,208.89328 20.4852432,210.242977 19.8413634,212.451971 C8.22629802,236.837378 37.436723,240.806561 51.4134123,254.319954 C82.498438,275.665531 121.786076,280.916544 157.883931,289.386907 C176.65736,294.528454 195.571192,299.231049 214.877715,297.717155" id="Fill-3"/><path d="M607.95981,288.569934 C601.125843,380.774508 579.03641,495.876594 491.383029,544.480861 C476.221914,552.172257 424.149262,577.43897 411.00685,566.133968 C410.494495,534.646321 438.889082,508.961514 440.199045,476.514774 C445.060388,463.905011 445.495945,425.017866 462.27641,425.75639 C466.443275,426.652933 467.142141,430.903008 466.366477,434.792052 C459.682816,464.523922 458.308123,496.121305 444.326414,523.656261 C440.72676,529.693935 448.548135,533.208779 450.571226,538.310406 C454.320088,545.194145 454.351905,545.52445 461.417364,541.994243 C475.746861,533.953887 491.925006,528.279438 504.440962,517.474832 C567.016353,458.13619 586.062373,366.436402 592.427868,283.5133 C589.349347,270.350467 579.723208,258.902808 578.366069,244.584455 C575.977637,233.293719 587.88469,228.786861 593.733442,237.774239 C598.379749,254.662609 608.724503,270.786119 607.95981,288.569934" id="Fill-7"/><path d="M344.623389,492.571738 C358.630751,492.119615 373.228738,493.029348 384.405699,502.579902 C393.12592,509.40345 384.388166,521.487869 375.099235,516.955663 C365.334736,512.957885 354.879894,513.433053 344.737351,511.896712 C297.54647,513.593271 269.324644,567.044766 261,557.961699 C269.036454,520.77786 307.504922,494.765414 344.61024,492 C344.614623,492.190945 344.619006,492.380793 344.623389,492.571738" id="Fill-14"/><path d="M106.736996,149.992146 C99.395248,147.725605 89.7464695,150.465591 80.5917417,147.089345 C77.3250912,145.884308 72.3812973,145.3241 69.7620614,146.917962 C64.2256256,150.288852 59.2325361,148.671425 54.5308379,146.832271 C42.4643875,146.754077 12.968133,120.801329 40.1847431,123.150348 C80.184232,139.128603 123.334253,134.143499 163.373178,125.611837 C186.25945,142.993291 117.353062,150.273856 106.736996,149.992146" id="Fill-18"/><path d="M197.095261,567.13206 C197.230296,556.743278 207.18421,505.409057 221.529004,527.437791 C221.366296,545.72617 210.135076,569.604796 225.498172,584.22848 C229.667681,588.715592 235.343615,594.07008 236,600.494808 C236.006619,601.364377 234.524545,603.10571 234.121651,602.994958 C215.018504,599.124111 195.465975,589.331857 197.095261,567.13206" id="Fill-24"/><path d="M174.372373,371.910829 C142.825426,365.841722 163.229824,353.601093 182.508635,353.589359 C200.229275,353.534951 213.723244,341.548225 229.943466,338 C243.035361,351.645623 189.944265,373.571859 174.372373,371.910829" id="Fill-26"/><path d="M131.213799,332.189443 C140.419155,333.783908 142.079703,340.30873 132.849862,344.509809 C117.03014,349.13851 107.802525,382.022287 98.7296126,377.59027 C78.6783874,373.150518 116.547112,328.753 131.213799,332.189443" id="Fill-30"/><path d="M118.146413,103.777667 C108.302758,105.718392 73.2178302,94.5220707 95.0085795,87 C113.247221,88.7671551 178.014385,96.1829144 118.146413,103.777667" id="Fill-34"/><path d="M366,549.334828 C358.090556,551.120424 305.314821,573.545246 322.374231,551.046955 C333.264497,543.769349 357.850707,535.814559 366,549.334828" id="Fill-36"/><path d="M78,336.79667 C70.3755336,342.564362 65.4948654,353.043378 56.4930124,357 C41.2265193,352.466503 69.03217,328.297024 78,336.79667" id="Fill-38"/><path d="M416.259298,383.936241 C406.056365,385.088096 403.375989,370.266854 412.843734,369.073113 C421.349825,367.81759 426.655875,383.137272 416.259298,383.936241" id="Fill-40"/><path d="M451,363.275317 C450.309868,372.636661 435.738971,376.943946 433.003401,368.39383 C432.745145,359.794818 447.268296,357.296681 451,363.275317" id="Fill-42"/><path d="M439,340.7908 C441.242612,321.275675 458.577606,343.795834 451.17124,350.205181 C444.246131,353.154118 439.254719,347.424534 439,340.7908" id="Fill-44"/><path d="M397,401.146879 C395.444366,408.730628 380.519277,411.174185 380,402.487658 C381.670907,394.622831 393.922764,393.590054 397,401.146879" id="Fill-46"/><path d="M393,377.198277 C392.33241,380.177684 392.541358,387.895335 387.039748,386.914465 C373.603325,384.57951 391.070362,359.695052 393,377.198277" id="Fill-48"/></g></g></g></g></svg>