<svg viewBox="262.5 145.79439252336442 2512.4999999999995 1308.4112149532707" fill="none" xmlns="http://www.w3.org/2000/svg" xmlns:xlink="http://www.w3.org/1999/xlink" overflow="visible" width="2512.4999999999995px" height="1308.4112149532707px"><g id="Master/Solo/Meditating"><g id="Backgrounds"><path id="Shape" fill-rule="evenodd" clip-rule="evenodd" d="M2722 301C2724.76 301 2727 303.239 2727 306V762H2735.82C2743.54 762 2749.83 768.131 2750 775.78L2750 776.091V787.909C2750 795.598 2743.81 801.832 2736.14 801.997L2735.82 802H1974.18C1966.46 802 1960.17 795.869 1960 788.22L1960 787.909V776.091C1960 768.402 1966.19 762.168 1973.86 762.003L1974.18 762H1984V306C1984 303.239 1986.24 301 1989 301H2722ZM2735.82 772H1974.18C1971.93 772 1970.11 773.732 1970.01 775.888L1970 776.091V787.909C1970 790.09 1971.75 791.888 1973.97 791.995L1974.18 792H2735.82C2738.07 792 2739.89 790.268 2739.99 788.112L2740 787.909V776.091C2740 773.842 2738.14 772 2735.82 772ZM2024 582.78V762H2687V654.818L2567.05 692.628C2545.66 699.369 2522.48 697.164 2502.77 686.558L2502.13 686.213L2501.5 685.863L2403.95 631.161C2374.14 614.445 2337.67 615.043 2308.44 632.66L2307.56 633.199L2229.35 681.508C2199.1 700.197 2160.33 697.516 2132.95 674.947L2132.13 674.257L2024 582.78ZM2717 311H1994V762H2014V336C2014 333.311 2016.12 331.118 2018.78 331.005L2019 331H2692L2692.22 331.005C2692.35 331.01 2692.47 331.021 2692.6 331.036L2692.86 331.074V331.074L2693.13 331.128V331.128L2693.3 331.172V331.172L2693.56 331.249V331.249L2693.82 331.341V331.341L2694.12 331.469V331.469L2694.24 331.531L2694.49 331.662V331.662L2694.65 331.759V331.759L2694.91 331.933V331.933L2695.02 332.013L2695.18 332.139V332.139L2695.36 332.294V332.294L2695.46 332.393V332.393L2695.65 332.581L2695.77 332.716V332.716L2695.88 332.85V332.85L2696.07 333.096V333.096L2696.18 333.251V333.251L2696.3 333.455L2696.4 333.618V333.618L2696.46 333.739V333.739C2696.63 334.082 2696.77 334.447 2696.86 334.829C2696.95 335.205 2697 335.597 2697 336V762H2717V311ZM2484.97 585.947L2483.8 586.999L2431.34 635.056L2506.39 677.14C2523.76 686.881 2544.35 689.097 2563.39 683.294L2564.04 683.09L2659.1 653.127L2627.34 604.845C2624.56 600.614 2621.44 596.612 2618.02 592.877C2582.94 554.576 2523.69 551.614 2484.97 585.947ZM2141.71 616.372L2140.9 617.172L2113.05 645.02L2138.58 666.623C2162.46 686.826 2196.53 689.551 2223.29 673.492L2224.1 673L2267.29 646.321L2238.48 617.172C2211.8 590.495 2168.72 590.228 2141.71 616.372ZM2687 341H2024V569.68L2105.39 638.539L2133.83 610.101C2164.37 579.558 2213.7 579.253 2244.62 609.185L2245.55 610.101L2276.02 640.928L2302.3 624.692C2334.44 604.839 2374.74 603.796 2407.84 621.885L2408.84 622.439L2422.16 629.907L2477.05 579.625C2519.81 540.453 2586.22 543.362 2625.4 586.122C2628.91 589.955 2632.13 594.043 2635.03 598.352L2635.7 599.35L2669.01 650.003L2687 644.333V341ZM2330 397C2369.21 397 2401 428.788 2401 468C2401 507.212 2369.21 539 2330 539C2290.79 539 2259 507.212 2259 468C2259 428.788 2290.79 397 2330 397ZM2330 407C2296.31 407 2269 434.311 2269 468C2269 501.689 2296.31 529 2330 529C2363.69 529 2391 501.689 2391 468C2391 434.311 2363.69 407 2330 407ZM2157.21 478C2169.6 478 2178.68 482.805 2184.58 490.777C2186.65 493.57 2188.17 496.553 2189.24 499.554L2189.43 500.085L2189.54 500.42L2189.8 500.499C2195.78 502.379 2200.08 508.001 2200 514.591C2199.91 522.577 2193.41 529 2185.42 529H2097.05C2093.54 529 2091.12 525.479 2092.38 522.204L2092.57 521.732C2097.53 509.206 2106.22 502.101 2118.09 501.039L2118.29 501.022L2118.39 500.858C2118.66 500.436 2118.94 500 2119.23 499.552C2121.21 496.589 2123.6 493.634 2126.44 490.868C2134.66 482.862 2144.93 478 2157.21 478ZM2157.21 488C2147.76 488 2139.89 491.726 2133.42 498.032C2131.11 500.275 2129.16 502.687 2127.56 505.092C2127.01 505.924 2126.54 506.689 2126.16 507.366L2125.86 507.915L2125.77 508.081C2124.94 509.805 2123.19 510.9 2121.28 510.9L2120.86 510.903C2114.19 511.002 2109.1 513.544 2105.34 518.835L2105.23 519H2185.42C2187.93 519 2189.97 516.981 2190 514.47C2190.03 512.01 2188.12 509.979 2185.69 509.837L2185.47 509.83C2183.13 509.801 2181.13 508.147 2180.64 505.87L2180.56 505.452L2180.49 505.113V505.113L2180.45 504.97C2180.3 504.356 2180.09 503.665 2179.83 502.918C2179.07 500.792 2177.99 498.675 2176.55 496.727C2172.49 491.245 2166.36 488 2157.21 488ZM2546.21 397C2558.6 397 2567.68 401.805 2573.58 409.777C2575.65 412.57 2577.17 415.553 2578.24 418.554L2578.43 419.085L2578.54 419.42L2578.8 419.499C2584.78 421.379 2589.08 427.001 2589 433.591C2588.91 441.577 2582.41 448 2574.42 448H2486.05C2482.54 448 2480.12 444.479 2481.38 441.204L2481.57 440.732C2486.53 428.206 2495.22 421.101 2507.09 420.039L2507.29 420.022L2507.39 419.858C2507.66 419.436 2507.94 419 2508.23 418.552C2510.21 415.589 2512.6 412.634 2515.44 409.868C2523.66 401.862 2533.93 397 2546.21 397ZM2546.21 407C2536.76 407 2528.89 410.726 2522.42 417.032C2520.11 419.275 2518.16 421.687 2516.56 424.092C2516.01 424.924 2515.54 425.689 2515.16 426.366L2514.86 426.915L2514.77 427.081C2513.94 428.805 2512.19 429.9 2510.28 429.9L2509.86 429.903C2503.19 430.002 2498.1 432.544 2494.34 437.835L2494.23 438H2574.42C2576.93 438 2578.97 435.981 2579.01 433.47C2579.03 431.01 2577.12 428.979 2574.69 428.837L2574.47 428.83C2572.13 428.801 2570.13 427.147 2569.64 424.87L2569.56 424.452L2569.49 424.113V424.113L2569.45 423.97C2569.3 423.356 2569.09 422.665 2568.83 421.918C2568.07 419.792 2566.99 417.675 2565.55 415.727C2561.49 410.245 2555.36 407 2546.21 407Z" fill="#0089C5" fill-opacity="0.25"/><path id="Shape_2" fill-rule="evenodd" clip-rule="evenodd" d="M2749.99 1045.5C2752.75 1045.5 2755 1047.73 2755 1050.49C2755 1053.18 2752.88 1055.38 2750.22 1055.5L2750.01 1055.5L2384.01 1056C2381.25 1056 2379 1053.77 2379 1051.01C2379 1048.32 2381.12 1046.12 2383.78 1046L2383.99 1046L2749.99 1045.5ZM2325 1046C2327.76 1046 2330 1048.24 2330 1051C2330 1053.69 2327.88 1055.88 2325.22 1056L2325 1056H2127C2124.24 1056 2122 1053.76 2122 1051C2122 1048.31 2124.12 1046.12 2126.78 1046L2127 1046H2325Z" fill="#0089C5" fill-opacity="0.25"/></g><g id="Background"><path id="Shape_3" fill-rule="evenodd" clip-rule="evenodd" d="M494.637 289.3C496.482 287.622 499.269 287.568 501.176 289.138L501.363 289.3L565.933 348H648C667.137 348 682.686 363.358 682.995 382.421L683 383V831C683 850.137 667.642 865.686 648.579 865.995L648 866H348C328.863 866 313.314 850.642 313.005 831.579L313 831V383C313 363.863 328.358 348.314 347.421 348.005L348 348H430.066L494.637 289.3ZM648 358H348C334.331 358 323.224 368.97 323.003 382.587L323 383V831C323 844.669 333.97 855.776 347.587 855.997L348 856H648C661.669 856 672.776 845.03 672.997 831.413L673 831V383C673 369.331 662.03 358.224 648.413 358.003L648 358ZM648 378C650.689 378 652.882 380.122 652.995 382.783L653 383V831C653 833.689 650.878 835.882 648.217 835.995L648 836H348C345.311 836 343.118 833.878 343.005 831.217L343 831V383C343 380.311 345.122 378.118 347.783 378.005L348 378H648ZM643 388H353V826H643V388ZM498 418C520.091 418 538 435.909 538 458C538 467.46 534.716 476.153 529.226 483.001C534.716 489.848 538 498.541 538 508C538 517.46 534.716 526.153 529.226 533.001C534.716 539.848 538 548.541 538 558C538 567.46 534.716 576.153 529.226 583.001C534.716 589.848 538 598.541 538 608C538 617.46 534.716 626.153 529.226 633.001C534.716 639.848 538 648.541 538 658C538 667.459 534.716 676.152 529.227 683C534.716 689.847 538 698.54 538 708C538 717.46 534.716 726.153 529.226 733.001C534.716 739.848 538 748.541 538 758C538 780.091 520.091 798 498 798C475.909 798 458 780.091 458 758C458 748.541 461.284 739.848 466.773 733C461.284 726.153 458 717.46 458 708C458 698.541 461.284 689.848 466.773 683C461.284 676.153 458 667.46 458 658C458 648.541 461.284 639.848 466.773 633C461.284 626.153 458 617.46 458 608C458 598.541 461.284 589.848 466.773 583C461.284 576.153 458 567.46 458 558C458 548.541 461.284 539.848 466.773 533C461.284 526.153 458 517.46 458 508C458 498.541 461.284 489.848 466.773 483C461.284 476.153 458 467.46 458 458C458 435.909 475.909 418 498 418ZM522.002 740L521.623 740.282C515.004 745.135 506.837 748 498 748C488.994 748 480.684 745.024 473.998 740.002C470.232 745.014 468 751.246 468 758C468 774.569 481.431 788 498 788C514.569 788 528 774.569 528 758C528 751.246 525.768 745.014 522.002 740ZM498 728C491.866 728 486.162 729.841 481.411 733C486.162 736.159 491.866 738 498 738C504.134 738 509.838 736.159 514.589 733C509.838 729.841 504.134 728 498 728ZM522.002 690L521.623 690.282C515.004 695.135 506.837 698 498 698C488.994 698 480.684 695.024 473.998 690.002C470.232 695.014 468 701.246 468 708C468 714.754 470.232 720.986 473.998 726C480.684 720.976 488.994 718 498 718C507.006 718 515.316 720.976 522.002 725.998C525.768 720.986 528 714.754 528 708C528 701.246 525.768 695.014 522.002 690ZM498 678C491.866 678 486.162 679.841 481.411 683C486.162 686.159 491.866 688 498 688C504.134 688 509.838 686.159 514.589 683C509.838 679.841 504.134 678 498 678ZM522.002 640L521.623 640.282C515.004 645.135 506.837 648 498 648C488.994 648 480.684 645.024 473.998 640.002C470.232 645.014 468 651.246 468 658C468 664.754 470.232 670.986 473.998 676C480.684 670.976 488.994 668 498 668C507.006 668 515.316 670.976 522.002 675.998C525.768 670.986 528 664.754 528 658C528 651.246 525.768 645.014 522.002 640ZM498 628C491.866 628 486.162 629.841 481.411 633C486.162 636.159 491.866 638 498 638C504.134 638 509.838 636.159 514.589 633C509.838 629.841 504.134 628 498 628ZM522.002 590L521.623 590.282C515.004 595.135 506.837 598 498 598C488.994 598 480.684 595.024 473.998 590.002C470.232 595.014 468 601.246 468 608C468 614.754 470.232 620.986 473.998 626C480.684 620.976 488.994 618 498 618C507.006 618 515.316 620.976 522.002 625.998C525.768 620.986 528 614.754 528 608C528 601.246 525.768 595.014 522.002 590ZM498 578C491.866 578 486.162 579.841 481.411 583C486.162 586.159 491.866 588 498 588C504.134 588 509.838 586.159 514.589 583C509.838 579.841 504.134 578 498 578ZM522.002 540L521.623 540.282C515.004 545.135 506.837 548 498 548C488.994 548 480.684 545.024 473.998 540.002C470.232 545.014 468 551.246 468 558C468 564.754 470.232 570.986 473.998 576C480.684 570.976 488.994 568 498 568C507.006 568 515.316 570.976 522.002 575.998C525.768 570.986 528 564.754 528 558C528 551.246 525.768 545.014 522.002 540ZM498 528C491.866 528 486.162 529.841 481.411 533C486.162 536.159 491.866 538 498 538C504.134 538 509.838 536.159 514.589 533C509.838 529.841 504.134 528 498 528ZM522.002 490L521.623 490.282C515.004 495.135 506.837 498 498 498C488.994 498 480.684 495.024 473.998 490.002C470.232 495.014 468 501.246 468 508C468 514.754 470.232 520.986 473.998 526C480.684 520.976 488.994 518 498 518C507.006 518 515.316 520.976 522.002 525.998C525.768 520.986 528 514.754 528 508C528 501.246 525.768 495.014 522.002 490ZM498 478C491.866 478 486.162 479.841 481.411 483C486.162 486.159 491.866 488 498 488C504.134 488 509.838 486.159 514.589 483C509.838 479.841 504.134 478 498 478ZM498 428C481.431 428 468 441.431 468 458C468 464.754 470.232 470.986 473.998 476C480.684 470.976 488.994 468 498 468C507.006 468 515.316 470.976 522.002 475.998C525.768 470.986 528 464.754 528 458C528 441.431 514.569 428 498 428ZM498 299.757L444.932 348H551.067L498 299.757Z" fill="#0089C5" fill-opacity="0.25"/><path id="Shape_4" fill-rule="evenodd" clip-rule="evenodd" d="M417.66 1087.63C438.772 1057.34 478.44 1053.37 508.523 1059.74C531.781 1064.67 539.296 1088.67 540.356 1103.42C547.572 1105.85 554.556 1108.82 560.972 1112.24C578.899 1121.79 587.858 1132.07 592.292 1140.47C654.384 1159.72 694.391 1189.32 711.188 1228.5C731.238 1275.26 710.464 1317.82 709.569 1319.61C708.758 1321.24 707.134 1322.29 705.333 1322.37L705.097 1322.38H310.256C307.885 1322.38 305.852 1320.72 305.364 1318.42L305.301 1318.06C304.968 1315.99 301.737 1294.83 304.122 1266.75L304.266 1265.12C306.736 1238.34 315.04 1200.86 340.256 1171.1C359.475 1148.42 385.599 1133.31 418.234 1125.89C417.157 1123.33 415.938 1120.06 414.962 1116.42C411.801 1104.65 412.734 1094.7 417.66 1087.63ZM463.316 1130.62C412.141 1131.8 373.336 1147.56 347.925 1177.52C308.137 1224.43 312.54 1293.31 314.581 1311.83L314.642 1312.38H701.832L702.08 1311.76C706.274 1301.23 717.14 1267.61 701.941 1232.31C686.954 1197.5 651.479 1170.62 596.471 1152.32C599.664 1166 598.146 1176.98 596.193 1183.97C609.587 1188.89 621.486 1194.39 631.792 1200.45C634.172 1201.85 634.966 1204.92 633.565 1207.3C632.634 1208.88 630.965 1209.76 629.251 1209.76C628.39 1209.76 627.517 1209.54 626.721 1209.07C603.502 1195.41 571.652 1184.65 532.054 1177.08C509.311 1172.74 488.3 1170.54 469.603 1170.54C441.268 1170.54 417.899 1175.61 400.147 1185.62C397.738 1186.98 394.692 1186.13 393.336 1183.72C391.979 1181.32 392.83 1178.27 395.235 1176.91C413.447 1166.64 436.803 1161.17 464.702 1160.59C461.949 1148.25 461.975 1138.37 463.316 1130.62ZM646.352 1216.42C648.197 1214.36 651.358 1214.19 653.413 1216.04C661.686 1223.46 668.099 1231.56 672.472 1240.1C673.729 1242.56 672.757 1245.57 670.299 1246.83C669.569 1247.21 668.791 1247.38 668.024 1247.38C666.207 1247.38 664.454 1246.39 663.569 1244.66C659.756 1237.21 654.092 1230.08 646.733 1223.48C644.679 1221.63 644.508 1218.47 646.352 1216.42ZM379.306 1188.22C381.37 1186.39 384.533 1186.57 386.365 1188.64C388.199 1190.7 388.011 1193.86 385.947 1195.7C383.335 1198.02 380.869 1200.53 378.618 1203.16C377.628 1204.32 376.226 1204.91 374.815 1204.91C373.665 1204.91 372.51 1204.52 371.568 1203.71C369.469 1201.92 369.222 1198.76 371.016 1196.66C373.565 1193.68 376.354 1190.84 379.306 1188.22ZM507.056 1106.44C491.197 1105.04 482.823 1112.71 479.239 1117.4C469.75 1129.82 472.04 1148.58 474.977 1160.61C478.404 1160.69 481.892 1160.82 485.453 1161.02L485.057 1159.53C482.446 1149.36 479.917 1132.99 487.186 1123.47L487.462 1123.12C490.394 1119.48 495.979 1115.51 506.186 1116.4C538.2 1119.19 570.82 1136.34 575.993 1153.1C579.335 1163.93 578.469 1172.45 577.17 1177.66C580.435 1178.63 583.614 1179.64 586.733 1180.67L586.897 1180.03C588.547 1173.42 589.537 1163.08 585.549 1150.15C579.143 1129.4 545.705 1112.37 515.345 1107.48C514.835 1107.47 514.338 1107.4 513.872 1107.25C511.576 1106.91 509.298 1106.63 507.056 1106.44ZM505.317 1126.36C498.049 1125.72 495.853 1128.6 495.133 1129.54C489.793 1136.53 493.492 1153.39 496.119 1161.84C508.111 1162.95 520.734 1164.74 533.931 1167.26C545.825 1169.53 557.034 1172.1 567.575 1174.95C568.47 1171.2 569.105 1164.69 566.438 1156.05C565.156 1151.9 559.166 1145.05 546.196 1138.28C533.989 1131.91 519.089 1127.56 505.317 1126.36ZM506.449 1069.53C479.5 1063.81 444.181 1067.07 425.863 1093.35C420.023 1101.73 424.749 1116.33 428.244 1123.89C431.186 1123.38 434.179 1122.93 437.219 1122.54L436.774 1121.91C432.699 1116.12 428.137 1107.25 434.134 1096.74C434.212 1096.6 434.297 1096.47 434.388 1096.34C450.192 1073.88 484.103 1070.86 506.453 1080.93C513.381 1084.06 518.015 1090.08 519.779 1098.09C523.142 1098.7 526.516 1099.44 529.877 1100.31C529.415 1097.23 528.61 1093.42 527.206 1089.52C523.169 1078.32 516.186 1071.59 506.449 1069.53ZM502.344 1090.05C483.605 1081.6 455.242 1084.37 442.707 1101.9C439.495 1107.72 442.027 1112.29 446.209 1117.87L446.882 1118.76C447.554 1119.64 448.195 1120.49 448.774 1121.33C454.402 1120.89 460.191 1120.64 466.124 1120.57C467.73 1116.57 469.62 1113.52 471.292 1111.33L471.59 1110.95C476.575 1104.6 487.721 1094.7 507.928 1096.47L508.792 1096.56V1096.56C507.582 1093.94 505.592 1091.52 502.344 1090.05ZM922.748 921C938.572 921 950.506 943.343 950.506 972.972C950.506 994.239 944.356 1011.75 935.033 1019.94C944.356 1028.13 950.506 1045.65 950.506 1066.91C950.506 1096.24 938.81 1118.44 923.222 1118.88L922.748 1118.88H625.756C610.88 1118.88 599.452 1099.14 598.133 1072.16L598.096 1071.34H585.877C574.642 1071.34 565.373 1060.07 560.939 1042.93L560.674 1041.88H339.017C336.255 1041.88 334.017 1039.64 334.017 1036.88C334.017 1034.19 336.139 1032 338.8 1031.88L339.017 1031.88H558.871C558.383 1027.89 558.119 1023.71 558.119 1019.37C558.119 990.034 569.816 967.844 585.404 967.403L585.877 967.396H598.143C599.523 940.852 610.714 921.392 625.313 921.006L625.756 921H922.748ZM922.748 1024.94H642.535C649.289 1034.24 653.513 1049.29 653.513 1066.91C653.513 1084.28 649.412 1099.14 642.831 1108.47L642.535 1108.88H922.748C931.131 1108.88 940.506 1090.94 940.506 1066.91C940.506 1043.13 931.318 1025.3 923 1024.95L922.748 1024.94ZM625.756 1024.94C621.757 1024.94 617.531 1028.93 614.163 1035.88C610.187 1044.09 607.998 1055.11 607.998 1066.91C607.998 1078.72 610.187 1089.74 614.163 1097.95C617.531 1104.9 621.757 1108.88 625.756 1108.88C629.755 1108.88 633.98 1104.9 637.348 1097.95C641.323 1089.74 643.513 1078.72 643.513 1066.91C643.513 1055.11 641.323 1044.09 637.348 1035.88C633.98 1028.93 629.755 1024.94 625.756 1024.94ZM585.877 977.396C581.878 977.396 577.652 981.382 574.284 988.333C570.309 996.539 568.119 1007.56 568.119 1019.37C568.119 1024.75 568.578 1029.96 569.449 1034.82L569.628 1035.79C569.644 1035.86 569.654 1035.93 569.667 1036C570.712 1041.34 572.267 1046.24 574.284 1050.4C577.652 1057.35 581.878 1061.34 585.877 1061.34C589.876 1061.34 594.102 1057.35 597.469 1050.4C601.444 1042.19 603.634 1031.17 603.634 1019.37C603.634 1007.56 601.444 996.538 597.469 988.333C594.102 981.382 589.876 977.396 585.877 977.396ZM310.256 1031.88C313.018 1031.88 315.256 1034.12 315.256 1036.88C315.256 1039.57 313.134 1041.76 310.473 1041.87L310.256 1041.88H287C284.238 1041.88 282 1039.64 282 1036.88C282 1034.19 284.122 1032 286.783 1031.88L287 1031.88H310.256ZM625.756 931C621.757 931 617.531 934.987 614.163 941.938C610.187 950.144 607.998 961.165 607.998 972.972C607.998 984.778 610.187 995.799 614.163 1004C617.531 1010.96 621.757 1014.94 625.756 1014.94C629.755 1014.94 633.98 1010.96 637.348 1004C641.323 995.799 643.513 984.778 643.513 972.972C643.513 961.165 641.323 950.144 637.348 941.938C633.98 934.987 629.755 931 625.756 931ZM922.748 931H642.535C649.289 940.299 653.513 955.345 653.513 972.972C653.513 990.339 649.412 1005.2 642.831 1014.53L642.535 1014.94H922.748C931.131 1014.94 940.506 996.993 940.506 972.972C940.506 949.189 931.318 931.36 923 931.005L922.748 931Z" fill="#0089C5" fill-opacity="0.25"/></g><g id="Master/Character/Frontal" transform="translate(941 180) scale(1 1)"><g id="Master/Character/Frontal"><g id="Bodies" transform="translate(290 352) scale(1 1)"><g id="Bodies/Blue A"><g id="Patterns"><path id="Mask" fill-rule="evenodd" clip-rule="evenodd" d="M362.086 371.318C382.619 359.612 401.825 343.91 412.196 322.671C422.566 301.43 422.346 273.901 407.079 255.857C393.928 240.311 372.8 234.442 352.814 230.543C287.28 217.761 219.322 217.53 153.704 229.867C135.359 233.316 116.444 238.106 102.232 250.207C80.6574 268.576 74.8264 301.471 84.5594 328.083C94.2924 354.695 117.352 374.983 143.395 386.149C168.918 397.092 197.103 400.083 224.642 400.132C254.423 400.186 283.106 400.179 312.073 392.105C329.507 387.247 346.361 380.282 362.086 371.318" fill="#7192F0"/><mask id="mask0_203_4091723898522-aa4a-4b7d-abe0-8c4b11905554" style="mask-type:alpha" maskUnits="userSpaceOnUse" x="80" y="220" width="340" height="181" fill="#ffffff"><path id="Mask_2" fill-rule="evenodd" clip-rule="evenodd" d="M362.086 371.318C382.619 359.612 401.825 343.91 412.196 322.671C422.566 301.43 422.346 273.901 407.079 255.857C393.928 240.311 372.8 234.442 352.814 230.543C287.28 217.761 219.322 217.53 153.704 229.867C135.359 233.316 116.444 238.106 102.232 250.207C80.6574 268.576 74.8264 301.471 84.5594 328.083C94.2924 354.695 117.352 374.983 143.395 386.149C168.918 397.092 197.103 400.083 224.642 400.132C254.423 400.186 283.106 400.179 312.073 392.105C329.507 387.247 346.361 380.282 362.086 371.318" fill="#ffffff"/></mask><g mask="url(#mask0_203_4091723898522-aa4a-4b7d-abe0-8c4b11905554)"><g id="Patterns_2"><g id="Group"><path id="Path 51" d="M527.949 211.503L528.051 212.497L28.0507 263.497L27.9492 262.503L527.949 211.503Z" fill="white"/><path id="Path 52" d="M28.0596 295.504L528.06 355.504L527.94 356.496L27.9404 296.496L28.0596 295.504Z" fill="white"/><path id="Path 53" d="M28.0477 325.502L528.048 373.502L527.952 374.498L27.9521 326.498L28.0477 325.502Z" fill="white"/><path id="Path 54" d="M28.0138 383.5L528.014 397.5L527.986 398.5L27.9858 384.5L28.0138 383.5Z" fill="white"/><path id="Path 59" d="M28.0199 283.5L528.02 303.5L527.98 304.5L27.98 284.5L28.0199 283.5Z" fill="white"/></g></g></g></g><g id="Patterns_3"><path id="Mask_3" fill-rule="evenodd" clip-rule="evenodd" d="M173 432.67C179.305 415.74 194.413 407.054 218.304 403.364C240.694 399.907 280.799 397.842 303.623 399.213C321.21 400.27 334.314 404.493 344.813 414.666C371.433 440.462 328.228 465.612 298.732 474.4C268.904 483.288 224.217 483.556 196.974 470.244C180.424 462.157 167.512 447.407 173 432.67" fill="#418FE7"/><mask id="mask1_203_4091723898522-aa4a-4b7d-abe0-8c4b11905554" style="mask-type:alpha" maskUnits="userSpaceOnUse" x="171" y="398" width="183" height="83" fill="#ffffff"><path id="Mask_4" fill-rule="evenodd" clip-rule="evenodd" d="M173 432.67C179.305 415.74 194.413 407.054 218.304 403.364C240.694 399.907 280.799 397.842 303.623 399.213C321.21 400.27 334.314 404.493 344.813 414.666C371.433 440.462 328.228 465.612 298.732 474.4C268.904 483.288 224.217 483.556 196.974 470.244C180.424 462.157 167.512 447.407 173 432.67" fill="#ffffff"/></mask><g mask="url(#mask1_203_4091723898522-aa4a-4b7d-abe0-8c4b11905554)"><g id="Patterns_4"><g id="Group_2"><path id="Path 49" d="M358.072 209.012L351.088 500.012L350.088 499.988L357.072 208.988L358.072 209.012Z" fill="white"/><path id="Path 50" d="M325.479 499.976L324.481 500.024L310.513 209.024L311.511 208.976L325.479 499.976Z" fill="white"/><path id="Path 51_2" d="M305.107 499.949L304.113 500.051L274.431 209.051L275.425 208.949L305.107 499.949Z" fill="white"/><path id="Path 52_2" d="M256.218 209.06L221.298 500.06L220.305 499.94L255.225 208.94L256.218 209.06Z" fill="white"/><path id="Path 53_2" d="M238.76 209.048L210.824 500.048L209.828 499.952L237.764 208.952L238.76 209.048Z" fill="white"/><path id="Path 54_2" d="M205.006 209.014L196.858 500.014L195.858 499.986L204.006 208.986L205.006 209.014Z" fill="white"/><path id="Path 55" d="M176.486 499.954L175.49 500.046L148.718 209.046L149.714 208.954L176.486 499.954Z" fill="white"/><path id="Path 59_2" d="M263.206 209.02L251.566 500.02L250.566 499.98L262.206 208.98L263.206 209.02Z" fill="white"/></g></g></g></g><g id="Patterns_5"><path id="Mask_5" fill-rule="evenodd" clip-rule="evenodd" d="M120.01 191.589C90.6146 164.371 80.3056 116.785 100.238 82.034C117.951 51.15 154.034 35.558 188.992 28.808C208.597 25.023 229.563 23.493 247.95 31.276C264.428 38.249 277.253 52.198 285.704 67.969C300.706 95.966 302.661 130.622 290.903 160.128C281.517 183.679 260.725 209.613 236.014 218.325C215.838 225.439 184.192 221.141 164.288 215.692C147.923 211.21 132.495 203.149 120.01 191.589" fill="#418FE7"/><mask id="mask2_203_4091723898522-aa4a-4b7d-abe0-8c4b11905554" style="mask-type:alpha" maskUnits="userSpaceOnUse" x="89" y="25" width="210" height="198" fill="#ffffff"><path id="Mask_6" fill-rule="evenodd" clip-rule="evenodd" d="M120.01 191.589C90.6146 164.371 80.3056 116.785 100.238 82.034C117.951 51.15 154.034 35.558 188.992 28.808C208.597 25.023 229.563 23.493 247.95 31.276C264.428 38.249 277.253 52.198 285.704 67.969C300.706 95.966 302.661 130.622 290.903 160.128C281.517 183.679 260.725 209.613 236.014 218.325C215.838 225.439 184.192 221.141 164.288 215.692C147.923 211.21 132.495 203.149 120.01 191.589" fill="#ffffff"/></mask><g mask="url(#mask2_203_4091723898522-aa4a-4b7d-abe0-8c4b11905554)"><g id="Patterns_6"><g id="Group_3"><path id="Path 48" d="M590.465 263.074L589.772 263.796L229.148 -82.6867L229.841 -83.4078L590.465 263.074Z" fill="white"/><path id="Path 49_2" d="M212.178 -65.7146L557.246 296.324L556.522 297.014L211.454 -65.0247L212.178 -65.7146Z" fill="white"/><path id="Path 50_2" d="M526.108 327.412L525.436 328.152L154.912 -8.43099L155.584 -9.17118L526.108 327.412Z" fill="white"/><path id="Path 51_3" d="M501.339 352.143L500.707 352.918L111.091 35.4271L111.723 34.6519L501.339 352.143Z" fill="white"/><path id="Path 52_3" d="M88.4661 58.0651L399.593 454.045L398.807 454.663L87.6798 58.683L88.4661 58.0651Z" fill="white"/><path id="Path 53_3" d="M67.2453 79.2691L386.858 466.764L386.086 467.4L66.4739 79.9054L67.2453 79.2691Z" fill="white"/><path id="Path 54_3" d="M26.2107 120.256L369.865 483.709L369.138 484.396L25.4841 120.943L26.2107 120.256Z" fill="white"/><path id="Path 55_2" d="M345.072 508.417L344.433 509.186L-41.6475 188.159L-41.0081 187.39L345.072 508.417Z" fill="white"/><path id="Path 56" d="M304.087 549.453L303.394 550.174L-57.2307 203.691L-56.5379 202.97L304.087 549.453Z" fill="white"/><path id="Path 57" d="M281.458 572.079L280.767 572.802L-80.5645 227.027L-79.8731 226.304L281.458 572.079Z" fill="white"/><path id="Path 59_3" d="M96.9252 49.5496L436.336 417.245L435.602 417.923L96.1904 50.2279L96.9252 49.5496Z" fill="white"/></g></g></g></g><g id="Patterns_7"><path id="Mask_7" fill-rule="evenodd" clip-rule="evenodd" d="M300.791 200.575C287.995 180.96 288.228 153.025 303.161 134.985C318.095 116.944 347.343 111.946 366.261 125.752C377.633 134.052 384.324 147.57 387.099 161.372C389.715 174.388 389.123 188.262 383.908 200.472C378.092 214.087 363.802 230.873 347.739 229.49C329.39 227.909 310.723 215.801 300.791 200.575" fill="#64BBF6"/><mask id="mask3_203_4091723898522-aa4a-4b7d-abe0-8c4b11905554" style="mask-type:alpha" maskUnits="userSpaceOnUse" x="291" y="117" width="98" height="113" fill="#ffffff"><path id="Mask_8" fill-rule="evenodd" clip-rule="evenodd" d="M300.791 200.575C287.995 180.96 288.228 153.025 303.161 134.985C318.095 116.944 347.343 111.946 366.261 125.752C377.633 134.052 384.324 147.57 387.099 161.372C389.715 174.388 389.123 188.262 383.908 200.472C378.092 214.087 363.802 230.873 347.739 229.49C329.39 227.909 310.723 215.801 300.791 200.575" fill="#ffffff"/></mask><g mask="url(#mask3_203_4091723898522-aa4a-4b7d-abe0-8c4b11905554)"><g id="Patterns_8"><g id="Group_4"><path id="Path 51_4" d="M286.252 89.0507L287.247 88.9492L305.097 263.949L304.102 264.051L286.252 89.0507Z" fill="white"/><path id="Path 52_4" d="M315.653 263.94L336.653 88.9404L337.646 89.0596L316.646 264.06L315.653 263.94Z" fill="white"/><path id="Path 53_4" d="M326.152 263.952L342.952 88.9522L343.947 89.0478L327.147 264.048L326.152 263.952Z" fill="white"/><path id="Path 54_4" d="M346.45 263.986L351.35 88.986L352.35 89.014L347.45 264.014L346.45 263.986Z" fill="white"/><path id="Path 55_3" d="M363.602 89.0458L364.598 88.9542L380.698 263.954L379.702 264.046L363.602 89.0458Z" fill="white"/><path id="Path 56_2" d="M383.9 89.01L384.9 88.99L388.4 263.99L387.4 264.01L383.9 89.01Z" fill="white"/><path id="Path 59_4" d="M311.45 263.98L318.45 88.98L319.449 89.02L312.449 264.02L311.45 263.98Z" fill="white"/></g></g></g></g><g id="Patterns_9"><path id="Mask_9" fill-rule="evenodd" clip-rule="evenodd" d="M298.869 96.9474C286.401 79.4724 287.029 53.7874 300.296 36.9114C313.563 20.0364 337.336 17.3594 357.306 25.2354C377.274 33.1114 389.812 51.8644 388.109 73.2634C384.425 119.556 325.635 134.462 298.869 96.9474" fill="#7192F0"/><mask id="mask4_203_4091723898522-aa4a-4b7d-abe0-8c4b11905554" style="mask-type:alpha" maskUnits="userSpaceOnUse" x="289" y="21" width="100" height="98" fill="#ffffff"><path id="Mask_10" fill-rule="evenodd" clip-rule="evenodd" d="M298.869 96.9474C286.401 79.4724 287.029 53.7874 300.296 36.9114C313.563 20.0364 337.336 17.3594 357.306 25.2354C377.274 33.1114 389.812 51.8644 388.109 73.2634C384.425 119.556 325.635 134.462 298.869 96.9474" fill="#ffffff"/></mask><g mask="url(#mask4_203_4091723898522-aa4a-4b7d-abe0-8c4b11905554)"><g id="Patterns_10"><g id="Group_5"><path id="Path 49_3" d="M273.012 24.0161L500.012 29.4641L499.988 30.4639L272.988 25.0159L273.012 24.0161Z" fill="white"/><path id="Path 50_3" d="M499.976 49.4406L500.024 50.4394L273.024 61.3354L272.976 60.3366L499.976 49.4406Z" fill="white"/><path id="Path 51_5" d="M499.949 65.3326L500.051 66.3274L273.051 89.4814L272.949 88.4866L499.949 65.3326Z" fill="white"/><path id="Path 52_5" d="M273.06 103.47L500.06 130.71L499.94 131.702L272.94 104.462L273.06 103.47Z" fill="white"/><path id="Path 53_5" d="M273.048 117.088L500.048 138.88L499.952 139.876L272.952 118.084L273.048 117.088Z" fill="white"/><path id="Path 59_5" d="M273.02 98.0184L500.02 107.098L499.98 108.098L272.98 99.0176L273.02 98.0184Z" fill="white"/></g></g></g></g></g></g><g id="Lower/Frontal" transform="translate(125 700) scale(1 1)"><g id="Lower/Frontal/One Foot"><g id="Legs"><path id="Leg2" fill-rule="evenodd" clip-rule="evenodd" d="M293.492 87.0152C291.292 86.8229 289.352 88.4511 289.159 90.6519C283.243 158.385 285.842 235.559 294.712 317.04L294.983 319.511C300.974 373.824 308.731 421.812 315.952 458.135C316.354 460.158 315.685 462.237 314.192 463.648L314.001 463.821L292.539 482.455C285.624 488.459 289.76 499.771 298.819 499.997L299.095 500H353.397C360.905 500 367.075 494.081 367.381 486.581L367.646 480.217C369.515 436.02 372.362 384.524 376.279 333.535L376.834 326.415C382.852 250.225 390.183 191.681 398.864 159.226C399.435 157.092 398.168 154.899 396.034 154.329C393.9 153.758 391.707 155.025 391.136 157.159C382.015 191.256 374.462 252.764 368.303 332.922L367.74 340.342C363.919 391.464 361.166 442.698 359.388 486.254C359.26 489.391 356.737 491.882 353.621 491.996L353.397 492H299.095C297.298 492 296.438 489.833 297.673 488.6L297.784 488.496L319.246 469.862C323.039 466.57 324.777 461.502 323.799 456.576L323.145 453.261C316.153 417.562 308.717 371.058 302.935 318.634C293.9 236.721 291.205 159.167 297.129 91.3481C297.321 89.1473 295.693 87.2074 293.492 87.0152Z" fill="#001D2D"/><path id="Leg1" fill-rule="evenodd" clip-rule="evenodd" d="M584.578 73.6125C614.633 69.9065 640.088 70.0538 661.957 74.5953C713.209 85.2387 744.414 120.218 754.881 185.217C760.264 218.641 746.165 245.525 715.652 265.898C689.977 283.041 653.182 295.301 607.937 303.272C571.492 309.693 530.998 313.056 490.827 313.777C461.566 314.302 433.946 313.262 422.711 311.649L421.716 311.498C419.723 311.176 417.708 311.989 416.416 313.664L400.364 334.481L400.179 334.715C394.015 342.313 381.893 338.113 381.498 328.237L378.931 264.3L378.922 263.994C378.738 255.535 384.981 247.858 393.145 248.043C431.537 248.91 466.931 241.652 509.103 225.979C520.468 221.755 532.149 217.019 546.869 210.739L551.058 208.946C552.298 208.413 556.177 206.731 561.204 204.551C570.714 200.426 584.331 194.521 591.944 191.254L597.217 189.011L609.04 167.662L609.147 167.479C610.266 165.686 612.606 165.065 614.477 166.101C616.409 167.171 617.108 169.605 616.038 171.538L609.125 184.021C614.832 181.664 620.309 179.453 625.73 177.32C627.786 176.512 630.108 177.523 630.917 179.578C631.726 181.634 630.715 183.956 628.659 184.765C620.251 188.072 611.703 191.573 602.348 195.522L601.775 195.765C601.666 195.817 601.556 195.863 601.444 195.905L598.082 197.33C591.709 200.041 575.379 207.123 564.43 211.872C560.977 213.369 558.059 214.635 556.157 215.458L549.998 218.102C535.865 224.131 524.491 228.757 513.496 232.878L510.518 233.986C468.065 249.635 432.06 256.923 392.964 256.041C389.727 255.968 386.753 259.683 386.925 263.98L389.492 327.917L389.503 328.092C389.729 330.562 392.581 331.474 394.029 329.596L410.081 308.778L410.293 308.51C413.377 304.706 418.192 302.825 422.991 303.6C432.741 305.174 459.841 306.268 488.902 305.808L492.894 305.736C531.948 304.94 571.222 301.617 606.549 295.393C650.799 287.598 686.623 275.661 711.21 259.245C739.282 240.501 751.828 216.577 746.983 186.489C737.027 124.664 708.221 92.3736 660.33 82.4282C639.122 78.024 614.092 77.942 584.272 81.7129C559.988 84.7836 533.334 90.2174 499.012 98.7128L494.965 99.7198C492.822 100.256 490.65 98.9529 490.114 96.8097C489.578 94.6666 490.881 92.4948 493.024 91.9588C529.595 82.8129 557.663 77.014 583.268 73.7761L584.578 73.6125Z" fill="#001D2D"/></g></g></g><g id="Upper/Frontal" transform="translate(0 327) scale(1 1)"><g id="Upper/Frontal/Raised Shoulders"><path id="Arms" fill-rule="evenodd" clip-rule="evenodd" d="M123.17 0C142.504 0 160.188 5.82443 175.845 15.5112C181.313 18.8946 186.145 22.5209 190.298 26.1548C191.598 27.2923 192.752 28.3613 193.754 29.3413L194.123 29.7046C194.791 30.367 195.256 30.8549 195.514 31.1392C196.997 32.7757 196.873 35.3048 195.237 36.7881C193.655 38.222 191.239 38.1538 189.74 36.6694L189.343 36.2502C189.108 36.0034 188.823 35.7129 188.49 35.3823L187.816 34.7241C186.999 33.9367 186.07 33.0823 185.032 32.1746C181.196 28.8182 176.713 25.454 171.637 22.313C157.164 13.3586 140.889 7.99835 123.17 7.99835C120.961 7.99835 119.171 6.20786 119.171 3.99917C119.171 1.79049 120.961 0 123.17 0ZM156.05 22.1343C143.556 17.3137 128.929 15.1549 112.522 17.1273C110.329 17.3909 108.765 19.3823 109.029 21.5752C109.293 23.7681 111.284 25.332 113.477 25.0684C128.52 23.26 141.845 25.2266 153.171 29.5965C156.086 30.7214 158.628 31.9211 160.775 33.1123C161.512 33.5213 162.143 33.8968 162.666 34.2284L162.784 34.304C162.896 34.3755 162.987 34.4349 163.056 34.4812L163.378 34.6986C165.162 35.8304 167.54 35.3782 168.778 33.6356C170.057 31.8349 169.634 29.3384 167.834 28.0593C167.316 27.6915 166.446 27.1349 165.237 26.4456L164.655 26.1182C162.193 24.7527 159.319 23.3957 156.05 22.1343ZM233.146 18.3948C231.598 16.8198 229.066 16.7982 227.491 18.3465C212.372 33.2103 207.954 55.8469 216.397 75.2729C222.11 88.4143 228.888 104.677 236.507 123.447L238.885 129.318L241.823 136.609C248.615 153.503 255.651 171.299 262.638 189.181L264.843 194.829C266.484 199.041 268.056 203.085 269.547 206.931L276.095 223.891C277.399 226.866 281.585 227.126 283.224 224.255C292.001 208.888 301.596 194.39 311.879 180.75C330.347 156.254 350.13 135.627 369.9 118.752C376.808 112.856 383.215 107.854 388.955 103.73L389.495 103.344C390.919 102.327 392.221 101.423 393.393 100.632L394.247 100.06C394.511 99.8848 394.757 99.7227 394.985 99.5737L395.615 99.1658L396.049 98.8915C397.929 97.7316 398.512 95.2676 397.352 93.388C396.193 91.5084 393.729 90.9248 391.849 92.0847C391.633 92.2181 391.31 92.4224 390.886 92.698L389.821 93.3978C388.487 94.2844 386.979 95.3198 385.309 96.505L384.289 97.2342C378.371 101.485 371.789 106.624 364.708 112.668C344.512 129.906 324.327 150.952 305.492 175.935L304.238 177.608C295.896 188.789 288.007 200.53 280.638 212.836L280.497 213.071L274.233 196.902L270.088 186.269C262.355 166.48 254.562 146.794 247.104 128.312L245.501 124.345L243.421 119.214C236.642 102.532 230.535 87.8522 225.254 75.6004L223.732 72.0842C216.609 55.6968 220.338 36.5951 233.098 24.0503C234.673 22.5019 234.695 19.9699 233.146 18.3948ZM124.488 48.1382L124.217 48.1673C123.34 48.2648 122.712 48.3665 122.327 48.4497C120.168 48.915 118.795 51.0425 119.26 53.2016C119.725 55.3607 121.853 56.7338 124.012 56.2685L124.407 56.2051C124.534 56.1865 124.673 56.1678 124.825 56.1491L125.316 56.0935C128.016 55.8124 131.726 55.7655 136.501 56.1175C152.316 57.284 165.341 69.1984 168.069 84.9394C174.099 119.734 181.746 157.44 190.825 193.771C203.565 244.756 217.362 285.73 232.124 312.536C240.783 328.259 254.388 334.376 271.344 331.178C286.121 328.391 303.295 318.581 321.99 302.881C355.711 274.559 392.97 227.891 418.605 183.077C419.702 181.16 419.037 178.717 417.12 177.62C415.203 176.523 412.759 177.189 411.663 179.106C386.47 223.146 349.795 269.083 316.846 296.756C299.108 311.653 283.036 320.834 269.862 323.318C256.247 325.886 246.093 321.32 239.13 308.677C225.069 283.145 211.715 243.809 199.341 194.842L198.584 191.832C189.559 155.715 181.949 118.191 175.95 83.5736C172.598 64.2315 156.579 49.5783 137.089 48.1408C131.849 47.7545 127.665 47.8073 124.488 48.1382ZM114.065 34.9308C127.942 31.5976 141.016 32.7078 152.557 36.5838C154.915 37.3757 157.018 38.2276 158.846 39.0855L159.384 39.3416C160.235 39.7535 160.86 40.0881 161.247 40.3144C163.153 41.4305 163.793 43.8804 162.677 45.7863C161.597 47.6307 159.267 48.2898 157.391 47.3189L156.824 47.0085L156.328 46.7531C156.062 46.6193 155.769 46.4765 155.449 46.3262C153.89 45.5948 152.069 44.8574 150.01 44.166C139.804 40.7383 128.226 39.7551 115.932 42.708C113.785 43.2238 111.626 41.9009 111.11 39.7533C110.594 37.6057 111.917 35.4466 114.065 34.9308ZM956.11 48.0983C952.984 47.8037 948.933 47.7706 943.911 48.1408C924.421 49.5783 908.403 64.2313 905.051 83.5736C899.052 118.189 891.441 155.714 882.416 191.832C869.83 242.197 856.217 282.624 841.869 308.677C834.907 321.32 824.753 325.886 811.138 323.318C798.311 320.899 782.736 312.132 765.551 297.92L764.154 296.756C731.205 269.083 694.53 223.146 669.338 179.106C668.241 177.189 665.798 176.523 663.881 177.62C661.964 178.717 661.299 181.16 662.395 183.077C688.03 227.891 725.289 274.559 759.01 302.881C777.705 318.581 794.879 328.391 809.656 331.178C826.612 334.376 840.217 328.259 848.875 312.536C863.343 286.266 876.882 246.389 889.409 196.818L890.175 193.771C899.254 157.439 906.902 119.732 912.931 84.9394C915.659 69.1981 928.684 57.284 944.499 56.1175C949.274 55.7655 952.984 55.8124 955.684 56.0935C956.124 56.1393 956.487 56.187 956.775 56.2327L956.852 56.2452L957.19 56.3067C959.278 56.6473 961.289 55.2934 961.74 53.2018C962.205 51.0427 960.832 48.9151 958.673 48.4497C958.249 48.3583 957.531 48.2443 956.512 48.1382L956.11 48.0983ZM847.853 18.3949C849.401 16.8198 851.933 16.7981 853.508 18.3464C868.628 33.2101 873.046 55.8466 864.602 75.2729L863.088 78.7717C857.705 91.2624 851.449 106.311 844.492 123.45L842.115 129.318L839.177 136.609C832.744 152.614 826.089 169.428 819.466 186.358L814.7 198.574C812.782 203.504 810.969 208.18 809.28 212.548L804.984 223.702C803.777 226.853 799.45 227.186 797.777 224.255C789 208.889 779.406 194.392 769.123 180.752C750.655 156.256 730.871 135.628 711.1 118.752C704.48 113.102 698.32 108.272 692.766 104.25L692.045 103.73C690.227 102.424 688.598 101.295 687.174 100.341L686.249 99.7271L684.951 98.8915C683.071 97.7316 682.488 95.2676 683.648 93.388C684.807 91.5084 687.271 90.9248 689.151 92.0847L689.625 92.3829C689.913 92.5669 690.278 92.803 690.716 93.0917L691.179 93.3979C692.647 94.3731 694.325 95.5284 696.196 96.8652L696.712 97.2343C702.629 101.485 709.211 106.625 716.292 112.669C736.489 129.907 756.674 150.954 775.51 175.937C783.875 187.034 791.794 198.687 799.199 210.903L800.504 213.072L803.997 204.041L808.706 191.925L812.018 183.443C818.65 166.491 825.313 149.654 831.757 133.625L834.7 126.322L837.081 120.442C844.724 101.615 851.525 85.2947 857.267 72.0843C864.391 55.6967 860.662 36.595 847.901 24.0504C846.326 22.5021 846.304 19.97 847.853 18.3949ZM966.935 34.9308C953.058 31.5976 939.984 32.7078 928.443 36.5838C926.085 37.3757 923.982 38.2277 922.154 39.0855C921.213 39.5271 920.495 39.8975 920.014 40.1659L919.754 40.3144C917.848 41.4306 917.208 43.8805 918.324 45.7864C919.44 47.6923 921.89 48.3325 923.796 47.2163L923.866 47.1764L924.415 46.8839C924.58 46.7987 924.758 46.7094 924.947 46.6163L925.552 46.3262C927.11 45.5948 928.931 44.8574 930.99 44.166C941.195 40.7383 952.773 39.7551 965.067 42.708C967.215 43.2238 969.374 41.9009 969.889 39.7533C970.405 37.6057 969.082 35.4466 966.935 34.9308ZM924.95 22.1343C937.444 17.3137 952.071 15.1549 968.478 17.1273C970.671 17.3909 972.235 19.3823 971.971 21.5752C971.707 23.7681 969.716 25.332 967.523 25.0684C952.48 23.26 939.155 25.2266 927.829 29.5965C924.914 30.7214 922.372 31.9211 920.225 33.1123L919.62 33.4544C919.233 33.6767 918.881 33.8871 918.565 34.0836L917.832 34.5561L917.798 34.5801C915.997 35.8591 913.501 35.4363 912.222 33.6356C910.943 31.8349 911.366 29.3384 913.166 28.0593L913.43 27.8764C914.056 27.4518 915.032 26.847 916.345 26.1182C918.807 24.7527 921.681 23.3957 924.95 22.1343ZM961.829 3.99917C961.829 1.79049 960.039 0 957.83 0C938.495 0 920.811 5.82443 905.155 15.5112C899.686 18.8946 894.855 22.5209 890.701 26.1548C889.238 27.4345 887.962 28.6274 886.876 29.7046C886.342 30.2346 885.937 30.6528 885.665 30.9445L885.486 31.1392C884.002 32.7757 884.126 35.3048 885.763 36.7881C887.399 38.2714 889.928 38.1473 891.412 36.5108L891.804 36.0969C892.008 35.8856 892.243 35.6468 892.51 35.3823L893.183 34.7241C894.001 33.9367 894.93 33.0823 895.967 32.1746C899.804 28.8182 904.286 25.454 909.363 22.313C923.836 13.3586 940.11 7.99835 957.83 7.99835C960.039 7.99835 961.829 6.20786 961.829 3.99917Z" fill="#001D2D"/></g></g><g id="Heads" transform="translate(440 181) scale(1 1)"><g id="Heads/Wide"><g id="Patterns"><path id="Mask" fill-rule="evenodd" clip-rule="evenodd" d="M57.366 40.3249C39.1737 45.033 21.7672 54.7631 10.7108 69.9844C-0.345563 85.2043 -4.09743 106.33 3.88277 123.371C9.86792 136.15 21.6585 145.489 34.5622 151.155C47.4659 156.821 61.5386 159.193 75.4872 161.178C101.795 164.923 129.298 167.356 154.365 158.525C179.432 149.692 201.348 126.656 200.738 100.04C200.267 79.4103 186.363 60.7819 168.696 50.1751C137.562 31.4824 91.7011 31.4392 57.366 40.3249" fill="#FF996B"/><mask id="mask0_203_43638adb7771f-24af-4b13-adc4-494de073d748" style="mask-type:alpha" maskUnits="userSpaceOnUse" x="-1" y="34" width="202" height="131" fill="#ffffff"><path id="Mask_2" fill-rule="evenodd" clip-rule="evenodd" d="M57.366 40.3249C39.1737 45.033 21.7672 54.7631 10.7108 69.9844C-0.345563 85.2043 -4.09743 106.33 3.88277 123.371C9.86792 136.15 21.6585 145.489 34.5622 151.155C47.4659 156.821 61.5386 159.193 75.4872 161.178C101.795 164.923 129.298 167.356 154.365 158.525C179.432 149.692 201.348 126.656 200.738 100.04C200.267 79.4103 186.363 60.7819 168.696 50.1751C137.562 31.4824 91.7011 31.4392 57.366 40.3249" fill="#ffffff"/></mask><g mask="url(#mask0_203_43638adb7771f-24af-4b13-adc4-494de073d748)"><g id="Patterns_2"><g id="Group"><path id="Path 7" d="M291.108 147.73C255.358 190.903 225.742 212.512 202.183 212.512C194.567 212.512 186.906 211.856 178.322 210.567L176.859 210.342C173.425 209.805 169.816 209.166 165.653 208.371L162.25 207.711L150.821 205.427C125.892 200.46 109.798 198.361 89.0476 198.361C73.6428 198.361 59.4579 200.171 39.8043 204.021L36.981 204.583C34.2519 205.137 23.2808 207.36 20.1169 207.96L18.666 208.232C13.2046 209.244 8.87942 209.896 5.0011 210.257C-4.92556 211.181 -11.8399 210.118 -16.736 206.468L-17.0162 206.254L-16.402 205.465C-11.825 209.027 -5.23887 210.139 4.34143 209.312L4.90845 209.262C8.9198 208.888 13.4258 208.199 19.2018 207.115L22.3238 206.511C27.6386 205.461 37.5901 203.439 37.4022 203.477L38.5144 203.256C58.7985 199.246 73.2792 197.361 89.0476 197.361C109.205 197.361 124.982 199.334 148.625 203.973L162.708 206.782C163.48 206.933 164.215 207.076 164.942 207.216L166.722 207.556C171.088 208.383 174.849 209.033 178.471 209.578C187.009 210.861 194.62 211.512 202.183 211.512C225.121 211.512 254.176 190.48 289.273 148.374L290.338 147.092L291.108 147.73Z" fill="white"/><path id="Path 10" d="M291.105 138.504C271.371 161.954 248.132 178.004 221.397 186.647C212.094 189.655 200.756 190.446 186.399 189.441L184.228 189.279C175.074 188.562 167.843 187.585 149.892 184.742L135.87 182.512C126.941 181.111 120.801 180.227 114.256 179.426C90.5704 176.527 71.9999 176.371 55.5022 179.73L54.7181 179.893C18.0252 187.644 -5.82276 184.481 -16.7828 170.291L-17.111 169.858L-16.308 169.262C-5.90556 183.274 17.3208 186.605 53.4138 179.144L54.5115 178.915C70.8072 175.472 89.0379 175.473 112.128 178.165L114.377 178.434C121.263 179.276 127.698 180.21 137.384 181.738L153.095 184.235C169.61 186.829 176.389 187.697 185.608 188.382C200.258 189.47 211.744 188.717 221.089 185.696C247.34 177.209 270.199 161.531 289.67 138.652L290.34 137.86L291.105 138.504Z" fill="white"/><path id="Path 11" d="M290.751 125.993L290.695 126.991C276.027 126.176 264.447 130.114 247.866 139.863L246.097 140.913C245.506 141.266 244.891 141.636 244.226 142.039L237.852 145.92C225.6 153.362 217.878 157.358 208.521 160.5C196.698 164.47 184.371 165.946 170.453 164.611L169.543 164.52C135.097 160.929 100.988 163.073 60.8105 169.351L58.0084 169.795C49.9694 171.094 30.452 174.442 27.0231 174.976C8.57572 177.847 -6.05587 171.768 -16.7942 156.769L-17.1184 156.312L-16.3 155.737C-5.85967 170.604 8.31839 176.705 26.3116 174.072L26.8693 173.988C30.3788 173.441 50.8424 169.929 58.4617 168.709L59.0219 168.62C99.4426 162.219 133.708 159.937 168.246 163.382L169.647 163.525C183.794 165 196.257 163.563 208.203 159.552C216.927 156.622 224.232 152.936 235.227 146.337L244.103 140.945C244.88 140.475 245.592 140.049 246.286 139.636L246.632 139.431C263.512 129.422 275.291 125.271 290.105 125.96L290.751 125.993Z" fill="white"/><path id="Path 12" fill-rule="evenodd" clip-rule="evenodd" d="M38.2318 131.534C47.757 132.766 55.4744 135.529 59.1988 139.312C63.5711 143.753 62.3269 149.261 54.9278 155.184C40.4658 166.761 26.2143 170.818 14.9718 167.579C4.62304 164.598 -1.83741 155.644 -1.83741 144.335C-1.83741 133.84 17.4513 128.845 38.2318 131.534ZM15.2486 166.618C26.1465 169.758 40.0753 165.793 54.3028 154.403C61.2873 148.812 62.3811 143.97 58.4862 140.013C54.9551 136.426 47.4269 133.732 38.1035 132.525C17.8789 129.908 -0.837414 134.755 -0.837414 144.335C-0.837414 155.206 5.33622 163.763 15.2486 166.618Z" fill="white"/><path id="Path 12_2" fill-rule="evenodd" clip-rule="evenodd" d="M35.1798 137.993C41.2103 138.781 46.1013 140.549 48.4802 142.991C51.3162 145.901 50.507 149.52 45.777 153.345C36.6347 160.738 27.6076 163.334 20.4692 161.257C13.8775 159.339 9.76123 153.575 9.76123 146.309C9.76123 139.473 22.0041 136.27 35.1798 137.993ZM20.7486 160.297C27.5393 162.273 36.2412 159.77 45.1482 152.568C49.4674 149.075 50.1291 146.115 47.764 143.688C45.5783 141.446 40.8778 139.746 35.0502 138.984C22.4284 137.334 10.7612 140.386 10.7612 146.309C10.7612 153.14 14.5934 158.506 20.7486 160.297Z" fill="white"/><path id="Path 12_3" fill-rule="evenodd" clip-rule="evenodd" d="M31.942 145.106C34.266 145.405 36.1584 146.077 37.111 147.037C38.3273 148.263 37.9753 149.81 36.0698 151.324C29.1369 156.832 22.0582 154.808 22.0582 148.483C22.0582 145.781 26.4732 144.544 31.3646 145.04L31.942 145.106ZM23.0582 148.483C23.0582 153.856 29.1008 155.583 35.4477 150.541C36.9355 149.359 37.1352 148.482 36.401 147.742C35.6419 146.976 33.9375 146.371 31.8147 146.098C27.2564 145.513 23.0582 146.592 23.0582 148.483Z" fill="white"/><path id="Path 13" d="M290.746 116.149L290.699 117.148L288.11 117.033C261.085 115.897 239.15 117.082 220.797 120.289C206.026 122.871 194.336 126.526 181.953 131.89L180.999 132.306C177.723 133.744 165.106 139.668 161.911 141.042C148.988 146.598 138.469 148.768 124.065 147.91C103.704 146.697 89.4395 142.552 72.9346 134.576L71.7449 133.994C69.6043 132.927 60.406 128.288 57.6544 127.006C47.6711 122.355 39.7233 120.224 30.02 120.224C9.08583 120.224 -6.23013 127.18 -15.9846 141.09L-16.2973 141.541L-17.1222 140.976C-7.18501 126.475 8.54856 119.224 30.02 119.224C39.6461 119.224 47.576 121.287 57.3409 125.76L58.0768 126.1C61.0572 127.489 71.5093 132.769 72.5466 133.276C89.2938 141.46 103.568 145.687 124.124 146.912C138.087 147.743 148.328 145.702 160.781 140.437L161.516 140.123C164.692 138.757 177.304 132.836 180.597 131.39C193.406 125.768 205.391 121.967 220.625 119.304C239.345 116.033 261.757 114.858 289.444 116.089L290.746 116.149Z" fill="white"/><path id="Path 14" fill-rule="evenodd" clip-rule="evenodd" d="M203.592 130.854C221.471 126.133 238.202 124.858 240.137 128.73C241.368 131.195 239.606 133.981 235.478 137.084C232.635 139.221 228.723 141.473 223.827 143.898L223.623 143.998C220.494 145.536 213.999 148.47 210.646 149.984C209.609 150.452 208.873 150.785 208.629 150.899L208.022 151.197C202.977 153.655 195.987 156.149 189.966 157.133C180.762 158.637 174.528 156.624 172.8 149.998C171.062 143.331 183.366 136.346 202.417 131.169L203.592 130.854ZM223.984 142.703C228.549 140.417 232.209 138.29 234.878 136.284C238.653 133.447 240.174 131.041 239.242 129.177C237.659 126.009 221.07 127.273 203.848 131.821L203.277 131.973C184.512 137 172.239 143.882 173.768 149.746C175.329 155.732 181.046 157.577 189.805 156.146C195.927 155.146 203.112 152.539 208.108 150.04C208.23 149.979 209.063 149.602 210.299 149.044C213.61 147.548 219.81 144.746 222.969 143.205L223.984 142.703Z" fill="white"/><path id="Path 14_2" fill-rule="evenodd" clip-rule="evenodd" d="M198.776 137.715C208.464 135.171 217.417 134.493 218.531 136.71C219.259 138.159 218.262 139.727 215.978 141.434C214.447 142.578 212.351 143.778 209.728 145.07L209.4 145.229C207.653 146.072 204.382 147.541 202.676 148.307C202.17 148.535 201.801 148.7 201.652 148.769L201.145 149.014C198.449 150.302 194.781 151.592 191.606 152.108C186.595 152.922 183.151 151.817 182.19 148.153C181.217 144.441 187.744 140.722 197.92 137.944L198.776 137.715ZM210.226 143.702C212.362 142.613 214.092 141.595 215.379 140.633C217.309 139.191 218.063 138.005 217.637 137.159C216.898 135.689 208.58 136.273 199.838 138.474L199.03 138.682C189.002 141.315 182.389 144.967 183.157 147.899C183.95 150.923 186.879 151.863 191.446 151.121C194.685 150.595 198.495 149.22 201.14 147.905C201.207 147.871 201.661 147.667 202.332 147.366C204.186 146.533 207.696 144.955 209.286 144.172L210.226 143.702Z" fill="white"/><path id="Path 15" d="M290.872 107.557L290.574 108.512C268.728 101.69 250.076 99.0614 232.5 99.8035L231.078 99.8699C218.35 100.523 207.428 102.668 190.702 107.232L188.485 107.841L181.152 109.882C162.661 115.003 152.374 117.24 139.068 118.446L138.432 118.503C120.324 120.088 101.206 118.715 79.0569 113.715L77.8675 113.444C11.1725 98.0742 -22.5048 111.252 -23.5656 152.912L-23.5878 154.183L-24.5878 154.174C-24.1781 111.135 9.5066 97.1023 76.0651 112.009L78.0921 112.469C100.647 117.667 120.02 119.111 138.345 117.507L139.605 117.392C152.328 116.199 162.413 114.015 180.017 109.159L188.553 106.785L190.442 106.266C207.853 101.516 219.02 99.3717 232.458 98.8044C249.852 98.07 268.283 100.613 289.759 107.212L290.872 107.557Z" fill="white"/><path id="Path 16" d="M304.025 88.0344L303.244 88.6589C287.51 68.9792 270.985 61.4665 251.475 63.2645C243.21 64.0262 234.405 66.4168 223.967 70.4939L222.665 71.0077C219.17 72.4008 215.474 73.9825 211.222 75.89L208.785 76.9909C207.554 77.551 206.274 78.1376 204.829 78.8049L194.765 83.4726C169.698 95.062 154.524 100.568 137.075 102.993C93.1536 109.097 42.4121 100.702 -15.1497 77.8187L-16.8961 77.1209L-16.5234 76.1929C41.6087 99.5423 92.7624 108.142 136.938 102.002L138.157 101.827C154.775 99.3634 169.59 93.9755 193.468 82.9701L205.352 77.4627C206.731 76.8279 207.97 76.2617 209.188 75.71L211.607 74.6222C216.065 72.6325 219.921 71.0009 223.603 69.5625C234.121 65.4541 243.012 63.0402 251.384 62.2687C271.04 60.4573 287.75 67.9467 303.547 87.4401L304.025 88.0344Z" fill="white"/><path id="Path 17" d="M298.361 62.6943L297.841 63.5483C285.505 56.0346 272.425 51.2618 251.09 49.0834C220.56 45.9662 180.506 50.0004 128.862 63.2026L127.294 63.6054C50.0532 83.5379 -4.49815 81.1171 -36.3554 56.2721L-37.3138 55.5124L-36.6864 54.7337C-5.59033 79.7878 48.2096 82.6444 124.718 63.2322L127.044 62.6372C179.554 49.0867 220.226 44.9268 251.192 48.0886C272.386 50.2527 285.536 54.9735 297.842 62.3797L298.361 62.6943Z" fill="white"/><path id="Path 18" fill-rule="evenodd" clip-rule="evenodd" d="M64.4529 12.786C81.0497 12.786 97.0806 18.4676 106.972 26.9025C116.559 35.077 117.841 43.8911 108.941 48.1903C99.8256 52.5935 78.5258 57.3049 58.656 59.1861L57.2723 59.3127C33.0523 61.4511 15.3847 59.1804 9.94106 51.7265C-2.23789 35.0501 28.8668 12.786 64.4529 12.786ZM57.8718 58.2547C77.8285 56.4287 99.4122 51.6826 108.506 47.2899C116.596 43.3816 115.441 35.4382 106.324 27.6634C96.6162 19.3858 80.8162 13.786 64.4529 13.786C29.5304 13.786 -0.717293 35.4366 10.7486 51.1367C15.8933 58.1812 33.3322 60.4225 57.1843 58.3165L57.8718 58.2547Z" fill="white"/><path id="Path 18_2" fill-rule="evenodd" clip-rule="evenodd" d="M63.3461 27.3123C74.4597 27.3123 85.1975 30.187 91.8358 34.4629C98.3815 38.6791 99.297 43.4351 93.1243 45.6875C87.0718 47.896 73.0161 50.2551 59.8216 51.2221L58.5477 51.3113C42.3034 52.3947 30.4916 51.248 26.8006 47.4302C22.7569 43.2477 25.488 38.1155 33.1417 33.9772C40.6986 29.8913 51.9359 27.3123 63.3461 27.3123ZM59.1133 50.2703C72.4052 49.3396 86.736 46.9541 92.7815 44.7481C97.9716 42.8542 97.2575 39.1446 91.2943 35.3036C84.8252 31.1367 74.2753 28.3123 63.3461 28.3123C52.095 28.3123 41.0209 30.8539 33.6173 34.8569C26.4566 38.7286 24.0859 43.1837 27.5195 46.7351C30.8259 50.1551 42.0051 51.3169 57.3108 50.3881L59.1133 50.2703Z" fill="white"/><path id="Path 18_3" fill-rule="evenodd" clip-rule="evenodd" d="M76.0345 39.1974C77.5917 39.9629 78.5672 40.7963 78.7833 41.653C79.0468 42.6979 78.2305 43.4862 76.618 43.9353C68.6658 46.1497 47.8052 47.2115 44.412 44.5331C43.2958 43.652 43.0942 42.5459 43.8309 41.4893C44.4527 40.5976 45.7339 39.7548 47.5336 39.0122C51.2091 37.4955 56.6589 36.541 62.191 36.541C67.5841 36.541 72.7974 37.6062 76.0345 39.1974ZM45.0316 43.7482C48.0757 46.1511 68.7037 45.1012 76.3498 42.9719L76.5463 42.9144C77.5532 42.6042 77.9008 42.2432 77.8136 41.8976C77.6906 41.4099 76.9076 40.7409 75.5934 40.0948C72.5027 38.5756 67.4392 37.541 62.191 37.541C56.7831 37.541 51.4619 38.473 47.9151 39.9366C46.2764 40.6127 45.14 41.3603 44.6512 42.0613C44.2259 42.6712 44.3198 43.1863 45.0316 43.7482Z" fill="white"/><path id="Path 19" d="M304.057 51.1625L303.214 51.7006C298.19 43.8319 288.439 39.4089 273.665 37.5212L273.01 37.4395C261.569 36.0493 251.109 36.0827 226.171 37.047L219.169 37.3152C210.773 37.6241 204.834 37.7717 199.037 37.7804L198.493 37.7808C183.955 37.7808 173.371 35.3123 161.627 29.759L160.948 29.4351C155.855 26.9852 136.757 16.2858 134.152 14.9056C121.288 8.08927 108.573 2.46483 92.849 -2.95467C91.1477 -3.54105 89.4193 -4.12154 87.6622 -4.69632C45.6655 -18.4347 7.88762 -4.97881 -25.7559 35.7388L-26.7742 36.981L-27.55 36.3501C6.59604 -5.63888 45.1328 -19.6611 87.9731 -5.64676C89.7352 -5.07034 91.4686 -4.48818 93.1748 -3.90009C108.499 1.38175 120.981 6.85995 133.514 13.4386L134.984 14.217C138.66 16.2049 156.512 26.1914 161.382 28.534C173.043 34.1439 183.43 36.6842 197.668 36.7781L199.578 36.7792C204.649 36.764 209.886 36.6421 216.838 36.3984L232.031 35.8279C252.866 35.0855 262.567 35.1631 273.13 36.4468C288.315 38.2922 298.465 42.74 303.823 50.8044L304.057 51.1625Z" fill="white"/></g></g></g></g></g></g><g id="Eyes" transform="translate(500 251) scale(1 1)"><g id="Eyes/Tiny"><path id="Fill 1" d="M75.5297 28.9006C78.7187 29.4316 82.2127 27.8016 83.6687 24.9156C86.8877 18.5346 79.4717 13.0006 73.5977 15.7006C67.4307 18.5366 68.9207 27.7996 75.5297 28.9006" fill="#001D2D"/><path id="Fill 4" d="M24.9191 28.9006C21.7301 29.4316 18.2361 27.8016 16.7801 24.9156C13.5601 18.5346 20.9761 13.0006 26.8501 15.7006C33.0181 18.5366 31.5291 27.7996 24.9191 28.9006" fill="#001D2D"/><path id="Fill 5" fill-rule="evenodd" clip-rule="evenodd" d="M32.5917 37.5557C30.0448 37.5576 27.4349 37.5713 25.045 38.4326C22.654 39.2939 20.4869 41.1917 20.0721 43.6523C19.6923 45.9044 20.8548 48.2016 22.569 49.749C24.2823 51.2944 26.4833 52.2095 28.6754 52.9857C41.4279 57.5026 55.5527 58.2318 68.721 55.0509C71.3589 54.4137 74.0147 53.5964 76.1978 52.0138C78.3818 50.4321 80.0431 47.9539 79.9991 45.2937C79.9362 41.4726 76.3657 38.4091 72.5684 37.5282C67.4176 36.3332 60.7385 37.541 55.3608 37.5302C47.7711 37.5155 40.1814 37.5468 32.5917 37.5557" fill="#FFD6CE"/><path id="Fill 6" fill-rule="evenodd" clip-rule="evenodd" d="M30.0877 44.0862L40.3468 44.3853C43.7552 44.4702 47.1557 44.5595 50.5501 44.5713C53.9426 44.606 57.328 44.5699 60.6995 44.4909C64.072 44.4 67.4236 44.2398 70.7771 44.0087L70.806 44.0065C71.9096 43.9304 72.8884 44.5307 72.9912 45.3473C73.079 46.0436 72.5033 46.672 71.6482 46.8905C68.2248 47.7669 64.6787 48.2705 61.1366 48.5872C57.5895 48.9114 54.0324 49.014 50.4873 48.9985C46.9431 48.9564 43.409 48.7969 39.9008 48.4698C36.3936 48.1501 32.9074 47.6968 29.485 47.0057L29.48 47.0049C28.4094 46.7886 27.7798 45.972 28.0712 45.1797C28.3216 44.4997 29.1737 44.0597 30.0877 44.0862" fill="#E5A193"/></g></g><g id="Head Accesory" transform="translate(440 0) scale(1 1)"><g id="Head Accesory/Cap"><path id="Fill 1" fill-rule="evenodd" clip-rule="evenodd" d="M111.985 154C77.141 154 58 169.852 58 199.969V199.97H196.699C198.264 199.97 199.56 198.755 199.662 197.194C199.774 195.481 198.415 194.031 196.699 194.031H138.822C139.985 176.21 146.829 154 111.985 154" fill="#FF7272"/></g></g></g></g><ellipse id="Shadow" cx="1481" cy="1368" rx="250" ry="20" fill="#0089C5" fill-opacity="0.25"/><g id="Bubbles" transform="translate(1032 180) scale(1 1)"><g id="Bubbles/Object"><path id="Bubble" d="M149.99 0C232.827 0 299.98 67.1536 299.98 149.992C299.98 178.524 291.987 205.882 277.2 229.492L276.523 230.562L299.301 287.106C302.191 294.281 295.654 301.594 288.296 299.695L288.058 299.631L287.832 299.564L224.775 280.035L223.673 280.666C201.962 292.935 177.451 299.64 151.97 299.971L150.936 299.981L149.99 299.983C67.1527 299.983 0 232.83 0 149.992C0 67.1536 67.1527 0 149.99 0Z" fill="#E4EDF1"/><path id="Path" d="M149.99 12C73.7802 12 12 73.781 12 149.992C12 225.44 72.5507 286.746 147.672 287.965L149.953 287.984L150.862 287.981C174.164 287.836 196.738 281.904 216.83 270.745L217.715 270.249L223.344 267.03L286.105 286.466L263.078 229.301L266.564 223.862C280.562 201.823 287.98 176.369 287.98 149.992C287.98 73.781 226.199 12 149.99 12Z" fill="white"/><g id="Object"><g id="Group 12"><mask id="mask0_203_430561671b92b-daf0-4c46-b505-f412d853c62b" style="mask-type:alpha" maskUnits="userSpaceOnUse" x="96" y="80" width="109" height="140" fill="#ffffff"><g id="masterstickerslight-bulb-mask-2" fill="#ffffff"><path id="Vector" d="M150.5 219.718C179.184 219.718 178.211 219.716 178.736 196.426C179.184 176.506 205 176.506 205 134.735C205 98.7251 174.263 80 150.5 80C126.737 80 96 98.7251 96 134.735C96 176.506 120.382 176.506 121.158 196.426C122.066 219.709 121.816 219.718 150.5 219.718Z" fill="#ffffff"/></g></mask><g mask="url(#mask0_203_430561671b92b-daf0-4c46-b505-f412d853c62b)"><path id="Mask" d="M150.5 219.538C179.184 219.538 178.211 219.536 178.736 196.365C179.184 176.548 205 176.548 205 134.992C205 99.167 174.263 80.5381 150.5 80.5381C126.737 80.5381 96 99.167 96 134.992C96 176.548 120.382 176.548 121.158 196.365C122.066 219.529 121.816 219.538 150.5 219.538Z" fill="#FFE05F"/><path id="Path-117" d="M134.299 135.537C136.484 132.376 140.812 131.588 143.967 133.777C145.31 134.709 146.279 136.083 146.711 137.654L146.785 137.951L146.976 138.789C147.092 139.298 147.598 139.617 148.106 139.5C148.314 139.453 148.498 139.337 148.63 139.174L148.703 139.07L149.92 137.067C152.22 133.281 157.148 132.08 160.926 134.385C162.351 135.254 163.467 136.546 164.122 138.077L164.247 138.386C164.765 139.75 166.289 140.436 167.651 139.916C168.045 139.766 168.397 139.523 168.678 139.209L168.812 139.047L169.888 137.629C171.772 135.15 175.304 134.669 177.779 136.556C179.467 137.843 180.284 139.966 179.911 142.044L179.863 142.283L167.994 195.174C167.628 196.805 166.011 197.83 164.383 197.464C162.813 197.11 161.806 195.591 162.064 194.02L162.098 193.846L173.552 142.799L173.405 142.986C172.522 144.057 171.396 144.9 170.122 145.446L169.8 145.576C165.319 147.284 160.304 145.029 158.599 140.539C158.443 140.13 158.156 139.785 157.783 139.557C156.902 139.02 155.767 139.259 155.171 140.081L155.082 140.215L153.864 142.219C152.883 143.834 151.291 144.983 149.452 145.404C145.768 146.246 142.099 144.003 141.142 140.37L141.084 140.136L140.894 139.299C140.843 139.078 140.712 138.884 140.527 138.755C140.147 138.492 139.638 138.559 139.338 138.895L139.267 138.984L138.601 139.949C138.379 140.27 138.137 140.579 137.878 140.872C134.719 144.452 129.554 145.2 125.569 142.921L125.509 142.885L138.979 193.733C139.392 195.291 138.514 196.889 137.004 197.385L136.834 197.436C135.279 197.85 133.684 196.97 133.189 195.457L133.138 195.286L119.181 142.597C118.421 139.729 120.125 136.788 122.987 136.026C124.639 135.587 126.395 135.964 127.72 137.03L127.915 137.195C129.508 138.607 131.942 138.457 133.352 136.861L133.498 136.685L133.633 136.501L134.299 135.537Z" fill="white"/><path id="Rectangle" d="M179 201.538H121V205.538H179V201.538Z" fill="white"/><path id="Rectangle-Copy" d="M179 193.538H121V197.538H179V193.538Z" fill="white"/><path id="Rectangle_2" d="M179 210.538H121V213.538H179V210.538Z" fill="white"/></g></g></g></g></g><g id="Plants" transform="translate(2091 866) scale(1 1)"><g id="Plants/Basic"><path id="Path 132" d="M202.814 16.4846C211.812 5.91244 225.841 6.62664 234.147 18.0798C242.453 29.5329 241.892 47.3879 232.894 57.96C211.724 82.8311 201.833 106.246 201.597 128.597L201.593 129.415C201.593 169.174 184.805 210.435 152.743 254.057C143.119 267.152 126.465 265.652 118.385 250.961L117.868 250.005C109.562 234.387 99.6166 203.405 86.7578 154.584L85.9503 151.509C74.7797 108.856 61.4266 82.3628 47.2683 71.1964L46.796 70.8299C36.2951 62.8106 32.89 45.4749 39.1906 32.1095C45.4912 18.744 59.1115 14.4101 69.6124 22.4294C94.4476 41.3953 113.313 78.2056 127.59 132.024L129.496 139.258C133.716 155.181 137.584 168.947 141.037 180.432L141.565 182.182L141.936 181.482C152.111 162.069 157.082 144.884 157.242 130.149L157.246 129.415C157.246 89.296 172.996 51.5173 202.814 16.4846Z" fill="#82D1C4"/><path id="Path 132_2" d="M104.215 42.8517C112.834 33.3269 125.179 35.6769 131.787 48.1006C154.306 90.4363 166 130.743 166 169.279C166 208.401 153.963 246.872 130.91 284.434C125.525 293.208 116.951 296.304 109.333 292.225C89.6086 281.666 76.2587 268.017 70.1068 248.621C63.0071 226.236 67.3717 202.966 79.8799 181.727L80.3196 180.987C81.342 179.281 82.1359 177.748 82.7127 176.418L82.9146 175.937L82.8666 175.879C82.067 174.913 81.0157 173.855 79.7092 172.739L79.2642 172.365C75.1904 168.993 69.4177 165.614 62.0201 162.415C51.617 157.917 45.7136 142.115 48.8346 127.12C51.9555 112.126 62.9188 103.617 73.3219 108.115C95.0013 117.49 109.769 129.713 117.507 147.77C127.164 170.307 126.495 189.051 126.664 170.235L126.668 169.279C126.668 144.826 118.26 115.845 100.573 82.5929C93.9648 70.1693 95.5952 52.3765 104.215 42.8517Z" fill="#59BCAB"/><path id="Path 132_3" d="M104.131 25.7821C107.643 9.61949 119.979 0.447815 131.685 5.2966C143.391 10.1454 150.033 27.1785 146.522 43.3411L145.908 46.1939C136.142 92.0049 134.175 122.846 138.1 135.981L139.936 141.829C143.588 153.527 147.934 167.953 152.98 185.124L156.406 196.838L156.584 196.259C158.333 190.415 159.189 183.739 159.253 176.037L159.257 175.108C159.257 146.776 168.889 124.068 186.804 112.002C201.446 102.14 220.533 99.9974 244.548 104.041C256.679 106.084 265.314 121.318 263.835 138.069C262.356 154.819 251.322 166.742 239.191 164.699L237.432 164.415C222.079 162.047 211.527 163.34 206.208 166.923C204.034 168.387 203.544 169.423 203.515 174.579L203.513 175.108C203.513 220.897 187.263 256.018 157.002 276C145.421 283.648 131.572 276.128 126.866 259.635L122.05 242.815C112.892 210.953 105.476 185.901 99.8242 167.719L97.6771 160.875C88.0797 130.585 90.927 86.554 104.131 25.7821Z" fill="#42AB99"/><path id="Rectangle" fill-rule="evenodd" clip-rule="evenodd" d="M60 240H200V254.894C200 269.307 194.037 283.077 183.526 292.939V292.939C178.691 297.475 172.31 300 165.68 300H94.3205C87.6902 300 81.3088 297.475 76.4735 292.939V292.939C65.9627 283.077 60 269.307 60 254.894V240Z" fill="#E4EDF1"/><path id="Combined Shape" fill-rule="evenodd" clip-rule="evenodd" d="M182 254C182 251.791 180.209 250 178 250H159L158.8 250.005C156.684 250.109 155 251.858 155 254C155 256.209 156.791 258 159 258H178L178.2 257.995C180.316 257.891 182 256.142 182 254ZM186 268C186 265.791 184.209 264 182 264H173L172.8 264.005C170.684 264.109 169 265.858 169 268C169 270.209 170.791 272 173 272H182L182.2 271.995C184.316 271.891 186 270.142 186 268ZM159 270C161.209 270 163 271.791 163 274C163 276.142 161.316 277.891 159.2 277.995L159 278H146C143.791 278 142 276.209 142 274C142 271.858 143.684 270.109 145.8 270.005L146 270H159ZM170 288C170 285.791 168.209 284 166 284H153L152.8 284.005C150.684 284.109 149 285.858 149 288C149 290.209 150.791 292 153 292H166L166.2 291.995C168.316 291.891 170 290.142 170 288Z" fill="#B9CCD4"/></g></g><g id="Plants" transform="translate(2391 1120) scale(1 1)"><g id="Plants/Fern"><g id="Group"><path id="Star Copy 2" d="M188 158.388V158.388C182.715 169.416 166.323 166.819 164.704 154.698V154.698V154.698C156.269 163.553 141.482 156.018 143.688 143.99V143.99V143.99C132.93 149.805 121.195 138.07 127.01 127.312V127.312V127.312C114.982 129.518 107.447 114.731 116.302 106.296V106.296V106.296C104.181 104.677 101.584 88.2855 112.612 83V83V83C101.584 77.7145 104.181 61.3229 116.302 59.7039V59.7039V59.7039C107.447 51.2693 114.982 36.4822 127.01 38.6882V38.6882V38.6882C121.195 27.9302 132.93 16.1951 143.688 22.0101V22.0101V22.0101C141.482 9.98163 156.269 2.44722 164.704 11.302V11.302V11.302C166.323 -0.81938 182.715 -3.41556 188 7.6123V7.6123V7.6123C193.285 -3.41556 209.677 -0.81938 211.296 11.302V11.302V11.302C219.731 2.44722 234.518 9.98162 232.312 22.0101V22.0101V22.0101C243.07 16.1951 254.805 27.9302 248.99 38.6882V38.6882V38.6882C261.018 36.4822 268.553 51.2693 259.698 59.7039V59.7039V59.7039C271.819 61.3229 274.416 77.7145 263.388 83V83V83C274.416 88.2855 271.819 104.677 259.698 106.296V106.296V106.296C268.553 114.731 261.018 129.518 248.99 127.312V127.312V127.312C254.805 138.07 243.07 149.805 232.312 143.99V143.99V143.99C234.518 156.018 219.731 163.553 211.296 154.698V154.698V154.698C209.677 166.819 193.285 169.416 188 158.388V158.388Z" fill="#42AB99"/><path id="Star Copy" d="M94 196.162V196.162C89.6418 205.255 76.1259 203.114 74.791 193.119V193.119V193.119C67.8361 200.421 55.6433 194.208 57.4622 184.29V184.29V184.29C48.5916 189.085 38.9152 179.408 43.7101 170.538V170.538V170.538C33.7919 172.357 27.5793 160.164 34.8806 153.209V153.209V153.209C24.8858 151.874 22.7451 138.358 31.8382 134V134V134C22.7451 129.642 24.8858 116.126 34.8806 114.791V114.791V114.791C27.5793 107.836 33.7919 95.6433 43.7101 97.4622V97.4622V97.4622C38.9152 88.5915 48.5915 78.9152 57.4622 83.7101V83.7101V83.7101C55.6433 73.7919 67.8361 67.5793 74.791 74.8806V74.8806V74.8806C76.1259 64.8858 89.6418 62.7451 94 71.8382V71.8382V71.8382C98.3582 62.7451 111.874 64.8858 113.209 74.8806V74.8806V74.8806C120.164 67.5793 132.357 73.7919 130.538 83.7101V83.7101V83.7101C139.408 78.9152 149.085 88.5916 144.29 97.4622V97.4622V97.4622C154.208 95.6433 160.421 107.836 153.119 114.791V114.791V114.791C163.114 116.126 165.255 129.642 156.162 134V134V134C165.255 138.358 163.114 151.874 153.119 153.209V153.209V153.209C160.421 160.164 154.208 172.357 144.29 170.538V170.538V170.538C149.085 179.408 139.408 189.085 130.538 184.29V184.29V184.29C132.357 194.208 120.164 200.421 113.209 193.119V193.119V193.119C111.874 203.114 98.3582 205.255 94 196.162V196.162Z" fill="#59BCAB"/><path id="Star" d="M150 272.388V272.388C144.715 283.416 128.323 280.819 126.704 268.698V268.698V268.698C118.269 277.553 103.482 270.018 105.688 257.99V257.99V257.99C94.9302 263.805 83.1951 252.07 89.0101 241.312V241.312V241.312C76.9816 243.518 69.4472 228.731 78.302 220.296V220.296V220.296C66.1806 218.677 63.5844 202.285 74.6123 197V197V197C63.5844 191.715 66.1806 175.323 78.302 173.704V173.704V173.704C69.4472 165.269 76.9816 150.482 89.0101 152.688V152.688V152.688C83.1951 141.93 94.9302 130.195 105.688 136.01V136.01V136.01C103.482 123.982 118.269 116.447 126.704 125.302V125.302V125.302C128.323 113.181 144.715 110.584 150 121.612V121.612V121.612C155.285 110.584 171.677 113.181 173.296 125.302V125.302V125.302C181.731 116.447 196.518 123.982 194.312 136.01V136.01V136.01C205.07 130.195 216.805 141.93 210.99 152.688V152.688V152.688C223.018 150.482 230.553 165.269 221.698 173.704V173.704V173.704C233.819 175.323 236.416 191.715 225.388 197V197V197C236.416 202.285 233.819 218.677 221.698 220.296V220.296V220.296C230.553 228.731 223.018 243.518 210.99 241.312V241.312V241.312C216.805 252.07 205.07 263.805 194.312 257.99V257.99V257.99C196.518 270.018 181.731 277.553 173.296 268.698V268.698V268.698C171.677 280.819 155.285 283.416 150 272.388V272.388Z" fill="#82D1C4"/><path id="Rectangle" fill-rule="evenodd" clip-rule="evenodd" d="M80 240H220V254.894C220 269.307 214.037 283.077 203.526 292.939V292.939C198.691 297.475 192.31 300 185.68 300H114.32C107.69 300 101.309 297.475 96.4735 292.939V292.939C85.9627 283.077 80 269.307 80 254.894V240Z" fill="#E4EDF1"/><path id="Combined Shape" fill-rule="evenodd" clip-rule="evenodd" d="M199 253C199 250.791 197.209 249 195 249H176L175.8 249.005C173.684 249.109 172 250.858 172 253C172 255.209 173.791 257 176 257H195L195.2 256.995C197.316 256.891 199 255.142 199 253ZM203 267C203 264.791 201.209 263 199 263H190L189.8 263.005C187.684 263.109 186 264.858 186 267C186 269.209 187.791 271 190 271H199L199.2 270.995C201.316 270.891 203 269.142 203 267ZM176 269C178.209 269 180 270.791 180 273C180 275.142 178.316 276.891 176.2 276.995L176 277H163C160.791 277 159 275.209 159 273C159 270.858 160.684 269.109 162.8 269.005L163 269H176ZM187 287C187 284.791 185.209 283 183 283H170L169.8 283.005C167.684 283.109 166 284.858 166 287C166 289.209 167.791 291 170 291H183L183.2 290.995C185.316 290.891 187 289.142 187 287Z" fill="#B9CCD4"/></g></g></g></g></svg>