<svg viewBox="0 0 1039.9999999999998 1039.9999999999998" xmlns="http://www.w3.org/2000/svg" overflow="visible" xmlns:xlink="http://www.w3.org/1999/xlink" width="1039.9999999999998px" height="1039.9999999999998px"><g id="Master/Composition/Color Comp" stroke="none" stroke-width="1" fill="none" fill-rule="evenodd"><g id="Color/Bottom" transform="scale(1 1)"><g id="Color/Bottom/Watermeloon" stroke="none" stroke-width="1" fill="none" fill-rule="evenodd"><g id="Color" transform="translate(79.000000, 444.000000)"><path d="M351.723228,493.929661 C336.699234,489.17209 321.762937,502.015532 306.199438,501.840066 C272.046327,503.162724 236.617719,508.458908 202.83982,501.438049 C155.134698,490.120495 97.8572465,431.823597 81.6476735,386.22799 C65.7367153,340.768981 43.7191374,292.850116 53.3558518,243.631916 C54.7856512,227.829985 70.4990128,214.108103 65.4114582,198.065183 C62.3853456,191.672892 65.1883295,171.211118 74.5874841,177.029258 C89.2673495,194.551422 107.571667,207.735801 126.374417,220.264959 C181.628169,260.430005 241.649769,292.563596 300.624552,326.174211 C348.458445,356.008977 390.230122,394.786953 440.391879,421.059093 C496.246192,444.652601 439.247374,464.564656 410.227331,473.389039 C388.120946,473.696659 373.584283,494.369436 351.723228,493.929661" id="Fill-1" fill="#FF3B54"/><path d="M421.382101,470.236783 C447.139871,460.875783 466.71653,443.699717 492.346659,434.653671 C556.380916,445.028289 464.978405,508.102199 441.914397,519.478238 C399.38583,544.619082 348.994634,543.038769 301.619073,550.707447 C285.813901,552.947611 269.804504,556.495276 253.788448,554.780774 C226.009526,549.260213 186.099246,568.781796 169.641444,538.742535 C184.36667,522.235191 157.71875,524.886791 147.211196,519.444968 C89.6444073,511.587761 53.3235884,465.529112 25.7688685,418.311567 C-2.27199353,365.185314 -2.26311422,292.260229 2.1565625,233.111041 C8.05020474,203.736066 14.252403,166.642507 41.3653772,149.265714 C73.1610776,148.448387 48.8239978,189.781622 49.2302263,207.353597 C40.8958836,247.197456 44.9714871,288.316654 44.4120905,328.770458 C41.4530603,376.953935 56.4191379,410.264723 86.3146659,447.057744 C100.794601,467.47872 120.221422,481.529646 144.251056,488.252355 C172.663739,495.394262 199.161821,511.094259 228.991864,511.099804 C267.03194,510.556398 306.517123,515.026744 342.421724,499.622848 C367.362597,488.463063 395.996153,482.397987 421.382101,470.236783" id="Fill-3" fill="#FFC540"/><path d="M173.169111,100.623667 C143.090222,99.5425556 113.192444,84.8903333 100.966889,56.8903333 C99.788,53.9381111 98.7013333,51.3081111 94.8824444,50.1147778 C82.8657778,43.7392222 101.569111,32.3925556 109.204667,31.8425556 C151.894667,15.9792222 196.205778,4.287 241.254667,1.20922222 C257.499111,2.91144444 243.220222,21.5681111 248.170222,31.8736667 C242.025778,69.5825556 213.192444,102.323667 173.169111,100.623667" id="Fill-6" fill="#3F5EFF"/><path d="M344,326 C366.018903,335.518807 389.026156,347.800638 401,367 C386.552497,362.301529 355.503626,336.128134 344,326" id="Fill-9" fill="#FF3B54"/><path d="M123,192 C111.963705,184.652096 96.2294461,181.175633 88,171 C102.734575,172.757539 115.505129,178.625933 123,192" id="Fill-11" fill="#FF3B54"/><path d="M416,377 C425.218173,382.906872 432.878773,385.826461 441,394 C429.39873,390.673154 422.198757,384.567566 416,377" id="Fill-13" fill="#FFC540"/></g><g id="Ink" transform="translate(0.000000, 282.000000)" fill="#000"><path d="M565.414341,600.417878 C381.255548,791.617042 62.0149385,655.470604 128.440032,383.728155 C139.59152,337.587691 165.130413,350.322983 119.286024,320.466736 C116.345289,318.678957 115.014746,322.433183 113.816257,324.97669 C100.717226,355.466594 89.4259149,387.667706 85.1624045,420.617887 C55.8316277,634.664227 305.039472,776.721101 488.409261,688.077878 C524.357246,670.22006 558.73277,647.236388 584.164022,615.927501 C585.389143,608.149385 571.383478,603.346462 565.414341,600.417878 M369.249582,666.144012 C429.790986,665.968674 483.139243,648.706783 527.956039,609.495491 C532.419298,603.369766 553.801213,589.20292 541.757518,583.255862 C422.727675,514.312613 306.266813,440.731791 190.594956,366.634943 C181.108035,360.530304 171.517911,354.585466 161.906702,348.678359 C153.636025,346.59983 154.672495,362.511177 151.287876,367.618166 C128.173701,438.03625 136.393332,520.181989 185.369326,577.95134 C229.69674,633.202709 299.153564,665.433783 369.249582,666.144012 M371.335839,739.90683 C251.986399,742.839854 130.802607,676.355772 83.5721884,564.149596 C47.899412,485.284227 41.6273243,364.901541 116.892377,308 C140.796666,311.550035 163.546855,328.267047 186.193842,337.67647 C265.440538,382.326562 340.188465,434.704833 419.088932,479.978595 C481.527942,521.497022 550.780579,554.467179 607.649949,603.388632 C612.837849,608.972806 600.993902,612.831347 606.731109,622.15643 C610.253332,641.259368 577.324871,658.893019 565.240116,671.596129 C510.056398,715.186426 441.104492,737.061476 371.335839,739.90683" id="Fill-1"/><path d="M126.070718,196.892877 C90.2292837,199.846853 99.9490699,140.649707 129.298077,150.003405 C152.182385,158.986316 154.692183,194.325371 126.070718,196.892877" id="Fill-3"/><path d="M292,320.572126 C291.1168,350.502723 257.80674,348.752154 251.029577,325.518852 C249.728254,303.130113 291.799883,293.2523 292,320.572126" id="Fill-5"/><path d="M589.97253,401.683361 C589.273387,413.281971 580.046021,432.924245 566.411638,423.53463 C561.096614,418.979612 553.021295,415.905361 554.097491,407.603117 C552.90587,383.646726 591.168548,371.990653 589.97253,401.683361" id="Fill-7"/><path d="M174.879063,723.218246 C185.390182,721.555677 197.155329,733.365766 194.66175,742.266921 C189.969724,748.896949 186.068426,760.862271 175.987196,757.376276 C174.552748,757.005066 172.680615,756.204153 172.094808,755.042155 C168.592215,748.393004 160.027847,746.325479 159.254938,738.064379 C157.258071,730.079999 167.41726,721.516307 174.879063,723.218246" id="Fill-9"/><path d="M84.7491176,21.6405061 C83.8807059,17.4191424 86.1361176,14.287597 90.8291176,12.1853242 C96.3290588,9.51347576 98.8057647,2.84450606 104.934941,1.41496061 C114.994882,0.690657576 125.355471,19.1323545 117.480529,27.4730515 C113.262529,34.1913545 101.745176,42.2416576 94.9208235,33.2495364 C91.9579412,29.1515061 81.0273529,29.8948697 84.7491176,21.6405061" id="Fill-11"/><path d="M642.159033,708.793271 C645.949746,710.67169 650.197091,715.952737 648.687297,720.020616 C643.781866,727.712504 638.45226,738.4672 627.289411,735.492945 C617.598303,733.934421 624.258631,720.331656 613.413633,718.777561 C613.342005,715.708111 618.106417,713.305019 612.73652,711.851651 C606.486936,708.353829 618.918953,704.838297 621.511008,702.932205 C628.3325,699.982301 640.967091,699.279416 642.500388,709.160764 C639.879233,709.294699 638.031443,710.075068 637.230099,712.719466 C640.586565,715.588565 642.293337,712.044253 642.159033,708.793271" id="Fill-14"/><path d="M601.094993,513.407497 C600.798893,506.539274 609.42544,496.113726 616.946838,498.29434 C624.739019,500.537383 637.687095,503.564614 634.50704,514.565161 C629.78594,534.612353 599.078427,533.360499 601.094993,513.407497" id="Fill-16"/><path d="M760.740935,617.979619 C761.134274,620.685639 760.646181,623.261488 760.064437,625.894701 C769.430747,624.684548 762.902646,630.616171 761.186058,635.083918 C746.678799,654.651544 725.253406,634.204709 730.937536,614.186999 C732.134079,608.733038 738.514541,613.407073 741.286643,609 C750.236477,611.466637 748.667529,624.281899 760.740935,617.979619" id="Fill-18"/><path d="M442.412202,412 C460.923758,414.712076 461.93546,435.684657 444.771342,441.9761 C426.496709,449.308955 412.445173,414.952317 442.412202,412" id="Fill-20"/><path d="M0.740981385,634.654379 C-4.41969646,622.380273 18.8144904,619.198259 25.9897704,624.399522 C33.385554,629.916909 29.5924447,645.406938 22.3748458,650.087528 C12.7528656,653.859128 -2.63896192,645.397094 0.740981385,634.654379" id="Fill-22"/><path d="M76.5776234,275 C68.4567459,272.559324 60.6422545,259.460809 70.878184,254.636781 C75.2104168,244.327295 82.1979954,250.54253 88.3169311,254.583867 C96.6102193,262.387636 83.677214,271.945297 76.5776234,275" id="Fill-24"/><path d="M714.962639,489.909947 C703.595827,488.160933 709.180854,485.814367 706.831049,479.142825 C703.607135,475.193836 710.620363,472.773415 713.266438,471.075876 C724.473807,469.549545 729.668707,491.576154 714.962639,489.909947" id="Fill-26"/><path d="M200.405075,442.632632 C194.752149,442.632632 189.09811,442.556606 183.446298,442.653567 C171.646999,442.093838 166.920819,425.6733 179.259234,421.662647 C194.422442,419.446872 223.064674,406.94884 234.478572,419.541629 C235.303955,422.011927 237.047172,423.89495 239.593495,424.095483 C242.351454,423.887237 244.537995,430.821039 243.883035,432.416485 C235.384154,446.980444 214.784113,440.82894 200.459655,444 C200.440719,443.543843 200.422897,443.088788 200.405075,442.632632" id="Fill-28"/><path d="M272,559.470466 C276.799412,542.34498 293.617368,509.737014 314.106936,510.013626 C316.323883,509.725905 319.923372,514.070597 318.781611,515.874683 C316.407102,526.044885 315.531641,534.99644 307.761228,542.912645 C299.23297,552.111928 295.086456,568.659751 283.094078,573 C275.589966,572.691172 271.952751,569.241858 272,559.470466" id="Fill-30"/><path d="M379.597204,560.419531 C381.121461,582.140662 363.122255,634.758009 350,591.308034 C350.157682,576.700186 351.955925,539.209719 375.024433,549.885703 C380.246942,551.295136 380.498562,558.205653 379.597204,560.419531" id="Fill-32"/><path d="M220.005799,509 C209.911162,508.878253 213.407765,503.127607 214.365723,498.007635 C212.939331,491.92904 216.220587,488.159257 220.235575,484.643938 C228.974862,477.119729 258.056607,458.135909 266,471.838524 C265.371722,475.828768 267.084502,480.622984 262.744274,483.723703 C249.66587,492.44345 235.70055,506.701058 220.005799,509" id="Fill-34"/><path d="M456,589.411732 C446.18045,617.819254 406.620793,557.888958 430.597226,550 C446.540399,554.705385 453.201142,573.846495 456,589.411732" id="Fill-36"/></g></g></g><g id="Color/Top" transform="scale(1 1)"><g id="Color/Top/Banana" stroke="none" stroke-width="1" fill="none" fill-rule="evenodd"><g id="Group-26" transform="translate(173.000000, 42.000000)"><path d="M651.690251,65.7113523 C652.352486,49.6076316 653.602401,33.4962419 653.391889,17.4034768 C653.305272,10.8005021 658.888223,7.49408476 659.551554,1.76098927 C659.626111,1.10584097 661.45274,0.434259171 662.563409,0.169132264 C714.360299,-2.75274155 754.707314,32.5463864 775.495364,77.914859 C790.980048,103.065762 780.191314,132.563869 782.149513,160.292638 C782.68566,175.389533 779.307602,327.973355 749.986147,300.159133 C654.889593,231.432103 625.333504,352.560042 579.94736,411.470802 C574.061799,416.303343 564.345359,411.997769 558.436773,417.901773 C537.224411,430.829449 511.732736,439.185329 486.928515,436.49681 C475.599248,435.289497 470.557926,420.052369 474.135532,410.276636 C482.16678,392.60516 488.49639,397.208727 500.524075,388.685226 C528.756789,368.75579 557.543194,348.976446 582.511877,325.061342 C597.120525,306.224184 607.227289,283.577745 620.690182,263.891524 C627.371742,252.985168 628.8837,239.400153 637.286633,229.56745 C641.804963,225.362669 634.657427,221.058191 637.166027,215.809336 C641.427796,202.178307 649.94366,187.880078 647.995329,173.288238 C645.210432,164.136978 651.537849,156.918295 655.889525,149.429008 C686.805169,143.018853 692.652356,124.526799 674.686482,98.8763182 C672.382912,83.6687702 667.595959,70.9350097 651.690251,65.7113523" id="Fill-1" fill="#FFC43C"/><path d="M630.288401,150.076251 C625.047665,165.643479 625.711799,183.352022 612.90805,195.674436 C610.488237,197.890193 609.599438,201.774337 608.009244,204.893257 L608.088151,204.790351 C598.018748,208.615379 609.325456,212.511565 601.915874,218.727509 C541.816179,281.455119 441.573669,266.994675 364.795018,246.332518 C351.318369,242.226141 296.552563,240.616871 297.169572,224.243913 C299.129094,218.325739 307.270757,210.143638 298.189883,207.107919 C289.939723,201.132819 245.90855,195.953595 274.580266,186.786227 C259.447667,180.803463 267.115888,172.303888 279.917445,174.684951 C300.991079,176.987193 322.03074,174.519645 343.039715,173.840906 C388.956983,172.886291 433.615027,158.717048 476.092171,142.026614 C515.701267,129.780832 546.431139,103.446818 577.335264,77.1631626 C589.332408,67.5732244 598.156835,50.7120113 612.141995,45.1014596 C622.354965,44.2409925 633.709894,48.8290554 635.831615,59.8060314 C639.406538,67.9881316 633.667153,72.9407435 633.346046,80.8261687 C632.782738,98.0420782 636.095734,115.631295 628.210519,131.817052 C625.133148,138.284787 625.486037,144.456941 630.288401,150.076251" id="Fill-3" fill="#FFC43C"/><path d="M855,278.185854 C852.599694,288.510332 847.262288,298.164873 848.143855,309.165846 C848.591184,312.852145 846.573837,317.13188 844.831433,320.741677 C837.659975,335.597253 830.21139,350.318405 822.779171,365.045021 C819.96645,370.618731 817.196279,375.791353 820.693088,382.475433 C821.804865,384.601093 820.230483,388.960609 818.641917,391.525608 C807.283017,408.683892 795.470241,425.588627 785.081282,443.392805 C777.451583,451.295452 757.473404,504.3834 746.217062,492.414131 C743.62255,490.057873 741.797227,488.810892 739.347824,492.261127 C728.712288,506.644578 729.249084,486.392339 720.293762,487.24151 C711.355897,489.564982 702.304563,506.929821 692.309473,500.632621 C688,496.438131 686.991705,493.782422 688.976321,489.896126 C699.882437,473.432916 711.606838,457.379539 723.588727,441.690091 C758.88522,398.314606 777.10463,345.53485 800.802192,295.64031 C808.580273,285.14097 811.875238,254.622176 826.51492,255.364244 C841.166603,252.791594 852.078174,264.208957 855,278.185854" id="Fill-5" fill="#FFC43C"/><path d="M613,358.877927 C628.289996,322.499161 669.036572,262.732641 715.162677,284.738024 C724.59279,295.2812 744.8666,313.208315 737.371094,328.145574 C719.070364,353.966958 686.77011,367.019165 659.048061,380.829764 C639.177661,393.775972 615.095092,380.907352 613,358.877927" id="Fill-7" fill="#3E5CFF"/><path d="M516.124844,673 C513.425481,671.328944 509.758297,669.776705 508.562237,666.310327 C503.422474,658.400881 503.22057,657.955048 512.116399,654.082079 C551.606111,636.948579 591.330645,620.323046 631.620289,605.120035 C666.228103,590.994 703.24669,584.56376 738.371334,572.066268 C749.336674,567.170827 753.599694,580.312542 757.953789,587.550513 C767.478372,603.523103 709.109576,609.007175 698.71154,613.646453 C636.607528,629.873026 578.131197,656.360296 516.124844,673" id="Fill-9" fill="#39C4FF"/><path d="M629.522107,149.191498 C618.374737,137.750276 637.709547,116.066208 632.631584,93.7677004 C625.512022,51.6175508 671.539372,61.8102828 673.166669,95.2983533 C675.145124,101.097403 672.962841,107.331137 673.090233,113.384025 C671.215906,119.886848 677.774942,144.938353 665.536431,140.164459 C652.179083,129.768003 652.614432,191.057305 629.522107,149.191498" id="Fill-11" fill="#FF3C54"/><path d="M10.3925286,115.974641 C27.4082071,116.137609 39.9266714,125.479328 54.8786357,131.457766 C60.4232071,132.433391 63.0416,142.640266 59.45335,147.096203 C47.7253857,153.999953 32.7125286,142.155734 20.1962786,140.921984 C12.8116357,139.181828 7.16631429,135.828391 4.01206429,128.769328 C-3.28068571,120.643859 -0.326828571,115.818234 10.3925286,115.974641" id="Fill-13" fill="#39C4FF"/><path d="M48,34.8635522 C42.5734188,48.47393 28.0122597,54.071315 15.6689886,59.8605211 C7.80607412,63.9266828 6.44636389,56.2203807 4,50.7289435 C7.64112566,37.5178212 16.6352744,26.9107822 28.2819727,19.8769693 C38.8765673,12.7160191 43.5006966,27.8609659 48,34.8635522" id="Fill-16" fill="#39C4FF"/><path d="M488.012729,30.0241831 C499.756093,29.2833231 515.092271,45.7550391 499.156188,53.2975558 C484.729793,64.0875449 471.864915,64.6134907 462.355757,47.9624996 C455.411634,35.2804014 476.848318,30.0954612 488.012729,30.0241831" id="Fill-18" fill="#39C4FF"/><path d="M272,285.515948 C262.051446,291.880675 239.963007,276.382491 235.547508,265.382374 C233.695494,259.825937 225.525618,254.430264 227.233148,248.32678 C232.156528,244.6437 235.818962,249.471113 239.360993,252.592632 C250.215852,263.46436 265.789405,270.849498 272,285.515948" id="Fill-20" fill="#39C4FF"/><path d="M233.053645,47.4537686 C224.295415,47.4346491 216.789479,49.0438667 212.926474,39.8994744 C211.074287,34.1933906 193.639377,19.6668823 209.82758,21.0987142 C220.040301,29.5803001 235.372789,30.3949997 243.504313,41.0222091 C249.059757,48.5297669 237.687464,48.6136799 233.053645,47.4537686" id="Fill-22" fill="#39C4FF"/><path d="M608.158,205.000962 C608.386,205.334232 608.613,205.667503 608.842,206 C608.599,205.730136 608.434,204.969258 608.158,205.000962" id="Fill-24" fill="#FFC43C"/></g><g id="Ink" transform="translate(174.000000, 0.000000)" fill="#000"><path d="M644.055655,128.186839 C658.684408,123.685398 663.341703,121.208072 645.812421,114.98137 C639.846872,114.027879 641.238468,124.245889 644.055655,128.186839 M657.809315,183.594418 C655.02393,179.92386 648.568197,183.137925 644.342966,182.626696 C640.091416,182.962771 638.521073,184.899311 638.232665,189.932781 C640.229589,197.265139 655.182938,187.360216 657.809315,183.594418 M651.809771,174.972494 C662.277993,177.89646 675.049092,167.60401 663.393243,166.109733 C657.027433,167.223052 650.236138,167.914908 644.117065,169.873341 C637.869688,175.528606 647.493521,175.990573 651.809771,174.972494 M641.793352,155.950838 C641.078363,167.34347 661.180288,155.380495 668.627354,157.815126 C673.540159,157.728644 673.915199,146.697266 667.558161,148.449895 C659.912609,149.340987 652.520373,152.475138 644.57106,150.935978 C642.636644,150.920652 641.485205,154.505822 641.793352,155.950838 M641.988548,140.208929 C642.394293,151.788756 660.634177,139.871758 667.884951,140.439912 C674.941624,139.167861 670.838116,130.316047 665.523953,130.449602 C658.413546,133.107554 642.01377,129.996393 641.988548,140.208929 M652.569721,345.686819 C624.746578,361.608261 619.186774,399.26514 617.32254,428.832124 C617.496901,439.716811 660.529999,416.745447 663.169535,410.62931 C666.041552,405.260859 668.030799,398.978327 676.317867,403.336361 C692.703387,397.192857 706.851826,383.403908 720.299532,371.986098 C728.015267,360.629591 713.8438,358.601096 732.820604,348.16524 C715.691584,327.463206 685.196007,321.722554 662.451257,336.957613 C661.175902,337.894684 660.169215,341.017887 662.568594,341.499559 C672.512637,340.936879 672.423812,348.630491 674.361518,355.609258 C671.088143,371.747451 647.870755,359.584145 652.569721,345.686819 M781.987032,213.206285 C781.603219,169.507708 778.175222,121.289081 744.940318,89.9158282 C712.693458,63.3352097 679.994795,29.3707821 634.534902,41.259317 C623.149916,43.4213664 636.504411,58.6969296 636.311408,65.7129167 C640.435751,78.1542795 637.413499,94.2464952 644.471269,104.998723 C700.382934,114.442773 693.648663,196.390467 641.226406,204.797828 C623.208036,208.656676 622.755137,274.384072 607.831396,292.054858 C578.886423,337.812581 550.347195,388.711055 500.583116,414.568071 C489.894476,420.984158 479.18171,427.216334 467.426071,429.752774 C465.489461,435.017227 459.432894,432.049472 455.471945,434.231226 C451.962799,435.969623 453.218415,440.895812 453.185517,444.097835 C454.576016,457.474078 456.067403,458.989155 469.339652,458.299489 C514.171188,455.002226 559.756094,451.36232 602.575353,436.941725 C616.913505,435.726598 600.0707,419.484407 605.687527,398.010604 C609.88644,349.828102 656.390304,304.000318 706.810155,317.205787 C721.08251,314.820417 744.838333,345.745934 750.33234,333.944975 C770.174369,297.58861 783.892937,254.249098 781.987032,213.206285 M796.842783,205.6725 C797.642211,306.433855 737.131371,400.868888 641.615701,436.419549 C610.050931,451.030624 575.94203,461.154489 541.046861,465.909902 C504.170121,471.371403 466.602518,481.448196 429.380346,472.328179 C420.118393,470.213202 419.927584,458.093683 418.269512,450.564278 C414.040991,419.660655 460.711539,425.104641 478.162961,409.29486 C528.738531,384.610277 542.197203,357.369549 573.313461,314.473394 C607.33244,268.544897 618.788705,205.511578 622.778166,149.559929 C622.006154,121.869276 623.252997,94.1545397 619.912729,66.6149566 C615.120551,49.1674916 601.804438,14.4827457 624.287099,5.27734144 C689.677845,-8.28828699 653.434944,5.97904962 698.545019,28.9723081 C769.792749,75.9725253 799.448324,118.371682 796.842783,205.6725" id="Fill-1"/><path d="M472.877715,297.717155 C494.679683,299.638257 515.248736,295.989805 535.680677,289.674798 C538.793677,289.172356 542.568107,287.076111 544.670863,290.757402 C540.077049,316.941311 488.227722,312.362411 466.678041,314 C420.916504,311.504209 375.882212,300.522731 331.338233,290.192565 C307.226195,283.539313 288.595363,265.178832 267.68298,252.234655 C249.021434,243.010081 263.024449,219.346045 263.317321,203.550317 C265.782054,190.210973 269.744054,187.089046 283.115255,190.365318 C308.377939,196.554441 333.234772,193.920725 358.169484,189.010148 C407.361024,185.282881 450.246491,161.109835 495.770001,145.149911 C521.270713,131.952871 549.668335,119.414807 567.549986,95.9729835 C574.351857,86.8753887 581.214059,77.0673693 590.326,70.0988591 C595.007566,69.0742714 592.29274,76.3011178 591.454709,78.5068275 C577.961753,108.24067 556.019382,133.843323 527.363988,149.70254 C505.116678,162.564619 517.838515,196.605889 488.34509,206.863808 C456.936479,217.978833 423.686174,193.742298 392.217234,202.604544 C355.77934,207.869787 319.861377,214.25704 282.360588,209.072802 C280.001158,208.89328 278.485243,210.242977 277.841363,212.451971 C266.226298,236.837378 295.436723,240.806561 309.413412,254.319954 C340.498438,275.665531 379.786076,280.916544 415.883931,289.386907 C434.65736,294.528454 453.571192,299.231049 472.877715,297.717155" id="Fill-3"/><path d="M777.948173,880.388688 C776.825059,879.044634 776.073394,878.512933 774.712508,879.969904 C775.786315,881.465246 776.407589,881.856623 777.948173,880.388688 M721.925048,731.500202 C722.242807,733.795837 724.604086,739.601798 727.393792,735.333934 C728.953004,731.155966 722.763275,723.702278 721.925048,731.500202 M698.907235,753.967606 C701.523817,753.629948 703.410649,751.889037 701.911702,749.254648 C694.906757,738.551551 687.886472,727.850646 680.601023,717.335015 C663.721439,705.501642 659.233365,753.609119 698.907235,753.967606 M692.926789,696.079014 C723.40208,692.753961 750.459817,728.917338 730.357718,753.051106 C717.657215,762.764251 736.785218,778.28884 740.969777,788.920678 C754.370446,811.64571 768.954494,835.510887 778.134445,859.937364 C776.048192,867.422845 781.325185,872.367121 784.109413,878.138001 C785.029818,880.043356 788.175634,879.684869 789.261493,877.795958 C793.956658,871.011008 788.234802,864.53302 784.666039,858.752273 C761.632885,824.716798 809.290179,857.448782 796.910722,879.395448 C793.878862,883.52189 794.808033,891.0874 789.108092,892.529023 C780.706103,894.326942 772.107979,895.4627 764.014983,889.855168 C742.207942,875.219672 761.052153,856.959836 759.229969,840.70731 C746.434138,816.448565 731.503842,793.948272 717.480804,770.424042 C709.042655,757.978938 689.565117,768.392614 677.45959,759.461124 C657.833034,751.505335 649.990958,723.8437 666.181333,709.300293 C675.526738,700.170375 661.960615,687.956588 659.93901,677.843296 C658.35131,673.542543 653.829269,674.415191 650.38213,675.646327 C621.359765,685.307947 591.923218,693.888623 563.138624,704.187188 C554.536118,709.339759 572.261598,721.640153 564.439245,728.149934 C558.000788,729.20347 555.238475,720.407921 552.262497,716.077569 C545.471217,701.411377 528.300172,721.210407 517,717.910569 C519.3558,707.107709 535.241565,707.398227 541.98792,700.543114 C544.780913,697.233409 540.284073,693.854638 539.908241,690.271956 C535.648077,668.63883 545.932516,676.684515 551.639031,690.251126 C557.186667,702.612913 577.038942,685.418672 586.993569,684.533965 C606.928023,677.638289 627.060802,671.310493 647.001831,664.436743 C655.217547,659.448616 640.747455,649.199384 638.678733,643.104001 C632.873603,632.870117 616.166047,609.956522 624.738969,600 C633.382017,601.185091 658.119017,665.780797 670.282617,656.587294 C708.627377,643.738754 747.214291,630.911044 786.010489,619.689401 C815.083257,631.900995 673.510611,657.590401 671.428741,671.731469 C676.435091,681.728554 677.547248,700.411559 692.926789,696.079014" id="Fill-5"/><path d="M865.95981,288.569934 C859.125843,380.774508 837.03641,495.876594 749.383029,544.480861 C734.221914,552.172257 682.149262,577.43897 669.00685,566.133968 C668.494495,534.646321 696.889082,508.961514 698.199045,476.514774 C703.060388,463.905011 703.495945,425.017866 720.27641,425.75639 C724.443275,426.652933 725.142141,430.903008 724.366477,434.792052 C717.682816,464.523922 716.308123,496.121305 702.326414,523.656261 C698.72676,529.693935 706.548135,533.208779 708.571226,538.310406 C712.320088,545.194145 712.351905,545.52445 719.417364,541.994243 C733.746861,533.953887 749.925006,528.279438 762.440962,517.474832 C825.016353,458.13619 844.062373,366.436402 850.427868,283.5133 C847.349347,270.350467 837.723208,258.902808 836.366069,244.584455 C833.977637,233.293719 845.88469,228.786861 851.733442,237.774239 C856.379749,254.662609 866.724503,270.786119 865.95981,288.569934" id="Fill-7"/><path d="M136.905778,222.601771 C155.304491,221.64225 172.415789,228.944104 184.723743,242.609271 C189.97455,248.952708 186.014456,261.894646 176.335205,255.213333 C128.305053,222.542146 62.4852632,251.191958 14.028538,271.27675 C-9.96949708,281.625 1.26212865,262.951333 14.8816842,256.997667 C51.5559766,232.669563 93.721848,225.340104 136.905778,222.601771" id="Fill-9"/><path d="M120.269877,157.921448 C122.388851,134.968962 130.857003,116.281134 147.173983,101.303646 C153.002265,93.6695164 175.387516,86.6496017 171.563189,102.704144 C151.912918,131.714928 146.082424,159.450452 148.314203,193.659195 C138.810894,205.841132 117.35463,166.951719 120.269877,157.921448" id="Fill-12"/><path d="M602.623389,492.571738 C616.630751,492.119615 631.228738,493.029348 642.405699,502.579902 C651.12592,509.40345 642.388166,521.487869 633.099235,516.955663 C623.334736,512.957885 612.879894,513.433053 602.737351,511.896712 C555.54647,513.593271 527.324644,567.044766 519,557.961699 C527.036454,520.77786 565.504922,494.765414 602.61024,492 C602.614623,492.190945 602.619006,492.380793 602.623389,492.571738" id="Fill-14"/><path d="M631.173774,857.956781 C593.807894,856.702138 554.626618,827.480194 551.196931,788.98087 C550.690894,784.423389 550.676686,773.074924 557.32184,774.060325 C573.732531,780.973395 575.965434,803.05772 586.772555,816.198221 C588.194487,829.092371 668.34183,859.297537 631.173774,857.956781" id="Fill-16"/><path d="M364.736996,149.992146 C357.395248,147.725605 347.746469,150.465591 338.591742,147.089345 C335.325091,145.884308 330.381297,145.3241 327.762061,146.917962 C322.225626,150.288852 317.232536,148.671425 312.530838,146.832271 C300.464388,146.754077 270.968133,120.801329 298.184743,123.150348 C338.184232,139.128603 381.334253,134.143499 421.373178,125.611837 C444.25945,142.993291 375.353062,150.273856 364.736996,149.992146" id="Fill-18"/><path d="M602,746.980806 C611.738111,720.518394 625.855633,767.664538 631.871573,775.703627 C641.472758,795.169116 664.467406,799.77247 680.548982,811.956009 C682.622575,815.906772 677.023983,816.345868 674.349014,815.819833 C635.83035,814.259337 605.14599,785.901879 602,746.980806" id="Fill-20"/><path d="M192,193.670758 C196.434877,159.579825 208.238133,130.448827 235.773935,109.493126 C240.57701,103.202583 256.327142,102.687862 252.368177,113.329438 C243.586352,123.714748 232.075457,131.506742 224.787311,143.296035 C215.177863,158.065232 209.781272,174.415825 205.637657,191.300853 C204.708916,207.686491 193.396959,212.922405 192,193.670758" id="Fill-22"/><path d="M455.095261,567.13206 C455.230296,556.743278 465.18421,505.409057 479.529004,527.437791 C479.366296,545.72617 468.135076,569.604796 483.498172,584.22848 C487.667681,588.715592 493.343615,594.07008 494,600.494808 C494.006619,601.364377 492.524545,603.10571 492.121651,602.994958 C473.018504,599.124111 453.465975,589.331857 455.095261,567.13206" id="Fill-24"/><path d="M432.372373,371.910829 C400.825426,365.841722 421.229824,353.601093 440.508635,353.589359 C458.229275,353.534951 471.723244,341.548225 487.943466,338 C501.035361,351.645623 447.944265,373.571859 432.372373,371.910829" id="Fill-26"/><path d="M111.079664,284.030913 C50.7658391,290.481576 98.5360646,262.471516 126.808239,266.374922 C134.618488,264.647435 156.312275,278.615005 144.602416,284.279558 C133.441767,281.937514 122.257958,283.107993 111.079664,284.030913" id="Fill-28"/><path d="M389.213799,332.189443 C398.419155,333.783908 400.079703,340.30873 390.849862,344.509809 C375.03014,349.13851 365.802525,382.022287 356.729613,377.59027 C336.678387,373.150518 374.547112,328.753 389.213799,332.189443" id="Fill-30"/><path d="M68.0388288,117.377079 C70.2157786,107.438128 70.7006299,94.4510697 81.8966814,90.5173579 C85.558556,89.0683841 91.2444408,90.6302507 89.7573465,95.6172634 C86.6649281,107.748309 87.8895301,120.072258 87.7094735,132.378671 C80.0711675,148.227507 67.2025417,126.465499 68.0388288,117.377079" id="Fill-32"/><path d="M376.146413,103.777667 C366.302758,105.718392 331.21783,94.5220707 353.008579,87 C371.247221,88.7671551 436.014385,96.1829144 376.146413,103.777667" id="Fill-34"/><path d="M624,549.334828 C616.090556,551.120424 563.314821,573.545246 580.374231,551.046955 C591.264497,543.769349 615.850707,535.814559 624,549.334828" id="Fill-36"/><path d="M336,336.79667 C328.375534,342.564362 323.494865,353.043378 314.493012,357 C299.226519,352.466503 327.03217,328.297024 336,336.79667" id="Fill-38"/><path d="M674.259298,383.936241 C664.056365,385.088096 661.375989,370.266854 670.843734,369.073113 C679.349825,367.81759 684.655875,383.137272 674.259298,383.936241" id="Fill-40"/><path d="M709,363.275317 C708.309868,372.636661 693.738971,376.943946 691.003401,368.39383 C690.745145,359.794818 705.268296,357.296681 709,363.275317" id="Fill-42"/><path d="M697,340.7908 C699.242612,321.275675 716.577606,343.795834 709.17124,350.205181 C702.246131,353.154118 697.254719,347.424534 697,340.7908" id="Fill-44"/><path d="M655,401.146879 C653.444366,408.730628 638.519277,411.174185 638,402.487658 C639.670907,394.622831 651.922764,393.590054 655,401.146879" id="Fill-46"/><path d="M651,377.198277 C650.33241,380.177684 650.541358,387.895335 645.039748,386.914465 C631.603325,384.57951 649.070362,359.695052 651,377.198277" id="Fill-48"/></g></g></g></g></svg>