<svg width="20" height="20" viewBox="0 0 20 20" fill="none" xmlns="http://www.w3.org/2000/svg">
<path d="M6.35918 10.3989C6.34144 8.72822 7.04977 7.47873 8.50921 6.72083C10.8829 5.48813 13.7564 6.96548 14.1701 9.59591C14.4976 11.6774 13.174 13.6182 11.1178 14.0717C8.94465 14.5511 6.75293 13.0664 6.40642 10.8782C6.38236 10.7263 6.37465 10.5718 6.35918 10.3989ZM7.38351 11.952C8.18812 13.1923 9.32697 13.7532 10.7944 13.5672C12.6414 13.3332 13.9376 11.5198 13.6222 9.65609C13.2931 7.71094 11.3731 6.45632 9.46996 6.9355C7.30235 7.48126 6.21889 9.95191 7.38351 11.952Z" fill="#C25939"/>
<path d="M9.57073 12.1478C9.50991 12.3136 9.45694 12.4657 9.39669 12.6149C9.3112 12.8266 9.1575 12.8862 8.96702 12.7629C8.74196 12.6172 8.52346 12.4596 8.31374 12.2926C8.12619 12.1432 8.12865 11.9741 8.31408 11.8234C8.78799 11.4382 9.26711 11.0595 9.7431 10.6769C9.82003 10.6151 9.90722 10.5536 9.99701 10.614C10.1052 10.6867 10.0737 10.811 10.0378 10.9096C9.88867 11.3191 9.73031 11.7253 9.57073 12.1478Z" fill="#C25939"/>
<path d="M8.06701 8.78732C8.61003 9.13521 9.14044 9.47626 9.66813 9.82145C9.75511 9.87835 9.87634 9.94007 9.83178 10.0683C9.7832 10.208 9.64969 10.194 9.52392 10.1887C8.96753 10.1655 8.41089 10.1482 7.8543 10.1298C7.481 10.1175 7.38688 9.98816 7.49659 9.62977C7.55942 9.42455 7.62315 9.21948 7.69281 9.01651C7.7507 8.8478 7.85199 8.73501 8.06701 8.78732Z" fill="#C25939"/>
<path d="M11.3964 11.1425C11.6801 11.3796 11.9532 11.6072 12.2253 11.8358C12.4325 12.0098 12.4371 12.1641 12.2236 12.3282C12.0218 12.4832 11.8121 12.6294 11.5972 12.7658C11.3743 12.9072 11.2222 12.8471 11.133 12.5962C10.9354 12.0406 10.7394 11.4844 10.5439 10.928C10.5062 10.8207 10.4494 10.6967 10.5703 10.6173C10.6782 10.5464 10.7708 10.6307 10.8555 10.701C11.031 10.8465 11.2085 10.9894 11.3964 11.1425Z" fill="#C25939"/>
<path d="M11.4926 9.43499C11.8125 9.22355 12.1194 9.01853 12.4291 8.81802C12.6086 8.70182 12.7733 8.74012 12.8499 8.93927C12.953 9.20769 13.0409 9.48376 13.1099 9.76285C13.1589 9.96127 13.0459 10.0824 12.84 10.0936C12.2241 10.1272 11.6082 10.1597 10.9922 10.1906C10.8878 10.1958 10.7811 10.1815 10.7447 10.064C10.7104 9.9531 10.7949 9.88937 10.8731 9.8371C11.0736 9.7029 11.2779 9.5742 11.4926 9.43499Z" fill="#C25939"/>
<path d="M10.7965 8.33009C10.6816 8.74608 10.5706 9.14613 10.4639 9.54733C10.4379 9.64489 10.4038 9.73316 10.289 9.73522C10.1727 9.73731 10.1329 9.64328 10.1071 9.55108C9.93791 8.94496 9.7722 8.33784 9.60294 7.73172C9.55541 7.56153 9.62083 7.44234 9.78157 7.40934C10.1049 7.34296 10.4356 7.34974 10.7592 7.40318C10.9434 7.43358 10.9997 7.56554 10.952 7.75197C10.9038 7.93996 10.8522 8.12707 10.7965 8.33009Z" fill="#C25939"/>
<path d="M10.8288 8.77655C10.9484 8.45363 11.0608 8.14484 11.1775 7.83767C11.264 7.61004 11.4166 7.54928 11.6178 7.6818C11.8471 7.83291 12.0693 7.99694 12.282 8.17072C12.4464 8.30502 12.438 8.4783 12.2723 8.61343C11.799 8.99919 11.3222 9.3807 10.8461 9.7631C10.7657 9.82774 10.6732 9.89294 10.5738 9.82218C10.4738 9.75103 10.5073 9.64061 10.5418 9.5452C10.633 9.29296 10.7293 9.04252 10.8288 8.77655Z" fill="#C25939"/>
<path d="M9.66812 12.2555C9.80324 11.8107 9.93413 11.3815 10.067 10.953C10.0847 10.896 10.1037 10.8361 10.1372 10.788C10.2215 10.6666 10.3318 10.6718 10.4072 10.799C10.4734 10.9106 10.4835 11.0405 10.5133 11.1639C10.6327 11.658 10.7533 12.1518 10.8721 12.6461C10.9444 12.9467 10.8444 13.0774 10.5317 13.0732C10.2841 13.0699 10.0363 13.0543 9.7893 13.0353C9.58022 13.0192 9.48401 12.8747 9.54102 12.6745C9.5795 12.5393 9.62317 12.4056 9.66812 12.2555Z" fill="#C25939"/>
<path d="M9.1929 7.6928C9.28126 7.74446 9.309 7.82183 9.33908 7.89601C9.56343 8.44929 9.78676 9.00297 10.0099 9.55673C10.0478 9.65077 10.0971 9.755 9.9971 9.83318C9.89117 9.91605 9.79361 9.84692 9.70633 9.78083C9.2248 9.41617 8.74298 9.05187 8.26379 8.68415C8.07926 8.54254 8.07166 8.36166 8.25176 8.21103C8.45238 8.04325 8.66286 7.88683 8.87416 7.73246C8.96301 7.66755 9.06763 7.63897 9.1929 7.6928Z" fill="#C25939"/>
<path d="M9.51018 10.722C9.05507 11.0194 8.61283 11.3099 8.16824 11.5967C7.9419 11.7427 7.78166 11.6854 7.6931 11.4249C7.61558 11.1968 7.54417 10.9664 7.4776 10.7349C7.40575 10.4851 7.48301 10.3505 7.74092 10.3348C8.37587 10.2962 9.01148 10.2611 9.64823 10.2672C9.72523 10.2679 9.7989 10.284 9.83056 10.3647C9.86334 10.4482 9.81135 10.5091 9.75411 10.5555C9.68163 10.6142 9.59985 10.6614 9.51018 10.722Z" fill="#C25939"/>
<path d="M12.6753 11.684C12.5677 11.7238 12.4913 11.6843 12.417 11.6346C11.9047 11.2917 11.3921 10.9492 10.8801 10.6061C10.801 10.5531 10.7105 10.4935 10.741 10.3853C10.7747 10.2654 10.8885 10.2634 10.9913 10.268C11.62 10.2957 12.2486 10.3239 12.8772 10.3548C13.0295 10.3623 13.129 10.4601 13.1111 10.6019C13.0658 10.9609 12.9531 11.3029 12.7688 11.6174C12.7533 11.6438 12.7165 11.6576 12.6753 11.684Z" fill="#C25939"/>
</svg>
