<svg viewBox="300 183.17757009345792 2512.4999999999995 1271.0280373831777" fill="none" xmlns="http://www.w3.org/2000/svg" xmlns:xlink="http://www.w3.org/1999/xlink" overflow="visible" width="2512.4999999999995px" height="1271.0280373831777px"><g id="Master/Duo/Presentation"><path id="Shadows" fill-rule="evenodd" clip-rule="evenodd" d="M508 1401C508 1400.39 508.611 1398.32 513.733 1395.19C518.513 1392.27 525.887 1389.28 535.851 1386.33C555.705 1380.47 584.681 1375.12 620.777 1370.61C692.9 1361.59 792.683 1356 903 1356C1013.32 1356 1113.1 1361.59 1185.22 1370.61C1221.32 1375.12 1250.29 1380.47 1270.15 1386.33C1280.11 1389.28 1287.49 1392.27 1292.27 1395.19C1297.39 1398.32 1298 1400.39 1298 1401C1298 1401.61 1297.39 1403.68 1292.27 1406.81C1287.49 1409.73 1280.11 1412.72 1270.15 1415.67C1250.29 1421.53 1221.32 1426.88 1185.22 1431.39C1113.1 1440.41 1013.32 1446 903 1446C792.683 1446 692.9 1440.41 620.777 1431.39C584.681 1426.88 555.705 1421.53 535.851 1415.67C525.887 1412.72 518.513 1409.73 513.733 1406.81C508.611 1403.68 508 1401.61 508 1401ZM903 1346C792.403 1346 692.186 1351.6 619.537 1360.68C583.248 1365.22 553.645 1370.65 533.017 1376.74C522.74 1379.78 514.397 1383.07 508.52 1386.66C502.985 1390.04 498 1394.7 498 1401C498 1407.3 502.985 1411.96 508.52 1415.34C514.397 1418.93 522.74 1422.22 533.017 1425.26C553.645 1431.35 583.248 1436.78 619.537 1441.32C692.186 1450.4 792.403 1456 903 1456C1013.6 1456 1113.81 1450.4 1186.46 1441.32C1222.75 1436.78 1252.36 1431.35 1272.98 1425.26C1283.26 1422.22 1291.6 1418.93 1297.48 1415.34C1303.01 1411.96 1308 1407.3 1308 1401C1308 1394.7 1303.01 1390.04 1297.48 1386.66C1291.6 1383.07 1283.26 1379.78 1272.98 1376.74C1252.36 1370.65 1222.75 1365.22 1186.46 1360.68C1113.81 1351.6 1013.6 1346 903 1346ZM1899.95 1404.59C1896.4 1402.43 1896.04 1401.14 1896 1401C1896.04 1400.86 1896.4 1399.57 1899.95 1397.41C1903.55 1395.2 1909.2 1392.9 1916.94 1390.61C1932.34 1386.06 1954.87 1381.9 1983 1378.38C2039.2 1371.36 2116.98 1367 2203 1367C2289.02 1367 2366.8 1371.36 2423 1378.38C2451.13 1381.9 2473.66 1386.06 2489.06 1390.61C2496.8 1392.9 2502.45 1395.2 2506.05 1397.41C2509.6 1399.57 2509.96 1400.86 2510 1401C2509.96 1401.14 2509.6 1402.43 2506.05 1404.59C2502.45 1406.8 2496.8 1409.1 2489.06 1411.39C2473.66 1415.94 2451.13 1420.1 2423 1423.62C2366.8 1430.64 2289.02 1435 2203 1435C2116.98 1435 2039.2 1430.64 1983 1423.62C1954.87 1420.1 1932.34 1415.94 1916.94 1411.39C1909.2 1409.1 1903.55 1406.8 1899.95 1404.59ZM2203 1357C2116.7 1357 2038.49 1361.37 1981.76 1368.46C1953.44 1372 1930.28 1376.24 1914.1 1381.02C1906.05 1383.4 1899.44 1386 1894.73 1388.87C1890.37 1391.54 1886 1395.46 1886 1401C1886 1406.54 1890.37 1410.46 1894.73 1413.13C1899.44 1416 1906.05 1418.6 1914.1 1420.98C1930.28 1425.76 1953.44 1430 1981.76 1433.54C2038.49 1440.63 2116.7 1445 2203 1445C2289.3 1445 2367.51 1440.63 2424.24 1433.54C2452.56 1430 2475.72 1425.76 2491.9 1420.98C2499.95 1418.6 2506.56 1416 2511.27 1413.13C2515.63 1410.46 2520 1406.54 2520 1401C2520 1395.46 2515.63 1391.54 2511.27 1388.87C2506.56 1386 2499.95 1383.4 2491.9 1381.02C2475.72 1376.24 2452.56 1372 2424.24 1368.46C2367.51 1361.37 2289.3 1357 2203 1357Z" fill="#0089C5" fill-opacity="0.25"/><g id="Background"><path id="Shape" fill-rule="evenodd" clip-rule="evenodd" d="M1950 284C1952.69 284 1954.88 286.122 1955 288.783L1955 289V884H1980C1982.69 884 1984.88 886.122 1985 888.783L1985 889V929C1985 931.689 1982.88 933.882 1980.22 933.995L1980 934H1764.14L1841.7 1147.29C1842.83 1150.4 1840.68 1153.72 1837.41 1153.98L1837.21 1154L1813.21 1155C1811.45 1155.07 1809.79 1154.21 1808.83 1152.75L1808.7 1152.55L1698.15 966H1408.94L1305.37 1152.43C1304.57 1153.88 1303.1 1154.82 1301.47 1154.98L1301.24 1154.99L1301 1155H1277C1273.6 1155 1271.21 1151.69 1272.23 1148.49L1272.3 1148.3L1349.87 934H1120C1117.31 934 1115.12 931.878 1115 929.217L1115 929V889C1115 886.311 1117.12 884.118 1119.78 884.005L1120 884H1145V289C1145 286.311 1147.12 284.118 1149.78 284.005L1150 284H1950ZM1753.5 934H1360.51L1284.13 1145H1298.06L1401.63 958.572C1402.43 957.122 1403.9 956.176 1405.53 956.022L1405.76 956.006L1406 956H1701C1702.69 956 1704.26 956.852 1705.18 958.256L1705.3 958.451L1815.78 1144.88L1829.97 1144.29L1753.5 934ZM1975 894H1125V924H1975V894ZM1945 294H1155V884H1945V294ZM1259.78 1050C1262.54 1050 1264.78 1052.24 1264.78 1055C1264.78 1057.69 1262.66 1059.89 1260 1060L1259.78 1060L1111 1060C1108.24 1060 1106 1057.76 1106 1055C1106 1052.31 1108.12 1050.12 1110.78 1050L1111 1050L1259.78 1050ZM1988.57 1050C1991.33 1050 1993.57 1052.24 1993.57 1055C1993.57 1057.69 1991.44 1059.89 1988.78 1060L1988.57 1060L1839.78 1060C1837.02 1060 1834.78 1057.76 1834.78 1055C1834.78 1052.31 1836.91 1050.12 1839.57 1050L1839.78 1050L1988.57 1050ZM1709.78 1050C1712.54 1050 1714.78 1052.24 1714.78 1055C1714.78 1057.69 1712.66 1059.88 1710 1060L1709.78 1060H1389.78C1387.02 1060 1384.78 1057.76 1384.78 1055C1384.78 1052.31 1386.91 1050.12 1389.57 1050L1389.78 1050H1709.78ZM1553.02 352.979C1554.97 350.402 1558.8 350.342 1560.84 352.8L1560.98 352.979L1610.18 417.879L1686.66 389.88C1689.64 388.789 1692.82 390.712 1693.31 393.778L1693.34 393.984L1693.36 394.189L1699.66 475.383L1779.13 493.175C1782.23 493.868 1783.87 497.206 1782.63 500.048L1782.54 500.237L1782.44 500.424L1743.85 572.135L1801.08 630.068C1803.31 632.32 1802.89 636.006 1800.32 637.729L1800.14 637.846L1799.95 637.956L1728.71 677.416L1745.54 757.098C1746.2 760.203 1743.84 763.086 1740.73 763.131L1740.53 763.13L1740.32 763.12L1659.06 757.801L1630.14 833.932C1629.01 836.894 1625.48 838.045 1622.84 836.417L1622.66 836.302L1622.49 836.178L1557 787.767L1491.51 836.178C1488.96 838.061 1485.37 837.12 1484.03 834.325L1483.95 834.131L1483.86 833.932L1454.94 757.801L1373.68 763.12C1370.51 763.328 1367.99 760.583 1368.39 757.501L1368.42 757.3L1368.46 757.098L1385.29 677.416L1314.05 637.956C1311.28 636.423 1310.64 632.769 1312.62 630.391L1312.77 630.228L1312.92 630.068L1370.15 572.135L1331.56 500.424C1330.05 497.632 1331.5 494.204 1334.46 493.283L1334.66 493.225L1334.87 493.175L1414.34 475.383L1420.64 394.189C1420.88 391.024 1423.96 388.922 1426.95 389.755L1427.15 389.813L1427.34 389.88L1503.82 417.879L1553.02 352.979ZM1557 364.276L1509.55 426.865C1508.27 428.553 1506.08 429.245 1504.07 428.615L1503.85 428.54L1430.1 401.538L1424.02 479.842C1423.86 481.881 1422.48 483.601 1420.57 484.216L1420.35 484.28L1420.13 484.334L1343.49 501.492L1380.71 570.651C1381.68 572.447 1381.45 574.633 1380.18 576.188L1380.03 576.364L1379.87 576.535L1324.67 632.404L1393.37 670.46C1395.16 671.451 1396.15 673.421 1395.91 675.422L1395.88 675.645L1395.84 675.867L1379.61 752.71L1457.98 747.581C1460.02 747.448 1461.92 748.569 1462.8 750.381L1462.9 750.585L1462.98 750.795L1490.87 824.215L1554.03 777.529C1555.66 776.32 1557.85 776.231 1559.57 777.26L1559.77 777.389L1559.97 777.529L1623.13 824.215L1651.02 750.795C1651.75 748.883 1653.55 747.621 1655.57 747.572L1655.79 747.572L1656.02 747.581L1734.39 752.71L1718.16 675.867C1717.74 673.866 1718.58 671.827 1720.25 670.696L1720.44 670.574L1720.63 670.46L1789.33 632.404L1734.13 576.535C1732.7 575.084 1732.3 572.922 1733.09 571.072L1733.18 570.86L1733.29 570.651L1770.51 501.492L1693.87 484.334C1691.87 483.888 1690.37 482.277 1690.03 480.29L1690 480.067L1689.98 479.842L1683.9 401.538L1610.15 428.54C1608.23 429.241 1606.1 428.705 1604.74 427.224L1604.59 427.049L1604.45 426.865L1557 364.276Z" fill="#0089C5" fill-opacity="0.25"/></g><g id="Object" transform="translate(1480 508) scale(1 1)"><g id="Object/Trophy"><rect id="Rectangle" x="39" y="124" width="62" height="12" fill="#FFCE00"/><rect id="Rectangle Copy 2" x="60" y="118" width="20" height="6" fill="#FFCE00"/><rect id="Rectangle Copy 3" x="65" y="98" width="10" height="20" fill="#FFCE00"/><path id="Rectangle (Stroke)" fill-rule="evenodd" clip-rule="evenodd" d="M11.3519 62.6896C8.48829 43.3601 23.466 26 43.0064 26H98.4171C117.957 26 132.935 43.3601 130.072 62.6896C127.747 78.3802 114.279 90 98.417 90H43.0064C27.1445 90 13.6764 78.3802 11.3519 62.6896ZM43.0064 36C29.5724 36 19.2752 47.9351 21.2439 61.2241C22.8421 72.0114 32.1014 80 43.0064 80H98.417C109.322 80 118.581 72.0114 120.18 61.2241C122.148 47.9351 111.851 36 98.4171 36H43.0064Z" fill="#FFCE00"/><g id="Path 48 + Path 48 Mask"><path id="Mask" fill-rule="evenodd" clip-rule="evenodd" d="M33 9H107L101.359 78.0961C100.026 94.4262 86.3844 107 70 107V107C53.6156 107 39.9736 94.4262 38.6405 78.0961L33 9Z" fill="#FFCE00"/><mask id="mask0_203_66493700c577c-46f3-4d8e-8416-42cd3eff080a" style="mask-type:alpha" maskUnits="userSpaceOnUse" x="33" y="9" width="74" height="98" fill="#ffffff"><path id="Mask_2" fill-rule="evenodd" clip-rule="evenodd" d="M33 9H107L101.359 78.0961C100.026 94.4262 86.3844 107 70 107V107C53.6156 107 39.9736 94.4262 38.6405 78.0961L33 9Z" fill="#ffffff"/></mask><g mask="url(#mask0_203_66493700c577c-46f3-4d8e-8416-42cd3eff080a)"/></g></g></g><g id="Master/Character/Side" transform="translate(300 200) scale(1 1)"><g id="Master/Character/Side"><g id="Bodies" transform="translate(297 340.421) scale(1 1)"><g id="Bodies/Blue A"><g id="Patterns"><path id="Mask" fill-rule="evenodd" clip-rule="evenodd" d="M362.086 371.318C382.619 359.612 401.825 343.91 412.196 322.671C422.566 301.43 422.346 273.901 407.079 255.857C393.928 240.311 372.8 234.442 352.814 230.543C287.28 217.761 219.322 217.53 153.704 229.867C135.359 233.316 116.444 238.106 102.232 250.207C80.6574 268.576 74.8264 301.471 84.5594 328.083C94.2924 354.695 117.352 374.983 143.395 386.149C168.918 397.092 197.103 400.083 224.642 400.132C254.423 400.186 283.106 400.179 312.073 392.105C329.507 387.247 346.361 380.282 362.086 371.318" fill="#7192F0"/><mask id="mask0_203_4091723898522-aa4a-4b7d-abe0-8c4b11905554" style="mask-type:alpha" maskUnits="userSpaceOnUse" x="80" y="220" width="340" height="181" fill="#ffffff"><path id="Mask_2" fill-rule="evenodd" clip-rule="evenodd" d="M362.086 371.318C382.619 359.612 401.825 343.91 412.196 322.671C422.566 301.43 422.346 273.901 407.079 255.857C393.928 240.311 372.8 234.442 352.814 230.543C287.28 217.761 219.322 217.53 153.704 229.867C135.359 233.316 116.444 238.106 102.232 250.207C80.6574 268.576 74.8264 301.471 84.5594 328.083C94.2924 354.695 117.352 374.983 143.395 386.149C168.918 397.092 197.103 400.083 224.642 400.132C254.423 400.186 283.106 400.179 312.073 392.105C329.507 387.247 346.361 380.282 362.086 371.318" fill="#ffffff"/></mask><g mask="url(#mask0_203_4091723898522-aa4a-4b7d-abe0-8c4b11905554)"><g id="Patterns_2"><g id="Group"><path id="Path 51" d="M527.949 211.503L528.051 212.497L28.0507 263.497L27.9492 262.503L527.949 211.503Z" fill="white"/><path id="Path 52" d="M28.0596 295.504L528.06 355.504L527.94 356.496L27.9404 296.496L28.0596 295.504Z" fill="white"/><path id="Path 53" d="M28.0477 325.502L528.048 373.502L527.952 374.498L27.9521 326.498L28.0477 325.502Z" fill="white"/><path id="Path 54" d="M28.0138 383.5L528.014 397.5L527.986 398.5L27.9858 384.5L28.0138 383.5Z" fill="white"/><path id="Path 59" d="M28.0199 283.5L528.02 303.5L527.98 304.5L27.98 284.5L28.0199 283.5Z" fill="white"/></g></g></g></g><g id="Patterns_3"><path id="Mask_3" fill-rule="evenodd" clip-rule="evenodd" d="M173 432.67C179.305 415.74 194.413 407.054 218.304 403.364C240.694 399.907 280.799 397.842 303.623 399.213C321.21 400.27 334.314 404.493 344.813 414.666C371.433 440.462 328.228 465.612 298.732 474.4C268.904 483.288 224.217 483.556 196.974 470.244C180.424 462.157 167.512 447.407 173 432.67" fill="#418FE7"/><mask id="mask1_203_4091723898522-aa4a-4b7d-abe0-8c4b11905554" style="mask-type:alpha" maskUnits="userSpaceOnUse" x="171" y="398" width="183" height="83" fill="#ffffff"><path id="Mask_4" fill-rule="evenodd" clip-rule="evenodd" d="M173 432.67C179.305 415.74 194.413 407.054 218.304 403.364C240.694 399.907 280.799 397.842 303.623 399.213C321.21 400.27 334.314 404.493 344.813 414.666C371.433 440.462 328.228 465.612 298.732 474.4C268.904 483.288 224.217 483.556 196.974 470.244C180.424 462.157 167.512 447.407 173 432.67" fill="#ffffff"/></mask><g mask="url(#mask1_203_4091723898522-aa4a-4b7d-abe0-8c4b11905554)"><g id="Patterns_4"><g id="Group_2"><path id="Path 49" d="M358.072 209.012L351.088 500.012L350.088 499.988L357.072 208.988L358.072 209.012Z" fill="white"/><path id="Path 50" d="M325.479 499.976L324.481 500.024L310.513 209.024L311.511 208.976L325.479 499.976Z" fill="white"/><path id="Path 51_2" d="M305.107 499.949L304.113 500.051L274.431 209.051L275.425 208.949L305.107 499.949Z" fill="white"/><path id="Path 52_2" d="M256.218 209.06L221.298 500.06L220.305 499.94L255.225 208.94L256.218 209.06Z" fill="white"/><path id="Path 53_2" d="M238.76 209.048L210.824 500.048L209.828 499.952L237.764 208.952L238.76 209.048Z" fill="white"/><path id="Path 54_2" d="M205.006 209.014L196.858 500.014L195.858 499.986L204.006 208.986L205.006 209.014Z" fill="white"/><path id="Path 55" d="M176.486 499.954L175.49 500.046L148.718 209.046L149.714 208.954L176.486 499.954Z" fill="white"/><path id="Path 59_2" d="M263.206 209.02L251.566 500.02L250.566 499.98L262.206 208.98L263.206 209.02Z" fill="white"/></g></g></g></g><g id="Patterns_5"><path id="Mask_5" fill-rule="evenodd" clip-rule="evenodd" d="M120.01 191.589C90.6146 164.371 80.3056 116.785 100.238 82.034C117.951 51.15 154.034 35.558 188.992 28.808C208.597 25.023 229.563 23.493 247.95 31.276C264.428 38.249 277.253 52.198 285.704 67.969C300.706 95.966 302.661 130.622 290.903 160.128C281.517 183.679 260.725 209.613 236.014 218.325C215.838 225.439 184.192 221.141 164.288 215.692C147.923 211.21 132.495 203.149 120.01 191.589" fill="#418FE7"/><mask id="mask2_203_4091723898522-aa4a-4b7d-abe0-8c4b11905554" style="mask-type:alpha" maskUnits="userSpaceOnUse" x="89" y="25" width="210" height="198" fill="#ffffff"><path id="Mask_6" fill-rule="evenodd" clip-rule="evenodd" d="M120.01 191.589C90.6146 164.371 80.3056 116.785 100.238 82.034C117.951 51.15 154.034 35.558 188.992 28.808C208.597 25.023 229.563 23.493 247.95 31.276C264.428 38.249 277.253 52.198 285.704 67.969C300.706 95.966 302.661 130.622 290.903 160.128C281.517 183.679 260.725 209.613 236.014 218.325C215.838 225.439 184.192 221.141 164.288 215.692C147.923 211.21 132.495 203.149 120.01 191.589" fill="#ffffff"/></mask><g mask="url(#mask2_203_4091723898522-aa4a-4b7d-abe0-8c4b11905554)"><g id="Patterns_6"><g id="Group_3"><path id="Path 48" d="M590.465 263.074L589.772 263.796L229.148 -82.6867L229.841 -83.4078L590.465 263.074Z" fill="white"/><path id="Path 49_2" d="M212.178 -65.7146L557.246 296.324L556.522 297.014L211.454 -65.0247L212.178 -65.7146Z" fill="white"/><path id="Path 50_2" d="M526.108 327.412L525.436 328.152L154.912 -8.43099L155.584 -9.17118L526.108 327.412Z" fill="white"/><path id="Path 51_3" d="M501.339 352.143L500.707 352.918L111.091 35.4271L111.723 34.6519L501.339 352.143Z" fill="white"/><path id="Path 52_3" d="M88.4661 58.0651L399.593 454.045L398.807 454.663L87.6798 58.683L88.4661 58.0651Z" fill="white"/><path id="Path 53_3" d="M67.2453 79.2691L386.858 466.764L386.086 467.4L66.4739 79.9054L67.2453 79.2691Z" fill="white"/><path id="Path 54_3" d="M26.2107 120.256L369.865 483.709L369.138 484.396L25.4841 120.943L26.2107 120.256Z" fill="white"/><path id="Path 55_2" d="M345.072 508.417L344.433 509.186L-41.6475 188.159L-41.0081 187.39L345.072 508.417Z" fill="white"/><path id="Path 56" d="M304.087 549.453L303.394 550.174L-57.2307 203.691L-56.5379 202.97L304.087 549.453Z" fill="white"/><path id="Path 57" d="M281.458 572.079L280.767 572.802L-80.5645 227.027L-79.8731 226.304L281.458 572.079Z" fill="white"/><path id="Path 59_3" d="M96.9252 49.5496L436.336 417.245L435.602 417.923L96.1904 50.2279L96.9252 49.5496Z" fill="white"/></g></g></g></g><g id="Patterns_7"><path id="Mask_7" fill-rule="evenodd" clip-rule="evenodd" d="M300.791 200.575C287.995 180.96 288.228 153.025 303.161 134.985C318.095 116.944 347.343 111.946 366.261 125.752C377.633 134.052 384.324 147.57 387.099 161.372C389.715 174.388 389.123 188.262 383.908 200.472C378.092 214.087 363.802 230.873 347.739 229.49C329.39 227.909 310.723 215.801 300.791 200.575" fill="#64BBF6"/><mask id="mask3_203_4091723898522-aa4a-4b7d-abe0-8c4b11905554" style="mask-type:alpha" maskUnits="userSpaceOnUse" x="291" y="117" width="98" height="113" fill="#ffffff"><path id="Mask_8" fill-rule="evenodd" clip-rule="evenodd" d="M300.791 200.575C287.995 180.96 288.228 153.025 303.161 134.985C318.095 116.944 347.343 111.946 366.261 125.752C377.633 134.052 384.324 147.57 387.099 161.372C389.715 174.388 389.123 188.262 383.908 200.472C378.092 214.087 363.802 230.873 347.739 229.49C329.39 227.909 310.723 215.801 300.791 200.575" fill="#ffffff"/></mask><g mask="url(#mask3_203_4091723898522-aa4a-4b7d-abe0-8c4b11905554)"><g id="Patterns_8"><g id="Group_4"><path id="Path 51_4" d="M286.252 89.0507L287.247 88.9492L305.097 263.949L304.102 264.051L286.252 89.0507Z" fill="white"/><path id="Path 52_4" d="M315.653 263.94L336.653 88.9404L337.646 89.0596L316.646 264.06L315.653 263.94Z" fill="white"/><path id="Path 53_4" d="M326.152 263.952L342.952 88.9522L343.947 89.0478L327.147 264.048L326.152 263.952Z" fill="white"/><path id="Path 54_4" d="M346.45 263.986L351.35 88.986L352.35 89.014L347.45 264.014L346.45 263.986Z" fill="white"/><path id="Path 55_3" d="M363.602 89.0458L364.598 88.9542L380.698 263.954L379.702 264.046L363.602 89.0458Z" fill="white"/><path id="Path 56_2" d="M383.9 89.01L384.9 88.99L388.4 263.99L387.4 264.01L383.9 89.01Z" fill="white"/><path id="Path 59_4" d="M311.45 263.98L318.45 88.98L319.449 89.02L312.449 264.02L311.45 263.98Z" fill="white"/></g></g></g></g><g id="Patterns_9"><path id="Mask_9" fill-rule="evenodd" clip-rule="evenodd" d="M298.869 96.9474C286.401 79.4724 287.029 53.7874 300.296 36.9114C313.563 20.0364 337.336 17.3594 357.306 25.2354C377.274 33.1114 389.812 51.8644 388.109 73.2634C384.425 119.556 325.635 134.462 298.869 96.9474" fill="#7192F0"/><mask id="mask4_203_4091723898522-aa4a-4b7d-abe0-8c4b11905554" style="mask-type:alpha" maskUnits="userSpaceOnUse" x="289" y="21" width="100" height="98" fill="#ffffff"><path id="Mask_10" fill-rule="evenodd" clip-rule="evenodd" d="M298.869 96.9474C286.401 79.4724 287.029 53.7874 300.296 36.9114C313.563 20.0364 337.336 17.3594 357.306 25.2354C377.274 33.1114 389.812 51.8644 388.109 73.2634C384.425 119.556 325.635 134.462 298.869 96.9474" fill="#ffffff"/></mask><g mask="url(#mask4_203_4091723898522-aa4a-4b7d-abe0-8c4b11905554)"><g id="Patterns_10"><g id="Group_5"><path id="Path 49_3" d="M273.012 24.0161L500.012 29.4641L499.988 30.4639L272.988 25.0159L273.012 24.0161Z" fill="white"/><path id="Path 50_3" d="M499.976 49.4406L500.024 50.4394L273.024 61.3354L272.976 60.3366L499.976 49.4406Z" fill="white"/><path id="Path 51_5" d="M499.949 65.3326L500.051 66.3274L273.051 89.4814L272.949 88.4866L499.949 65.3326Z" fill="white"/><path id="Path 52_5" d="M273.06 103.47L500.06 130.71L499.94 131.702L272.94 104.462L273.06 103.47Z" fill="white"/><path id="Path 53_5" d="M273.048 117.088L500.048 138.88L499.952 139.876L272.952 118.084L273.048 117.088Z" fill="white"/><path id="Path 59_5" d="M273.02 98.0184L500.02 107.098L499.98 108.098L272.98 99.0176L273.02 98.0184Z" fill="white"/></g></g></g></g></g></g><g id="Upper/Side" transform="translate(0 235) scale(1 1)"><g id="Upper/Side/Running"><path id="Combined Shape" fill-rule="evenodd" clip-rule="evenodd" d="M884.953 48L885.659 48.0047C909.176 48.3376 928.528 66.0644 930.306 93.4599L930.602 98.0715C932.048 120.894 933 140.35 933.581 164.088L933.685 168.616C934.442 204.007 933.87 237.466 931.594 267.829L931.396 270.399C928.412 308.358 922.833 339.513 914.197 362.351C903.65 390.242 888.521 405.587 868.206 405.587C814.997 405.587 750.78 358.802 674.995 265.607C673.601 263.892 673.86 261.371 675.574 259.977C677.288 258.582 679.808 258.841 681.203 260.556C755.591 352.033 818.111 397.583 868.206 397.583C899.337 397.583 917.43 349.737 923.614 267.231C925.965 235.872 926.482 201.105 925.581 164.284L925.461 159.615C924.834 136.53 923.828 117.191 922.321 93.9786C920.818 70.8164 904.952 56.2833 885.546 56.0086C867.59 55.7545 854.359 67.8095 854.155 87.6229C874.937 88.2664 888.405 94.1871 890.555 105.482C900.126 106.888 904.706 100.381 905.097 83.5793C905.148 81.3695 906.98 79.6197 909.19 79.6711C911.399 79.7225 913.148 81.5556 913.096 83.7654C912.608 104.784 904.586 115.485 889.837 113.474C888.208 116.871 884.688 119.303 879.696 120.715C873.67 122.418 865.012 122.857 853.598 122.113C851.393 121.969 849.722 120.064 849.866 117.858C850.009 115.653 851.913 113.981 854.118 114.125L855.29 114.198C874.133 115.306 882.774 112.814 882.856 108.847C882.855 108.804 882.856 108.762 882.856 108.719C882.79 100.749 871.37 95.6018 850.473 95.5689L850.454 95.5709C850.373 95.5815 850.253 95.5989 850.097 95.625C849.584 95.7104 848.999 95.8414 848.359 96.0269C846.507 96.5645 844.651 97.4242 842.929 98.6683C837.933 102.278 834.903 108.397 834.903 118.119C834.903 132.225 847.862 140.589 875.701 142.835C878.139 143.032 879.831 145.35 879.276 147.733L873.247 173.664C861.306 225.148 851.841 266.725 844.852 298.391C844.014 302.188 838.801 302.68 837.268 299.106C801.865 216.581 748.56 167.25 677.197 150.724C675.044 150.225 673.703 148.075 674.201 145.922C674.7 143.768 676.849 142.427 679.001 142.925C749.306 159.207 802.692 206.174 839.027 283.49L839.658 284.847L842.207 273.45C848.706 244.481 856.789 209.172 866.458 167.523L870.445 150.371L869.554 150.268C841.947 146.987 827.216 136.564 826.906 118.698L826.901 118.119C826.901 105.863 831.134 97.3159 838.244 92.179C840.591 90.4831 843.085 89.2874 845.592 88.5014L846.153 88.3321L846.152 87.891C846.243 63.8649 862.552 48.3313 884.292 48.0052L884.953 48ZM254.61 64.8051C296.47 33.3992 378.757 55.7567 502.143 130.624C504.032 131.77 504.635 134.232 503.489 136.122C502.343 138.012 499.882 138.614 497.993 137.468C377.321 64.2478 297.57 42.5794 259.411 71.2089C221.298 99.804 221.298 179.114 260.838 308.984C261.266 310.391 260.887 311.914 259.864 312.955L259.706 313.107L249.503 322.414C236.955 333.858 233.624 352.265 241.31 367.364L241.546 367.821L242.479 369.594C250.111 384.099 265.796 392.474 282.06 390.779L282.755 390.7C297.73 388.953 309.023 376.262 309.023 361.18V343.169C309.023 340.959 310.814 339.167 313.024 339.167C315.166 339.167 316.916 340.852 317.02 342.969L317.025 343.169V357.85L319.121 358.239C326.889 359.678 334.352 354.545 335.79 346.775C335.949 345.916 336.029 345.044 336.029 344.17C336.029 332.846 328.922 322.759 318.298 318.937L317.917 318.803L303.724 313.936C301.896 313.309 300.777 311.464 301.066 309.552L301.696 305.353C311.671 238.592 316.135 192.672 315.101 167.802L315.065 166.99L315.045 166.893C315.018 166.744 314.998 166.587 314.988 166.418L314.978 166.155C314.953 163.893 316.771 162.062 319.025 162.062C320.601 162.062 321.973 162.976 322.624 164.314L322.717 164.522L322.966 164.813C323.182 165.06 323.446 165.351 323.752 165.679L324.139 166.089L324.683 166.652C326.379 168.393 328.657 170.572 331.316 172.971L331.762 173.373C340.079 180.838 350.44 189.037 362.054 197.039C394.6 219.46 430.858 236.416 468.862 244.192C471.027 244.635 472.423 246.75 471.98 248.915C471.538 251.081 469.424 252.477 467.259 252.034C428.096 244.021 390.884 226.619 357.516 203.631C345.615 195.433 334.985 187.021 326.418 179.331C325.627 178.621 324.865 177.927 324.136 177.253L323.244 176.423L323.242 177.021C323.063 203.044 318.78 244.393 310.402 301.201L309.474 307.444L320.512 311.231C334.44 316.009 343.842 329.027 344.028 343.724L344.031 344.17C344.031 345.533 343.906 346.893 343.658 348.233C341.437 360.229 330.009 368.193 318.027 366.174L317.664 366.11L316.725 365.935L316.683 366.267C314.432 382.926 301.274 396.335 284.251 398.581L283.682 398.651L283.48 398.675C263.953 400.954 245.03 391.102 235.679 373.847L235.398 373.322L234.465 371.549C224.877 353.325 228.668 330.966 243.654 316.921L244.111 316.498L252.449 308.892L251.981 307.342C213.105 178.046 213.119 97.5682 253.365 65.7635L254.61 64.8051Z" fill="#001D2D"/></g></g><g id="Heads" transform="translate(501.137 165.421) scale(1 1)"><g id="Heads/Wide"><g id="Patterns"><path id="Mask" fill-rule="evenodd" clip-rule="evenodd" d="M57.366 40.3249C39.1737 45.033 21.7672 54.7631 10.7108 69.9844C-0.345563 85.2043 -4.09743 106.33 3.88277 123.371C9.86792 136.15 21.6585 145.489 34.5622 151.155C47.4659 156.821 61.5386 159.193 75.4872 161.178C101.795 164.923 129.298 167.356 154.365 158.525C179.432 149.692 201.348 126.656 200.738 100.04C200.267 79.4103 186.363 60.7819 168.696 50.1751C137.562 31.4824 91.7011 31.4392 57.366 40.3249" fill="#FF996B"/><mask id="mask0_203_43638adb7771f-24af-4b13-adc4-494de073d748" style="mask-type:alpha" maskUnits="userSpaceOnUse" x="-1" y="34" width="202" height="131" fill="#ffffff"><path id="Mask_2" fill-rule="evenodd" clip-rule="evenodd" d="M57.366 40.3249C39.1737 45.033 21.7672 54.7631 10.7108 69.9844C-0.345563 85.2043 -4.09743 106.33 3.88277 123.371C9.86792 136.15 21.6585 145.489 34.5622 151.155C47.4659 156.821 61.5386 159.193 75.4872 161.178C101.795 164.923 129.298 167.356 154.365 158.525C179.432 149.692 201.348 126.656 200.738 100.04C200.267 79.4103 186.363 60.7819 168.696 50.1751C137.562 31.4824 91.7011 31.4392 57.366 40.3249" fill="#ffffff"/></mask><g mask="url(#mask0_203_43638adb7771f-24af-4b13-adc4-494de073d748)"><g id="Patterns_2"><g id="Group"><path id="Path 7" d="M291.108 147.73C255.358 190.903 225.742 212.512 202.183 212.512C194.567 212.512 186.906 211.856 178.322 210.567L176.859 210.342C173.425 209.805 169.816 209.166 165.653 208.371L162.25 207.711L150.821 205.427C125.892 200.46 109.798 198.361 89.0476 198.361C73.6428 198.361 59.4579 200.171 39.8043 204.021L36.981 204.583C34.2519 205.137 23.2808 207.36 20.1169 207.96L18.666 208.232C13.2046 209.244 8.87942 209.896 5.0011 210.257C-4.92556 211.181 -11.8399 210.118 -16.736 206.468L-17.0162 206.254L-16.402 205.465C-11.825 209.027 -5.23887 210.139 4.34143 209.312L4.90845 209.262C8.9198 208.888 13.4258 208.199 19.2018 207.115L22.3238 206.511C27.6386 205.461 37.5901 203.439 37.4022 203.477L38.5144 203.256C58.7985 199.246 73.2792 197.361 89.0476 197.361C109.205 197.361 124.982 199.334 148.625 203.973L162.708 206.782C163.48 206.933 164.215 207.076 164.942 207.216L166.722 207.556C171.088 208.383 174.849 209.033 178.471 209.578C187.009 210.861 194.62 211.512 202.183 211.512C225.121 211.512 254.176 190.48 289.273 148.374L290.338 147.092L291.108 147.73Z" fill="white"/><path id="Path 10" d="M291.105 138.504C271.371 161.954 248.132 178.004 221.397 186.647C212.094 189.655 200.756 190.446 186.399 189.441L184.228 189.279C175.074 188.562 167.843 187.585 149.892 184.742L135.87 182.512C126.941 181.111 120.801 180.227 114.256 179.426C90.5704 176.527 71.9999 176.371 55.5022 179.73L54.7181 179.893C18.0252 187.644 -5.82276 184.481 -16.7828 170.291L-17.111 169.858L-16.308 169.262C-5.90556 183.274 17.3208 186.605 53.4138 179.144L54.5115 178.915C70.8072 175.472 89.0379 175.473 112.128 178.165L114.377 178.434C121.263 179.276 127.698 180.21 137.384 181.738L153.095 184.235C169.61 186.829 176.389 187.697 185.608 188.382C200.258 189.47 211.744 188.717 221.089 185.696C247.34 177.209 270.199 161.531 289.67 138.652L290.34 137.86L291.105 138.504Z" fill="white"/><path id="Path 11" d="M290.751 125.993L290.695 126.991C276.027 126.176 264.447 130.114 247.866 139.863L246.097 140.913C245.506 141.266 244.891 141.636 244.226 142.039L237.852 145.92C225.6 153.362 217.878 157.358 208.521 160.5C196.698 164.47 184.371 165.946 170.453 164.611L169.543 164.52C135.097 160.929 100.988 163.073 60.8105 169.351L58.0084 169.795C49.9694 171.094 30.452 174.442 27.0231 174.976C8.57572 177.847 -6.05587 171.768 -16.7942 156.769L-17.1184 156.312L-16.3 155.737C-5.85967 170.604 8.31839 176.705 26.3116 174.072L26.8693 173.988C30.3788 173.441 50.8424 169.929 58.4617 168.709L59.0219 168.62C99.4426 162.219 133.708 159.937 168.246 163.382L169.647 163.525C183.794 165 196.257 163.563 208.203 159.552C216.927 156.622 224.232 152.936 235.227 146.337L244.103 140.945C244.88 140.475 245.592 140.049 246.286 139.636L246.632 139.431C263.512 129.422 275.291 125.271 290.105 125.96L290.751 125.993Z" fill="white"/><path id="Path 12" fill-rule="evenodd" clip-rule="evenodd" d="M38.2318 131.534C47.757 132.766 55.4744 135.529 59.1988 139.312C63.5711 143.753 62.3269 149.261 54.9278 155.184C40.4658 166.761 26.2143 170.818 14.9718 167.579C4.62304 164.598 -1.83741 155.644 -1.83741 144.335C-1.83741 133.84 17.4513 128.845 38.2318 131.534ZM15.2486 166.618C26.1465 169.758 40.0753 165.793 54.3028 154.403C61.2873 148.812 62.3811 143.97 58.4862 140.013C54.9551 136.426 47.4269 133.732 38.1035 132.525C17.8789 129.908 -0.837414 134.755 -0.837414 144.335C-0.837414 155.206 5.33622 163.763 15.2486 166.618Z" fill="white"/><path id="Path 12_2" fill-rule="evenodd" clip-rule="evenodd" d="M35.1798 137.993C41.2103 138.781 46.1013 140.549 48.4802 142.991C51.3162 145.901 50.507 149.52 45.777 153.345C36.6347 160.738 27.6076 163.334 20.4692 161.257C13.8775 159.339 9.76123 153.575 9.76123 146.309C9.76123 139.473 22.0041 136.27 35.1798 137.993ZM20.7486 160.297C27.5393 162.273 36.2412 159.77 45.1482 152.568C49.4674 149.075 50.1291 146.115 47.764 143.688C45.5783 141.446 40.8778 139.746 35.0502 138.984C22.4284 137.334 10.7612 140.386 10.7612 146.309C10.7612 153.14 14.5934 158.506 20.7486 160.297Z" fill="white"/><path id="Path 12_3" fill-rule="evenodd" clip-rule="evenodd" d="M31.942 145.106C34.266 145.405 36.1584 146.077 37.111 147.037C38.3273 148.263 37.9753 149.81 36.0698 151.324C29.1369 156.832 22.0582 154.808 22.0582 148.483C22.0582 145.781 26.4732 144.544 31.3646 145.04L31.942 145.106ZM23.0582 148.483C23.0582 153.856 29.1008 155.583 35.4477 150.541C36.9355 149.359 37.1352 148.482 36.401 147.742C35.6419 146.976 33.9375 146.371 31.8147 146.098C27.2564 145.513 23.0582 146.592 23.0582 148.483Z" fill="white"/><path id="Path 13" d="M290.746 116.149L290.699 117.148L288.11 117.033C261.085 115.897 239.15 117.082 220.797 120.289C206.026 122.871 194.336 126.526 181.953 131.89L180.999 132.306C177.723 133.744 165.106 139.668 161.911 141.042C148.988 146.598 138.469 148.768 124.065 147.91C103.704 146.697 89.4395 142.552 72.9346 134.576L71.7449 133.994C69.6043 132.927 60.406 128.288 57.6544 127.006C47.6711 122.355 39.7233 120.224 30.02 120.224C9.08583 120.224 -6.23013 127.18 -15.9846 141.09L-16.2973 141.541L-17.1222 140.976C-7.18501 126.475 8.54856 119.224 30.02 119.224C39.6461 119.224 47.576 121.287 57.3409 125.76L58.0768 126.1C61.0572 127.489 71.5093 132.769 72.5466 133.276C89.2938 141.46 103.568 145.687 124.124 146.912C138.087 147.743 148.328 145.702 160.781 140.437L161.516 140.123C164.692 138.757 177.304 132.836 180.597 131.39C193.406 125.768 205.391 121.967 220.625 119.304C239.345 116.033 261.757 114.858 289.444 116.089L290.746 116.149Z" fill="white"/><path id="Path 14" fill-rule="evenodd" clip-rule="evenodd" d="M203.592 130.854C221.471 126.133 238.202 124.858 240.137 128.73C241.368 131.195 239.606 133.981 235.478 137.084C232.635 139.221 228.723 141.473 223.827 143.898L223.623 143.998C220.494 145.536 213.999 148.47 210.646 149.984C209.609 150.452 208.873 150.785 208.629 150.899L208.022 151.197C202.977 153.655 195.987 156.149 189.966 157.133C180.762 158.637 174.528 156.624 172.8 149.998C171.062 143.331 183.366 136.346 202.417 131.169L203.592 130.854ZM223.984 142.703C228.549 140.417 232.209 138.29 234.878 136.284C238.653 133.447 240.174 131.041 239.242 129.177C237.659 126.009 221.07 127.273 203.848 131.821L203.277 131.973C184.512 137 172.239 143.882 173.768 149.746C175.329 155.732 181.046 157.577 189.805 156.146C195.927 155.146 203.112 152.539 208.108 150.04C208.23 149.979 209.063 149.602 210.299 149.044C213.61 147.548 219.81 144.746 222.969 143.205L223.984 142.703Z" fill="white"/><path id="Path 14_2" fill-rule="evenodd" clip-rule="evenodd" d="M198.776 137.715C208.464 135.171 217.417 134.493 218.531 136.71C219.259 138.159 218.262 139.727 215.978 141.434C214.447 142.578 212.351 143.778 209.728 145.07L209.4 145.229C207.653 146.072 204.382 147.541 202.676 148.307C202.17 148.535 201.801 148.7 201.652 148.769L201.145 149.014C198.449 150.302 194.781 151.592 191.606 152.108C186.595 152.922 183.151 151.817 182.19 148.153C181.217 144.441 187.744 140.722 197.92 137.944L198.776 137.715ZM210.226 143.702C212.362 142.613 214.092 141.595 215.379 140.633C217.309 139.191 218.063 138.005 217.637 137.159C216.898 135.689 208.58 136.273 199.838 138.474L199.03 138.682C189.002 141.315 182.389 144.967 183.157 147.899C183.95 150.923 186.879 151.863 191.446 151.121C194.685 150.595 198.495 149.22 201.14 147.905C201.207 147.871 201.661 147.667 202.332 147.366C204.186 146.533 207.696 144.955 209.286 144.172L210.226 143.702Z" fill="white"/><path id="Path 15" d="M290.872 107.557L290.574 108.512C268.728 101.69 250.076 99.0614 232.5 99.8035L231.078 99.8699C218.35 100.523 207.428 102.668 190.702 107.232L188.485 107.841L181.152 109.882C162.661 115.003 152.374 117.24 139.068 118.446L138.432 118.503C120.324 120.088 101.206 118.715 79.0569 113.715L77.8675 113.444C11.1725 98.0742 -22.5048 111.252 -23.5656 152.912L-23.5878 154.183L-24.5878 154.174C-24.1781 111.135 9.5066 97.1023 76.0651 112.009L78.0921 112.469C100.647 117.667 120.02 119.111 138.345 117.507L139.605 117.392C152.328 116.199 162.413 114.015 180.017 109.159L188.553 106.785L190.442 106.266C207.853 101.516 219.02 99.3717 232.458 98.8044C249.852 98.07 268.283 100.613 289.759 107.212L290.872 107.557Z" fill="white"/><path id="Path 16" d="M304.025 88.0344L303.244 88.6589C287.51 68.9792 270.985 61.4665 251.475 63.2645C243.21 64.0262 234.405 66.4168 223.967 70.4939L222.665 71.0077C219.17 72.4008 215.474 73.9825 211.222 75.89L208.785 76.9909C207.554 77.551 206.274 78.1376 204.829 78.8049L194.765 83.4726C169.698 95.062 154.524 100.568 137.075 102.993C93.1536 109.097 42.4121 100.702 -15.1497 77.8187L-16.8961 77.1209L-16.5234 76.1929C41.6087 99.5423 92.7624 108.142 136.938 102.002L138.157 101.827C154.775 99.3634 169.59 93.9755 193.468 82.9701L205.352 77.4627C206.731 76.8279 207.97 76.2617 209.188 75.71L211.607 74.6222C216.065 72.6325 219.921 71.0009 223.603 69.5625C234.121 65.4541 243.012 63.0402 251.384 62.2687C271.04 60.4573 287.75 67.9467 303.547 87.4401L304.025 88.0344Z" fill="white"/><path id="Path 17" d="M298.361 62.6943L297.841 63.5483C285.505 56.0346 272.425 51.2618 251.09 49.0834C220.56 45.9662 180.506 50.0004 128.862 63.2026L127.294 63.6054C50.0532 83.5379 -4.49815 81.1171 -36.3554 56.2721L-37.3138 55.5124L-36.6864 54.7337C-5.59033 79.7878 48.2096 82.6444 124.718 63.2322L127.044 62.6372C179.554 49.0867 220.226 44.9268 251.192 48.0886C272.386 50.2527 285.536 54.9735 297.842 62.3797L298.361 62.6943Z" fill="white"/><path id="Path 18" fill-rule="evenodd" clip-rule="evenodd" d="M64.4529 12.786C81.0497 12.786 97.0806 18.4676 106.972 26.9025C116.559 35.077 117.841 43.8911 108.941 48.1903C99.8256 52.5935 78.5258 57.3049 58.656 59.1861L57.2723 59.3127C33.0523 61.4511 15.3847 59.1804 9.94106 51.7265C-2.23789 35.0501 28.8668 12.786 64.4529 12.786ZM57.8718 58.2547C77.8285 56.4287 99.4122 51.6826 108.506 47.2899C116.596 43.3816 115.441 35.4382 106.324 27.6634C96.6162 19.3858 80.8162 13.786 64.4529 13.786C29.5304 13.786 -0.717293 35.4366 10.7486 51.1367C15.8933 58.1812 33.3322 60.4225 57.1843 58.3165L57.8718 58.2547Z" fill="white"/><path id="Path 18_2" fill-rule="evenodd" clip-rule="evenodd" d="M63.3461 27.3123C74.4597 27.3123 85.1975 30.187 91.8358 34.4629C98.3815 38.6791 99.297 43.4351 93.1243 45.6875C87.0718 47.896 73.0161 50.2551 59.8216 51.2221L58.5477 51.3113C42.3034 52.3947 30.4916 51.248 26.8006 47.4302C22.7569 43.2477 25.488 38.1155 33.1417 33.9772C40.6986 29.8913 51.9359 27.3123 63.3461 27.3123ZM59.1133 50.2703C72.4052 49.3396 86.736 46.9541 92.7815 44.7481C97.9716 42.8542 97.2575 39.1446 91.2943 35.3036C84.8252 31.1367 74.2753 28.3123 63.3461 28.3123C52.095 28.3123 41.0209 30.8539 33.6173 34.8569C26.4566 38.7286 24.0859 43.1837 27.5195 46.7351C30.8259 50.1551 42.0051 51.3169 57.3108 50.3881L59.1133 50.2703Z" fill="white"/><path id="Path 18_3" fill-rule="evenodd" clip-rule="evenodd" d="M76.0345 39.1974C77.5917 39.9629 78.5672 40.7963 78.7833 41.653C79.0468 42.6979 78.2305 43.4862 76.618 43.9353C68.6658 46.1497 47.8052 47.2115 44.412 44.5331C43.2958 43.652 43.0942 42.5459 43.8309 41.4893C44.4527 40.5976 45.7339 39.7548 47.5336 39.0122C51.2091 37.4955 56.6589 36.541 62.191 36.541C67.5841 36.541 72.7974 37.6062 76.0345 39.1974ZM45.0316 43.7482C48.0757 46.1511 68.7037 45.1012 76.3498 42.9719L76.5463 42.9144C77.5532 42.6042 77.9008 42.2432 77.8136 41.8976C77.6906 41.4099 76.9076 40.7409 75.5934 40.0948C72.5027 38.5756 67.4392 37.541 62.191 37.541C56.7831 37.541 51.4619 38.473 47.9151 39.9366C46.2764 40.6127 45.14 41.3603 44.6512 42.0613C44.2259 42.6712 44.3198 43.1863 45.0316 43.7482Z" fill="white"/><path id="Path 19" d="M304.057 51.1625L303.214 51.7006C298.19 43.8319 288.439 39.4089 273.665 37.5212L273.01 37.4395C261.569 36.0493 251.109 36.0827 226.171 37.047L219.169 37.3152C210.773 37.6241 204.834 37.7717 199.037 37.7804L198.493 37.7808C183.955 37.7808 173.371 35.3123 161.627 29.759L160.948 29.4351C155.855 26.9852 136.757 16.2858 134.152 14.9056C121.288 8.08927 108.573 2.46483 92.849 -2.95467C91.1477 -3.54105 89.4193 -4.12154 87.6622 -4.69632C45.6655 -18.4347 7.88762 -4.97881 -25.7559 35.7388L-26.7742 36.981L-27.55 36.3501C6.59604 -5.63888 45.1328 -19.6611 87.9731 -5.64676C89.7352 -5.07034 91.4686 -4.48818 93.1748 -3.90009C108.499 1.38175 120.981 6.85995 133.514 13.4386L134.984 14.217C138.66 16.2049 156.512 26.1914 161.382 28.534C173.043 34.1439 183.43 36.6842 197.668 36.7781L199.578 36.7792C204.649 36.764 209.886 36.6421 216.838 36.3984L232.031 35.8279C252.866 35.0855 262.567 35.1631 273.13 36.4468C288.315 38.2922 298.465 42.74 303.823 50.8044L304.057 51.1625Z" fill="white"/></g></g></g></g></g></g><g id="Eyes" transform="translate(582 235.421) scale(1 1)"><g id="Eyes/Tiny"><path id="Fill 1" d="M75.5297 28.9006C78.7187 29.4316 82.2127 27.8016 83.6687 24.9156C86.8877 18.5346 79.4717 13.0006 73.5977 15.7006C67.4307 18.5366 68.9207 27.7996 75.5297 28.9006" fill="#001D2D"/><path id="Fill 4" d="M24.9191 28.9006C21.7301 29.4316 18.2361 27.8016 16.7801 24.9156C13.5601 18.5346 20.9761 13.0006 26.8501 15.7006C33.0181 18.5366 31.5291 27.7996 24.9191 28.9006" fill="#001D2D"/><path id="Fill 5" fill-rule="evenodd" clip-rule="evenodd" d="M32.5917 37.5557C30.0448 37.5576 27.4349 37.5713 25.045 38.4326C22.654 39.2939 20.4869 41.1917 20.0721 43.6523C19.6923 45.9044 20.8548 48.2016 22.569 49.749C24.2823 51.2944 26.4833 52.2095 28.6754 52.9857C41.4279 57.5026 55.5527 58.2318 68.721 55.0509C71.3589 54.4137 74.0147 53.5964 76.1978 52.0138C78.3818 50.4321 80.0431 47.9539 79.9991 45.2937C79.9362 41.4726 76.3657 38.4091 72.5684 37.5282C67.4176 36.3332 60.7385 37.541 55.3608 37.5302C47.7711 37.5155 40.1814 37.5468 32.5917 37.5557" fill="#FFD6CE"/><path id="Fill 6" fill-rule="evenodd" clip-rule="evenodd" d="M30.0877 44.0862L40.3468 44.3853C43.7552 44.4702 47.1557 44.5595 50.5501 44.5713C53.9426 44.606 57.328 44.5699 60.6995 44.4909C64.072 44.4 67.4236 44.2398 70.7771 44.0087L70.806 44.0065C71.9096 43.9304 72.8884 44.5307 72.9912 45.3473C73.079 46.0436 72.5033 46.672 71.6482 46.8905C68.2248 47.7669 64.6787 48.2705 61.1366 48.5872C57.5895 48.9114 54.0324 49.014 50.4873 48.9985C46.9431 48.9564 43.409 48.7969 39.9008 48.4698C36.3936 48.1501 32.9074 47.6968 29.485 47.0057L29.48 47.0049C28.4094 46.7886 27.7798 45.972 28.0712 45.1797C28.3216 44.4997 29.1737 44.0597 30.0877 44.0862" fill="#E5A193"/></g></g><g id="Lower/Side" transform="translate(0 700) scale(1 1)"><g id="Lower/Side/Walking"><path id="Legs" fill-rule="evenodd" clip-rule="evenodd" d="M552.038 183.301C553.308 181.492 552.871 178.996 551.061 177.727C549.252 176.458 546.755 176.895 545.485 178.704C506.326 234.481 454.289 292.166 394.587 349.11C355.979 385.934 319.975 417.038 291.469 439.962L289.715 441.37C285.791 444.515 283.858 449.514 284.643 454.48L288.768 480.594L288.789 480.76C289.035 483.179 286.184 484.729 284.28 483.129L235.64 442.257L235.434 442.078C232.541 439.468 232.089 435.075 234.431 431.929C268.444 386.237 308.068 331.96 346.029 278.186L349.189 273.706C407.804 190.513 448.531 128.016 463.628 95.7724C464.565 93.7708 463.702 91.389 461.699 90.4525C459.697 89.516 457.314 90.3794 456.377 92.381C441.856 123.395 402.569 183.857 346.121 264.158L342.644 269.099C305.877 321.282 267.338 374.193 233.722 419.467L228.009 427.152C223.082 433.771 224.17 443.076 230.489 448.383L279.128 489.255L279.358 489.443C286.973 495.526 298.213 489.073 296.675 479.345L292.55 453.23L292.517 452.985C292.279 450.937 293.106 448.909 294.722 447.614C323.665 424.428 360.527 392.657 400.113 354.899L401.913 353.18C461.211 296.462 512.928 239.006 552.038 183.301ZM677.217 133.662C675.656 132.097 673.123 132.095 671.558 133.656C669.994 135.218 669.991 137.752 671.552 139.317C719.682 187.567 767.454 248.83 813.166 317.513C842.421 361.471 866.603 401.945 884.185 433.847L885.814 436.813C888.229 441.223 892.817 443.995 897.843 444.085L924.277 444.557L924.445 444.565C926.869 444.743 927.901 447.819 925.994 449.417L877.297 490.22L877.085 490.392C874.012 492.788 869.608 492.47 866.916 489.618C826.739 447.036 778.66 397.043 731.025 349.128L726.74 344.824C657.105 274.931 604.216 225.587 575.666 205.53C573.858 204.259 571.362 204.696 570.092 206.505C568.822 208.314 569.259 210.811 571.067 212.082C599.66 232.169 653.972 282.977 725.351 354.774L727.28 356.715C771.653 401.389 816.325 447.77 854.52 488.152L861.097 495.113C866.759 501.115 876.111 501.658 882.436 496.357L931.132 455.554L931.358 455.361C938.671 448.917 934.267 436.728 924.42 436.553L897.986 436.08L897.738 436.071C895.681 435.95 893.827 434.783 892.832 432.966C875.384 401.094 851.139 360.304 821.657 315.832L819.827 313.076C773.848 243.992 725.77 182.338 677.217 133.662Z" fill="#001D2D"/></g></g><g id="Head Accesory" transform="matrix(-0.707107 0.707107 0.707107 0.707107 460 -17.4214) scale(1 1)"><g id="Head Accesory/Cap"><path id="Fill 1" fill-rule="evenodd" clip-rule="evenodd" d="M111.985 154C77.141 154 58 169.852 58 199.969V199.97H196.699C198.264 199.97 199.56 198.755 199.662 197.194C199.774 195.481 198.415 194.031 196.699 194.031H138.822C139.985 176.21 146.829 154 111.985 154" fill="#FF7272"/></g></g></g></g><g id="Master/Character/Side" transform="matrix(-1 0 0 1 2800 200) scale(1 1)"><g id="Master/Character/Side"><g id="Bodies" transform="translate(297 340.421) scale(1 1)"><g id="Bodies/Purple B"><g id="Patterns"><path id="Mask" fill-rule="evenodd" clip-rule="evenodd" d="M317.963 454.34C504.936 378.343 459.48 142.419 291.905 143.812C124.331 145.205 85.21 181.513 64.469 271.569C41.765 370.154 130.989 530.336 317.963 454.34" fill="#7344BE"/><mask id="mask0_203_421189d36df47-717e-4525-ad56-167bad04b6f0" style="mask-type:alpha" maskUnits="userSpaceOnUse" x="61" y="143" width="379" height="332" fill="#ffffff"><path id="Mask_2" fill-rule="evenodd" clip-rule="evenodd" d="M317.963 454.34C504.936 378.343 459.48 142.419 291.905 143.812C124.331 145.205 85.21 181.513 64.469 271.569C41.765 370.154 130.989 530.336 317.963 454.34" fill="#ffffff"/></mask><g mask="url(#mask0_203_421189d36df47-717e-4525-ad56-167bad04b6f0)"><g id="Patterns_2"><g id="Group"><path id="Path 7" d="M323.323 478.547L305.527 474.99C265.427 467.005 239.37 463.578 206.148 463.501L205 463.5C179.668 463.5 156.368 466.504 123.881 472.896L96.213 478.45C94.8285 478.723 93.6655 478.949 92.8342 479.107L90.1617 479.607C81.7269 481.163 74.9662 482.188 68.9043 482.777L68.2797 482.836C52.1341 484.338 40.9325 482.6 33.0389 476.659L32.6928 476.395L33.3067 475.605C40.9733 481.568 52.0332 483.343 68.1871 481.841L69.4347 481.719C75.3046 481.124 81.8633 480.121 89.9831 478.623L94.201 477.825C101.626 476.38 120.563 472.537 121.061 472.435L124.982 471.661C156.427 465.515 179.304 462.58 203.984 462.502L205 462.5C238.467 462.5 264.505 465.843 304.343 473.736L321.325 477.132C323.274 477.519 325.024 477.863 326.707 478.19L330.435 478.907C337.897 480.326 344.264 481.433 350.388 482.352C364.289 484.44 376.684 485.5 389 485.5C426.427 485.5 473.746 451.27 530.88 382.767L532.615 380.681L533.385 381.319C475.297 451.425 427.194 486.5 389 486.5C376.63 486.5 364.187 485.435 350.24 483.341L348.559 483.085C342.652 482.172 336.454 481.078 329.223 479.694L325.542 478.982C324.822 478.842 324.086 478.697 323.323 478.547Z" fill="white"/><path id="Path 10" d="M533.382 366.322C501.323 404.392 463.578 430.446 420.154 444.476C404.999 449.372 386.498 450.644 363.034 448.98L360.879 448.821C345.136 447.621 333.346 446.023 301.913 441.036L282.809 437.996C267.964 435.658 257.832 434.186 247.238 432.874L246.037 432.726C207.298 427.988 176.959 427.754 149.991 433.304L149.103 433.489C89.5332 446.065 50.8611 440.939 33.1294 417.999L32.5985 417.298L33.4012 416.702C50.4126 439.602 88.3007 445.033 147.108 432.884L148.897 432.511C175.621 426.869 205.562 426.925 243.61 431.427L247.361 431.882C258.167 433.22 268.49 434.724 283.808 437.141L304.151 440.378C334.687 445.211 346.123 446.723 362.021 447.904C385.884 449.676 404.602 448.449 419.846 443.524C462.656 429.693 499.924 404.126 531.657 366.812L532.617 365.678L533.382 366.322Z" fill="white"/><path id="Path 11" d="M533.028 346.501L532.972 347.499C509.181 346.177 490.374 352.514 463.609 368.187L461.117 369.659C459.42 370.67 457.641 371.741 455.525 373.026L446.849 378.309L444.218 379.9C425.812 390.973 413.719 397.108 399.209 401.978C379.921 408.45 359.806 410.837 337.069 408.61L335.948 408.497C279.705 402.639 224.022 406.168 158.365 416.455L152.722 417.357C138.766 419.635 109.416 424.663 104.077 425.494C74.1912 430.143 50.5118 420.31 33.1162 396.028L32.591 395.287L33.4092 394.712C50.4606 418.978 73.642 428.943 103.031 424.641L104.527 424.41C111.851 423.24 144.988 417.558 156.216 415.781C222.153 405.346 278.011 401.648 334.345 407.328L336.052 407.503C359.106 409.904 379.42 407.563 398.891 401.029C413.768 396.037 426.107 389.697 445.446 377.99L456.039 371.545C458.052 370.325 459.77 369.294 461.451 368.298L463.109 367.322C489.752 351.72 508.614 345.297 532.294 346.462L533.028 346.501Z" fill="white"/><path id="Path 12" fill-rule="evenodd" clip-rule="evenodd" d="M122.314 355.504C137.742 357.499 150.234 361.968 156.231 368.055C163.193 375.122 161.216 383.867 149.312 393.39C125.865 412.148 102.788 418.713 84.6116 413.48C67.9173 408.674 57.4999 394.245 57.4999 376C57.4999 359.228 88.6912 351.156 122.314 355.504ZM84.8883 412.519C102.72 417.653 125.475 411.18 148.688 392.61C160.177 383.418 162.003 375.339 155.519 368.757C149.891 363.044 138.152 358.733 123.562 356.681L122.186 356.496C89.119 352.22 58.4999 360.144 58.4999 376C58.4999 393.807 68.6303 407.839 84.8883 412.519Z" fill="white"/><path id="Path 12_2" fill-rule="evenodd" clip-rule="evenodd" d="M117.35 366.002C127.094 367.275 134.989 370.128 138.798 374.034C143.263 378.613 141.993 384.289 134.429 390.402C119.634 402.359 105.054 406.549 93.5535 403.205C82.9697 400.127 76.364 390.883 76.364 379.209C76.364 368.384 96.095 363.225 117.35 366.002ZM93.8327 402.244C104.986 405.488 119.24 401.391 133.8 389.625C140.953 383.844 142.076 378.828 138.082 374.732C134.467 371.024 126.762 368.24 117.221 366.994C96.5195 364.289 77.364 369.297 77.364 379.209C77.364 390.448 83.6854 399.293 93.8327 402.244Z" fill="white"/><path id="Path 12_3" fill-rule="evenodd" clip-rule="evenodd" d="M112.086 377.564C115.802 378.041 118.821 379.113 120.31 380.613C122.137 382.454 121.612 384.759 118.644 387.116C113.023 391.579 107.456 393.15 103.037 391.888C98.9322 390.715 96.3639 387.184 96.3639 382.743C96.3639 378.465 103.94 376.519 112.086 377.564ZM97.3639 382.743C97.3639 391.773 107.516 394.674 118.022 386.332C120.572 384.307 120.945 382.673 119.6 381.318C118.305 380.013 115.474 379.008 111.958 378.556C104.37 377.583 97.3639 379.382 97.3639 382.743Z" fill="white"/><path id="Path 13" d="M533.023 330.5L532.977 331.499L529.995 331.365C485.455 329.43 449.372 331.344 419.22 336.61C395.004 340.84 375.87 346.842 355.552 355.669L353.604 356.526C347.457 359.272 329.524 367.674 323.893 370.138L323.38 370.361C302.405 379.373 285.344 382.89 261.97 381.499C228.737 379.521 205.509 372.737 178.53 359.663L177.422 359.123C175.031 357.942 159.21 349.96 154.273 347.644L154.076 347.552C137.802 339.974 124.833 336.5 109 336.5C74.8345 336.5 49.8174 347.864 33.8922 370.59L33.4124 371.283L32.5876 370.717C48.687 347.239 74.1773 335.5 109 335.5C124.705 335.5 137.624 338.884 153.607 346.233L154.9 346.834C160.213 349.341 176.38 357.502 178.027 358.306C205.299 371.626 228.553 378.508 262.03 380.501C285.237 381.882 302.145 378.397 322.985 369.442L324.088 368.96C330.588 366.08 348.995 357.452 354.021 355.247C374.831 346.118 394.299 339.948 419.048 335.625C449.611 330.287 486.233 328.386 531.527 330.432L533.023 330.5Z" fill="white"/><path id="Path 14" fill-rule="evenodd" clip-rule="evenodd" d="M391.372 354.392C420.245 346.772 447.411 344.704 450.447 350.776C452.357 354.595 449.566 359.005 442.963 363.965C438.653 367.202 432.822 370.606 425.58 374.252L424.062 375.01C419.127 377.453 408.242 382.367 402.656 384.889C400.966 385.652 399.761 386.196 399.353 386.386L398.6 386.756C390.402 390.776 378.934 394.885 369.081 396.493C354.251 398.915 344.274 395.696 341.516 385.126C338.704 374.344 359.5 362.802 391.372 354.392ZM424.378 373.737C431.92 369.972 437.961 366.471 442.362 363.165C448.613 358.471 451.162 354.442 449.553 351.224C446.868 345.855 419.843 347.913 391.628 355.358L390.694 355.607C359.981 363.829 339.927 375.072 342.484 384.874C345.074 394.803 354.535 397.855 368.919 395.507C378.912 393.875 390.626 389.628 398.776 385.553L398.853 385.516C399.21 385.348 400.488 384.771 402.309 383.948C407.757 381.488 418.067 376.833 423.15 374.344L424.378 373.737Z" fill="white"/><path id="Path 14_2" fill-rule="evenodd" clip-rule="evenodd" d="M384.491 365.297C399.677 361.42 413.642 360.433 415.309 363.748C416.398 365.915 414.853 368.343 411.248 371.035C408.778 372.88 405.383 374.823 401.133 376.914C398.491 378.214 392.666 380.829 389.696 382.163C388.811 382.56 388.18 382.843 387.961 382.944L387.391 383.222C383.013 385.337 376.964 387.48 371.749 388.326C363.738 389.627 358.298 387.882 356.788 382.127C355.233 376.202 366.395 370.042 383.54 365.543L384.491 365.297ZM401.259 375.736C405.193 373.776 408.349 371.953 410.65 370.234C413.9 367.807 415.202 365.761 414.415 364.197C413.108 361.598 399.572 362.539 385.188 366.153L383.794 366.511C367.285 370.842 356.432 376.832 357.755 381.873C359.097 386.988 364.022 388.568 371.589 387.339C376.891 386.478 383.117 384.234 387.444 382.083C387.55 382.03 388.276 381.704 389.351 381.221C392.141 379.968 397.287 377.658 400.089 376.31L401.259 375.736Z" fill="white"/><path id="Path 15" d="M533.149 316.523L532.851 317.477C497.288 306.378 466.916 302.101 438.294 303.309L436.674 303.382C415.685 304.4 397.837 307.875 370.392 315.353L365.407 316.725L355.592 319.458C324.834 327.991 307.989 331.669 286.01 333.639L285.291 333.703C255.732 336.289 224.513 334.025 188.301 325.81L186.888 325.487C78.2515 300.468 23.2681 321.972 21.5361 389.931L21.4999 392.005L20.5 391.995C21.1705 321.589 76.8458 299.118 187.112 324.513C223.355 332.86 254.557 335.256 284.055 332.805L285.204 332.707C306.504 330.843 322.831 327.416 351.399 319.578L366.916 315.27L370.133 314.387C398.346 306.7 416.462 303.229 438.252 302.31C466.65 301.112 496.753 305.289 531.877 316.128L533.149 316.523Z" fill="white"/><path id="Path 16" d="M554.391 284.688L553.61 285.312C527.957 253.246 500.979 240.989 469.141 243.921C455.665 245.162 441.317 249.055 424.317 255.692L422.806 256.286C416.734 258.691 410.313 261.438 402.83 264.803L398.508 266.76C397.025 267.435 395.484 268.142 393.808 268.915L376.805 276.794L371.992 279.006C334.086 296.326 310.274 304.717 283.069 308.495C211.695 318.408 129.223 304.772 35.6528 267.598L32.8139 266.464L33.1865 265.536C127.778 303.506 211.026 317.492 282.931 307.505C310.864 303.625 335.237 294.85 375.171 276.447L391.666 268.802C395.017 267.253 397.803 265.977 400.524 264.746L403.352 263.472C411.07 260.014 417.667 257.214 423.953 254.76C441.033 248.092 455.467 244.176 469.049 242.925C500.91 239.991 527.986 252.119 553.614 283.724L554.391 284.688Z" fill="white"/><path id="Path 17" d="M545.26 243.573L544.74 244.427C536.218 239.24 528.638 235.404 518.407 231.673C504.4 226.565 488.027 222.857 468.574 220.872C418.882 215.802 353.702 222.362 269.677 243.829L267.125 244.484C141.588 276.859 52.9591 272.929 1.24207 232.622L-0.313782 231.389L0.313354 230.611C51.4939 271.821 140.346 276.147 266.875 243.516C352.242 221.5 418.353 214.743 468.676 219.878C488.21 221.871 504.664 225.597 518.749 230.733C528.718 234.369 536.191 238.105 544.433 243.072L545.26 243.573Z" fill="white"/><path id="Path 18" fill-rule="evenodd" clip-rule="evenodd" d="M165 162.5C191.919 162.5 217.919 171.709 233.949 185.369C249.394 198.531 251.439 212.585 237.217 219.45C222.088 226.754 186.204 234.594 153.294 237.498C114.018 240.964 85.356 237.282 76.5962 225.295C57.0116 198.495 107.331 162.5 165 162.5ZM153.206 236.502C186.006 233.608 221.783 225.791 236.783 218.55C250.194 212.075 248.276 198.892 233.301 186.131C217.455 172.627 191.686 163.5 165 163.5C107.995 163.5 58.5328 198.882 77.4036 224.705C85.8644 236.283 114.298 239.935 153.206 236.502Z" fill="white"/><path id="Path 18_2" fill-rule="evenodd" clip-rule="evenodd" d="M163.2 186.11C181.217 186.11 198.622 190.767 209.366 197.683C219.829 204.418 221.255 211.821 211.523 215.37C201.618 218.982 178.44 222.851 156.83 224.392L155.376 224.493C129.063 226.246 109.898 224.387 103.989 218.279C97.7323 211.812 101.762 203.876 113.491 197.31L114.226 196.906C126.468 190.29 144.693 186.11 163.2 186.11ZM156.033 223.446C177.763 221.947 201.269 218.045 211.181 214.431L211.446 214.332C219.729 211.177 218.654 205.077 209.419 198.913L208.824 198.524C198.25 191.717 181.033 187.11 163.2 187.11C144.852 187.11 126.79 191.253 114.701 197.785C102.901 204.162 98.9326 211.614 104.708 217.584C110.316 223.381 129.335 225.226 155.309 223.495L156.033 223.446Z" fill="white"/><path id="Path 18_3" fill-rule="evenodd" clip-rule="evenodd" d="M183.698 205.396C186.154 206.603 187.68 207.906 188.003 209.183C188.378 210.669 187.181 211.824 184.701 212.515C180.057 213.807 169.418 215.185 159.27 215.788L157.553 215.883C144.781 216.532 135.521 215.847 132.6 213.542C130.911 212.21 130.617 210.597 131.718 209.019C132.687 207.629 134.726 206.289 137.602 205.103C143.54 202.655 152.363 201.11 161.321 201.11C170.047 201.11 178.479 202.832 183.698 205.396ZM133.219 212.757C138.28 216.749 171.901 215.039 184.433 211.551C186.459 210.988 187.237 210.236 187.033 209.428C186.804 208.52 185.47 207.381 183.257 206.293C178.184 203.801 169.902 202.11 161.321 202.11C152.487 202.11 143.792 203.632 137.984 206.028C135.268 207.147 133.374 208.392 132.538 209.591C131.749 210.722 131.935 211.744 133.219 212.757Z" fill="white"/><path id="Path 19" d="M554.421 224.731L553.579 225.269C545.311 212.328 529.267 205.095 504.975 202.04L504.229 201.948C486.914 199.845 470.988 199.744 436.244 200.999L416.488 201.748C402.477 202.263 392.679 202.5 383 202.5C359.292 202.5 342.075 198.461 322.908 189.365L322.073 188.966C313.801 184.989 282.748 167.604 278.504 165.356C257.569 154.27 236.874 145.122 211.285 136.308C208.517 135.354 205.704 134.41 202.845 133.475C134.412 111.103 72.8408 133.02 18.0462 199.294L16.3879 201.316L15.6122 200.684C71.0691 132.533 133.612 109.79 203.155 132.525C206.02 133.461 208.837 134.407 211.611 135.362C236.738 144.017 257.161 152.996 277.713 163.808L279.427 164.716C285.081 167.763 314.515 184.223 322.507 188.065C341.878 197.378 359.103 201.5 383 201.5L384.853 201.497C394.344 201.467 404.202 201.208 418.262 200.682L433.922 200.083C469.931 198.753 486.24 198.797 503.783 200.887L504.35 200.955C529.074 203.958 545.538 211.203 554.16 224.327L554.421 224.731Z" fill="white"/><path id="Path 20" d="M564 181.5C524.469 181.5 486.497 176.496 447.115 166.875L444.364 166.197C415.408 158.997 388.989 150.406 348.21 135.656L319.913 125.375C316.94 124.299 314.233 123.325 311.617 122.389L309.222 121.533C296.06 116.841 284.952 113.042 274.346 109.648L273.321 109.321C246.384 100.744 222.918 94.9231 199.926 91.4944C124.866 80.3012 65.8171 103.639 22.7053 161.53L21.4038 163.295L20.5962 162.705C64.0408 103.219 123.892 79.145 200.074 90.5054C222.681 93.8766 245.736 99.5523 272.071 107.876L273.624 108.368C283.529 111.523 293.827 115.017 305.79 119.253L309.557 120.591C312.335 121.581 315.154 122.593 318.234 123.705L348.549 134.715C390.585 149.919 417.342 158.573 447.352 165.904C486.016 175.348 523.31 180.335 562.061 180.496L564 180.5V181.5Z" fill="white"/><path id="Path 21" d="M545.004 152.5L544.996 153.5C463.698 152.839 392.205 126 330.537 72.9913L328.671 71.3769C283.628 32.1456 220.907 17.8573 158.853 30.989C96.3494 44.216 41.5726 83.6425 9.40674 141.481L8.4389 143.239L7.56073 142.761C39.7307 83.7025 95.2293 43.4309 158.646 30.0107C220.997 16.8161 284.039 31.1776 329.328 70.6228C390.619 124.005 461.687 151.286 542.55 152.472L545.004 152.5Z" fill="white"/></g></g></g></g><g id="Patterns_3"><path id="Mask_3" fill-rule="evenodd" clip-rule="evenodd" d="M404.798 78.403C403.686 6.04901 104.859 11.498 98.4209 77.047C91.9839 142.596 145.936 150.344 210.099 146.404C264.578 143.059 405.911 150.757 404.798 78.403" fill="#B164E7"/><mask id="mask1_203_421189d36df47-717e-4525-ad56-167bad04b6f0" style="mask-type:alpha" maskUnits="userSpaceOnUse" x="97" y="26" width="308" height="122" fill="#ffffff"><path id="Mask_4" fill-rule="evenodd" clip-rule="evenodd" d="M404.798 78.403C403.686 6.04901 104.859 11.498 98.4209 77.047C91.9839 142.596 145.936 150.344 210.099 146.404C264.578 143.059 405.911 150.757 404.798 78.403" fill="#ffffff"/></mask><g mask="url(#mask1_203_421189d36df47-717e-4525-ad56-167bad04b6f0)"><g id="Patterns_4"><g id="Group_2"><path id="Path 4" d="M375.397 -84.3958C384.558 -14.1259 397.425 32.5632 413.959 55.6344C439.058 90.6566 423.11 196.699 385.596 242.332L384.453 243.696L383.693 243.047C421.749 198.52 438.201 91.1774 413.146 56.2169C396.655 33.2052 383.845 -12.9086 374.682 -82.1608L374.405 -84.2665L375.397 -84.3958Z" fill="white"/><path id="Path 5" d="M366.884 -84.3613C370.376 -26.7221 379.104 25.673 393.069 72.8242C406.943 119.669 398.504 179.559 367.783 252.495L366.845 254.709L365.925 254.318C397.329 180.573 406.047 120.168 392.11 73.1082C378.294 26.457 369.596 -25.3097 366.016 -82.1918L365.886 -84.3009L366.884 -84.3613Z" fill="white"/><path id="Path 6" fill-rule="evenodd" clip-rule="evenodd" d="M360.633 122.786C360.994 92.2382 365.562 69.8426 373.392 68.0094C381.368 66.1421 387.513 74.7308 391.087 90.4528C394.285 104.523 395.034 123.021 393.086 138.569C390.758 157.139 388.295 170.304 385.147 178.861C381.17 189.671 376.054 192.453 369.937 185.367C364.08 178.583 360.439 152.863 360.618 124.524L360.633 122.786ZM392.093 138.445C394.028 123.009 393.284 104.628 390.112 90.6745C386.649 75.4413 380.821 67.297 373.62 68.983C366.663 70.6119 362.169 91.995 361.66 121.012L361.633 122.798C361.294 151.549 364.945 178.054 370.694 184.714C376.169 191.056 380.452 188.727 384.209 178.515L384.357 178.109C387.253 170.044 389.577 157.894 391.761 141.05L392.093 138.445Z" fill="white"/><path id="Path 6_2" fill-rule="evenodd" clip-rule="evenodd" d="M370.349 124.24C370.58 104.786 372.961 90.715 377.18 89.5035C381.469 88.2721 384.678 93.5301 386.594 103.206L386.758 104.058C388.434 113.1 388.826 124.984 387.805 134.975C386.586 146.902 385.296 155.357 383.645 160.86C382.644 164.198 381.531 166.339 380.213 167.217C378.645 168.263 376.95 167.511 375.24 165.081C372.151 160.694 370.245 144.215 370.334 126.02L370.349 124.24ZM386.81 134.873C387.822 124.975 387.432 113.186 385.774 104.24C383.985 94.5878 380.988 89.4508 377.456 90.4646C369.838 92.6519 369.24 154.822 376.057 164.506C377.495 166.548 378.647 167.059 379.658 166.385C380.721 165.676 381.749 163.699 382.687 160.572C384.247 155.376 385.49 147.435 386.658 136.338L386.81 134.873Z" fill="white"/><path id="Path 7_2" d="M358.361 64.5941L360.606 53.3608C360.86 52.0707 361.089 50.9015 361.31 49.7502L361.672 47.8527C362.552 43.1979 363.245 39.1891 363.825 35.3279C365.191 26.2253 365.885 18.1099 365.885 10.0473C365.885 -14.4167 343.485 -45.3942 298.644 -82.8104L297.279 -83.9462L297.917 -84.7161C343.881 -46.6146 366.885 -15.0525 366.885 10.0473C366.885 18.1637 366.187 26.3275 364.813 35.4763L364.575 37.0352C364.043 40.4346 363.419 43.9936 362.655 48.0373L361.681 53.0751L359.341 64.7893C354.052 91.3632 351.817 108.52 351.817 130.642C351.817 146.792 353.681 161.684 357.642 182.1L361.85 203.145L362.039 204.124C363.235 210.433 364.005 215.35 364.434 219.712L364.484 220.233C365.468 230.814 364.335 238.18 360.447 243.391L360.228 243.678L359.439 243.065C363.312 238.082 364.469 230.873 363.488 220.326L363.386 219.287C363.006 215.613 362.382 211.519 361.467 206.513L360.917 203.587C360 198.85 357.283 185.461 357.328 185.686L356.878 183.408C352.757 162.358 350.817 147.163 350.817 130.642C350.817 108.442 353.059 91.2268 358.361 64.5941Z" fill="white"/><path id="Path 10_2" d="M288.094 -84.7134C313.058 -63.6814 330.145 -38.916 339.346 -10.4238C342.549 -0.504504 343.39 11.5874 342.317 26.9034L342.093 29.8685C341.37 38.8537 340.373 46.342 337.73 63.1538L334.981 80.4745C333.466 90.1293 332.516 96.7289 331.656 103.767C328.567 129.03 328.402 148.835 331.985 166.431L332.153 167.241C340.404 206.342 337.038 231.751 321.941 243.423L321.48 243.773L320.884 242.97C335.817 231.872 339.366 207.102 331.419 168.618L331.175 167.448C327.449 149.793 327.512 130.006 330.522 104.812L330.787 102.641C331.638 95.7914 332.595 89.2048 334.102 79.627L336.84 62.376C339.537 45.191 340.481 37.8953 341.203 28.4144L341.256 27.7166C342.415 12.0968 341.613 -0.150518 338.394 -10.1165C329.353 -38.1151 312.646 -62.4934 288.265 -83.2578L287.449 -83.9486L288.094 -84.7134Z" fill="white"/><path id="Path 11_2" d="M274.825 -84.3589L275.823 -84.3034C274.942 -68.4332 279.272 -55.9533 289.989 -37.859L291.352 -35.5777C291.755 -34.9071 292.187 -34.1941 292.663 -33.41L295.983 -27.9565L296.848 -26.5251C304.22 -14.2866 308.284 -6.30001 311.504 3.30138C315.734 15.9108 317.305 29.0585 315.876 43.9053L315.783 44.8355C311.957 81.5871 314.247 117.978 320.944 160.854L321.549 164.65C323.023 173.699 326.368 193.231 326.917 196.761C329.972 216.412 323.504 231.996 307.544 243.435L307.057 243.781L306.482 242.962C322.325 231.824 328.826 216.695 326.017 197.498L325.79 196.047C324.881 190.442 321.343 169.784 320.213 162.642L319.703 159.38C313.273 117.672 311.057 82.0424 314.646 46.1312L314.789 44.7319C316.359 29.6468 314.829 16.3574 310.556 3.61939L310.184 2.52795C306.986 -6.69516 302.885 -14.61 295.562 -26.7204L291.256 -33.8013C290.457 -35.1209 289.781 -36.2474 289.128 -37.3494C278.466 -55.3521 274.05 -67.9072 274.791 -83.7077L274.825 -84.3589Z" fill="white"/><path id="Path 13_2" d="M264.343 -84.3545L265.342 -84.3077L265.222 -81.6294C264.008 -52.7827 265.268 -29.3736 268.687 -9.7889C271.44 5.97749 275.339 18.4525 281.062 31.6719L281.485 32.6405C282.987 36.0672 289.087 49.0775 290.698 52.7839L290.786 52.9872C296.701 66.7577 299.01 77.9653 298.097 93.3135C296.805 115.028 292.386 130.236 283.882 147.843L282.787 150.063C281.15 153.333 277.227 161.141 275.922 163.92L275.842 164.09C270.887 174.736 268.618 183.212 268.618 193.561C268.618 215.895 276.035 232.236 290.868 242.639L291.329 242.959L290.764 243.784C275.333 233.198 267.618 216.437 267.618 193.561C267.618 183.293 269.818 174.837 274.59 164.416L275.103 163.312C276.795 159.735 282.054 149.313 282.576 148.245C291.292 130.39 295.795 115.17 297.099 93.2541C297.985 78.3539 295.807 67.4282 290.189 54.1368L289.867 53.3819C288.413 49.9952 282.107 36.5515 280.569 33.0421C274.583 19.3909 270.536 6.61807 267.702 -9.61693C264.217 -29.5785 262.967 -53.4789 264.281 -83.0084L264.343 -84.3545Z" fill="white"/><path id="Path 14_3" fill-rule="evenodd" clip-rule="evenodd" d="M279.999 8.53624C274.978 -10.5 273.621 -28.329 277.721 -30.3797C280.326 -31.6829 283.281 -29.8121 286.576 -25.4237C288.85 -22.3943 291.247 -18.2267 293.828 -13.009L293.93 -12.8026C295.565 -9.47242 298.693 -2.54133 300.308 1.03778C300.81 2.15153 301.166 2.9407 301.285 3.19577L301.591 3.81834C304.21 9.19533 306.87 16.6532 307.918 23.0748C309.517 32.8707 307.379 39.4991 300.344 41.3351C293.274 43.1805 285.842 30.0758 280.334 9.78731L279.999 8.53624ZM292.613 -13.206C290.178 -18.0742 287.913 -21.9768 285.776 -24.8232C282.746 -28.859 280.173 -30.4881 278.168 -29.4853C274.84 -27.8205 276.066 -10.7995 280.68 7.17938L280.966 8.2812C286.338 28.6465 293.758 42.0207 300.092 40.3675C306.486 38.6986 308.457 32.587 306.931 23.2359C305.865 16.7061 303.089 9.04409 300.426 3.71671C300.361 3.58679 299.961 2.69975 299.367 1.38382C297.771 -2.15174 294.778 -8.78334 293.138 -12.1453L292.613 -13.206Z" fill="white"/><path id="Path 14_4" fill-rule="evenodd" clip-rule="evenodd" d="M287.305 13.6694C284.603 3.36497 283.881 -6.17344 286.218 -7.34935L286.366 -7.41786C287.849 -8.04644 289.457 -6.98282 291.208 -4.6374C292.424 -3.00821 293.702 -0.774872 295.076 2.01923C295.931 3.75819 297.651 7.59204 298.522 9.53235C298.741 10.0215 298.907 10.3903 298.991 10.5749L299.255 11.1221C300.632 13.9973 302.016 17.9274 302.568 21.3261C303.432 26.6532 302.26 30.3076 298.38 31.326C294.449 32.3577 290.49 25.3888 287.536 14.5344L287.305 13.6694ZM293.927 1.95274C292.673 -0.553905 291.506 -2.56725 290.407 -4.03917C288.863 -6.10773 287.588 -6.91914 286.668 -6.45602C285.077 -5.6561 285.703 3.2382 288.06 12.5896L288.273 13.4157C291.081 24.1256 294.976 31.1856 298.126 30.3588C301.366 29.5083 302.373 26.3692 301.58 21.4862C301.02 18.0304 299.555 13.9655 298.153 11.1439L298.12 11.0742C298.042 10.9043 297.847 10.4705 297.58 9.87669C296.748 8.02116 295.213 4.60306 294.339 2.79005L293.927 1.95274Z" fill="white"/><path id="Path 15_2" d="M255.194 -84.48L256.148 -84.1822C248.883 -60.8923 246.084 -41.0062 246.874 -22.2678C247.475 -8.01104 249.752 3.84345 254.811 22.3912L257.584 32.3915C263.057 52.1649 265.442 63.1411 266.727 77.3553L266.785 78.0037C268.503 97.6469 266.957 118.406 261.399 142.551C245.03 213.661 259.07 249.581 303.455 250.713L304.809 250.737L304.8 251.736C258.998 251.3 244.066 215.417 259.934 144.487L260.425 142.327C265.96 118.282 267.497 97.628 265.789 78.0908L265.672 76.8052C264.361 62.759 261.921 51.7424 256.37 31.7526L254.371 24.5669L253.59 21.71C248.692 3.63351 246.47 -8.12248 245.875 -22.2257C245.093 -40.7734 247.803 -60.4277 254.838 -83.332L255.194 -84.48Z" fill="white"/><path id="Path 16_2" d="M234.395 -98.4849L235.02 -97.7041C214.056 -80.9262 206.052 -63.3008 207.968 -42.4928C208.779 -33.6793 211.325 -24.2901 215.668 -13.1617L216.188 -11.8401C217.775 -7.85037 219.592 -3.61827 221.817 1.32323L223.834 5.75378L229.488 17.9677C241.827 44.6841 247.688 60.8566 250.27 79.4516C256.769 126.263 247.831 180.344 223.467 241.697L222.724 243.558L221.796 243.186C246.66 181.216 255.817 126.683 249.279 79.5891L249.1 78.3333C246.57 61.2164 241.138 45.9037 230.218 21.9546L222.707 5.69575C222.276 4.75581 221.872 3.86962 221.478 2.99951L220.537 0.91407C218.229 -4.23373 216.366 -8.62068 214.736 -12.7982C210.362 -24.0065 207.793 -33.4813 206.972 -42.4012C205.044 -63.3417 213.014 -81.143 233.762 -97.9751L234.395 -98.4849Z" fill="white"/><path id="Path 17_2" d="M207.42 -92.4558L208.275 -91.936L207.649 -90.8958C200.006 -78.0424 195.127 -64.2373 192.868 -42.0886C189.548 -9.54169 193.844 33.1574 207.903 88.2099L208.332 89.882C229.553 172.206 226.976 230.345 200.529 264.292L199.721 265.314L198.942 264.687C225.627 231.53 228.669 174.173 207.997 92.6106L207.363 90.1316C192.936 34.1632 188.507 -9.18665 191.873 -42.1901C194.148 -64.4923 199.076 -78.434 206.789 -91.406L207.42 -92.4558Z" fill="white"/><path id="Path 18_4" fill-rule="evenodd" clip-rule="evenodd" d="M154.283 156.858C154.283 139.175 160.33 122.095 169.306 111.557C177.998 101.353 187.355 99.9914 191.92 109.452C196.61 119.171 201.63 141.899 203.629 163.089L203.76 164.515C206.035 190.32 203.619 209.145 195.695 214.938C177.97 227.897 154.283 194.769 154.283 156.858ZM202.7 163.894C200.757 142.612 195.7 119.587 191.019 109.886C186.845 101.236 178.359 102.471 170.068 112.205C161.249 122.559 155.283 139.408 155.283 156.858C155.283 194.105 178.357 226.375 195.105 214.13C202.619 208.637 205.007 190.04 202.763 164.603L202.7 163.894Z" fill="white"/><path id="Path 18_5" fill-rule="evenodd" clip-rule="evenodd" d="M169.751 158.038C169.751 146.197 172.81 134.758 177.36 127.687C181.837 120.729 186.867 119.76 189.254 126.307C191.68 132.964 194.278 148.711 195.24 163.155L195.317 164.354C196.335 181.039 195.078 193.136 191.118 196.969C186.684 201.259 181.241 198.36 176.844 190.218C172.496 182.168 169.751 170.195 169.751 158.038ZM194.198 162.568C193.208 148.391 190.666 133.101 188.314 126.65C186.286 121.086 182.303 121.853 178.201 128.229C173.76 135.13 170.751 146.382 170.751 158.038C170.751 170.036 173.459 181.846 177.724 189.742C181.855 197.391 186.62 199.93 190.422 196.25C194.166 192.627 195.373 180.186 194.242 163.221L194.198 162.568Z" fill="white"/><path id="Path 18_6" fill-rule="evenodd" clip-rule="evenodd" d="M182.403 144.528C183.214 142.876 184.096 141.843 184.996 141.615C186.087 141.34 186.913 142.196 187.387 143.9C189.743 152.367 190.873 174.595 188.03 178.2C187.102 179.377 185.943 179.588 184.832 178.813C183.889 178.155 182.995 176.794 182.206 174.881C180.593 170.967 179.578 165.162 179.578 159.27C179.578 153.526 180.711 147.974 182.403 144.528ZM186.575 144.739L186.424 144.168C186.076 142.919 185.654 142.481 185.241 142.585C184.71 142.719 183.992 143.56 183.3 144.969C181.68 148.268 180.578 153.67 180.578 159.27C180.578 165.038 181.571 170.715 183.131 174.499C183.853 176.251 184.652 177.468 185.405 177.993C186.069 178.456 186.636 178.353 187.245 177.581C189.755 174.398 188.742 153.308 186.575 144.739Z" fill="white"/><path id="Path 19_2" d="M195.131 -98.5159L195.67 -97.6733C187.276 -92.3083 182.562 -81.8966 180.553 -66.1234L180.382 -64.7155C179.034 -53.1658 179.043 -42.2594 179.961 -17.881L180.363 -7.36053C180.675 1.23769 180.824 7.40444 180.832 13.4321L180.833 13.9798C180.833 29.4825 178.202 40.764 172.282 53.2889L171.95 53.986C169.47 59.1461 159.05 77.8022 156.766 82.0135L156.479 82.5476C149.221 96.2609 143.231 109.817 137.46 126.579C136.836 128.392 136.217 130.235 135.605 132.108C120.972 176.888 135.305 217.17 178.67 253.04L179.993 254.126L179.362 254.901C134.663 218.512 119.737 177.448 134.655 131.797C135.268 129.919 135.888 128.072 136.514 126.253C142.147 109.894 147.989 96.5746 155.008 83.1949L155.869 81.5712C158.13 77.3977 168.578 58.693 171.048 53.5529C177.028 41.1097 179.734 30.0259 179.83 14.8283L179.831 12.8862C179.816 7.5916 179.692 2.1332 179.444 -5.042L178.823 -21.6351C178.027 -43.9351 178.108 -54.2936 179.477 -65.5743C181.442 -81.7649 186.181 -92.5801 194.771 -98.2813L195.131 -98.5159Z" fill="white"/><path id="Path 20_2" d="M167.075 -104.649C167.075 -78.7253 163.795 -53.8248 157.489 -28.0006L156.933 -25.7474C152.449 -7.78638 147.125 8.7592 138.305 33.3073L129.534 57.4994C128.916 59.2138 128.343 60.8134 127.78 62.3922L127.031 64.5019C124.202 72.4878 121.877 79.3355 119.782 85.9162C114.165 103.562 110.354 118.934 108.11 133.993C100.786 183.126 116.05 221.764 153.924 249.981L155.078 250.833L154.488 251.64C115.466 223.128 99.6689 183.837 107.12 133.845C109.374 118.728 113.197 103.306 118.829 85.6129L119.662 83.0179C121.637 76.9224 123.834 70.5109 126.46 63.1192L128.593 57.1609L135.476 38.1996L137.728 31.9553C146.683 6.98069 151.986 -9.68017 156.518 -28.2378C162.672 -53.4398 165.935 -77.7526 166.071 -103.001L166.075 -104.649H167.075Z" fill="white"/><path id="Path 21_2" d="M147.732 -92.2L148.732 -92.1918C148.295 -38.3292 130.345 8.97494 94.8902 49.7C41.5075 111.019 62.6874 214.286 139.574 258.011L141.92 259.318L141.442 260.196C62.0959 216.956 39.7842 111.475 94.136 49.0434C129.081 8.90359 146.938 -37.6352 147.714 -90.5932L147.732 -92.2Z" fill="white"/></g></g></g></g></g></g><g id="Upper/Side" transform="translate(0 235) scale(1 1)"><g id="Upper/Side/Presenting"><path id="Combined Shape" fill-rule="evenodd" clip-rule="evenodd" d="M665.894 149.27C666.612 151.359 668.887 152.47 670.976 151.75C767.086 118.641 857.649 81.0128 942.663 38.8639C943.332 38.5325 943.894 38.0208 944.288 37.3864L963.69 6.08115C964.855 4.20272 964.277 1.73636 962.4 0.572362C960.523 -0.591636 958.058 -0.012488 956.894 1.86594L938.093 32.1999L935.896 33.2863C852.128 74.6362 762.955 111.602 668.375 144.184C666.287 144.903 665.176 147.18 665.894 149.27ZM699.046 277.264L860.843 368.853L902.452 364.608C904.582 364.391 906.492 365.89 906.81 367.985L906.836 368.184C907.053 370.316 905.555 372.227 903.461 372.545L903.263 372.57L860.389 376.944C859.648 377.02 858.902 376.887 858.235 376.562L858.015 376.446L501.027 174.365C499.104 173.277 498.428 170.836 499.515 168.912C500.567 167.05 502.886 166.356 504.776 167.299L504.964 167.399L691.085 272.757C838.427 182.625 948.904 106.837 1022.48 45.4311C1024.18 44.0154 1026.7 44.2431 1028.11 45.9399C1029.53 47.6366 1029.3 50.1598 1027.6 51.5756C954.307 112.746 844.799 187.963 699.046 277.264ZM989.124 61.9259C987.359 63.2558 984.852 62.9032 983.524 61.1383C982.239 59.4304 982.528 57.0257 984.147 55.6671L984.314 55.5348L1020.2 28.4882C1021.96 27.1583 1024.47 27.5109 1025.8 29.2758C1027.08 30.9837 1026.8 33.3884 1025.18 34.747L1025.01 34.8793L989.124 61.9259ZM962.482 39.0977C963.875 40.8123 966.393 41.0722 968.108 39.6782L1003.39 10.9848L1003.56 10.8465C1005.12 9.42902 1005.32 7.01537 1003.98 5.35603C1002.58 3.64138 1000.07 3.38147 998.351 4.77551L963.065 33.4689L962.904 33.6072C961.336 35.0247 961.135 37.4383 962.482 39.0977ZM979.476 50.4744C977.752 51.8567 975.235 51.5796 973.855 49.8554C972.518 48.1869 972.736 45.7746 974.314 44.368L974.476 44.2307L1014.93 11.7912C1016.66 10.4089 1019.17 10.6861 1020.55 12.4102C1021.89 14.0788 1021.67 16.491 1020.09 17.8976L1019.93 18.0349L979.476 50.4744ZM486.256 303.53C487.008 301.526 489.195 300.48 491.21 301.122L491.405 301.19L896.265 453.251C898.333 454.027 899.38 456.334 898.604 458.403C897.852 460.408 895.665 461.454 893.65 460.811L893.455 460.744L488.595 308.683C486.527 307.906 485.48 305.599 486.256 303.53ZM867.961 426.136C865.926 425.557 863.773 426.671 863.084 428.698C862.373 430.791 863.492 433.064 865.583 433.775L915.566 450.782L915.762 450.843C917.797 451.422 919.95 450.308 920.638 448.281C921.349 446.189 920.231 443.916 918.14 443.205L868.157 426.198L867.961 426.136ZM870.055 412.772C870.701 410.731 872.83 409.572 874.877 410.108L875.075 410.165L935.054 429.173C937.159 429.84 938.326 432.089 937.659 434.196C937.013 436.237 934.884 437.396 932.837 436.86L932.64 436.803L872.66 417.795C870.555 417.128 869.389 414.879 870.055 412.772ZM877.737 392.067C875.673 391.604 873.586 392.839 873.014 394.902C872.423 397.031 873.668 399.237 875.796 399.828L929.778 414.834L929.977 414.885C932.042 415.347 934.128 414.113 934.701 412.05C935.292 409.92 934.046 407.715 931.918 407.123L877.937 392.117L877.737 392.067Z" fill="#001D2D"/></g></g><g id="Heads" transform="translate(501.137 165.421) scale(1 1)"><g id="Heads/Wide"><g id="Patterns"><path id="Mask" fill-rule="evenodd" clip-rule="evenodd" d="M57.366 40.3249C39.1737 45.033 21.7672 54.7631 10.7108 69.9844C-0.345563 85.2043 -4.09743 106.33 3.88277 123.371C9.86792 136.15 21.6585 145.489 34.5622 151.155C47.4659 156.821 61.5386 159.193 75.4872 161.178C101.795 164.923 129.298 167.356 154.365 158.525C179.432 149.692 201.348 126.656 200.738 100.04C200.267 79.4103 186.363 60.7819 168.696 50.1751C137.562 31.4824 91.7011 31.4392 57.366 40.3249" fill="#FF996B"/><mask id="mask0_203_43638adb7771f-24af-4b13-adc4-494de073d748" style="mask-type:alpha" maskUnits="userSpaceOnUse" x="-1" y="34" width="202" height="131" fill="#ffffff"><path id="Mask_2" fill-rule="evenodd" clip-rule="evenodd" d="M57.366 40.3249C39.1737 45.033 21.7672 54.7631 10.7108 69.9844C-0.345563 85.2043 -4.09743 106.33 3.88277 123.371C9.86792 136.15 21.6585 145.489 34.5622 151.155C47.4659 156.821 61.5386 159.193 75.4872 161.178C101.795 164.923 129.298 167.356 154.365 158.525C179.432 149.692 201.348 126.656 200.738 100.04C200.267 79.4103 186.363 60.7819 168.696 50.1751C137.562 31.4824 91.7011 31.4392 57.366 40.3249" fill="#ffffff"/></mask><g mask="url(#mask0_203_43638adb7771f-24af-4b13-adc4-494de073d748)"><g id="Patterns_2"><g id="Group"><path id="Path 7" d="M291.108 147.73C255.358 190.903 225.742 212.512 202.183 212.512C194.567 212.512 186.906 211.856 178.322 210.567L176.859 210.342C173.425 209.805 169.816 209.166 165.653 208.371L162.25 207.711L150.821 205.427C125.892 200.46 109.798 198.361 89.0476 198.361C73.6428 198.361 59.4579 200.171 39.8043 204.021L36.981 204.583C34.2519 205.137 23.2808 207.36 20.1169 207.96L18.666 208.232C13.2046 209.244 8.87942 209.896 5.0011 210.257C-4.92556 211.181 -11.8399 210.118 -16.736 206.468L-17.0162 206.254L-16.402 205.465C-11.825 209.027 -5.23887 210.139 4.34143 209.312L4.90845 209.262C8.9198 208.888 13.4258 208.199 19.2018 207.115L22.3238 206.511C27.6386 205.461 37.5901 203.439 37.4022 203.477L38.5144 203.256C58.7985 199.246 73.2792 197.361 89.0476 197.361C109.205 197.361 124.982 199.334 148.625 203.973L162.708 206.782C163.48 206.933 164.215 207.076 164.942 207.216L166.722 207.556C171.088 208.383 174.849 209.033 178.471 209.578C187.009 210.861 194.62 211.512 202.183 211.512C225.121 211.512 254.176 190.48 289.273 148.374L290.338 147.092L291.108 147.73Z" fill="white"/><path id="Path 10" d="M291.105 138.504C271.371 161.954 248.132 178.004 221.397 186.647C212.094 189.655 200.756 190.446 186.399 189.441L184.228 189.279C175.074 188.562 167.843 187.585 149.892 184.742L135.87 182.512C126.941 181.111 120.801 180.227 114.256 179.426C90.5704 176.527 71.9999 176.371 55.5022 179.73L54.7181 179.893C18.0252 187.644 -5.82276 184.481 -16.7828 170.291L-17.111 169.858L-16.308 169.262C-5.90556 183.274 17.3208 186.605 53.4138 179.144L54.5115 178.915C70.8072 175.472 89.0379 175.473 112.128 178.165L114.377 178.434C121.263 179.276 127.698 180.21 137.384 181.738L153.095 184.235C169.61 186.829 176.389 187.697 185.608 188.382C200.258 189.47 211.744 188.717 221.089 185.696C247.34 177.209 270.199 161.531 289.67 138.652L290.34 137.86L291.105 138.504Z" fill="white"/><path id="Path 11" d="M290.751 125.993L290.695 126.991C276.027 126.176 264.447 130.114 247.866 139.863L246.097 140.913C245.506 141.266 244.891 141.636 244.226 142.039L237.852 145.92C225.6 153.362 217.878 157.358 208.521 160.5C196.698 164.47 184.371 165.946 170.453 164.611L169.543 164.52C135.097 160.929 100.988 163.073 60.8105 169.351L58.0084 169.795C49.9694 171.094 30.452 174.442 27.0231 174.976C8.57572 177.847 -6.05587 171.768 -16.7942 156.769L-17.1184 156.312L-16.3 155.737C-5.85967 170.604 8.31839 176.705 26.3116 174.072L26.8693 173.988C30.3788 173.441 50.8424 169.929 58.4617 168.709L59.0219 168.62C99.4426 162.219 133.708 159.937 168.246 163.382L169.647 163.525C183.794 165 196.257 163.563 208.203 159.552C216.927 156.622 224.232 152.936 235.227 146.337L244.103 140.945C244.88 140.475 245.592 140.049 246.286 139.636L246.632 139.431C263.512 129.422 275.291 125.271 290.105 125.96L290.751 125.993Z" fill="white"/><path id="Path 12" fill-rule="evenodd" clip-rule="evenodd" d="M38.2318 131.534C47.757 132.766 55.4744 135.529 59.1988 139.312C63.5711 143.753 62.3269 149.261 54.9278 155.184C40.4658 166.761 26.2143 170.818 14.9718 167.579C4.62304 164.598 -1.83741 155.644 -1.83741 144.335C-1.83741 133.84 17.4513 128.845 38.2318 131.534ZM15.2486 166.618C26.1465 169.758 40.0753 165.793 54.3028 154.403C61.2873 148.812 62.3811 143.97 58.4862 140.013C54.9551 136.426 47.4269 133.732 38.1035 132.525C17.8789 129.908 -0.837414 134.755 -0.837414 144.335C-0.837414 155.206 5.33622 163.763 15.2486 166.618Z" fill="white"/><path id="Path 12_2" fill-rule="evenodd" clip-rule="evenodd" d="M35.1798 137.993C41.2103 138.781 46.1013 140.549 48.4802 142.991C51.3162 145.901 50.507 149.52 45.777 153.345C36.6347 160.738 27.6076 163.334 20.4692 161.257C13.8775 159.339 9.76123 153.575 9.76123 146.309C9.76123 139.473 22.0041 136.27 35.1798 137.993ZM20.7486 160.297C27.5393 162.273 36.2412 159.77 45.1482 152.568C49.4674 149.075 50.1291 146.115 47.764 143.688C45.5783 141.446 40.8778 139.746 35.0502 138.984C22.4284 137.334 10.7612 140.386 10.7612 146.309C10.7612 153.14 14.5934 158.506 20.7486 160.297Z" fill="white"/><path id="Path 12_3" fill-rule="evenodd" clip-rule="evenodd" d="M31.942 145.106C34.266 145.405 36.1584 146.077 37.111 147.037C38.3273 148.263 37.9753 149.81 36.0698 151.324C29.1369 156.832 22.0582 154.808 22.0582 148.483C22.0582 145.781 26.4732 144.544 31.3646 145.04L31.942 145.106ZM23.0582 148.483C23.0582 153.856 29.1008 155.583 35.4477 150.541C36.9355 149.359 37.1352 148.482 36.401 147.742C35.6419 146.976 33.9375 146.371 31.8147 146.098C27.2564 145.513 23.0582 146.592 23.0582 148.483Z" fill="white"/><path id="Path 13" d="M290.746 116.149L290.699 117.148L288.11 117.033C261.085 115.897 239.15 117.082 220.797 120.289C206.026 122.871 194.336 126.526 181.953 131.89L180.999 132.306C177.723 133.744 165.106 139.668 161.911 141.042C148.988 146.598 138.469 148.768 124.065 147.91C103.704 146.697 89.4395 142.552 72.9346 134.576L71.7449 133.994C69.6043 132.927 60.406 128.288 57.6544 127.006C47.6711 122.355 39.7233 120.224 30.02 120.224C9.08583 120.224 -6.23013 127.18 -15.9846 141.09L-16.2973 141.541L-17.1222 140.976C-7.18501 126.475 8.54856 119.224 30.02 119.224C39.6461 119.224 47.576 121.287 57.3409 125.76L58.0768 126.1C61.0572 127.489 71.5093 132.769 72.5466 133.276C89.2938 141.46 103.568 145.687 124.124 146.912C138.087 147.743 148.328 145.702 160.781 140.437L161.516 140.123C164.692 138.757 177.304 132.836 180.597 131.39C193.406 125.768 205.391 121.967 220.625 119.304C239.345 116.033 261.757 114.858 289.444 116.089L290.746 116.149Z" fill="white"/><path id="Path 14" fill-rule="evenodd" clip-rule="evenodd" d="M203.592 130.854C221.471 126.133 238.202 124.858 240.137 128.73C241.368 131.195 239.606 133.981 235.478 137.084C232.635 139.221 228.723 141.473 223.827 143.898L223.623 143.998C220.494 145.536 213.999 148.47 210.646 149.984C209.609 150.452 208.873 150.785 208.629 150.899L208.022 151.197C202.977 153.655 195.987 156.149 189.966 157.133C180.762 158.637 174.528 156.624 172.8 149.998C171.062 143.331 183.366 136.346 202.417 131.169L203.592 130.854ZM223.984 142.703C228.549 140.417 232.209 138.29 234.878 136.284C238.653 133.447 240.174 131.041 239.242 129.177C237.659 126.009 221.07 127.273 203.848 131.821L203.277 131.973C184.512 137 172.239 143.882 173.768 149.746C175.329 155.732 181.046 157.577 189.805 156.146C195.927 155.146 203.112 152.539 208.108 150.04C208.23 149.979 209.063 149.602 210.299 149.044C213.61 147.548 219.81 144.746 222.969 143.205L223.984 142.703Z" fill="white"/><path id="Path 14_2" fill-rule="evenodd" clip-rule="evenodd" d="M198.776 137.715C208.464 135.171 217.417 134.493 218.531 136.71C219.259 138.159 218.262 139.727 215.978 141.434C214.447 142.578 212.351 143.778 209.728 145.07L209.4 145.229C207.653 146.072 204.382 147.541 202.676 148.307C202.17 148.535 201.801 148.7 201.652 148.769L201.145 149.014C198.449 150.302 194.781 151.592 191.606 152.108C186.595 152.922 183.151 151.817 182.19 148.153C181.217 144.441 187.744 140.722 197.92 137.944L198.776 137.715ZM210.226 143.702C212.362 142.613 214.092 141.595 215.379 140.633C217.309 139.191 218.063 138.005 217.637 137.159C216.898 135.689 208.58 136.273 199.838 138.474L199.03 138.682C189.002 141.315 182.389 144.967 183.157 147.899C183.95 150.923 186.879 151.863 191.446 151.121C194.685 150.595 198.495 149.22 201.14 147.905C201.207 147.871 201.661 147.667 202.332 147.366C204.186 146.533 207.696 144.955 209.286 144.172L210.226 143.702Z" fill="white"/><path id="Path 15" d="M290.872 107.557L290.574 108.512C268.728 101.69 250.076 99.0614 232.5 99.8035L231.078 99.8699C218.35 100.523 207.428 102.668 190.702 107.232L188.485 107.841L181.152 109.882C162.661 115.003 152.374 117.24 139.068 118.446L138.432 118.503C120.324 120.088 101.206 118.715 79.0569 113.715L77.8675 113.444C11.1725 98.0742 -22.5048 111.252 -23.5656 152.912L-23.5878 154.183L-24.5878 154.174C-24.1781 111.135 9.5066 97.1023 76.0651 112.009L78.0921 112.469C100.647 117.667 120.02 119.111 138.345 117.507L139.605 117.392C152.328 116.199 162.413 114.015 180.017 109.159L188.553 106.785L190.442 106.266C207.853 101.516 219.02 99.3717 232.458 98.8044C249.852 98.07 268.283 100.613 289.759 107.212L290.872 107.557Z" fill="white"/><path id="Path 16" d="M304.025 88.0344L303.244 88.6589C287.51 68.9792 270.985 61.4665 251.475 63.2645C243.21 64.0262 234.405 66.4168 223.967 70.4939L222.665 71.0077C219.17 72.4008 215.474 73.9825 211.222 75.89L208.785 76.9909C207.554 77.551 206.274 78.1376 204.829 78.8049L194.765 83.4726C169.698 95.062 154.524 100.568 137.075 102.993C93.1536 109.097 42.4121 100.702 -15.1497 77.8187L-16.8961 77.1209L-16.5234 76.1929C41.6087 99.5423 92.7624 108.142 136.938 102.002L138.157 101.827C154.775 99.3634 169.59 93.9755 193.468 82.9701L205.352 77.4627C206.731 76.8279 207.97 76.2617 209.188 75.71L211.607 74.6222C216.065 72.6325 219.921 71.0009 223.603 69.5625C234.121 65.4541 243.012 63.0402 251.384 62.2687C271.04 60.4573 287.75 67.9467 303.547 87.4401L304.025 88.0344Z" fill="white"/><path id="Path 17" d="M298.361 62.6943L297.841 63.5483C285.505 56.0346 272.425 51.2618 251.09 49.0834C220.56 45.9662 180.506 50.0004 128.862 63.2026L127.294 63.6054C50.0532 83.5379 -4.49815 81.1171 -36.3554 56.2721L-37.3138 55.5124L-36.6864 54.7337C-5.59033 79.7878 48.2096 82.6444 124.718 63.2322L127.044 62.6372C179.554 49.0867 220.226 44.9268 251.192 48.0886C272.386 50.2527 285.536 54.9735 297.842 62.3797L298.361 62.6943Z" fill="white"/><path id="Path 18" fill-rule="evenodd" clip-rule="evenodd" d="M64.4529 12.786C81.0497 12.786 97.0806 18.4676 106.972 26.9025C116.559 35.077 117.841 43.8911 108.941 48.1903C99.8256 52.5935 78.5258 57.3049 58.656 59.1861L57.2723 59.3127C33.0523 61.4511 15.3847 59.1804 9.94106 51.7265C-2.23789 35.0501 28.8668 12.786 64.4529 12.786ZM57.8718 58.2547C77.8285 56.4287 99.4122 51.6826 108.506 47.2899C116.596 43.3816 115.441 35.4382 106.324 27.6634C96.6162 19.3858 80.8162 13.786 64.4529 13.786C29.5304 13.786 -0.717293 35.4366 10.7486 51.1367C15.8933 58.1812 33.3322 60.4225 57.1843 58.3165L57.8718 58.2547Z" fill="white"/><path id="Path 18_2" fill-rule="evenodd" clip-rule="evenodd" d="M63.3461 27.3123C74.4597 27.3123 85.1975 30.187 91.8358 34.4629C98.3815 38.6791 99.297 43.4351 93.1243 45.6875C87.0718 47.896 73.0161 50.2551 59.8216 51.2221L58.5477 51.3113C42.3034 52.3947 30.4916 51.248 26.8006 47.4302C22.7569 43.2477 25.488 38.1155 33.1417 33.9772C40.6986 29.8913 51.9359 27.3123 63.3461 27.3123ZM59.1133 50.2703C72.4052 49.3396 86.736 46.9541 92.7815 44.7481C97.9716 42.8542 97.2575 39.1446 91.2943 35.3036C84.8252 31.1367 74.2753 28.3123 63.3461 28.3123C52.095 28.3123 41.0209 30.8539 33.6173 34.8569C26.4566 38.7286 24.0859 43.1837 27.5195 46.7351C30.8259 50.1551 42.0051 51.3169 57.3108 50.3881L59.1133 50.2703Z" fill="white"/><path id="Path 18_3" fill-rule="evenodd" clip-rule="evenodd" d="M76.0345 39.1974C77.5917 39.9629 78.5672 40.7963 78.7833 41.653C79.0468 42.6979 78.2305 43.4862 76.618 43.9353C68.6658 46.1497 47.8052 47.2115 44.412 44.5331C43.2958 43.652 43.0942 42.5459 43.8309 41.4893C44.4527 40.5976 45.7339 39.7548 47.5336 39.0122C51.2091 37.4955 56.6589 36.541 62.191 36.541C67.5841 36.541 72.7974 37.6062 76.0345 39.1974ZM45.0316 43.7482C48.0757 46.1511 68.7037 45.1012 76.3498 42.9719L76.5463 42.9144C77.5532 42.6042 77.9008 42.2432 77.8136 41.8976C77.6906 41.4099 76.9076 40.7409 75.5934 40.0948C72.5027 38.5756 67.4392 37.541 62.191 37.541C56.7831 37.541 51.4619 38.473 47.9151 39.9366C46.2764 40.6127 45.14 41.3603 44.6512 42.0613C44.2259 42.6712 44.3198 43.1863 45.0316 43.7482Z" fill="white"/><path id="Path 19" d="M304.057 51.1625L303.214 51.7006C298.19 43.8319 288.439 39.4089 273.665 37.5212L273.01 37.4395C261.569 36.0493 251.109 36.0827 226.171 37.047L219.169 37.3152C210.773 37.6241 204.834 37.7717 199.037 37.7804L198.493 37.7808C183.955 37.7808 173.371 35.3123 161.627 29.759L160.948 29.4351C155.855 26.9852 136.757 16.2858 134.152 14.9056C121.288 8.08927 108.573 2.46483 92.849 -2.95467C91.1477 -3.54105 89.4193 -4.12154 87.6622 -4.69632C45.6655 -18.4347 7.88762 -4.97881 -25.7559 35.7388L-26.7742 36.981L-27.55 36.3501C6.59604 -5.63888 45.1328 -19.6611 87.9731 -5.64676C89.7352 -5.07034 91.4686 -4.48818 93.1748 -3.90009C108.499 1.38175 120.981 6.85995 133.514 13.4386L134.984 14.217C138.66 16.2049 156.512 26.1914 161.382 28.534C173.043 34.1439 183.43 36.6842 197.668 36.7781L199.578 36.7792C204.649 36.764 209.886 36.6421 216.838 36.3984L232.031 35.8279C252.866 35.0855 262.567 35.1631 273.13 36.4468C288.315 38.2922 298.465 42.74 303.823 50.8044L304.057 51.1625Z" fill="white"/></g></g></g></g></g></g><g id="Eyes" transform="translate(582 235.421) scale(1 1)"><g id="Eyes/Joy"><path id="Stroke 1" d="M85.1549 32.4535C87.3582 32.6131 89.2738 30.9564 89.4335 28.7531L89.506 27.7093C89.8978 21.7842 89.7344 18.6531 88.4203 14.9397C86.4177 9.2768 81.4103 4.96195 75.673 5.00004C70.131 5.03854 65.2924 9.12901 63.2065 14.5599C61.7636 18.3208 61.5508 21.4642 61.7598 27.8909C61.8315 30.0989 63.6796 31.8306 65.8876 31.7589C68.0956 31.6871 69.8273 29.839 69.7555 27.631L69.7175 26.2769C69.6158 21.837 69.8262 19.6397 70.6751 17.4269C71.6717 14.8321 73.8235 13.0131 75.7273 12.9999C77.6941 12.9868 79.9235 14.9079 80.8783 17.6077C81.7756 20.1433 81.8547 22.6518 81.4544 28.1748C81.2948 30.3782 82.9515 32.2938 85.1549 32.4535Z" fill="#001D2D"/><path id="Stroke 3" d="M16.3344 32.4623L16.5339 32.4527C18.7373 32.2931 20.394 30.3774 20.2343 28.1741L20.1705 27.2563C19.8458 22.3645 19.9644 19.9981 20.8103 17.6079C21.7661 14.9081 23.9958 12.9868 25.9599 12.9998C27.8663 13.0131 30.0179 14.8318 31.0135 17.4238L31.17 17.8532C31.963 20.1493 32.0984 22.5898 31.9325 27.6287C31.8599 29.8366 33.5909 31.6854 35.7988 31.7581C38.0067 31.8308 39.8555 30.0998 39.9282 27.8918L39.9593 26.853C40.1116 21.1292 39.8452 18.1138 38.4827 14.5583C36.3972 9.12857 31.5585 5.03852 26.0142 5.00002C20.28 4.96193 15.2736 9.27597 13.2688 14.9385C11.8792 18.8649 11.776 22.1396 12.2552 28.7523C12.4101 30.8889 14.2161 32.5115 16.3344 32.4623Z" fill="#001D2D"/><path id="Fill 4" fill-rule="evenodd" clip-rule="evenodd" d="M66.8474 43.4068L66.7216 43.4827C64.209 44.9882 61.7611 46.1679 59.2213 46.9443C56.6884 47.7291 54.0976 48.119 51.5001 48.1257C48.9026 48.1224 46.3101 47.7291 43.7806 46.9426C41.2391 46.1646 38.7912 44.9814 36.2837 43.4709L36.1562 43.3932C35.2978 42.8785 34.186 42.8515 33.2799 43.4169C31.9998 44.2152 31.6156 45.8945 32.4214 47.1654C34.3492 50.2101 37.251 52.7063 40.5863 54.4042C43.9268 56.1021 47.7109 56.9966 51.4967 57C55.2825 57.005 59.07 56.1122 62.4139 54.416C65.7492 52.7232 68.6527 50.2287 70.5805 47.1789C71.1109 46.3384 71.1585 45.2363 70.6077 44.3283C69.8257 43.0439 68.1427 42.6304 66.8474 43.4068" fill="#001D2D"/></g></g><g id="Lower/Side" transform="translate(0 700) scale(1 1)"><g id="Lower/Side/Presenting"><path id="Legs" fill-rule="evenodd" clip-rule="evenodd" d="M659.116 66.3397C658.75 64.1609 656.687 62.6906 654.506 63.0556C652.326 63.4206 650.854 65.4828 651.22 67.6615C669.641 177.536 693.411 297.61 722.53 427.887L724.319 435.876C724.697 437.562 726.117 438.814 727.838 438.981L773.376 443.405L773.597 443.433C774.843 443.624 775.932 444.394 776.526 445.515C777.561 447.467 776.815 449.888 774.861 450.921L703.688 488.57L703.595 488.615C701.59 489.546 699.209 488.677 698.277 486.674C635.308 351.343 591.676 258.319 567.377 207.591L564.103 200.77C570.255 157.121 575.251 113.314 579.093 69.3485C579.285 67.1477 577.655 65.2079 575.453 65.0158C573.25 64.8237 571.309 66.452 571.117 68.6527C559.579 200.711 537.584 331.333 505.133 460.521C504.731 462.122 505.354 463.805 506.702 464.759L534.928 484.736L535.111 484.873C536.06 485.629 536.618 486.779 536.618 488L536.613 488.2C536.509 490.316 534.758 492 532.615 492H460.878L460.362 477.05C453.601 280.608 450.15 151.272 450.011 89.091L450.006 85.2531C450.006 83.044 448.214 81.2531 446.003 81.2531C443.792 81.2531 442 83.044 442 85.2531C442 145.353 445.383 273.963 452.148 471.135L453.011 496.139C453.086 498.293 454.855 500 457.012 500H532.615L532.92 499.996C539.411 499.834 544.624 494.525 544.624 488L544.619 487.647C544.508 483.888 542.638 480.389 539.556 478.208L513.563 459.811L514.839 454.691C534.507 375.338 550.245 295.445 562.054 215.012C584.017 260.95 620.594 338.858 671.779 448.726L691.017 490.047C693.814 496.057 700.956 498.663 706.97 495.869C707.047 495.833 707.124 495.797 707.2 495.759C707.31 495.706 707.418 495.65 707.526 495.593L778.607 457.992L778.879 457.843C784.538 454.664 786.657 447.537 783.602 441.772L783.436 441.469C781.512 438.076 778.05 435.821 774.15 435.443L731.498 431.298L729.455 422.163C700.771 293.555 677.325 174.946 659.116 66.3397Z" fill="#001D2D"/></g></g><g id="Head Accesory" transform="matrix(-0.707107 0.707107 0.707107 0.707107 460 -17.4214) scale(1 1)"><g id="Head Accesory/Bow"><path id="Path 182" fill-rule="evenodd" clip-rule="evenodd" d="M95.8288 134.999C95.8288 134.999 64.933 108.517 57.209 117.345C49.4851 126.172 57.209 140.516 57.209 140.516C57.209 140.516 41.7611 162.585 59.4159 166.999C77.0706 171.412 95.8288 147.137 95.8288 147.137C95.8288 147.137 117.897 170.309 139.966 166.999C162.034 163.688 139.966 140.516 139.966 140.516C139.966 140.516 156.517 109.621 142.173 106.31C127.828 103 95.8288 134.999 95.8288 134.999Z" fill="#A98AFF"/><path id="Combined Shape" fill-rule="evenodd" clip-rule="evenodd" d="M134.911 122.586C134.682 122.083 134.089 121.861 133.586 122.09L103.762 135.646C102.338 123.924 95.0002 128 95.0002 128C95.0002 128 88.0002 123 88.0002 137C88.0002 137.136 88.0006 137.272 88.0014 137.407L70.3384 131.059L70.2264 131.026C69.7389 130.912 69.2326 131.179 69.0592 131.662C68.8724 132.182 69.1423 132.754 69.662 132.941L88.0474 139.548C88.0904 140.671 88.162 141.719 88.2588 142.693L67.5864 152.09L67.4831 152.144C67.0542 152.402 66.8777 152.947 67.0899 153.414C67.3184 153.917 67.9113 154.139 68.414 153.91L88.5188 144.772C89.6968 152.459 92.6543 154.564 95.0002 153C96.0525 153 97.0125 153.123 97.8802 153.234C101.369 153.681 103.366 153.937 103.872 145.235L133.662 155.941L133.774 155.974C134.262 156.088 134.768 155.821 134.941 155.338C135.128 154.818 134.858 154.246 134.338 154.059L103.96 143.142C103.987 142.184 104 141.139 104 140C104 139.207 103.981 138.461 103.943 137.761L134.414 123.91L134.517 123.856C134.946 123.598 135.123 123.053 134.911 122.586Z" fill="#7344BE"/></g></g></g></g><g id="Plants" transform="translate(300 878) scale(1 1)"><g id="Plants/Basic"><path id="Path 132" d="M202.814 16.4846C211.812 5.91244 225.841 6.62664 234.147 18.0798C242.453 29.5329 241.892 47.3879 232.894 57.96C211.724 82.8311 201.833 106.246 201.597 128.597L201.593 129.415C201.593 169.174 184.805 210.435 152.743 254.057C143.119 267.152 126.465 265.652 118.385 250.961L117.868 250.005C109.562 234.387 99.6166 203.405 86.7578 154.584L85.9503 151.509C74.7797 108.856 61.4266 82.3628 47.2683 71.1964L46.796 70.8299C36.2951 62.8106 32.89 45.4749 39.1906 32.1095C45.4912 18.744 59.1115 14.4101 69.6124 22.4294C94.4476 41.3953 113.313 78.2056 127.59 132.024L129.496 139.258C133.716 155.181 137.584 168.947 141.037 180.432L141.565 182.182L141.936 181.482C152.111 162.069 157.082 144.884 157.242 130.149L157.246 129.415C157.246 89.296 172.996 51.5173 202.814 16.4846Z" fill="#82D1C4"/><path id="Path 132_2" d="M104.215 42.8517C112.834 33.3269 125.179 35.6769 131.787 48.1006C154.306 90.4363 166 130.743 166 169.279C166 208.401 153.963 246.872 130.91 284.434C125.525 293.208 116.951 296.304 109.333 292.225C89.6086 281.666 76.2587 268.017 70.1068 248.621C63.0071 226.236 67.3717 202.966 79.8799 181.727L80.3196 180.987C81.342 179.281 82.1359 177.748 82.7127 176.418L82.9146 175.937L82.8666 175.879C82.067 174.913 81.0157 173.855 79.7092 172.739L79.2642 172.365C75.1904 168.993 69.4177 165.614 62.0201 162.415C51.617 157.917 45.7136 142.115 48.8346 127.12C51.9555 112.126 62.9188 103.617 73.3219 108.115C95.0013 117.49 109.769 129.713 117.507 147.77C127.164 170.307 126.495 189.051 126.664 170.235L126.668 169.279C126.668 144.826 118.26 115.845 100.573 82.5929C93.9648 70.1693 95.5952 52.3765 104.215 42.8517Z" fill="#59BCAB"/><path id="Path 132_3" d="M104.131 25.7821C107.643 9.61949 119.979 0.447815 131.685 5.2966C143.391 10.1454 150.033 27.1785 146.522 43.3411L145.908 46.1939C136.142 92.0049 134.175 122.846 138.1 135.981L139.936 141.829C143.588 153.527 147.934 167.953 152.98 185.124L156.406 196.838L156.584 196.259C158.333 190.415 159.189 183.739 159.253 176.037L159.257 175.108C159.257 146.776 168.889 124.068 186.804 112.002C201.446 102.14 220.533 99.9974 244.548 104.041C256.679 106.084 265.314 121.318 263.835 138.069C262.356 154.819 251.322 166.742 239.191 164.699L237.432 164.415C222.079 162.047 211.527 163.34 206.208 166.923C204.034 168.387 203.544 169.423 203.515 174.579L203.513 175.108C203.513 220.897 187.263 256.018 157.002 276C145.421 283.648 131.572 276.128 126.866 259.635L122.05 242.815C112.892 210.953 105.476 185.901 99.8242 167.719L97.6771 160.875C88.0797 130.585 90.927 86.554 104.131 25.7821Z" fill="#42AB99"/><path id="Rectangle" fill-rule="evenodd" clip-rule="evenodd" d="M60 240H200V254.894C200 269.307 194.037 283.077 183.526 292.939V292.939C178.691 297.475 172.31 300 165.68 300H94.3205C87.6902 300 81.3088 297.475 76.4735 292.939V292.939C65.9627 283.077 60 269.307 60 254.894V240Z" fill="#E4EDF1"/><path id="Combined Shape" fill-rule="evenodd" clip-rule="evenodd" d="M182 254C182 251.791 180.209 250 178 250H159L158.8 250.005C156.684 250.109 155 251.858 155 254C155 256.209 156.791 258 159 258H178L178.2 257.995C180.316 257.891 182 256.142 182 254ZM186 268C186 265.791 184.209 264 182 264H173L172.8 264.005C170.684 264.109 169 265.858 169 268C169 270.209 170.791 272 173 272H182L182.2 271.995C184.316 271.891 186 270.142 186 268ZM159 270C161.209 270 163 271.791 163 274C163 276.142 161.316 277.891 159.2 277.995L159 278H146C143.791 278 142 276.209 142 274C142 271.858 143.684 270.109 145.8 270.005L146 270H159ZM170 288C170 285.791 168.209 284 166 284H153L152.8 284.005C150.684 284.109 149 285.858 149 288C149 290.209 150.791 292 153 292H166L166.2 291.995C168.316 291.891 170 290.142 170 288Z" fill="#B9CCD4"/></g></g></g></svg>