<svg width="8" height="8" viewBox="0 0 8 8" fill="none" xmlns="http://www.w3.org/2000/svg">
<path d="M0.000324974 4.11903C-0.0174134 2.44832 0.690917 1.19882 2.15035 0.44092C4.52406 -0.791781 7.39752 0.685574 7.81129 3.316C8.13871 5.39749 6.81515 7.33833 4.75898 7.79184C2.58579 8.27115 0.394071 6.78644 0.0475602 4.59833C0.0235017 4.44641 0.0157948 4.2919 0.000324974 4.11903ZM1.02465 5.67205C1.82927 6.91237 2.96812 7.4733 4.43556 7.28734C6.28255 7.05327 7.57874 5.23989 7.26337 3.37618C6.93421 1.43103 5.01424 0.17641 3.1111 0.655588C0.943492 1.20136 -0.13997 3.67201 1.02465 5.67205Z" fill="#C25939"/>
<path d="M3.21181 5.86785C3.15099 6.03366 3.09802 6.1858 3.03777 6.335C2.95228 6.54674 2.79858 6.60632 2.6081 6.48301C2.38304 6.33732 2.16454 6.17969 1.95482 6.01265C1.76727 5.86326 1.76973 5.69417 1.95516 5.54348C2.42908 5.15834 2.90819 4.77962 3.38419 4.39704C3.46111 4.33521 3.54831 4.27369 3.6381 4.33406C3.74625 4.40678 3.71477 4.53111 3.67889 4.62965C3.52975 5.03922 3.3714 5.44543 3.21181 5.86785Z" fill="#C25939"/>
<path d="M1.70813 2.50741C2.25114 2.8553 2.78155 3.19635 3.30925 3.54154C3.39622 3.59844 3.51745 3.66016 3.47289 3.78835C3.42432 3.92808 3.2908 3.91404 3.16504 3.9088C2.60864 3.88557 2.052 3.86824 1.49541 3.84988C1.12211 3.83756 1.028 3.70825 1.13771 3.34986C1.20053 3.14464 1.26427 2.93957 1.33392 2.7366C1.39181 2.5679 1.4931 2.4551 1.70813 2.50741Z" fill="#C25939"/>
<path d="M5.03748 4.86263C5.32126 5.09974 5.59428 5.32726 5.8664 5.55584C6.0736 5.7299 6.07822 5.88417 5.86467 6.04826C5.66286 6.20333 5.45321 6.34948 5.23831 6.48586C5.01542 6.62731 4.86336 6.56714 4.77416 6.31633C4.57656 5.76068 4.3805 5.20447 4.18498 4.64809C4.14728 4.54082 4.09048 4.41682 4.21141 4.33736C4.31933 4.26646 4.41194 4.35079 4.49664 4.42106C4.67206 4.56658 4.84964 4.7095 5.03748 4.86263Z" fill="#C25939"/>
<path d="M5.13367 3.15508C5.45362 2.94364 5.76047 2.73863 6.07024 2.53811C6.24975 2.42191 6.41446 2.46021 6.49096 2.65937C6.59407 2.92778 6.68201 3.20385 6.75097 3.48294C6.8 3.68136 6.68702 3.80248 6.48111 3.81371C5.86523 3.84731 5.24929 3.87977 4.63327 3.9107C4.52889 3.91594 4.42224 3.90161 4.38585 3.78406C4.35153 3.67319 4.43605 3.60946 4.51417 3.5572C4.71475 3.42299 4.91901 3.29429 5.13367 3.15508Z" fill="#C25939"/>
<path d="M4.43764 2.05018C4.3227 2.46617 4.21169 2.86622 4.10499 3.26742C4.07904 3.36498 4.04491 3.45325 3.93011 3.45531C3.81379 3.4574 3.774 3.36337 3.74826 3.27118C3.57902 2.66505 3.41331 2.05794 3.24405 1.45182C3.19652 1.28162 3.26195 1.16243 3.42268 1.12943C3.74598 1.06305 4.07669 1.06983 4.40036 1.12327C4.58451 1.15367 4.64086 1.28564 4.59308 1.47206C4.5449 1.66006 4.49327 1.84717 4.43764 2.05018Z" fill="#C25939"/>
<path d="M4.46989 2.49664C4.58944 2.17372 4.70187 1.86493 4.81858 1.55776C4.90507 1.33013 5.0577 1.26937 5.25885 1.40189C5.48821 1.553 5.71034 1.71703 5.92306 1.89081C6.08745 2.02511 6.07912 2.19839 5.91334 2.33352C5.44004 2.71929 4.96326 3.10079 4.48722 3.48319C4.40676 3.54783 4.31432 3.61303 4.21487 3.54227C4.11488 3.47112 4.14837 3.3607 4.18288 3.2653C4.27411 3.01305 4.37036 2.76261 4.46989 2.49664Z" fill="#C25939"/>
<path d="M3.30924 5.97557C3.44435 5.5308 3.57525 5.10163 3.70812 4.67307C3.72579 4.61609 3.74484 4.55621 3.77826 4.50811C3.86262 4.38672 3.97293 4.39191 4.04835 4.51909C4.11453 4.6307 4.12459 4.76061 4.1544 4.88396C4.2738 5.37807 4.39438 5.8719 4.51323 6.36615C4.58552 6.6668 4.48556 6.7975 4.17284 6.7933C3.92521 6.78996 3.67744 6.77437 3.43042 6.7554C3.22133 6.73934 3.12513 6.59476 3.18213 6.39456C3.22062 6.25939 3.26429 6.12571 3.30924 5.97557Z" fill="#C25939"/>
<path d="M2.83398 1.41289C2.92234 1.46455 2.95008 1.54192 2.98017 1.61611C3.20451 2.16938 3.42784 2.72306 3.65097 3.27682C3.68887 3.37087 3.73814 3.47509 3.63819 3.55328C3.53225 3.63615 3.4347 3.56702 3.34742 3.50092C2.86589 3.13626 2.38406 2.77197 1.90487 2.40424C1.72035 2.26263 1.71274 2.08175 1.89284 1.93113C2.09346 1.76334 2.30394 1.60692 2.51524 1.45255C2.60409 1.38765 2.70871 1.35906 2.83398 1.41289Z" fill="#C25939"/>
<path d="M3.15133 4.44207C2.69622 4.73948 2.25397 5.02995 1.80938 5.3168C1.58304 5.46283 1.4228 5.4055 1.33424 5.14497C1.25672 4.9169 1.18531 4.68654 1.11874 4.45502C1.04689 4.20516 1.12415 4.07056 1.38207 4.05489C2.01702 4.01629 2.65263 3.98121 3.28938 3.98725C3.36637 3.98798 3.44005 4.00407 3.47171 4.08475C3.50449 4.16829 3.45249 4.22923 3.39525 4.27558C3.32277 4.33427 3.24099 4.38147 3.15133 4.44207Z" fill="#C25939"/>
<path d="M6.31638 5.40414C6.20881 5.44387 6.13239 5.4044 6.05809 5.35467C5.54578 5.01183 5.03326 4.66931 4.52116 4.32616C4.44214 4.2732 4.35164 4.21363 4.38208 4.10535C4.41577 3.98548 4.52966 3.9835 4.63244 3.98805C5.2611 4.01584 5.88976 4.04401 6.51827 4.07492C6.67059 4.08241 6.77011 4.18023 6.75221 4.32199C6.70688 4.68101 6.59422 5.02299 6.40987 5.33747C6.39441 5.36384 6.35759 5.3777 6.31638 5.40414Z" fill="#C25939"/>
</svg>
