<svg viewBox="350 325 1300 1350" fill="none" xmlns="http://www.w3.org/2000/svg" xmlns:xlink="http://www.w3.org/1999/xlink" overflow="visible" width="1300px" height="1350px"><g id="Master/Spot Illustrations/Running"><g id="Dust"><path id="Path 83" fill-rule="evenodd" clip-rule="evenodd" d="M1394.82 1529.7C1361.88 1528.8 1393.56 1530.38 1392.13 1521.59C1394.11 1533.73 1412 1532.28 1412 1519.98L1411.99 1519.14C1411.97 1518.58 1411.93 1518.03 1411.87 1517.48L1411.85 1517.28L1411.89 1517.07C1413.19 1510.61 1432.48 1510.73 1415.22 1510.25L1409.94 1510.11L1409.7 1509.56C1400.18 1488.75 1362.19 1475.24 1315.03 1473.76L1313.81 1473.72L1313.67 1473.33C1305.55 1451.3 1284.51 1429.24 1260.52 1415.54C1247.62 1408.16 1235.22 1404.14 1225.14 1404.67L1224.73 1404.69C1220.54 1404.97 1216.81 1406.05 1213.65 1407.84L1213.16 1408.12L1212.77 1407.53C1210.93 1404.83 1208.87 1402.18 1206.58 1399.6C1191.76 1382.97 1170.19 1373 1141.4 1373C1124.7 1373 1112.32 1377.89 1104.66 1387.44C1098.15 1395.55 1095.8 1405.96 1096.53 1417.86L1096.59 1418.79C1097.15 1426.24 1098.88 1433.96 1101.42 1441.7L1101.82 1442.92L1101.61 1442.97C1092.03 1445.05 1084 1449.3 1078.07 1455.45C1069.53 1464.33 1066.24 1476.41 1068.9 1488.42C1074.48 1513.57 1102.54 1530.68 1141.71 1529.98L1146.82 1529.9C1171.8 1529.56 1227.73 1529.35 1287.52 1529.35L1308.1 1529.35C1322.41 1529.36 1335.86 1529.39 1347.84 1529.42L1370.96 1529.52C1380.1 1529.57 1387.39 1529.63 1392.58 1529.7L1397.54 1529.78C1397.87 1529.79 1398.18 1529.8 1398.47 1529.81L1394.82 1529.7ZM1141.4 1383C1200.59 1383 1212.43 1429.51 1212.43 1429.51C1212.43 1389.76 1296.15 1437.12 1306.3 1483.62C1361.27 1483.62 1402 1500.53 1402 1519.98C1401.86 1519.13 1188.89 1519.13 1141.53 1519.98C1064.55 1521.35 1059.36 1451.49 1116.03 1451.49L1115.79 1450.99C1112.87 1444.81 1085.16 1383 1141.4 1383Z" fill="#0089C5" fill-opacity="0.25"/><path id="Path 83 Copy 2" fill-rule="evenodd" clip-rule="evenodd" d="M708.889 1442C663.082 1442 640.613 1462.61 639.463 1495.55C639.083 1506.45 641.084 1517.81 644.661 1529.1L644.972 1530.07L645.191 1530.74L644.903 1530.77C627.933 1533.14 613.973 1539.74 604.186 1549.91C592.14 1562.43 587.513 1579.41 591.274 1596.35C595.038 1613.32 606.804 1628.77 624.688 1639.67C643.906 1651.38 669.375 1657.51 699.602 1656.97L702.653 1656.92C753.983 1656.09 879.125 1656.1 1077.96 1656.97C1085.96 1657 1090.76 1648.08 1086.32 1641.42L1085.74 1640.57C1067.52 1614.12 1030.68 1600.83 975.859 1599.55L974.545 1599.53L974.177 1598.48C962.167 1565.09 925.088 1538.04 881.621 1526.52C860.033 1520.81 839.226 1519.83 823.118 1524.22L822.542 1524.38C816.804 1525.99 811.71 1528.3 807.37 1531.24L807.05 1531.46L807.046 1531.44C804.972 1521.41 802.024 1511.56 798.041 1502.18C790.925 1485.43 780.973 1471.36 767.714 1460.94C752.024 1448.61 732.41 1442 708.889 1442ZM966.959 1609.45C1024.31 1609.45 1061.32 1621.96 1078 1646.97L1025.06 1646.75C852.931 1646.09 744.385 1646.17 699.424 1646.97C578.952 1649.12 570.835 1539.79 659.505 1539.79L659.203 1539.16C655.519 1531.23 620.881 1452 708.889 1452C797.861 1452 800.615 1554.87 800.694 1563.02L800.696 1563.49L800.741 1561.69C803.69 1502.05 951.237 1537.41 966.959 1609.45Z" fill="#0089C5" fill-opacity="0.25"/><path id="Path 83 Copy" fill-rule="evenodd" clip-rule="evenodd" d="M410.095 1222C392.505 1222 380.451 1225.42 373.495 1232.95C366.575 1240.44 366.011 1250.12 369.813 1260.27L370.075 1260.95C371.773 1265.27 374.206 1269.61 377.194 1273.93L377.346 1274.15L376.992 1274.26C370.958 1276.13 365.693 1278.92 361.391 1282.58C352.716 1289.94 348.623 1300.33 350.41 1310.88C354.082 1332.57 379.221 1346.62 415.221 1345.98L418.777 1345.92C448.268 1345.47 502.677 1345.49 581.938 1345.98C590.611 1346.03 595.235 1335.78 589.452 1329.31L587.911 1327.6C562.817 1299.82 541.352 1282.65 522.882 1276.11L522.24 1275.89C508.55 1271.21 496.282 1272.39 486.251 1279.12L486.084 1279.23C484.065 1273.06 481.459 1266.97 478.172 1261.13C464.514 1236.88 442.078 1222 410.095 1222ZM410.095 1232C474.405 1232 480.589 1300.08 480.589 1300.08C498.727 1268.72 532.531 1280.69 582 1335.98L551.138 1335.81C485.344 1335.48 439.979 1335.53 415.042 1335.98C345.155 1337.23 345.053 1281.51 396.492 1281.51L395.98 1281C390.821 1275.75 349.645 1232 410.095 1232Z" fill="#0089C5" fill-opacity="0.25"/></g><path id="Sweat" fill-rule="evenodd" clip-rule="evenodd" d="M1252 557.081C1252 557.081 1261 459.081 1303 484.081C1345 509.081 1252 557.081 1252 557.081ZM1284 577C1284 577 1323 522 1337 551C1351 580 1284 577 1284 577Z" fill="#0089C5" fill-opacity="0.25"/><path id="Thought Cloud (Stroke)" fill-rule="evenodd" clip-rule="evenodd" d="M793.205 698.689C784.729 705.29 775.12 710.674 764.571 714.506C761.893 719.152 758.904 723.524 755.642 727.61C727.896 762.362 680.458 776.343 637.609 760.717C635.722 761.405 633.827 762.035 631.925 762.609C585.541 776.605 535.101 756.925 510.646 714.506C505.606 712.676 500.781 710.491 496.191 707.988C457.149 686.698 435.142 642.409 443.091 597.497C440.407 592.855 438.115 588.08 436.208 583.212C432.006 572.488 429.671 561.317 429.126 550.14C428.897 545.451 428.983 540.76 429.378 536.101C431.679 508.995 444.448 482.963 466.552 464.439C466.9 462.461 467.301 460.505 467.755 458.57C478.827 411.404 521.09 377.56 570.053 377.591C574.158 374.142 578.463 371.056 582.926 368.332C620.884 345.166 670.244 348.252 705.164 377.591C707.172 377.59 709.169 377.646 711.152 377.757C759.525 380.47 800.193 416.214 808.665 464.439C820.314 474.201 829.371 486.049 835.669 499.04C837.215 502.23 838.595 505.488 839.806 508.801C841.102 507.526 842.459 506.349 843.868 505.268C845.224 504.227 846.628 503.276 848.072 502.415C864.887 492.388 887.065 494.563 901.553 508.941C901.748 508.964 901.943 508.988 902.138 509.013C925.723 512.079 942.721 533.614 940.14 557.328C940.244 557.495 940.347 557.662 940.448 557.83C952.757 578.182 946.518 604.898 926.369 617.665C926.303 617.851 926.236 618.035 926.168 618.219C917.931 640.531 893.153 652.311 870.609 644.518C860.364 648.059 849.658 647.559 840.253 643.865C837.039 642.603 833.978 640.968 831.138 638.994C830.362 642.409 829.417 645.773 828.311 649.075C821.78 668.566 809.613 685.91 793.205 698.689ZM837.376 653.471C826.694 684.206 803.158 709.931 771.374 722.614C743.437 767.752 688.024 787.921 637.609 771.301C587.193 787.921 531.78 767.752 503.843 722.614C454.539 702.939 425.054 651.87 432.667 599.335C407.545 552.571 417.785 494.498 457.386 459.147C468.201 407.176 513.374 369.271 566.433 367.646C608.124 334.785 667.093 334.785 708.784 367.646C761.843 369.271 807.017 407.176 817.831 459.147C828.857 468.99 837.611 480.601 843.956 493.238C863.517 482.141 888.624 484.232 906.094 499.511C932.553 504.299 951.565 528.138 950.344 554.999C963.098 578.67 956.313 608.398 934.552 624.191C933.793 625.969 932.946 627.688 932.019 629.344C943.503 620.68 959.908 621.31 970.677 631.234C984.309 638.895 989.848 655.943 983.322 670.153C980.249 685.485 965.747 696.022 950.216 694.207C934.685 696.022 920.183 685.485 917.11 670.153C913.619 662.552 913.58 654.138 916.386 646.784C903.5 655.998 886.752 659.449 870.608 654.985C859.305 658.11 847.716 657.35 837.376 653.471ZM935.022 591.226C935.745 589.034 936.247 586.773 936.518 584.48C937.515 576.02 935.368 567.132 929.64 559.725C934.093 538.77 918.3 518.967 896.88 518.645C890.094 510.392 880.391 506.256 870.681 506.235C869.568 506.233 868.455 506.285 867.347 506.39C858.896 507.196 850.694 511.144 844.681 518.233C844.565 518.369 844.451 518.506 844.337 518.645C843.848 518.652 843.363 518.669 842.88 518.697C843.482 521.034 844.004 523.39 844.444 525.761C844.621 526.714 844.785 527.669 844.935 528.627C848.566 551.713 844.537 576.032 832.127 597.497C832.167 597.725 832.206 597.954 832.245 598.182C832.336 598.716 832.423 599.25 832.505 599.783C833.962 609.211 834.107 618.594 833.06 627.725C842.766 636.781 857.461 639.838 870.609 633.748C890.047 642.752 912.868 631.762 917.948 610.95C926.463 606.691 932.307 599.448 935.022 591.226ZM777.838 421.34C770.803 413.016 762.38 405.949 752.961 400.466C737.837 391.661 720.144 386.942 701.498 387.664C665.252 354.779 609.965 354.779 573.719 387.664C524.816 385.771 482.463 421.309 475.835 469.798C437.156 499.783 427.555 554.23 453.646 595.636C443.29 643.468 470.934 691.348 517.536 706.295C540.348 749.594 592.302 768.503 637.609 749.998C682.916 768.503 734.869 749.594 757.681 706.295C792.603 695.095 816.878 665.401 822.496 631.092C819.251 627.208 816.631 622.699 814.849 617.665C814.683 617.56 814.517 617.454 814.353 617.347C794.434 604.351 788.463 577.573 801.077 557.328C800.25 549.728 801.434 542.353 804.201 535.737C808.701 524.975 817.391 516.225 828.429 511.792C828.955 511.581 829.487 511.379 830.023 511.188C828.842 508.07 827.494 505.008 825.983 502.017C819.798 489.774 810.873 478.706 799.382 469.798C796.855 451.31 789.135 434.705 777.838 421.34ZM816.976 506.366C811.448 495.479 803.494 485.639 793.255 477.702C791.186 476.098 789.829 473.746 789.474 471.152C783.544 427.763 745.645 395.962 701.885 397.656C699.269 397.757 696.717 396.829 694.779 395.07C662.345 365.643 612.872 365.643 580.439 395.07C578.5 396.829 575.948 397.757 573.332 397.656C529.572 395.962 491.674 427.763 485.743 471.152C485.388 473.746 484.031 476.098 481.962 477.702C447.351 504.533 438.76 553.254 462.107 590.304C463.503 592.519 463.974 595.193 463.42 597.752C454.153 640.553 478.889 683.398 520.59 696.773C523.083 697.573 525.163 699.318 526.383 701.634C546.796 740.379 593.286 757.299 633.827 740.741C636.251 739.751 638.966 739.751 641.39 740.741C681.932 757.299 728.421 740.379 748.834 701.634C750.054 699.318 752.134 697.573 754.627 696.773C784.461 687.204 805.624 662.547 811.848 633.593C809.839 630.683 808.096 627.541 806.666 624.192C784.904 608.398 778.119 578.671 790.873 554.999C789.954 534.796 800.476 516.33 816.976 506.366ZM822.57 600.97C823.064 604.098 823.399 607.221 823.579 610.33C823.59 610.509 823.599 610.688 823.609 610.867C823.637 611.406 823.661 611.944 823.68 612.482C823.532 611.978 823.395 611.467 823.269 610.95C819.097 608.864 815.566 606.06 812.73 602.776C809.866 599.459 807.711 595.652 806.321 591.598C805.576 589.425 805.05 587.181 804.752 584.904C803.631 576.318 805.753 567.256 811.577 559.725C808.732 546.339 814.15 533.423 824.018 525.754C826.728 523.649 829.773 521.939 833.075 520.724C833.116 520.88 833.156 521.035 833.196 521.191C833.952 524.125 834.568 527.092 835.041 530.082C835.072 530.279 835.103 530.476 835.133 530.673C838.457 552.55 834.185 575.617 821.571 595.636C821.746 596.447 821.911 597.258 822.065 598.068C822.139 598.459 822.211 598.849 822.28 599.24C822.382 599.817 822.478 600.393 822.57 600.97ZM815.272 586.68C823.884 571.404 827.304 554.4 825.918 537.874C821.737 543.233 819.808 550.35 821.358 557.646C821.969 560.52 821.285 563.517 819.488 565.841C814.676 572.065 813.444 579.768 815.272 586.68ZM950.001 653.4C948.7 655.297 946.786 656.688 944.579 657.338C944.522 657.355 944.496 657.37 944.489 657.374C944.482 657.379 944.477 657.383 944.471 657.388C944.458 657.402 944.427 657.441 944.405 657.508C944.383 657.576 944.385 657.625 944.388 657.644C944.389 657.652 944.391 657.658 944.394 657.666C944.397 657.673 944.41 657.701 944.446 657.748C945.849 659.571 946.58 661.822 946.517 664.121C946.515 664.181 946.521 664.21 946.523 664.218C946.525 664.227 946.527 664.233 946.531 664.239C946.54 664.257 946.567 664.298 946.625 664.34C946.682 664.381 946.73 664.395 946.749 664.398C946.751 664.398 946.753 664.398 946.756 664.398C946.76 664.399 946.765 664.399 946.772 664.398C946.779 664.398 946.809 664.395 946.865 664.374C949.033 663.604 951.399 663.604 953.566 664.374C953.623 664.395 953.653 664.398 953.66 664.398C953.669 664.399 953.676 664.399 953.683 664.398C953.702 664.395 953.75 664.381 953.807 664.34C953.865 664.298 953.892 664.257 953.901 664.239C953.904 664.233 953.907 664.227 953.909 664.218C953.91 664.21 953.917 664.181 953.915 664.121C953.852 661.822 954.583 659.571 955.986 657.748C956.008 657.72 956.021 657.698 956.028 657.685C956.034 657.675 956.036 657.669 956.037 657.666C956.041 657.658 956.043 657.652 956.044 657.644C956.047 657.625 956.049 657.576 956.027 657.508C956.011 657.459 955.99 657.425 955.975 657.405C955.969 657.398 955.964 657.392 955.961 657.388C955.958 657.385 955.955 657.383 955.952 657.38C955.949 657.378 955.946 657.376 955.943 657.374C955.936 657.37 955.91 657.355 955.853 657.338C953.646 656.688 951.732 655.297 950.431 653.4C950.397 653.35 950.375 653.33 950.369 653.325C950.363 653.319 950.357 653.316 950.35 653.312C950.333 653.303 950.287 653.286 950.216 653.286C950.174 653.286 950.14 653.292 950.116 653.299C950.1 653.304 950.088 653.309 950.081 653.312C950.075 653.316 950.069 653.319 950.062 653.325C950.057 653.33 950.035 653.35 950.001 653.4ZM950.352 643.287C949.929 643.282 949.506 643.302 949.085 643.347C946.264 643.656 943.55 645.122 941.752 647.747C938.474 648.713 936.141 651.096 935.061 653.945C934.907 654.351 934.779 654.766 934.676 655.188C933.983 658.053 934.505 661.226 936.521 663.846C936.323 671.053 943.423 676.212 950.216 673.796C957.009 676.212 964.109 671.053 963.911 663.846C968.308 658.132 965.596 649.785 958.68 647.747C956.671 644.815 953.52 643.329 950.352 643.287ZM926.717 667.032C928.223 677.707 937.982 685.278 948.537 684.327C949.095 684.277 949.655 684.203 950.216 684.104C960.835 685.971 971.051 679.029 973.408 668.697C973.532 668.151 973.635 667.596 973.715 667.032C978.771 657.509 975.326 645.648 966.228 640.213C965.747 639.926 965.251 639.657 964.739 639.407C957.246 631.655 944.9 631.266 936.92 638.24C936.498 638.609 936.089 638.998 935.693 639.407C926.005 644.138 921.82 655.759 925.987 665.504C926.207 666.019 926.45 666.528 926.717 667.032Z" fill="#E4EDF1"/><g id="Food" transform="translate(516.107 424.698) scale(1 1)"><g id="Food/Avocado"><g id="Avocado"><ellipse id="Oval" cx="125" cy="125" rx="94" ry="125" fill="#B5E581"/><circle id="Oval_2" cx="125" cy="156" r="47" fill="#6A6434"/></g></g></g><g id="Master/Character/Side" transform="translate(560 390) scale(1 1)"><g id="Master/Character/Side"><g id="Bodies" transform="translate(297 340.421) scale(1 1)"><g id="Bodies/Blue A"><g id="Patterns"><path id="Mask" fill-rule="evenodd" clip-rule="evenodd" d="M362.086 371.318C382.619 359.612 401.825 343.91 412.196 322.671C422.566 301.43 422.346 273.901 407.079 255.857C393.928 240.311 372.8 234.442 352.814 230.543C287.28 217.761 219.322 217.53 153.704 229.867C135.359 233.316 116.444 238.106 102.232 250.207C80.6574 268.576 74.8264 301.471 84.5594 328.083C94.2924 354.695 117.352 374.983 143.395 386.149C168.918 397.092 197.103 400.083 224.642 400.132C254.423 400.186 283.106 400.179 312.073 392.105C329.507 387.247 346.361 380.282 362.086 371.318" fill="#7192F0"/><mask id="mask0_203_4091723898522-aa4a-4b7d-abe0-8c4b11905554" style="mask-type:alpha" maskUnits="userSpaceOnUse" x="80" y="220" width="340" height="181" fill="#ffffff"><path id="Mask_2" fill-rule="evenodd" clip-rule="evenodd" d="M362.086 371.318C382.619 359.612 401.825 343.91 412.196 322.671C422.566 301.43 422.346 273.901 407.079 255.857C393.928 240.311 372.8 234.442 352.814 230.543C287.28 217.761 219.322 217.53 153.704 229.867C135.359 233.316 116.444 238.106 102.232 250.207C80.6574 268.576 74.8264 301.471 84.5594 328.083C94.2924 354.695 117.352 374.983 143.395 386.149C168.918 397.092 197.103 400.083 224.642 400.132C254.423 400.186 283.106 400.179 312.073 392.105C329.507 387.247 346.361 380.282 362.086 371.318" fill="#ffffff"/></mask><g mask="url(#mask0_203_4091723898522-aa4a-4b7d-abe0-8c4b11905554)"><g id="Patterns_2"><g id="Group"><path id="Path 51" d="M527.949 211.503L528.051 212.497L28.0507 263.497L27.9492 262.503L527.949 211.503Z" fill="white"/><path id="Path 52" d="M28.0596 295.504L528.06 355.504L527.94 356.496L27.9404 296.496L28.0596 295.504Z" fill="white"/><path id="Path 53" d="M28.0477 325.502L528.048 373.502L527.952 374.498L27.9521 326.498L28.0477 325.502Z" fill="white"/><path id="Path 54" d="M28.0138 383.5L528.014 397.5L527.986 398.5L27.9858 384.5L28.0138 383.5Z" fill="white"/><path id="Path 59" d="M28.0199 283.5L528.02 303.5L527.98 304.5L27.98 284.5L28.0199 283.5Z" fill="white"/></g></g></g></g><g id="Patterns_3"><path id="Mask_3" fill-rule="evenodd" clip-rule="evenodd" d="M173 432.67C179.305 415.74 194.413 407.054 218.304 403.364C240.694 399.907 280.799 397.842 303.623 399.213C321.21 400.27 334.314 404.493 344.813 414.666C371.433 440.462 328.228 465.612 298.732 474.4C268.904 483.288 224.217 483.556 196.974 470.244C180.424 462.157 167.512 447.407 173 432.67" fill="#418FE7"/><mask id="mask1_203_4091723898522-aa4a-4b7d-abe0-8c4b11905554" style="mask-type:alpha" maskUnits="userSpaceOnUse" x="171" y="398" width="183" height="83" fill="#ffffff"><path id="Mask_4" fill-rule="evenodd" clip-rule="evenodd" d="M173 432.67C179.305 415.74 194.413 407.054 218.304 403.364C240.694 399.907 280.799 397.842 303.623 399.213C321.21 400.27 334.314 404.493 344.813 414.666C371.433 440.462 328.228 465.612 298.732 474.4C268.904 483.288 224.217 483.556 196.974 470.244C180.424 462.157 167.512 447.407 173 432.67" fill="#ffffff"/></mask><g mask="url(#mask1_203_4091723898522-aa4a-4b7d-abe0-8c4b11905554)"><g id="Patterns_4"><g id="Group_2"><path id="Path 49" d="M358.072 209.012L351.088 500.012L350.088 499.988L357.072 208.988L358.072 209.012Z" fill="white"/><path id="Path 50" d="M325.479 499.976L324.481 500.024L310.513 209.024L311.511 208.976L325.479 499.976Z" fill="white"/><path id="Path 51_2" d="M305.107 499.949L304.113 500.051L274.431 209.051L275.425 208.949L305.107 499.949Z" fill="white"/><path id="Path 52_2" d="M256.218 209.06L221.298 500.06L220.305 499.94L255.225 208.94L256.218 209.06Z" fill="white"/><path id="Path 53_2" d="M238.76 209.048L210.824 500.048L209.828 499.952L237.764 208.952L238.76 209.048Z" fill="white"/><path id="Path 54_2" d="M205.006 209.014L196.858 500.014L195.858 499.986L204.006 208.986L205.006 209.014Z" fill="white"/><path id="Path 55" d="M176.486 499.954L175.49 500.046L148.718 209.046L149.714 208.954L176.486 499.954Z" fill="white"/><path id="Path 59_2" d="M263.206 209.02L251.566 500.02L250.566 499.98L262.206 208.98L263.206 209.02Z" fill="white"/></g></g></g></g><g id="Patterns_5"><path id="Mask_5" fill-rule="evenodd" clip-rule="evenodd" d="M120.01 191.589C90.6146 164.371 80.3056 116.785 100.238 82.034C117.951 51.15 154.034 35.558 188.992 28.808C208.597 25.023 229.563 23.493 247.95 31.276C264.428 38.249 277.253 52.198 285.704 67.969C300.706 95.966 302.661 130.622 290.903 160.128C281.517 183.679 260.725 209.613 236.014 218.325C215.838 225.439 184.192 221.141 164.288 215.692C147.923 211.21 132.495 203.149 120.01 191.589" fill="#418FE7"/><mask id="mask2_203_4091723898522-aa4a-4b7d-abe0-8c4b11905554" style="mask-type:alpha" maskUnits="userSpaceOnUse" x="89" y="25" width="210" height="198" fill="#ffffff"><path id="Mask_6" fill-rule="evenodd" clip-rule="evenodd" d="M120.01 191.589C90.6146 164.371 80.3056 116.785 100.238 82.034C117.951 51.15 154.034 35.558 188.992 28.808C208.597 25.023 229.563 23.493 247.95 31.276C264.428 38.249 277.253 52.198 285.704 67.969C300.706 95.966 302.661 130.622 290.903 160.128C281.517 183.679 260.725 209.613 236.014 218.325C215.838 225.439 184.192 221.141 164.288 215.692C147.923 211.21 132.495 203.149 120.01 191.589" fill="#ffffff"/></mask><g mask="url(#mask2_203_4091723898522-aa4a-4b7d-abe0-8c4b11905554)"><g id="Patterns_6"><g id="Group_3"><path id="Path 48" d="M590.465 263.074L589.772 263.796L229.148 -82.6867L229.841 -83.4078L590.465 263.074Z" fill="white"/><path id="Path 49_2" d="M212.178 -65.7146L557.246 296.324L556.522 297.014L211.454 -65.0247L212.178 -65.7146Z" fill="white"/><path id="Path 50_2" d="M526.108 327.412L525.436 328.152L154.912 -8.43099L155.584 -9.17118L526.108 327.412Z" fill="white"/><path id="Path 51_3" d="M501.339 352.143L500.707 352.918L111.091 35.4271L111.723 34.6519L501.339 352.143Z" fill="white"/><path id="Path 52_3" d="M88.4661 58.0651L399.593 454.045L398.807 454.663L87.6798 58.683L88.4661 58.0651Z" fill="white"/><path id="Path 53_3" d="M67.2453 79.2691L386.858 466.764L386.086 467.4L66.4739 79.9054L67.2453 79.2691Z" fill="white"/><path id="Path 54_3" d="M26.2107 120.256L369.865 483.709L369.138 484.396L25.4841 120.943L26.2107 120.256Z" fill="white"/><path id="Path 55_2" d="M345.072 508.417L344.433 509.186L-41.6475 188.159L-41.0081 187.39L345.072 508.417Z" fill="white"/><path id="Path 56" d="M304.087 549.453L303.394 550.174L-57.2307 203.691L-56.5379 202.97L304.087 549.453Z" fill="white"/><path id="Path 57" d="M281.458 572.079L280.767 572.802L-80.5645 227.027L-79.8731 226.304L281.458 572.079Z" fill="white"/><path id="Path 59_3" d="M96.9252 49.5496L436.336 417.245L435.602 417.923L96.1904 50.2279L96.9252 49.5496Z" fill="white"/></g></g></g></g><g id="Patterns_7"><path id="Mask_7" fill-rule="evenodd" clip-rule="evenodd" d="M300.791 200.575C287.995 180.96 288.228 153.025 303.161 134.985C318.095 116.944 347.343 111.946 366.261 125.752C377.633 134.052 384.324 147.57 387.099 161.372C389.715 174.388 389.123 188.262 383.908 200.472C378.092 214.087 363.802 230.873 347.739 229.49C329.39 227.909 310.723 215.801 300.791 200.575" fill="#64BBF6"/><mask id="mask3_203_4091723898522-aa4a-4b7d-abe0-8c4b11905554" style="mask-type:alpha" maskUnits="userSpaceOnUse" x="291" y="117" width="98" height="113" fill="#ffffff"><path id="Mask_8" fill-rule="evenodd" clip-rule="evenodd" d="M300.791 200.575C287.995 180.96 288.228 153.025 303.161 134.985C318.095 116.944 347.343 111.946 366.261 125.752C377.633 134.052 384.324 147.57 387.099 161.372C389.715 174.388 389.123 188.262 383.908 200.472C378.092 214.087 363.802 230.873 347.739 229.49C329.39 227.909 310.723 215.801 300.791 200.575" fill="#ffffff"/></mask><g mask="url(#mask3_203_4091723898522-aa4a-4b7d-abe0-8c4b11905554)"><g id="Patterns_8"><g id="Group_4"><path id="Path 51_4" d="M286.252 89.0507L287.247 88.9492L305.097 263.949L304.102 264.051L286.252 89.0507Z" fill="white"/><path id="Path 52_4" d="M315.653 263.94L336.653 88.9404L337.646 89.0596L316.646 264.06L315.653 263.94Z" fill="white"/><path id="Path 53_4" d="M326.152 263.952L342.952 88.9522L343.947 89.0478L327.147 264.048L326.152 263.952Z" fill="white"/><path id="Path 54_4" d="M346.45 263.986L351.35 88.986L352.35 89.014L347.45 264.014L346.45 263.986Z" fill="white"/><path id="Path 55_3" d="M363.602 89.0458L364.598 88.9542L380.698 263.954L379.702 264.046L363.602 89.0458Z" fill="white"/><path id="Path 56_2" d="M383.9 89.01L384.9 88.99L388.4 263.99L387.4 264.01L383.9 89.01Z" fill="white"/><path id="Path 59_4" d="M311.45 263.98L318.45 88.98L319.449 89.02L312.449 264.02L311.45 263.98Z" fill="white"/></g></g></g></g><g id="Patterns_9"><path id="Mask_9" fill-rule="evenodd" clip-rule="evenodd" d="M298.869 96.9474C286.401 79.4724 287.029 53.7874 300.296 36.9114C313.563 20.0364 337.336 17.3594 357.306 25.2354C377.274 33.1114 389.812 51.8644 388.109 73.2634C384.425 119.556 325.635 134.462 298.869 96.9474" fill="#7192F0"/><mask id="mask4_203_4091723898522-aa4a-4b7d-abe0-8c4b11905554" style="mask-type:alpha" maskUnits="userSpaceOnUse" x="289" y="21" width="100" height="98" fill="#ffffff"><path id="Mask_10" fill-rule="evenodd" clip-rule="evenodd" d="M298.869 96.9474C286.401 79.4724 287.029 53.7874 300.296 36.9114C313.563 20.0364 337.336 17.3594 357.306 25.2354C377.274 33.1114 389.812 51.8644 388.109 73.2634C384.425 119.556 325.635 134.462 298.869 96.9474" fill="#ffffff"/></mask><g mask="url(#mask4_203_4091723898522-aa4a-4b7d-abe0-8c4b11905554)"><g id="Patterns_10"><g id="Group_5"><path id="Path 49_3" d="M273.012 24.0161L500.012 29.4641L499.988 30.4639L272.988 25.0159L273.012 24.0161Z" fill="white"/><path id="Path 50_3" d="M499.976 49.4406L500.024 50.4394L273.024 61.3354L272.976 60.3366L499.976 49.4406Z" fill="white"/><path id="Path 51_5" d="M499.949 65.3326L500.051 66.3274L273.051 89.4814L272.949 88.4866L499.949 65.3326Z" fill="white"/><path id="Path 52_5" d="M273.06 103.47L500.06 130.71L499.94 131.702L272.94 104.462L273.06 103.47Z" fill="white"/><path id="Path 53_5" d="M273.048 117.088L500.048 138.88L499.952 139.876L272.952 118.084L273.048 117.088Z" fill="white"/><path id="Path 59_5" d="M273.02 98.0184L500.02 107.098L499.98 108.098L272.98 99.0176L273.02 98.0184Z" fill="white"/></g></g></g></g></g></g><g id="Upper/Side" transform="translate(0 235) scale(1 1)"><g id="Upper/Side/Running"><path id="Combined Shape" fill-rule="evenodd" clip-rule="evenodd" d="M884.953 48L885.659 48.0047C909.176 48.3376 928.528 66.0644 930.306 93.4599L930.602 98.0715C932.048 120.894 933 140.35 933.581 164.088L933.685 168.616C934.442 204.007 933.87 237.466 931.594 267.829L931.396 270.399C928.412 308.358 922.833 339.513 914.197 362.351C903.65 390.242 888.521 405.587 868.206 405.587C814.997 405.587 750.78 358.802 674.995 265.607C673.601 263.892 673.86 261.371 675.574 259.977C677.288 258.582 679.808 258.841 681.203 260.556C755.591 352.033 818.111 397.583 868.206 397.583C899.337 397.583 917.43 349.737 923.614 267.231C925.965 235.872 926.482 201.105 925.581 164.284L925.461 159.615C924.834 136.53 923.828 117.191 922.321 93.9786C920.818 70.8164 904.952 56.2833 885.546 56.0086C867.59 55.7545 854.359 67.8095 854.155 87.6229C874.937 88.2664 888.405 94.1871 890.555 105.482C900.126 106.888 904.706 100.381 905.097 83.5793C905.148 81.3695 906.98 79.6197 909.19 79.6711C911.399 79.7225 913.148 81.5556 913.096 83.7654C912.608 104.784 904.586 115.485 889.837 113.474C888.208 116.871 884.688 119.303 879.696 120.715C873.67 122.418 865.012 122.857 853.598 122.113C851.393 121.969 849.722 120.064 849.866 117.858C850.009 115.653 851.913 113.981 854.118 114.125L855.29 114.198C874.133 115.306 882.774 112.814 882.856 108.847C882.855 108.804 882.856 108.762 882.856 108.719C882.79 100.749 871.37 95.6018 850.473 95.5689L850.454 95.5709C850.373 95.5815 850.253 95.5989 850.097 95.625C849.584 95.7104 848.999 95.8414 848.359 96.0269C846.507 96.5645 844.651 97.4242 842.929 98.6683C837.933 102.278 834.903 108.397 834.903 118.119C834.903 132.225 847.862 140.589 875.701 142.835C878.139 143.032 879.831 145.35 879.276 147.733L873.247 173.664C861.306 225.148 851.841 266.725 844.852 298.391C844.014 302.188 838.801 302.68 837.268 299.106C801.865 216.581 748.56 167.25 677.197 150.724C675.044 150.225 673.703 148.075 674.201 145.922C674.7 143.768 676.849 142.427 679.001 142.925C749.306 159.207 802.692 206.174 839.027 283.49L839.658 284.847L842.207 273.45C848.706 244.481 856.789 209.172 866.458 167.523L870.445 150.371L869.554 150.268C841.947 146.987 827.216 136.564 826.906 118.698L826.901 118.119C826.901 105.863 831.134 97.3159 838.244 92.179C840.591 90.4831 843.085 89.2874 845.592 88.5014L846.153 88.3321L846.152 87.891C846.243 63.8649 862.552 48.3313 884.292 48.0052L884.953 48ZM254.61 64.8051C296.47 33.3992 378.757 55.7567 502.143 130.624C504.032 131.77 504.635 134.232 503.489 136.122C502.343 138.012 499.882 138.614 497.993 137.468C377.321 64.2478 297.57 42.5794 259.411 71.2089C221.298 99.804 221.298 179.114 260.838 308.984C261.266 310.391 260.887 311.914 259.864 312.955L259.706 313.107L249.503 322.414C236.955 333.858 233.624 352.265 241.31 367.364L241.546 367.821L242.479 369.594C250.111 384.099 265.796 392.474 282.06 390.779L282.755 390.7C297.73 388.953 309.023 376.262 309.023 361.18V343.169C309.023 340.959 310.814 339.167 313.024 339.167C315.166 339.167 316.916 340.852 317.02 342.969L317.025 343.169V357.85L319.121 358.239C326.889 359.678 334.352 354.545 335.79 346.775C335.949 345.916 336.029 345.044 336.029 344.17C336.029 332.846 328.922 322.759 318.298 318.937L317.917 318.803L303.724 313.936C301.896 313.309 300.777 311.464 301.066 309.552L301.696 305.353C311.671 238.592 316.135 192.672 315.101 167.802L315.065 166.99L315.045 166.893C315.018 166.744 314.998 166.587 314.988 166.418L314.978 166.155C314.953 163.893 316.771 162.062 319.025 162.062C320.601 162.062 321.973 162.976 322.624 164.314L322.717 164.522L322.966 164.813C323.182 165.06 323.446 165.351 323.752 165.679L324.139 166.089L324.683 166.652C326.379 168.393 328.657 170.572 331.316 172.971L331.762 173.373C340.079 180.838 350.44 189.037 362.054 197.039C394.6 219.46 430.858 236.416 468.862 244.192C471.027 244.635 472.423 246.75 471.98 248.915C471.538 251.081 469.424 252.477 467.259 252.034C428.096 244.021 390.884 226.619 357.516 203.631C345.615 195.433 334.985 187.021 326.418 179.331C325.627 178.621 324.865 177.927 324.136 177.253L323.244 176.423L323.242 177.021C323.063 203.044 318.78 244.393 310.402 301.201L309.474 307.444L320.512 311.231C334.44 316.009 343.842 329.027 344.028 343.724L344.031 344.17C344.031 345.533 343.906 346.893 343.658 348.233C341.437 360.229 330.009 368.193 318.027 366.174L317.664 366.11L316.725 365.935L316.683 366.267C314.432 382.926 301.274 396.335 284.251 398.581L283.682 398.651L283.48 398.675C263.953 400.954 245.03 391.102 235.679 373.847L235.398 373.322L234.465 371.549C224.877 353.325 228.668 330.966 243.654 316.921L244.111 316.498L252.449 308.892L251.981 307.342C213.105 178.046 213.119 97.5682 253.365 65.7635L254.61 64.8051Z" fill="#001D2D"/></g></g><g id="Heads" transform="translate(501.137 165.421) scale(1 1)"><g id="Heads/Wide"><g id="Patterns"><path id="Mask" fill-rule="evenodd" clip-rule="evenodd" d="M57.366 40.3249C39.1737 45.033 21.7672 54.7631 10.7108 69.9844C-0.345563 85.2043 -4.09743 106.33 3.88277 123.371C9.86792 136.15 21.6585 145.489 34.5622 151.155C47.4659 156.821 61.5386 159.193 75.4872 161.178C101.795 164.923 129.298 167.356 154.365 158.525C179.432 149.692 201.348 126.656 200.738 100.04C200.267 79.4103 186.363 60.7819 168.696 50.1751C137.562 31.4824 91.7011 31.4392 57.366 40.3249" fill="#FF996B"/><mask id="mask0_203_43638adb7771f-24af-4b13-adc4-494de073d748" style="mask-type:alpha" maskUnits="userSpaceOnUse" x="-1" y="34" width="202" height="131" fill="#ffffff"><path id="Mask_2" fill-rule="evenodd" clip-rule="evenodd" d="M57.366 40.3249C39.1737 45.033 21.7672 54.7631 10.7108 69.9844C-0.345563 85.2043 -4.09743 106.33 3.88277 123.371C9.86792 136.15 21.6585 145.489 34.5622 151.155C47.4659 156.821 61.5386 159.193 75.4872 161.178C101.795 164.923 129.298 167.356 154.365 158.525C179.432 149.692 201.348 126.656 200.738 100.04C200.267 79.4103 186.363 60.7819 168.696 50.1751C137.562 31.4824 91.7011 31.4392 57.366 40.3249" fill="#ffffff"/></mask><g mask="url(#mask0_203_43638adb7771f-24af-4b13-adc4-494de073d748)"><g id="Patterns_2"><g id="Group"><path id="Path 7" d="M291.108 147.73C255.358 190.903 225.742 212.512 202.183 212.512C194.567 212.512 186.906 211.856 178.322 210.567L176.859 210.342C173.425 209.805 169.816 209.166 165.653 208.371L162.25 207.711L150.821 205.427C125.892 200.46 109.798 198.361 89.0476 198.361C73.6428 198.361 59.4579 200.171 39.8043 204.021L36.981 204.583C34.2519 205.137 23.2808 207.36 20.1169 207.96L18.666 208.232C13.2046 209.244 8.87942 209.896 5.0011 210.257C-4.92556 211.181 -11.8399 210.118 -16.736 206.468L-17.0162 206.254L-16.402 205.465C-11.825 209.027 -5.23887 210.139 4.34143 209.312L4.90845 209.262C8.9198 208.888 13.4258 208.199 19.2018 207.115L22.3238 206.511C27.6386 205.461 37.5901 203.439 37.4022 203.477L38.5144 203.256C58.7985 199.246 73.2792 197.361 89.0476 197.361C109.205 197.361 124.982 199.334 148.625 203.973L162.708 206.782C163.48 206.933 164.215 207.076 164.942 207.216L166.722 207.556C171.088 208.383 174.849 209.033 178.471 209.578C187.009 210.861 194.62 211.512 202.183 211.512C225.121 211.512 254.176 190.48 289.273 148.374L290.338 147.092L291.108 147.73Z" fill="white"/><path id="Path 10" d="M291.105 138.504C271.371 161.954 248.132 178.004 221.397 186.647C212.094 189.655 200.756 190.446 186.399 189.441L184.228 189.279C175.074 188.562 167.843 187.585 149.892 184.742L135.87 182.512C126.941 181.111 120.801 180.227 114.256 179.426C90.5704 176.527 71.9999 176.371 55.5022 179.73L54.7181 179.893C18.0252 187.644 -5.82276 184.481 -16.7828 170.291L-17.111 169.858L-16.308 169.262C-5.90556 183.274 17.3208 186.605 53.4138 179.144L54.5115 178.915C70.8072 175.472 89.0379 175.473 112.128 178.165L114.377 178.434C121.263 179.276 127.698 180.21 137.384 181.738L153.095 184.235C169.61 186.829 176.389 187.697 185.608 188.382C200.258 189.47 211.744 188.717 221.089 185.696C247.34 177.209 270.199 161.531 289.67 138.652L290.34 137.86L291.105 138.504Z" fill="white"/><path id="Path 11" d="M290.751 125.993L290.695 126.991C276.027 126.176 264.447 130.114 247.866 139.863L246.097 140.913C245.506 141.266 244.891 141.636 244.226 142.039L237.852 145.92C225.6 153.362 217.878 157.358 208.521 160.5C196.698 164.47 184.371 165.946 170.453 164.611L169.543 164.52C135.097 160.929 100.988 163.073 60.8105 169.351L58.0084 169.795C49.9694 171.094 30.452 174.442 27.0231 174.976C8.57572 177.847 -6.05587 171.768 -16.7942 156.769L-17.1184 156.312L-16.3 155.737C-5.85967 170.604 8.31839 176.705 26.3116 174.072L26.8693 173.988C30.3788 173.441 50.8424 169.929 58.4617 168.709L59.0219 168.62C99.4426 162.219 133.708 159.937 168.246 163.382L169.647 163.525C183.794 165 196.257 163.563 208.203 159.552C216.927 156.622 224.232 152.936 235.227 146.337L244.103 140.945C244.88 140.475 245.592 140.049 246.286 139.636L246.632 139.431C263.512 129.422 275.291 125.271 290.105 125.96L290.751 125.993Z" fill="white"/><path id="Path 12" fill-rule="evenodd" clip-rule="evenodd" d="M38.2318 131.534C47.757 132.766 55.4744 135.529 59.1988 139.312C63.5711 143.753 62.3269 149.261 54.9278 155.184C40.4658 166.761 26.2143 170.818 14.9718 167.579C4.62304 164.598 -1.83741 155.644 -1.83741 144.335C-1.83741 133.84 17.4513 128.845 38.2318 131.534ZM15.2486 166.618C26.1465 169.758 40.0753 165.793 54.3028 154.403C61.2873 148.812 62.3811 143.97 58.4862 140.013C54.9551 136.426 47.4269 133.732 38.1035 132.525C17.8789 129.908 -0.837414 134.755 -0.837414 144.335C-0.837414 155.206 5.33622 163.763 15.2486 166.618Z" fill="white"/><path id="Path 12_2" fill-rule="evenodd" clip-rule="evenodd" d="M35.1798 137.993C41.2103 138.781 46.1013 140.549 48.4802 142.991C51.3162 145.901 50.507 149.52 45.777 153.345C36.6347 160.738 27.6076 163.334 20.4692 161.257C13.8775 159.339 9.76123 153.575 9.76123 146.309C9.76123 139.473 22.0041 136.27 35.1798 137.993ZM20.7486 160.297C27.5393 162.273 36.2412 159.77 45.1482 152.568C49.4674 149.075 50.1291 146.115 47.764 143.688C45.5783 141.446 40.8778 139.746 35.0502 138.984C22.4284 137.334 10.7612 140.386 10.7612 146.309C10.7612 153.14 14.5934 158.506 20.7486 160.297Z" fill="white"/><path id="Path 12_3" fill-rule="evenodd" clip-rule="evenodd" d="M31.942 145.106C34.266 145.405 36.1584 146.077 37.111 147.037C38.3273 148.263 37.9753 149.81 36.0698 151.324C29.1369 156.832 22.0582 154.808 22.0582 148.483C22.0582 145.781 26.4732 144.544 31.3646 145.04L31.942 145.106ZM23.0582 148.483C23.0582 153.856 29.1008 155.583 35.4477 150.541C36.9355 149.359 37.1352 148.482 36.401 147.742C35.6419 146.976 33.9375 146.371 31.8147 146.098C27.2564 145.513 23.0582 146.592 23.0582 148.483Z" fill="white"/><path id="Path 13" d="M290.746 116.149L290.699 117.148L288.11 117.033C261.085 115.897 239.15 117.082 220.797 120.289C206.026 122.871 194.336 126.526 181.953 131.89L180.999 132.306C177.723 133.744 165.106 139.668 161.911 141.042C148.988 146.598 138.469 148.768 124.065 147.91C103.704 146.697 89.4395 142.552 72.9346 134.576L71.7449 133.994C69.6043 132.927 60.406 128.288 57.6544 127.006C47.6711 122.355 39.7233 120.224 30.02 120.224C9.08583 120.224 -6.23013 127.18 -15.9846 141.09L-16.2973 141.541L-17.1222 140.976C-7.18501 126.475 8.54856 119.224 30.02 119.224C39.6461 119.224 47.576 121.287 57.3409 125.76L58.0768 126.1C61.0572 127.489 71.5093 132.769 72.5466 133.276C89.2938 141.46 103.568 145.687 124.124 146.912C138.087 147.743 148.328 145.702 160.781 140.437L161.516 140.123C164.692 138.757 177.304 132.836 180.597 131.39C193.406 125.768 205.391 121.967 220.625 119.304C239.345 116.033 261.757 114.858 289.444 116.089L290.746 116.149Z" fill="white"/><path id="Path 14" fill-rule="evenodd" clip-rule="evenodd" d="M203.592 130.854C221.471 126.133 238.202 124.858 240.137 128.73C241.368 131.195 239.606 133.981 235.478 137.084C232.635 139.221 228.723 141.473 223.827 143.898L223.623 143.998C220.494 145.536 213.999 148.47 210.646 149.984C209.609 150.452 208.873 150.785 208.629 150.899L208.022 151.197C202.977 153.655 195.987 156.149 189.966 157.133C180.762 158.637 174.528 156.624 172.8 149.998C171.062 143.331 183.366 136.346 202.417 131.169L203.592 130.854ZM223.984 142.703C228.549 140.417 232.209 138.29 234.878 136.284C238.653 133.447 240.174 131.041 239.242 129.177C237.659 126.009 221.07 127.273 203.848 131.821L203.277 131.973C184.512 137 172.239 143.882 173.768 149.746C175.329 155.732 181.046 157.577 189.805 156.146C195.927 155.146 203.112 152.539 208.108 150.04C208.23 149.979 209.063 149.602 210.299 149.044C213.61 147.548 219.81 144.746 222.969 143.205L223.984 142.703Z" fill="white"/><path id="Path 14_2" fill-rule="evenodd" clip-rule="evenodd" d="M198.776 137.715C208.464 135.171 217.417 134.493 218.531 136.71C219.259 138.159 218.262 139.727 215.978 141.434C214.447 142.578 212.351 143.778 209.728 145.07L209.4 145.229C207.653 146.072 204.382 147.541 202.676 148.307C202.17 148.535 201.801 148.7 201.652 148.769L201.145 149.014C198.449 150.302 194.781 151.592 191.606 152.108C186.595 152.922 183.151 151.817 182.19 148.153C181.217 144.441 187.744 140.722 197.92 137.944L198.776 137.715ZM210.226 143.702C212.362 142.613 214.092 141.595 215.379 140.633C217.309 139.191 218.063 138.005 217.637 137.159C216.898 135.689 208.58 136.273 199.838 138.474L199.03 138.682C189.002 141.315 182.389 144.967 183.157 147.899C183.95 150.923 186.879 151.863 191.446 151.121C194.685 150.595 198.495 149.22 201.14 147.905C201.207 147.871 201.661 147.667 202.332 147.366C204.186 146.533 207.696 144.955 209.286 144.172L210.226 143.702Z" fill="white"/><path id="Path 15" d="M290.872 107.557L290.574 108.512C268.728 101.69 250.076 99.0614 232.5 99.8035L231.078 99.8699C218.35 100.523 207.428 102.668 190.702 107.232L188.485 107.841L181.152 109.882C162.661 115.003 152.374 117.24 139.068 118.446L138.432 118.503C120.324 120.088 101.206 118.715 79.0569 113.715L77.8675 113.444C11.1725 98.0742 -22.5048 111.252 -23.5656 152.912L-23.5878 154.183L-24.5878 154.174C-24.1781 111.135 9.5066 97.1023 76.0651 112.009L78.0921 112.469C100.647 117.667 120.02 119.111 138.345 117.507L139.605 117.392C152.328 116.199 162.413 114.015 180.017 109.159L188.553 106.785L190.442 106.266C207.853 101.516 219.02 99.3717 232.458 98.8044C249.852 98.07 268.283 100.613 289.759 107.212L290.872 107.557Z" fill="white"/><path id="Path 16" d="M304.025 88.0344L303.244 88.6589C287.51 68.9792 270.985 61.4665 251.475 63.2645C243.21 64.0262 234.405 66.4168 223.967 70.4939L222.665 71.0077C219.17 72.4008 215.474 73.9825 211.222 75.89L208.785 76.9909C207.554 77.551 206.274 78.1376 204.829 78.8049L194.765 83.4726C169.698 95.062 154.524 100.568 137.075 102.993C93.1536 109.097 42.4121 100.702 -15.1497 77.8187L-16.8961 77.1209L-16.5234 76.1929C41.6087 99.5423 92.7624 108.142 136.938 102.002L138.157 101.827C154.775 99.3634 169.59 93.9755 193.468 82.9701L205.352 77.4627C206.731 76.8279 207.97 76.2617 209.188 75.71L211.607 74.6222C216.065 72.6325 219.921 71.0009 223.603 69.5625C234.121 65.4541 243.012 63.0402 251.384 62.2687C271.04 60.4573 287.75 67.9467 303.547 87.4401L304.025 88.0344Z" fill="white"/><path id="Path 17" d="M298.361 62.6943L297.841 63.5483C285.505 56.0346 272.425 51.2618 251.09 49.0834C220.56 45.9662 180.506 50.0004 128.862 63.2026L127.294 63.6054C50.0532 83.5379 -4.49815 81.1171 -36.3554 56.2721L-37.3138 55.5124L-36.6864 54.7337C-5.59033 79.7878 48.2096 82.6444 124.718 63.2322L127.044 62.6372C179.554 49.0867 220.226 44.9268 251.192 48.0886C272.386 50.2527 285.536 54.9735 297.842 62.3797L298.361 62.6943Z" fill="white"/><path id="Path 18" fill-rule="evenodd" clip-rule="evenodd" d="M64.4529 12.786C81.0497 12.786 97.0806 18.4676 106.972 26.9025C116.559 35.077 117.841 43.8911 108.941 48.1903C99.8256 52.5935 78.5258 57.3049 58.656 59.1861L57.2723 59.3127C33.0523 61.4511 15.3847 59.1804 9.94106 51.7265C-2.23789 35.0501 28.8668 12.786 64.4529 12.786ZM57.8718 58.2547C77.8285 56.4287 99.4122 51.6826 108.506 47.2899C116.596 43.3816 115.441 35.4382 106.324 27.6634C96.6162 19.3858 80.8162 13.786 64.4529 13.786C29.5304 13.786 -0.717293 35.4366 10.7486 51.1367C15.8933 58.1812 33.3322 60.4225 57.1843 58.3165L57.8718 58.2547Z" fill="white"/><path id="Path 18_2" fill-rule="evenodd" clip-rule="evenodd" d="M63.3461 27.3123C74.4597 27.3123 85.1975 30.187 91.8358 34.4629C98.3815 38.6791 99.297 43.4351 93.1243 45.6875C87.0718 47.896 73.0161 50.2551 59.8216 51.2221L58.5477 51.3113C42.3034 52.3947 30.4916 51.248 26.8006 47.4302C22.7569 43.2477 25.488 38.1155 33.1417 33.9772C40.6986 29.8913 51.9359 27.3123 63.3461 27.3123ZM59.1133 50.2703C72.4052 49.3396 86.736 46.9541 92.7815 44.7481C97.9716 42.8542 97.2575 39.1446 91.2943 35.3036C84.8252 31.1367 74.2753 28.3123 63.3461 28.3123C52.095 28.3123 41.0209 30.8539 33.6173 34.8569C26.4566 38.7286 24.0859 43.1837 27.5195 46.7351C30.8259 50.1551 42.0051 51.3169 57.3108 50.3881L59.1133 50.2703Z" fill="white"/><path id="Path 18_3" fill-rule="evenodd" clip-rule="evenodd" d="M76.0345 39.1974C77.5917 39.9629 78.5672 40.7963 78.7833 41.653C79.0468 42.6979 78.2305 43.4862 76.618 43.9353C68.6658 46.1497 47.8052 47.2115 44.412 44.5331C43.2958 43.652 43.0942 42.5459 43.8309 41.4893C44.4527 40.5976 45.7339 39.7548 47.5336 39.0122C51.2091 37.4955 56.6589 36.541 62.191 36.541C67.5841 36.541 72.7974 37.6062 76.0345 39.1974ZM45.0316 43.7482C48.0757 46.1511 68.7037 45.1012 76.3498 42.9719L76.5463 42.9144C77.5532 42.6042 77.9008 42.2432 77.8136 41.8976C77.6906 41.4099 76.9076 40.7409 75.5934 40.0948C72.5027 38.5756 67.4392 37.541 62.191 37.541C56.7831 37.541 51.4619 38.473 47.9151 39.9366C46.2764 40.6127 45.14 41.3603 44.6512 42.0613C44.2259 42.6712 44.3198 43.1863 45.0316 43.7482Z" fill="white"/><path id="Path 19" d="M304.057 51.1625L303.214 51.7006C298.19 43.8319 288.439 39.4089 273.665 37.5212L273.01 37.4395C261.569 36.0493 251.109 36.0827 226.171 37.047L219.169 37.3152C210.773 37.6241 204.834 37.7717 199.037 37.7804L198.493 37.7808C183.955 37.7808 173.371 35.3123 161.627 29.759L160.948 29.4351C155.855 26.9852 136.757 16.2858 134.152 14.9056C121.288 8.08927 108.573 2.46483 92.849 -2.95467C91.1477 -3.54105 89.4193 -4.12154 87.6622 -4.69632C45.6655 -18.4347 7.88762 -4.97881 -25.7559 35.7388L-26.7742 36.981L-27.55 36.3501C6.59604 -5.63888 45.1328 -19.6611 87.9731 -5.64676C89.7352 -5.07034 91.4686 -4.48818 93.1748 -3.90009C108.499 1.38175 120.981 6.85995 133.514 13.4386L134.984 14.217C138.66 16.2049 156.512 26.1914 161.382 28.534C173.043 34.1439 183.43 36.6842 197.668 36.7781L199.578 36.7792C204.649 36.764 209.886 36.6421 216.838 36.3984L232.031 35.8279C252.866 35.0855 262.567 35.1631 273.13 36.4468C288.315 38.2922 298.465 42.74 303.823 50.8044L304.057 51.1625Z" fill="white"/></g></g></g></g></g></g><g id="Eyes" transform="translate(582 235.421) scale(1 1)"><g id="Eyes/Tiny"><path id="Fill 1" d="M75.5297 28.9006C78.7187 29.4316 82.2127 27.8016 83.6687 24.9156C86.8877 18.5346 79.4717 13.0006 73.5977 15.7006C67.4307 18.5366 68.9207 27.7996 75.5297 28.9006" fill="#001D2D"/><path id="Fill 4" d="M24.9191 28.9006C21.7301 29.4316 18.2361 27.8016 16.7801 24.9156C13.5601 18.5346 20.9761 13.0006 26.8501 15.7006C33.0181 18.5366 31.5291 27.7996 24.9191 28.9006" fill="#001D2D"/><path id="Fill 5" fill-rule="evenodd" clip-rule="evenodd" d="M32.5917 37.5557C30.0448 37.5576 27.4349 37.5713 25.045 38.4326C22.654 39.2939 20.4869 41.1917 20.0721 43.6523C19.6923 45.9044 20.8548 48.2016 22.569 49.749C24.2823 51.2944 26.4833 52.2095 28.6754 52.9857C41.4279 57.5026 55.5527 58.2318 68.721 55.0509C71.3589 54.4137 74.0147 53.5964 76.1978 52.0138C78.3818 50.4321 80.0431 47.9539 79.9991 45.2937C79.9362 41.4726 76.3657 38.4091 72.5684 37.5282C67.4176 36.3332 60.7385 37.541 55.3608 37.5302C47.7711 37.5155 40.1814 37.5468 32.5917 37.5557" fill="#FFD6CE"/><path id="Fill 6" fill-rule="evenodd" clip-rule="evenodd" d="M30.0877 44.0862L40.3468 44.3853C43.7552 44.4702 47.1557 44.5595 50.5501 44.5713C53.9426 44.606 57.328 44.5699 60.6995 44.4909C64.072 44.4 67.4236 44.2398 70.7771 44.0087L70.806 44.0065C71.9096 43.9304 72.8884 44.5307 72.9912 45.3473C73.079 46.0436 72.5033 46.672 71.6482 46.8905C68.2248 47.7669 64.6787 48.2705 61.1366 48.5872C57.5895 48.9114 54.0324 49.014 50.4873 48.9985C46.9431 48.9564 43.409 48.7969 39.9008 48.4698C36.3936 48.1501 32.9074 47.6968 29.485 47.0057L29.48 47.0049C28.4094 46.7886 27.7798 45.972 28.0712 45.1797C28.3216 44.4997 29.1737 44.0597 30.0877 44.0862" fill="#E5A193"/></g></g><g id="Lower/Side" transform="translate(0 700) scale(1 1)"><g id="Lower/Side/Running"><path id="Legs" fill-rule="evenodd" clip-rule="evenodd" d="M576.896 119.923C578.722 121.167 579.195 123.656 577.952 125.481C486.124 260.405 423.144 312.577 366.689 301.671C340.567 296.625 315.814 278.252 288.345 245.399L287.041 243.833C266.217 218.711 246.944 190.209 209.002 130.249L189.307 99.0812L181.444 86.6861C179.402 83.4744 177.43 80.3801 175.496 77.3528L172.065 71.9892L141.612 67.4255C130.438 65.7513 127.285 51.2452 136.573 45.0279L136.859 44.8421L203.096 2.85163C211.531 -2.49683 223.054 -0.505989 227.939 7.90488C243.186 34.1484 261.186 59.8796 284.082 86.8204C308.304 115.323 337.135 144.062 371.409 173.215C384.195 159.751 401.758 138.777 422.806 112.17L423.516 111.271C426.519 107.471 429.576 103.577 432.681 99.5991C445.42 83.2787 458.47 66.1793 471.203 49.2221L475.498 43.4924C477.573 40.7188 479.569 38.0439 481.476 35.48L489.196 25.063L491.767 21.5695C493.072 19.7885 495.574 19.4039 497.355 20.7106C499.081 21.9765 499.497 24.3652 498.335 26.1325L498.125 26.427L493.356 32.8958L488.605 39.3002C486.007 42.7949 483.24 46.5026 480.327 50.3911C466.706 68.5721 452.67 86.993 438.985 104.525C436.39 107.851 433.827 111.117 431.301 114.321L427.63 118.965C407.263 144.656 390.203 165.001 377.535 178.381C380.876 181.175 384.268 183.973 387.71 186.775C389.423 188.169 389.683 190.689 388.29 192.402C386.897 194.115 384.379 194.373 382.666 192.978C340.747 158.859 306.282 125.289 277.991 91.9995C254.778 64.6857 236.505 38.5652 221.026 11.9208C218.597 7.73931 212.39 6.60414 207.621 9.46057L207.379 9.60925L141.142 51.6C137.809 53.7127 138.802 58.7474 142.593 59.4803L142.791 59.5143L175.041 64.3482C176.181 64.5191 177.193 65.1743 177.815 66.1454L182.109 72.8529C184.383 76.4129 186.709 80.0634 189.138 83.8868L218.014 129.537C254.663 187.374 273.471 215.039 293.834 239.498L294.477 240.269C320.876 271.842 344.248 289.19 368.2 293.817C420.264 303.874 481.241 253.361 571.341 120.976C572.584 119.151 575.071 118.679 576.896 119.923ZM676.688 38.6403C677.447 36.5661 679.743 35.4983 681.818 36.2554C752.203 61.9377 828.1 100.656 905.345 147.679L909.909 150.466C958.89 180.463 1001.1 209.218 1032.7 232.413C1034.62 233.827 1037.13 234.139 1039.34 233.255L1039.59 233.152L1065.93 221.434C1075.44 217.204 1085.1 226.9 1080.97 236.332L1080.84 236.618L1051.5 299.361C1047.77 307.337 1038.48 311.031 1030.29 307.785L1021.32 304.231C964.741 281.859 898.851 256.497 834.064 232.704L825.286 229.488C724.761 192.741 649.985 168.46 613.192 161.93C611.017 161.543 609.568 159.468 609.955 157.294C610.343 155.12 612.42 153.671 614.595 154.057C652.787 160.836 730.094 186.051 834.233 224.247L844.486 228.017C910.321 252.287 976.856 277.982 1033.25 300.352C1037.41 302.001 1042.11 300.199 1044.13 296.235L1044.25 295.979L1073.6 233.235C1074.89 230.471 1072.13 227.588 1069.35 228.671L1069.18 228.739L1042.84 240.457C1037.95 242.633 1032.27 242.024 1027.96 238.859L1025.01 236.703C992.93 213.291 950.368 184.451 901.181 154.509C824.347 107.736 748.892 69.2433 679.071 43.7668C676.996 43.0097 675.929 40.7145 676.688 38.6403Z" fill="#001D2D"/></g></g><g id="Head Accesory" transform="matrix(-0.707107 0.707107 0.707107 0.707107 460 -17.4214) scale(1 1)"><g id="Head Accesory/Cap"><path id="Fill 1" fill-rule="evenodd" clip-rule="evenodd" d="M111.985 154C77.141 154 58 169.852 58 199.969V199.97H196.699C198.264 199.97 199.56 198.755 199.662 197.194C199.774 195.481 198.415 194.031 196.699 194.031H138.822C139.985 176.21 146.829 154 111.985 154" fill="#FF7272"/></g></g></g></g></g></svg>