<svg viewBox="182 143 780.0000000000001 611" xmlns="http://www.w3.org/2000/svg" overflow="visible" xmlns:xlink="http://www.w3.org/1999/xlink" width="780.0000000000001px" height="611px"><g id="Master/Composition/Sticker" stroke="none" stroke-width="1" fill="none" fill-rule="evenodd"><g id="Stickers" fill="#000" transform="scale(1 1)"><g id="Stickers/Watermeloon" stroke="none" stroke-width="1" fill="none" fill-rule="evenodd"><g id="Ink" transform="translate(185.000000, 144.000000)" fill="#000"><path d="M565.414341,451.417878 C381.255548,642.617042 62.0149385,506.470604 128.440032,234.728155 C139.59152,188.587691 165.130413,201.322983 119.286024,171.466736 C116.345289,169.678957 115.014746,173.433183 113.816257,175.97669 C100.717226,206.466594 89.4259149,238.667706 85.1624045,271.617887 C55.8316277,485.664227 305.039472,627.721101 488.409261,539.077878 C524.357246,521.22006 558.73277,498.236388 584.164022,466.927501 C585.389143,459.149385 571.383478,454.346462 565.414341,451.417878 M369.249582,517.144012 C429.790986,516.968674 483.139243,499.706783 527.956039,460.495491 C532.419298,454.369766 553.801213,440.20292 541.757518,434.255862 C422.727675,365.312613 306.266813,291.731791 190.594956,217.634943 C181.108035,211.530304 171.517911,205.585466 161.906702,199.678359 C153.636025,197.59983 154.672495,213.511177 151.287876,218.618166 C128.173701,289.03625 136.393332,371.181989 185.369326,428.95134 C229.69674,484.202709 299.153564,516.433783 369.249582,517.144012 M371.335839,590.90683 C251.986399,593.839854 130.802607,527.355772 83.5721884,415.149596 C47.899412,336.284227 41.6273243,215.901541 116.892377,159 C140.796666,162.550035 163.546855,179.267047 186.193842,188.67647 C265.440538,233.326562 340.188465,285.704833 419.088932,330.978595 C481.527942,372.497022 550.780579,405.467179 607.649949,454.388632 C612.837849,459.972806 600.993902,463.831347 606.731109,473.15643 C610.253332,492.259368 577.324871,509.893019 565.240116,522.596129 C510.056398,566.186426 441.104492,588.061476 371.335839,590.90683" id="Fill-1"/><path d="M126.070718,47.8928771 C90.2292837,50.8468534 99.9490699,-8.35029303 129.298077,1.003405 C152.182385,9.98631572 154.692183,45.325371 126.070718,47.8928771" id="Fill-3"/><path d="M292,171.572126 C291.1168,201.502723 257.80674,199.752154 251.029577,176.518852 C249.728254,154.130113 291.799883,144.2523 292,171.572126" id="Fill-5"/><path d="M589.97253,252.683361 C589.273387,264.281971 580.046021,283.924245 566.411638,274.53463 C561.096614,269.979612 553.021295,266.905361 554.097491,258.603117 C552.90587,234.646726 591.168548,222.990653 589.97253,252.683361" id="Fill-7"/><path d="M174.879063,574.218246 C185.390182,572.555677 197.155329,584.365766 194.66175,593.266921 C189.969724,599.896949 186.068426,611.862271 175.987196,608.376276 C174.552748,608.005066 172.680615,607.204153 172.094808,606.042155 C168.592215,599.393004 160.027847,597.325479 159.254938,589.064379 C157.258071,581.079999 167.41726,572.516307 174.879063,574.218246" id="Fill-9"/><path d="M642.159033,559.793271 C645.949746,561.67169 650.197091,566.952737 648.687297,571.020616 C643.781866,578.712504 638.45226,589.4672 627.289411,586.492945 C617.598303,584.934421 624.258631,571.331656 613.413633,569.777561 C613.342005,566.708111 618.106417,564.305019 612.73652,562.851651 C606.486936,559.353829 618.918953,555.838297 621.511008,553.932205 C628.3325,550.982301 640.967091,550.279416 642.500388,560.160764 C639.879233,560.294699 638.031443,561.075068 637.230099,563.719466 C640.586565,566.588565 642.293337,563.044253 642.159033,559.793271" id="Fill-14"/><path d="M601.094993,364.407497 C600.798893,357.539274 609.42544,347.113726 616.946838,349.29434 C624.739019,351.537383 637.687095,354.564614 634.50704,365.565161 C629.78594,385.612353 599.078427,384.360499 601.094993,364.407497" id="Fill-16"/><path d="M760.740935,468.979619 C761.134274,471.685639 760.646181,474.261488 760.064437,476.894701 C769.430747,475.684548 762.902646,481.616171 761.186058,486.083918 C746.678799,505.651544 725.253406,485.204709 730.937536,465.186999 C732.134079,459.733038 738.514541,464.407073 741.286643,460 C750.236477,462.466637 748.667529,475.281899 760.740935,468.979619" id="Fill-18"/><path d="M442.412202,263 C460.923758,265.712076 461.93546,286.684657 444.771342,292.9761 C426.496709,300.308955 412.445173,265.952317 442.412202,263" id="Fill-20"/><path d="M0.740981385,485.654379 C-4.41969646,473.380273 18.8144904,470.198259 25.9897704,475.399522 C33.385554,480.916909 29.5924447,496.406938 22.3748458,501.087528 C12.7528656,504.859128 -2.63896192,496.397094 0.740981385,485.654379" id="Fill-22"/><path d="M76.5776234,126 C68.4567459,123.559324 60.6422545,110.460809 70.878184,105.636781 C75.2104168,95.327295 82.1979954,101.54253 88.3169311,105.583867 C96.6102193,113.387636 83.677214,122.945297 76.5776234,126" id="Fill-24"/><path d="M714.962639,340.909947 C703.595827,339.160933 709.180854,336.814367 706.831049,330.142825 C703.607135,326.193836 710.620363,323.773415 713.266438,322.075876 C724.473807,320.549545 729.668707,342.576154 714.962639,340.909947" id="Fill-26"/><path d="M200.405075,293.632632 C194.752149,293.632632 189.09811,293.556606 183.446298,293.653567 C171.646999,293.093838 166.920819,276.6733 179.259234,272.662647 C194.422442,270.446872 223.064674,257.94884 234.478572,270.541629 C235.303955,273.011927 237.047172,274.89495 239.593495,275.095483 C242.351454,274.887237 244.537995,281.821039 243.883035,283.416485 C235.384154,297.980444 214.784113,291.82894 200.459655,295 C200.440719,294.543843 200.422897,294.088788 200.405075,293.632632" id="Fill-28"/><path d="M272,410.470466 C276.799412,393.34498 293.617368,360.737014 314.106936,361.013626 C316.323883,360.725905 319.923372,365.070597 318.781611,366.874683 C316.407102,377.044885 315.531641,385.99644 307.761228,393.912645 C299.23297,403.111928 295.086456,419.659751 283.094078,424 C275.589966,423.691172 271.952751,420.241858 272,410.470466" id="Fill-30"/><path d="M379.597204,411.419531 C381.121461,433.140662 363.122255,485.758009 350,442.308034 C350.157682,427.700186 351.955925,390.209719 375.024433,400.885703 C380.246942,402.295136 380.498562,409.205653 379.597204,411.419531" id="Fill-32"/><path d="M220.005799,360 C209.911162,359.878253 213.407765,354.127607 214.365723,349.007635 C212.939331,342.92904 216.220587,339.159257 220.235575,335.643938 C228.974862,328.119729 258.056607,309.135909 266,322.838524 C265.371722,326.828768 267.084502,331.622984 262.744274,334.723703 C249.66587,343.44345 235.70055,357.701058 220.005799,360" id="Fill-34"/><path d="M456,440.411732 C446.18045,468.819254 406.620793,408.888958 430.597226,401 C446.540399,405.705385 453.201142,424.846495 456,440.411732" id="Fill-36"/></g></g></g></g></svg>