<svg viewBox="0 0 1039.9999999999998 1039.9999999999998" xmlns="http://www.w3.org/2000/svg" overflow="visible" xmlns:xlink="http://www.w3.org/1999/xlink" width="1039.9999999999998px" height="1039.9999999999998px"><g id="Master/Composition/Color Comp" stroke="none" stroke-width="1" fill="none" fill-rule="evenodd"><g id="Color/Bottom" transform="scale(1 1)"><g id="Color/Bottom/Balance" stroke="none" stroke-width="1" fill="none" fill-rule="evenodd"><g id="Color" transform="translate(20.000000, 373.000000)"><path d="M144.4153,439.0168 C159.6763,448.4758 166.5343,467.5878 178.3743,480.8148 C202.4643,509.1908 211.3243,547.7698 234.3223,576.1498 C247.7743,583.8908 252.2543,600.3418 263.0083,611.0368 C269.0133,618.1098 302.0763,660.5958 286.4863,664.2888 C270.4253,673.2848 256.9233,655.8338 241.8413,653.0638 C201.5373,653.7338 161.4513,647.9588 121.1383,648.5378 C86.2273,648.0468 52.2153,656.0948 17.5623,659.5358 C-32.2747,660.9818 41.3513,611.0688 26.3603,592.5228 C8.5513,557.6608 83.1103,526.1338 97.9123,499.4658 C104.4453,482.3358 124.8913,471.1758 127.7113,453.7028 C126.3763,444.4548 138.7873,443.5928 144.4153,439.0168" id="Fill-1" fill="#FF3B53"/><path d="M248.1626,117.3981 C246.2256,114.0021 242.1896,110.2611 238.4316,111.7801 C235.0296,115.1311 246.2846,127.1711 248.1626,117.3981 M143.1256,230.0201 C119.7226,218.2741 109.7346,186.9061 95.7566,165.4221 C81.7546,138.0441 59.5796,116.4881 39.9506,92.9101 C38.0476,90.1711 36.2336,87.5871 32.3116,87.6201 C22.2286,82.3651 32.7206,64.3071 41.5616,61.3761 C78.9636,44.1591 104.4996,7.3521 148.0026,2.7451 C181.9946,-13.6409 217.5576,90.7731 231.8806,89.3751 C259.9396,87.3281 276.9336,111.1751 259.1656,135.1211 C251.4346,144.7391 268.9456,158.0291 255.6336,165.5651 C213.1916,178.6101 184.3226,216.2381 143.1256,230.0201" id="Fill-3" fill="#FFC43C"/><path d="M317.0159,250.4538 C317.7729,246.3608 317.9889,242.7948 313.3909,240.2148 C304.8359,228.3558 321.5159,214.2198 330.7029,207.7828 C341.0299,202.1828 352.3189,189.6428 364.8469,194.9278 C380.6249,198.5968 398.5659,190.9008 410.0699,206.6198 C436.3489,247.9238 450.7899,290.2788 384.5919,291.2318 C349.2949,294.3958 318.5979,294.0968 317.0159,250.4538" id="Fill-6" fill="#3E5DFF"/><path d="M516.2767,620.7492 C504.0787,616.2372 486.6217,622.5222 480.4597,608.6032 C476.9757,600.7802 468.6767,598.0312 464.5507,591.1452 C461.6687,588.5852 455.7617,590.2382 452.0637,589.6642 C442.3317,588.4092 437.1987,581.2142 439.4047,571.3012 C440.0397,562.6622 429.6717,556.6752 439.8437,550.1422 C447.2067,544.4152 505.6447,510.4902 507.9467,525.3092 C513.7967,529.2612 520.2817,523.7872 521.2587,534.3442 C526.8367,550.6172 542.6257,525.7822 550.1697,541.8492 C559.9407,549.0032 553.3717,567.0842 567.9627,563.5072 C569.3497,563.6602 571.5087,564.1602 571.8637,565.0742 C574.1067,571.2912 581.7687,579.4912 574.9467,585.3332 C557.2337,599.1772 537.2557,612.7702 516.2767,620.7492" id="Fill-8" fill="#3BC5FF"/><path d="M437.2456,472.3722 C421.0826,464.9032 399.9086,456.8312 395.0766,437.7742 C394.8466,436.5832 392.6386,435.0272 391.2856,434.9652 C382.3616,435.6492 373.3036,437.3172 364.3026,437.3192 C347.7396,434.6152 357.8906,414.2182 368.1826,409.6422 C387.5466,400.9352 403.7516,385.0082 425.5176,383.5262 C433.4586,381.3312 442.1726,393.7852 437.9906,400.7792 C436.7236,402.7622 436.1716,404.5222 439.5786,405.4152 C447.7276,408.6802 455.1946,420.6262 445.5326,426.4512 C428.9576,437.8892 482.0726,461.5282 437.2456,472.3722" id="Fill-10" fill="#FFC43C"/><path d="M99.2688,414.5514 C57.6908,401.9424 202.0928,298.1624 219.1428,285.3774 C225.1788,280.4664 233.3558,287.0644 230.4548,294.1474 C222.8288,313.6844 202.3408,324.0834 188.3758,338.7804 C158.7388,362.5664 133.2478,398.7714 99.2688,414.5514" id="Fill-12" fill="#3BC5FF"/><path d="M73.5376,386.5275 C47.6116,380.2295 93.3976,339.7545 101.0586,329.6455 C124.6486,297.6055 274.8376,208.9015 167.6316,299.2985 C153.9296,310.6295 139.6176,321.2975 126.6286,333.3905 C107.6786,349.1445 95.1206,374.6325 73.5376,386.5275" id="Fill-14" fill="#3BC5FF"/><path d="M144.4153,439.0168 C69.2003,459.8158 229.2083,336.4918 240.0453,325.9298 C285.7333,323.5218 150.9763,424.1508 144.4153,439.0168" id="Fill-16" fill="#3BC5FF"/><path d="M147.3335,244.3317 C168.0045,248.1977 116.5075,286.6237 110.8455,294.3647 C95.1895,307.4627 84.8695,325.5287 70.6745,339.6687 C65.4285,344.1937 56.1375,336.1317 59.3635,329.9497 C79.8845,294.5247 114.7255,267.8057 147.3335,244.3317" id="Fill-18" fill="#3BC5FF"/></g><g id="Ink" transform="translate(0.000000, 350.000000)" fill="#000"><path d="M159.7036,17.1961 C138.7036,33.5971 116.5476,48.1221 94.0356,62.4221 C78.8786,72.9451 61.5576,80.7101 47.9766,93.3111 C40.4586,100.6451 54.0616,106.1831 57.6066,111.8001 C95.0386,156.1961 132.1446,200.7941 169.5366,245.1381 C171.8756,248.2071 174.6306,245.7481 176.5286,243.3281 C205.0986,209.4091 239.6746,180.9381 267.2496,146.3151 C278.6296,139.3361 232.7436,104.3801 226.8736,95.5631 C199.5456,73.7511 183.1616,42.2611 159.7036,17.1961 M154.4966,269.2471 C72.6756,262.9521 44.5296,353.1301 90.2296,411.1701 C96.6096,422.8331 150.5266,448.2281 162.5076,443.3341 C172.5606,439.3571 177.5866,454.4731 187.7136,452.7471 C315.9356,449.0281 291.2086,264.9241 154.4966,269.2471 M167.1986,669.9231 C199.7256,670.1061 253.8886,670.3361 291.8246,667.8651 C294.6286,667.7461 295.6626,665.7931 294.1986,663.4371 C278.1046,639.2771 265.6246,612.6801 248.1276,589.4641 C220.8226,550.0171 190.5856,512.8511 165.2186,472.1181 C159.4786,464.8381 141.4766,496.7891 135.1416,500.8381 C92.0566,551.8101 57.9556,609.9031 21.8346,665.8881 C18.7426,669.9391 23.0196,672.1661 26.8946,671.6831 C76.4686,672.6251 111.3146,671.0791 167.1986,669.9231 M281.3346,155.4871 C252.4736,186.2401 222.1856,215.5981 193.0116,246.2171 C187.5316,251.2171 184.8836,255.6871 194.2326,257.4481 C310.0776,282.6891 316.3656,457.1151 190.7776,467.3831 C208.2156,503.6121 237.9356,532.6611 257.1626,568.1611 C281.3786,599.2851 294.2356,639.0361 318.7056,669.0211 C321.3466,669.7121 321.0946,673.4391 320.3816,675.6841 C324.2146,683.1301 315.9716,687.4021 309.6116,686.3371 C275.0046,686.5251 240.0636,685.9611 205.4816,688.3731 C149.8036,687.4161 93.7516,690.8581 37.9396,686.5361 C28.3276,683.7621 -2.7054,689.0701 0.1896,674.2451 C33.8966,595.4031 91.0576,529.7441 143.0386,462.8911 C150.7706,450.4981 84.6646,446.5811 70.0586,407.6131 C30.3146,335.8041 59.9386,254.4261 148.8956,253.0611 C161.2276,251.2191 112.0576,207.2601 107.1786,201.8661 C81.6206,174.5691 61.1036,142.9591 34.8506,116.1941 C9.9376,93.2621 47.2026,71.9651 65.6116,61.2561 C95.9406,42.6941 127.2296,25.6511 156.8186,5.9351 C160.2276,3.6401 170.3256,-3.0399 170.2726,4.4661 C169.2856,7.2661 169.4966,9.3501 171.7276,11.2381 C184.0556,21.6721 192.6186,35.3481 202.7226,47.6671 C224.8616,73.1811 251.1496,94.4531 272.9736,120.2111 C283.6356,130.5891 297.1856,144.2481 298.6046,159.2081 C295.0906,170.5691 285.3286,162.0011 281.3346,155.4871" id="Fill-1"/><path d="M575.8915,589.8832 C566.3455,580.2682 538.3295,537.4942 526.3585,542.6182 C516.4885,545.7722 446.2175,568.4232 454.5125,577.6912 C478.0185,596.2802 499.9465,617.4092 525.6295,632.9612 C528.8355,634.3532 531.5785,631.2902 533.6985,629.1862 C547.2655,615.7582 564.3765,604.8812 575.8915,589.8832 M597.8055,587.9322 C584.4435,605.3482 563.2585,616.9882 547.2295,632.4322 C538.6045,636.8862 536.4495,655.3262 523.9365,647.2122 C494.7075,630.8712 469.7345,608.3632 446.2215,584.7682 C439.6735,576.6492 435.2525,584.5872 429.0825,582.6152 C434.2485,562.0642 484.0545,538.1382 503.5555,528.9552 C513.4865,525.4452 527.5925,517.5732 537.3275,524.3142 C560.1755,542.8552 578.9195,565.5392 597.8055,587.9322" id="Fill-4"/><path d="M382.6208,218.638 C321.6858,217.262 324.5458,315.849 399.0828,304.319 C454.6878,302.52 428.0948,213.229 382.6208,218.638 M389.8038,317.901 C350.0388,322.12 316.6958,286.597 331.2628,246.633 C331.6458,245.361 331.9648,242.898 331.5638,242.725 C315.3708,234.434 361.0638,202.136 371.0218,206.732 C444.2638,176.978 487.8828,322.308 389.8038,317.901" id="Fill-6"/><path d="M455.1589,405.3333 C458.0999,391.7623 396.3009,431.7793 388.0199,433.5693 C384.0029,435.6733 383.9329,437.4553 387.6799,439.4433 C398.9709,445.4323 409.1349,453.0223 418.8769,461.1983 C483.0809,509.5733 439.2929,465.0903 455.1589,405.3333 M471.7069,394.8083 C448.5339,461.2093 506.9229,538.0083 400.2339,463.4863 C390.4199,455.7403 379.0099,451.1783 367.7659,446.0283 C349.6909,432.2653 380.4289,417.5913 391.8579,412.7863 C404.8609,411.2373 477.3689,367.2783 471.7069,394.8083" id="Fill-8"/></g></g></g><g id="Color/Top" transform="scale(1 1)"><g id="Color/Top/Taco" stroke="none" stroke-width="1" fill="none" fill-rule="evenodd"><g id="Group-24" transform="translate(216.000000, 6.000000)"><path d="M486.684496,89 C531.380776,91.4082886 577.109113,98.4100049 618.365559,116.535772 C645.952091,127.642575 660.047541,154.326714 676.362238,177.393031 C692.058562,200.146722 698.278917,227.13055 707.357361,252.740985 C728.749393,297.908793 715.296016,347.302425 709.111212,394.366464 C700.373197,413.573482 716.768692,430.270877 701.794161,432.195137 C689.136913,435.344022 688.914988,435.434576 684.110211,423.646467 C668.983781,401.88455 638.908676,395.232111 617.912014,379.680647 C585.029454,360.124352 555.528552,335.484132 523.749152,314.305422 C484.236861,291.565745 454.971889,253.098886 413.273747,234.911672 C408.742605,233.249371 403.663115,233.532889 402.564265,226.956989 C394.033092,219.715953 380.379337,216.014045 370.461673,210.028898 C353.811935,201.442498 337.211752,192.737516 323.768072,179.266623 C321.687797,177.180661 319.475014,175.567949 316.288348,175.943099 C275.326005,163.604123 369.115043,125.742032 380.856583,119.616743 C414.586981,105.287749 449.380679,89.0603689 486.684496,89" id="Fill-1" fill="#FFC43C"/><path d="M658.555733,81.6239211 C656.091442,79.9684544 655.471602,78.6341656 653.154738,80.3564544 C654.483733,83.5218878 655.172444,83.3936322 658.555733,81.6239211 M550.484165,58.9787322 C544.196454,59.7223989 539.716609,56.7520433 536.528095,61.90921 C531.84056,72.39491 499.959727,59.9702878 490.444763,59.2266211 C479.764372,61.6613211 468.424325,59.32901 458.075376,63.85891 C448.672327,65.6684989 412.810964,89.5003211 409.701006,79.5772211 C407.652093,76.9668433 404.869273,72.6136989 401.135171,75.2068322 C379.871239,90.7516211 353.860585,102.056432 336.054194,121.260277 C328.601057,136.098043 314.189793,115.534043 306.088837,110.561177 C297.087177,102.711721 321.36637,71.4453878 326.348759,62.7595767 C339.22549,49.3369322 344.144389,76.3223322 362.637338,59.1166878 C370.418689,52.2652544 383.085579,51.5549989 387.620306,41.2762322 C401.812044,12.2484433 413.219886,21.7975544 436.908294,31.6807767 C457.697662,31.9512989 474.192275,27.2640433 492.213888,16.31921 C503.683067,9.28671 517.69079,20.7025322 520.008731,11.8431989 C524.256137,1.69161 529.809941,-1.83919 539.55304,5.28384333 C548.805433,11.3398767 557.267962,18.2419656 559.935638,29.9466322 C563.091869,34.4732989 570.763456,32.05261 575.603799,32.5311433 C594.06016,31.6753878 611.274691,39.6045989 629.262945,42.5393878 C645.981389,46.1499433 661.621571,56.5925322 667.388444,73.0922322 C668.037338,75.2510211 667.252854,79.1029989 668.34941,79.6364989 C674.538118,84.5533211 681.930993,83.4960211 689.029015,80.7724767 C703.423061,74.1333656 734.253611,98.1570322 725.909454,112.231732 C721.917086,116.91791 726.721917,120.00251 728.874137,123.831854 C733.405636,133.513532 740.39497,139.005888 751.213103,141.984866 C765.829905,146.011443 775.96686,157.004777 783.742831,169.96721 C792.239795,183.196932 776.155179,192.116621 768.431938,200.417666 C765.753501,204.370954 763.510888,208.666977 761.483497,213.005032 C758.93204,218.462899 764.798991,220.36841 766.622998,223.987588 C771.217987,231.241032 775.291063,238.476154 783.158503,242.80451 C798.150867,252.474332 808.159765,265.884043 810.46264,284.152377 C814.616425,302.200843 812.228537,320.352777 789.578575,306.798643 C785.068598,329.149599 795.399253,361.343899 772.507167,375.456321 C764.430962,377.035266 754.063719,394.179477 748.574482,387.350677 C735.034867,374.64691 727.612936,372.198199 733.57889,352.01681 C741.561473,310.763788 741.787456,267.883321 728.954845,227.647721 C716.974514,191.555099 707.497213,148.654154 677.819177,123.08711 C658.885023,116.783188 650.934723,95.1640433 631.393642,90.8173656 C616.434638,87.0580767 601.191541,84.3377656 586.441302,79.7841544 C572.02681,77.2459878 566.145869,54.8303656 550.484165,58.9787322" id="Fill-3" fill="#FF3C54"/><path d="M487.953555,524.350461 C530.18043,498.368649 588.6365,506.876427 608.371338,556.35303 C610.38332,561.602809 607.360509,565.101941 602.228935,565.322529 C592.919623,562.252679 585.966404,567.863617 578.542182,571.770404 C551.915421,585.777746 525.303714,599.815364 498.639316,613.748094 C489.65691,618.440997 480.032521,621.854705 471.945883,628.311231 C468.419807,631.126973 467.080995,630.397086 464.172171,626.305393 C458.025466,617.530531 448.894663,609.058436 453.046592,597.118567 C459.15566,575.01759 464.793724,553.11882 476.177388,533.16317 C482.430553,533.374026 486.417954,530.518276 487.953555,524.350461" id="Fill-6" fill="#39C4FF"/><path d="M488.413647,524.366139 C480.844951,549.564937 431.239904,505.756704 451.74783,553.742324 C454.884678,563.384848 454.524059,564.058308 444.504229,567.458956 C409.853573,574.928335 463.403902,594.405953 443.660273,605.759021 C403.660612,616.645186 436.726697,612.613034 445.280368,625.365736 C451.041662,638.477761 424.071656,631.875489 419.518167,626.378078 C370.661269,588.526628 441.796895,597.426839 420.350282,581.017444 C390.909765,552.202834 431.732929,558.594247 430.781325,545.343442 C428.424921,534.408866 418.602086,517.320632 434.289557,512.512818 C447.336435,504.479712 465.836736,518.969855 465.149945,507.098244 C464.196188,484.570693 485.657871,459.194386 507.71054,477.023856 C537.40941,507.953517 548.044984,445.762844 579.666439,475.092769 C585.508469,480.719278 591.25254,482.880589 599.073132,482.352364 C614.055512,480.929062 634.042424,496.457365 630.491133,511.644635 C628.340336,524.318804 647.55111,536.230219 648,550.187834 C645.425072,568.600395 627.915128,543.445706 625.695437,536.199021 C622.68023,527.875446 616.914629,521.700272 610.398726,516.113568 C607.079953,513.269115 602.64057,511.541357 602.344539,506.108495 C602.295022,505.202659 600.096859,503.918137 598.734042,503.667472 C591.236393,502.572294 587.671108,496.10665 582.502951,491.538742 C566.598032,478.378306 560.362012,506.857262 544.936124,506.691586 C526.399223,508.409662 523.994378,504.332326 511.131577,492.5726 C491.864827,482.24801 485.986196,510.426814 488.413647,524.366139" id="Fill-8" fill="#3E5CFF"/><path d="M571.058607,802.062706 C576.257179,803.826319 578.651821,808.679497 580.554679,813.149045 C582.126464,818.971561 584.727893,821.942255 591.109321,822.409094 C598.526821,821.876335 614.276821,836.168948 602.291821,840.656868 C592.921107,842.702529 584.788964,840.083045 587.660393,853.283126 C587.516821,857.922335 590.70325,864.774706 586.21825,867.955045 C581.034679,869.014077 568.628607,851.300142 568.594321,845.583529 C568.223607,841.980658 565.377893,841.149642 562.372536,841.178819 C554.47825,842.43669 539.668964,826.554448 552.309679,823.682094 C556.813964,822.238352 562.714321,822.391803 565.582536,819.447045 C568.969321,815.383819 565.257893,806.05569 571.058607,802.062706" id="Fill-10" fill="#FFC43C"/><path d="M40.5109277,172.872492 C27.571034,169.410158 7.12003404,167.485075 0.0700978723,152.145075 C-0.306434043,151.751825 0.900204255,148.707658 1.81603404,148.448742 C11.4930128,140.490575 75.7801404,171.400242 40.5109277,172.872492" id="Fill-13" fill="#FFC43C"/><path d="M43.6170265,292 C37.1281568,291.869579 4.33378224,270.38759 24.4437119,269 C35.6606147,269.446851 73.8027941,290.183732 43.6170265,292" id="Fill-16" fill="#FF3C54"/><path d="M706.542187,669.000552 C713.071218,668.924702 727.060792,676.672396 725.936007,683.870451 C723.91562,689.21183 716.901823,690.787092 713.562321,686.652717 C711.021259,681.898351 698.783815,673.453717 706.542187,669.000552" id="Fill-18" fill="#FFC43C"/><path d="M530,506 C535.000364,506.030949 540.001818,506.061898 545,506.094616 C539.97236,508.763324 534.975269,508.533415 530,506" id="Fill-20" fill="#39C4FF"/><path d="M658,80.8759523 C654.867902,82.4789973 654.229329,82.5921763 653,79.7285507 C655.145846,78.1694115 655.718669,79.3773054 658,80.8759523" id="Fill-22" fill="#FFC43C"/></g><g id="Ink" transform="translate(191.000000, 0.000000)" fill="#000"><path d="M524.696892,58.3516561 C580.914431,56.0985341 626.447815,76.9382951 673.733354,102.746783 C767.6012,155.302739 774.984585,274.523076 761.671662,370.197749 C765.606738,377.406661 777.626277,375.073763 784.770585,377.531715 C796.731969,376.091441 805.074892,359.60592 801.177508,346.977656 C796.067508,332.148017 783.191815,297.980339 810.294738,301.363256 C854.052277,316.385866 823.058431,257.105041 804.921969,246.789193 C745.502738,205.619588 811.961815,198.035515 808.552277,178.544393 C807.832892,144.952393 717.037508,158.203768 747.659815,118.158568 C755.695815,111.884324 760.998585,106.735563 747.8752,102.51608 C735.867508,97.2120805 722.788277,96.2041049 710.096738,94.5083341 C639.063969,88.2556512 709.214738,56.7895634 660.3892,49.6442561 C643.411508,49.2065683 626.319662,50.0679293 609.475508,51.3950073 C589.1012,56.6677439 567.759815,53.3365732 569.391354,27.6844024 C568.407046,18.7376756 566.261815,16.735739 556.960431,16.3648902 C518.913815,9.38452439 475.610738,84.2183585 450.618585,29.4944463 C446.098738,23.055261 443.300892,22.2941585 436.135046,24.8340415 C414.867969,35.231822 416.115046,72.4320512 388.258277,74.5450268 C372.945508,80.6554073 350.870738,64.7024415 339.530738,79.0868463 C333.588277,85.3212024 326.998585,126.573817 339.351969,122.259466 C393.125969,88.5650512 461.643046,58.5209098 524.696892,58.3516561 M746.543046,285.533188 C747.300123,161.884227 671.243508,98.0303195 555.213662,76.7744317 C470.626738,71.873622 387.035969,106.461739 318.955046,154.737841 C302.654738,163.882929 327.617815,168.613407 333.007815,175.912876 C357.546585,194.802446 383.857969,210.913885 411.989354,223.860173 C463.670892,253.159383 511.543354,289.521968 560.666123,323.173261 C612.714892,355.643012 666.205662,385.811129 712.224738,426.808246 C713.947815,428.399446 716.915815,427.594144 716.938431,425.504885 C717.028892,417.172646 721.641354,410.880076 726.2312,404.712559 C749.8912,369.638241 747.406738,326.552944 746.543046,285.533188 M289.900738,164.847783 C295.970277,159.287207 302.919662,159.571812 306.962431,152.676612 C310.704738,145.509744 323.015046,139.99768 320.888123,131.178163 C305.831662,101.75929 322.616585,46.0435732 362.187046,58.0228512 C394.027354,71.145939 398.569815,50.6910415 411.993662,27.8795293 C424.171508,9.38129024 455.319354,2.38259756 465.732123,25.7859585 C471.444123,43.167339 485.401046,33.0735683 495.992585,26.4683634 C516.079354,8.60832927 572.855815,-16.6384951 584.247508,20.712661 C585.457969,26.4662073 582.427508,37.7576902 591.307815,37.686539 C620.401969,37.3609683 650.1692,32.6552854 678.773354,40.0431537 C691.670585,44.139739 696.545815,53.6621439 692.864892,66.7334854 C679.819046,87.2746268 748.035662,79.2410073 759.820431,91.9900122 C769.447046,96.5975927 778.281046,109.353066 768.225815,118.184441 C764.626738,121.655759 758.689662,123.080939 758.189969,129.350871 C775.594123,137.913812 795.171508,141.773227 811.513815,152.485798 C823.842431,160.638002 826.7512,172.953632 824.818123,186.802246 C824.627508,203.500144 789.165508,204.793802 798.208431,221.978978 C819.011354,238.20469 838.621046,252.56969 846.275815,279.621168 C857.081662,303.183002 833.388277,322.651485 810.6232,314.233002 C806.513662,312.880051 804.945662,316.04089 806.250892,319.492802 C817.358277,339.388193 825.330738,362.834676 806.231508,380.956676 C794.801046,397.375359 776.328585,392.830305 759.242123,390.893051 C736.371508,399.294285 734.703354,463.833832 701.793662,435.134017 C662.536585,403.346671 620.389046,375.471563 575.435046,352.414256 C531.731354,325.030739 489.370585,295.368227 446.048123,267.366988 C417.009969,243.198212 379.762431,232.915783 349.4072,210.656232 C328.017354,196.980105 312.637815,177.838271 289.900738,164.847783" id="Fill-1"/><path d="M622.542351,499.431604 C610.763218,500.760779 632.546752,518.930473 633.888569,503.631493 C632.39814,498.449546 627.363632,500.213154 622.542351,499.431604 M642.545769,524.933856 C643.303906,536.965417 655.425493,541.010074 657.383297,528.228225 C655.618258,521.937015 647.402588,524.491876 642.545769,524.933856 M581.227081,490.660994 L581.271234,490.245964 C586.362817,489.834168 596.937976,495.832161 598.256101,488.43708 C598.726707,484.776191 601.033426,477.390811 594.945711,478.107681 C584.382398,478.522711 551.5811,492.607863 581.227081,490.660994 M485.812662,527.314081 C452.576296,508.995622 456.16022,523.275892 463.102994,551.613284 C465.56048,562.965705 481.145377,530.935083 485.812662,527.314081 M536.611113,497.818916 C531.665988,494.200069 529.05989,489.00842 526.997627,483.349997 C510.640592,472.07627 500.2162,501.766553 500.203277,516.86718 C512.208558,509.975525 526.608866,506.865494 536.611113,497.818916 M583.600569,508.639882 C555.519324,508.352056 532.633044,525.651804 507.625272,534.778154 C504.196422,536.467381 503.472745,541.307602 499.77144,543.132656 C474.743206,563.913267 481.307989,597.551186 478.491895,626.375835 C479.749715,632.380296 486.200346,627.701775 489.496737,626.260489 C536.863108,603.607392 583.880563,580.628739 630.956171,557.603731 C652.233561,550.65063 622.472352,525.672286 613.57285,517.948414 C604.746578,511.509519 595.703848,508.771398 583.600569,508.639882 M470.212688,628.432659 C461.969018,642.442351 442.222979,631.161078 429.719093,630.027022 C422.279868,628.406787 418.587178,618.243401 426.186861,611.74845 C430.1057,607.321103 445.736904,603.350828 436.658637,596.257586 C399.803887,552.80124 451.953848,564.230199 449.135601,549.865846 C443.998788,533.171934 445.151071,499.943654 470.733908,508.040514 C477.141463,510.610467 484.278079,517.797494 487.176017,507.095108 C492.355906,491.252816 500.376658,472.978556 519.110411,470.945448 C538.674454,464.824562 535.308064,492.727521 549.031001,484.501301 C564.640667,476.808691 607.535749,450.918359 614.302989,478.207935 C610.359381,491.962141 627.581166,485.316269 635.353153,488.122304 C656.452856,493.320421 644.724337,506.487116 668.368754,514.863178 C685.763921,530.965267 664.498376,544.129806 655.123961,555.122175 C655.577336,561.389668 651.398964,563.667483 646.845831,565.752335 C594.09819,588.70296 544.142952,618.260649 488.810752,635.520511 C453.441047,641.831125 466.325079,584.116069 462.124092,564.381119 C401.856459,572.944753 476.88193,589.231181 447.560096,611.995312 C444.306781,614.09849 432.953024,618.935477 439.770878,622.706322 C449.768818,624.447293 460.158749,630.787012 470.212688,628.432659" id="Fill-4"/><path d="M755.932354,579.409381 C773.143185,577.148731 803.026094,577.455972 809.265667,558.274401 C808.967108,547.361399 799.388409,537.004666 788.529246,536.351373 C764.714534,535.350952 747.116761,554.394534 730.548318,568.56214 C727.776133,579.185149 748.804647,578.007929 755.932354,579.409381 M721.337161,551.764116 C744.518107,535.464146 766.286014,513.844048 796.778977,520.593658 C819.231308,523.461245 835.176763,561.230388 814.20753,575.229819 C788.547569,588.636328 752.083414,597.66815 725.632324,582.106638 C720.530942,578.145918 718.438869,578.72267 714.040234,583.177132 C670.899984,632.322834 661.244759,700.893744 661.195179,764.228612 C659.124663,772.665355 671.531594,829.599898 654.900637,815.875367 C636.479399,732.56549 643.645908,632.279712 705.101768,567.723424 C716.187277,547.870234 689.00865,528.902115 721.090337,494.64415 C740.835153,471.022131 778.947314,450.995376 806.262826,471.53959 C788.480743,474.779101 767.439295,471.295953 752.331315,485.205907 C730.871668,501.045553 710.656918,522.501789 721.337161,551.764116" id="Fill-6"/><path d="M198.236985,213.222964 C196.639908,203.68153 181.164523,151.786042 168.955446,161.670127 C131.362215,208.530367 188.593138,249.860778 198.236985,213.222964 M48.1419077,114.85622 C33.6497538,115.323864 -23.2494769,125.799507 10.5637538,105.358964 C37.1066769,98.4369798 64.4992923,96.1763442 91.2834462,103.048763 C117.684215,109.461081 144.800062,114.883158 167.896831,129.971662 C172.894831,132.988716 173.035908,133.003802 177.192831,129.049305 C192.5756,114.420902 210.690523,104.743701 231.152062,99.5134217 C236.348215,98.2904372 254.358677,95.2615302 250.834985,104.168305 C235.567446,108.634623 180.1856,126.347964 185.684369,145.704522 C257.565754,252.204383 139.236677,263.102414 149.821754,180.953414 C148.786831,169.76122 168.625908,151.110437 156.829292,144.920088 C125.368062,125.9676 83.6696,117.307577 48.1419077,114.85622" id="Fill-8"/><path d="M394.553077,354.311859 C373.765488,351.217423 373.185832,351.401874 372.171434,371.772857 C369.114181,389.760081 351.137274,374.452821 354.277799,361.94162 C354.004192,346.996751 355.119165,349.286113 341.509144,346.462928 C328.744816,344.145356 331.315417,337.881618 342.759298,336.725002 C357.797911,338.547811 354.06259,323.753758 358.20778,314.073337 C359.26111,308.050471 369.931755,309.022636 371.004552,314.913132 C373.661669,321.961329 369.610565,335.146318 378.210238,337.895723 C386.781794,340.674423 398.328412,338.916713 403.913008,347.106336 C408.384795,353.657601 397.824457,354.515841 394.553077,354.311859" id="Fill-11"/><path d="M539.315953,723.244626 C530.163769,699.189017 529.547623,691.853508 549.125001,715.272709 C557.718902,725.692686 572.970398,714.979982 584.533588,720.14281 C599.759366,729.392966 571.738105,734.044064 564.77083,735.325555 C554.418501,739.497449 567.579386,755.837006 561.831545,762.834252 C548.39527,765.233525 552.8776,740.770267 541.147246,742.086452 C529.705142,746.01007 503.327653,756.252244 523.191137,734.895139 C528.6518,731.306529 535.982333,729.19673 539.315953,723.244626" id="Fill-13"/><path d="M468.347221,361.867493 C465.039611,358.503968 463.014631,345.010107 456.926727,347.887909 C447.703023,361.098073 445.67048,374.538203 468.347221,361.867493 M474.10123,373.835409 C420.29989,386.77907 441.246646,368.527917 453.259289,333.264635 C465.570168,306.772308 473.606331,351.843544 484.201273,358.681278 C497.848811,368.758958 484.476817,380.013334 474.10123,373.835409" id="Fill-15"/><path d="M177.900915,291 C151.72366,290.41294 118.436144,271.28087 126.125638,243 C137.926175,248.201067 140.845124,267.136727 155.443123,270.304246 C165.16319,274.93453 175.696789,276.126012 186.215201,277.8427 C199.893367,286.301352 186.08829,290.499751 177.900915,291" id="Fill-17"/><path d="M11.6228234,228 C16.0849274,229.291877 18.6439351,233.949882 23.7725468,234.52547 C29.6174686,238.118636 22.6652329,246.783378 17.7400703,246.917682 C9.66674546,248.376906 1.68984701,229.97832 11.6228234,228" id="Fill-19"/><path d="M741.52193,876.933547 C736.32003,875.657813 727.33633,869.685547 736.06923,865.298347 C741.89813,866.002347 750.21413,857.50528 752.90363,866.130347 C754.03223,871.622613 749.49143,876.648747 741.52193,876.933547" id="Fill-21"/><path d="M757.657599,765 C766.076163,767.437202 766.573111,783.794211 756.369333,782.969895 C751.484266,782.136115 753.459395,775.993694 751.580279,772.398874 C750.052508,767.1039 751.36293,765.045211 757.657599,765" id="Fill-24"/><path d="M584.971521,406.0929 C583.546721,416.590531 562.31937,408.249187 569.466213,399.67525 C571.77961,392.846828 585.7122,400.604556 584.971521,406.0929" id="Fill-26"/><path d="M269.457978,261.981115 C260.324077,260.937695 266.959142,248.499508 273.912042,249.01562 C278.051559,248.950686 282.494664,252.949715 278.331034,256.697964 C276.116058,259.06469 274.485239,262.275556 269.457978,261.981115" id="Fill-28"/><path d="M575,115.703439 C573.596201,122.676112 531.647063,139.79537 533.033625,127.913442 C533.299733,112.4065 566.678477,103.508544 575,115.703439" id="Fill-30"/><path d="M467.869903,154.253045 C468.956625,164.336492 463.104064,174.306471 455.216293,162.960683 C447.111602,155.753234 451.187341,117.803381 463.198701,133.971592 C465.266875,141.395068 466.688545,149.008387 467.869903,154.253045" id="Fill-32"/><path d="M592,279.010345 C594.398754,271.561506 595.945147,251.676985 608.435583,256.84696 C622.051654,263.628286 592.289542,315.733316 592,279.010345" id="Fill-34"/><path d="M638.045639,166 C644.394625,168.845544 659.382699,165.978701 658.992526,175.388592 C658.410517,181.129734 655.372585,182.284139 650.925693,181.94655 C631.419196,180.100993 595.204611,174.663362 638.045639,166" id="Fill-36"/><path d="M687,337.100468 C686.026156,344.419588 679.375244,362.876406 670.764471,351.25091 C662.894041,340.30124 683.711063,314.256691 687,337.100468" id="Fill-38"/><path d="M529.985233,226.758556 C530.629656,251.69084 509.927831,219.354462 517.780823,209.528668 C526.851753,199.832245 529.910154,220.725155 529.985233,226.758556" id="Fill-40"/><path d="M706.001661,280 C698.471714,279.975212 674.864661,273.074511 687.804558,264.062538 C693.696572,263.034384 717.238627,274.952993 706.001661,280" id="Fill-42"/><path d="M604,529.206297 C602.992513,537.325403 597.441498,543.275316 591.280745,548.143328 C570.54093,556.054252 594.099962,505.966474 604,529.206297" id="Fill-44"/><path d="M533.982558,570.231039 C530.193514,578.649691 520.749625,565.55293 517.619037,561.637403 C513.114095,541.732487 534.698455,552.753209 533.982558,570.231039" id="Fill-46"/><path d="M499.370144,599 C495.179828,593.691881 501.524253,583.482603 506.018354,579.110822 C520.42157,577.342919 505.008217,597.287241 499.370144,599" id="Fill-48"/><path d="M560.949846,543.825181 C556.796749,547.572614 550.159981,541.531868 549,537.231518 C550.701736,529.000808 561.836256,538.459304 560.949846,543.825181" id="Fill-50"/></g></g></g></g></svg>