<svg viewBox="208 208 624 624" xmlns="http://www.w3.org/2000/svg" overflow="visible" width="624" height="624"><g id="Master/Composition/Sticker" stroke="none" stroke-width="1" fill="none" fill-rule="evenodd"><g id="Stickers" fill="#000"><g id="Stickers/Banana" stroke="none" stroke-width="1" fill="none" fill-rule="evenodd"><g id="Ink" transform="translate(216 219)" fill="#000"><path d="M386.056 128.187c14.628-4.502 19.286-6.979 1.756-13.206-5.965-.953-4.574 9.265-1.756 13.206m13.753 55.407c-2.785-3.67-9.24-.456-13.466-.967-4.252.336-5.822 2.272-6.11 7.306 1.997 7.332 16.95-2.573 19.576-6.339m-6-8.622c10.469 2.924 23.24-7.368 11.584-8.862-6.366 1.113-13.157 1.805-19.276 3.763-6.247 5.656 3.377 6.118 7.693 5.1m-10.017-19.022c-.715 11.392 19.387-.57 26.834 1.864 4.913-.086 5.288-11.118-1.069-9.365-7.645.891-15.038 4.025-22.987 2.486-1.934-.015-3.086 3.57-2.778 5.015m.196-15.742c.405 11.58 18.645-.337 25.896.23 7.057-1.271 2.953-10.123-2.361-9.99-7.11 2.659-23.51-.453-23.535 9.76m10.58 205.478c-27.822 15.921-33.382 53.578-35.246 83.145.174 10.885 43.207-12.087 45.847-18.203 2.872-5.368 4.86-11.65 13.148-7.293 16.385-6.143 30.534-19.932 43.982-31.35 7.715-11.356-6.456-13.385 12.52-23.82-17.128-20.703-47.624-26.443-70.369-11.208-1.275.937-2.282 4.06.118 4.542 9.944-.563 9.855 7.13 11.793 14.11-3.274 16.137-26.491 3.974-21.792-9.923m129.417-132.48c-.384-43.7-3.812-91.918-37.047-123.291-32.247-26.58-64.945-60.545-110.405-48.657-11.385 2.162 1.97 17.438 1.776 24.454 4.125 12.441 1.102 28.533 8.16 39.286 55.912 9.444 49.178 91.391-3.245 99.799-18.018 3.859-18.47 69.586-33.395 87.257-28.945 45.758-57.484 96.656-107.248 122.513-10.689 6.416-21.401 12.648-33.157 15.185-1.937 5.264-7.993 2.296-11.954 4.478-3.51 1.739-2.254 6.665-2.286 9.867 1.39 13.376 2.881 14.891 16.154 14.201 44.831-3.297 90.416-6.937 133.235-21.357 14.339-1.215-2.504-17.458 3.113-38.931 4.198-48.183 50.702-94.01 101.122-80.805 14.273-2.386 38.028 28.54 43.522 16.739 19.842-36.356 33.56-79.696 31.655-120.739m14.856-7.533c.8 100.76-59.712 195.196-155.227 230.747-31.565 14.61-65.674 24.734-100.57 29.49-36.876 5.461-74.443 15.538-111.666 6.418-9.262-2.115-9.452-14.234-11.11-21.764-4.229-30.903 42.442-25.46 59.893-41.27 50.576-24.684 64.034-51.924 95.15-94.82 34.02-45.93 45.476-108.962 49.465-164.914-.772-27.69.475-55.405-2.865-82.945-4.792-17.448-18.109-52.132 4.374-61.338 65.39-13.565 29.148.702 74.258 23.695 71.248 47 100.903 89.4 98.298 176.7" id="Fill-1"/><path d="M214.878 297.717c21.802 1.921 42.37-1.727 62.803-8.042 3.113-.503 6.887-2.599 8.99 1.082-4.594 26.184-56.443 21.605-77.993 23.243-45.761-2.496-90.796-13.477-135.34-23.807-24.112-6.654-42.743-25.014-63.655-37.958-18.662-9.225-4.659-32.889-4.366-48.685 2.465-13.339 6.427-16.461 19.798-13.185 25.263 6.19 50.12 3.556 75.054-1.355 49.192-3.727 92.077-27.9 137.601-43.86 25.5-13.197 53.898-25.735 71.78-49.177 6.802-9.098 13.664-18.906 22.776-25.874 4.682-1.025 1.967 6.202 1.129 8.408-13.493 29.734-35.436 55.336-64.091 71.196-22.247 12.862-9.525 46.903-39.019 57.16-31.409 11.116-64.659-13.12-96.128-4.258-36.438 5.265-72.356 11.652-109.856 6.468-2.36-.18-3.876 1.17-4.52 3.379-11.615 24.385 17.596 28.355 31.572 41.868 31.085 21.346 70.373 26.597 106.47 35.067 18.774 5.141 37.688 9.844 56.995 8.33" id="Fill-3"/><path d="M607.96 288.57c-6.834 92.205-28.924 207.307-116.577 255.91-15.161 7.692-67.234 32.959-80.376 21.654-.513-31.488 27.882-57.172 29.192-89.62 4.861-12.609 5.297-51.496 22.077-50.758 4.167.897 4.866 5.147 4.09 9.036-6.683 29.732-8.058 61.33-22.04 88.864-3.6 6.038 4.222 9.553 6.245 14.654 3.75 6.884 3.78 7.214 10.846 3.684 14.33-8.04 30.508-13.715 43.024-24.52 62.575-59.338 81.621-151.038 87.987-233.96-3.079-13.164-12.705-24.611-14.062-38.93-2.388-11.29 9.519-15.797 15.367-6.81 4.647 16.889 14.992 33.012 14.227 50.796" id="Fill-7"/><path d="M344.623 492.572c14.008-.452 28.606.457 39.783 10.008 8.72 6.823-.018 18.908-9.307 14.376-9.764-3.998-20.22-3.523-30.362-5.06-47.19 1.697-75.412 55.149-83.737 46.066 8.036-37.184 46.505-63.197 83.61-65.962l.013.572" id="Fill-14"/><path d="M106.737 149.992c-7.342-2.266-16.99.474-26.145-2.903-3.267-1.205-8.21-1.765-10.83-.171-5.536 3.37-10.53 1.753-15.231-.086-12.067-.078-41.563-26.03-14.346-23.682 40 15.979 83.15 10.993 123.188 2.462 22.886 17.381-46.02 24.662-56.636 24.38" id="Fill-18"/><path d="M197.095 567.132c.135-10.389 10.09-61.723 24.434-39.694-.163 18.288-11.394 42.167 3.97 56.79 4.169 4.488 9.845 9.842 10.501 16.267.007.87-1.475 2.61-1.878 2.5-19.103-3.87-38.656-13.663-37.027-35.863" id="Fill-24"/><path d="M174.372 371.91c-31.547-6.068-11.142-18.309 8.137-18.32 17.72-.055 31.214-12.042 47.434-15.59 13.092 13.646-39.999 35.572-55.57 33.91" id="Fill-26"/><path d="M131.214 332.19c9.205 1.594 10.866 8.119 1.636 12.32-15.82 4.629-25.047 37.512-34.12 33.08-20.052-4.44 17.817-48.837 32.484-45.4" id="Fill-30"/><path d="M118.146 103.778c-9.843 1.94-44.928-9.256-23.137-16.778 18.238 1.767 83.005 9.183 23.137 16.778" id="Fill-34"/><path d="M366 549.335c-7.91 1.785-60.685 24.21-43.626 1.712 10.89-7.278 35.477-15.232 43.626-1.712" id="Fill-36"/><path d="M78 336.797c-7.624 5.767-12.505 16.246-21.507 20.203-15.266-4.533 12.54-28.703 21.507-20.203" id="Fill-38"/><path d="M416.26 383.936c-10.204 1.152-12.884-13.67-3.416-14.863 8.506-1.255 13.812 14.064 3.415 14.863" id="Fill-40"/><path d="M451 363.275c-.69 9.362-15.261 13.669-17.997 5.119-.258-8.6 14.265-11.097 17.997-5.119" id="Fill-42"/><path d="M439 340.79c2.243-19.514 19.578 3.006 12.171 9.415-6.925 2.95-11.916-2.78-12.171-9.414" id="Fill-44"/><path d="M397 401.147c-1.556 7.584-16.48 10.027-17 1.34 1.67-7.864 13.923-8.897 17-1.34" id="Fill-46"/><path d="M393 377.198c-.668 2.98-.459 10.697-5.96 9.716-13.437-2.334 4.03-27.219 5.96-9.716" id="Fill-48"/></g></g></g></g></svg>