<svg viewBox="300 183.178 2512.5 1271.028" fill="none" xmlns="http://www.w3.org/2000/svg" overflow="visible" width="2512.5" height="1271.028"><g id="Master/Duo/Presentation"><path id="Shadows" fill-rule="evenodd" clip-rule="evenodd" d="M508 1401c0-.61.611-2.68 5.733-5.81 4.78-2.92 12.154-5.91 22.118-8.86 19.854-5.86 48.83-11.21 84.926-15.72C692.9 1361.59 792.683 1356 903 1356c110.32 0 210.1 5.59 282.22 14.61 36.1 4.51 65.07 9.86 84.93 15.72 9.96 2.95 17.34 5.94 22.12 8.86 5.12 3.13 5.73 5.2 5.73 5.81 0 .61-.61 2.68-5.73 5.81-4.78 2.92-12.16 5.91-22.12 8.86-19.86 5.86-48.83 11.21-84.93 15.72-72.12 9.02-171.9 14.61-282.22 14.61-110.317 0-210.1-5.59-282.223-14.61-36.096-4.51-65.072-9.86-84.926-15.72-9.964-2.95-17.338-5.94-22.118-8.86-5.122-3.13-5.733-5.2-5.733-5.81zm395-55c-110.597 0-210.814 5.6-283.463 14.68-36.289 4.54-65.892 9.97-86.52 16.06-10.277 3.04-18.62 6.33-24.497 9.92-5.535 3.38-10.52 8.04-10.52 14.34 0 6.3 4.985 10.96 10.52 14.34 5.877 3.59 14.22 6.88 24.497 9.92 20.628 6.09 50.231 11.52 86.52 16.06C692.186 1450.4 792.403 1456 903 1456c110.6 0 210.81-5.6 283.46-14.68 36.29-4.54 65.9-9.97 86.52-16.06 10.28-3.04 18.62-6.33 24.5-9.92 5.53-3.38 10.52-8.04 10.52-14.34 0-6.3-4.99-10.96-10.52-14.34-5.88-3.59-14.22-6.88-24.5-9.92-20.62-6.09-50.23-11.52-86.52-16.06C1113.81 1351.6 1013.6 1346 903 1346zm996.95 58.59c-3.55-2.16-3.91-3.45-3.95-3.59.04-.14.4-1.43 3.95-3.59 3.6-2.21 9.25-4.51 16.99-6.8 15.4-4.55 37.93-8.71 66.06-12.23 56.2-7.02 133.98-11.38 220-11.38 86.02 0 163.8 4.36 220 11.38 28.13 3.52 50.66 7.68 66.06 12.23 7.74 2.29 13.39 4.59 16.99 6.8 3.55 2.16 3.91 3.45 3.95 3.59-.04.14-.4 1.43-3.95 3.59-3.6 2.21-9.25 4.51-16.99 6.8-15.4 4.55-37.93 8.71-66.06 12.23-56.2 7.02-133.98 11.38-220 11.38-86.02 0-163.8-4.36-220-11.38-28.13-3.52-50.66-7.68-66.06-12.23-7.74-2.29-13.39-4.59-16.99-6.8zM2203 1357c-86.3 0-164.51 4.37-221.24 11.46-28.32 3.54-51.48 7.78-67.66 12.56-8.05 2.38-14.66 4.98-19.37 7.85-4.36 2.67-8.73 6.59-8.73 12.13 0 5.54 4.37 9.46 8.73 12.13 4.71 2.87 11.32 5.47 19.37 7.85 16.18 4.78 39.34 9.02 67.66 12.56 56.73 7.09 134.94 11.46 221.24 11.46 86.3 0 164.51-4.37 221.24-11.46 28.32-3.54 51.48-7.78 67.66-12.56 8.05-2.38 14.66-4.98 19.37-7.85 4.36-2.67 8.73-6.59 8.73-12.13 0-5.54-4.37-9.46-8.73-12.13-4.71-2.87-11.32-5.47-19.37-7.85-16.18-4.78-39.34-9.02-67.66-12.56-56.73-7.09-134.94-11.46-221.24-11.46z" fill="#0089C5" fill-opacity=".25"/><g id="Background"><path id="Shape" fill-rule="evenodd" clip-rule="evenodd" d="M1950 284c2.69 0 4.88 2.122 5 4.783V884h25c2.69 0 4.88 2.122 5 4.783V929a4.997 4.997 0 01-4.78 4.995l-.22.005h-215.86l77.56 213.29c1.13 3.11-1.02 6.43-4.29 6.69l-.2.02-24 1c-1.76.07-3.42-.79-4.38-2.25l-.13-.2L1698.15 966h-289.21l-103.57 186.43a5.006 5.006 0 01-3.9 2.55l-.23.01-.24.01h-24c-3.4 0-5.79-3.31-4.77-6.51l.07-.19 77.57-214.3H1120a5.008 5.008 0 01-5-4.783V889a4.997 4.997 0 014.78-4.995l.22-.005h25V289a4.997 4.997 0 014.78-4.995l.22-.005h800zm-196.5 650h-392.99l-76.38 211h13.93l103.57-186.428a4.991 4.991 0 013.9-2.55l.23-.016.24-.006h295c1.69 0 3.26.852 4.18 2.256l.12.195 110.48 186.429 14.19-.59L1753.5 934zm221.5-40h-850v30h850v-30zm-30-600h-790v590h790V294zm-685.22 756c2.76 0 5 2.24 5 5 0 2.69-2.12 4.89-4.78 5h-149a5.002 5.002 0 01-.22-10h149zm728.79 0a5.002 5.002 0 01.21 10h-149c-2.76 0-5-2.24-5-5 0-2.69 2.13-4.88 4.79-5h149zm-278.79 0a5.002 5.002 0 01.22 10h-320.22c-2.76 0-5-2.24-5-5 0-2.69 2.13-4.88 4.79-5h320.21zm-156.76-697.021c1.95-2.577 5.78-2.637 7.82-.179l.14.179 49.2 64.9 76.48-27.999c2.98-1.091 6.16.832 6.65 3.898l.03.206.02.205 6.3 81.194 79.47 17.792c3.1.693 4.74 4.031 3.5 6.873l-.09.189-.1.187-38.59 71.711 57.23 57.933c2.23 2.252 1.81 5.938-.76 7.661l-.18.117-.19.11-71.24 39.46 16.83 79.682c.66 3.105-1.7 5.988-4.81 6.033l-.2-.001-.21-.01-81.26-5.319-28.92 76.131c-1.13 2.962-4.66 4.113-7.3 2.485l-.18-.115-.17-.124-65.49-48.411-65.49 48.411c-2.55 1.883-6.14.942-7.48-1.853l-.08-.194-.09-.199-28.92-76.131-81.26 5.319c-3.17.208-5.69-2.537-5.29-5.619l.03-.201.04-.202 16.83-79.682-71.24-39.46c-2.77-1.533-3.41-5.187-1.43-7.565l.15-.163.15-.16 57.23-57.933-38.59-71.711c-1.51-2.792-.06-6.22 2.9-7.141l.2-.058.21-.05 79.47-17.792 6.3-81.194c.24-3.165 3.32-5.267 6.31-4.434l.2.058.19.067 76.48 27.999 49.2-64.9zm3.98 11.297l-47.45 62.589a4.995 4.995 0 01-5.48 1.75l-.22-.075-73.75-27.002-6.08 78.304a5.009 5.009 0 01-3.45 4.374l-.22.064-.22.054-76.64 17.158 37.22 69.159a5 5 0 01-.53 5.537l-.15.176-.16.171-55.2 55.869 68.7 38.056a4.993 4.993 0 012.54 4.962l-.03.223-.04.222-16.23 76.843 78.37-5.129a4.998 4.998 0 014.82 2.8l.1.204.08.21 27.89 73.42 63.16-46.686a4.998 4.998 0 015.54-.269l.2.129.2.14 63.16 46.686 27.89-73.42a4.998 4.998 0 014.55-3.223h.22l.23.009 78.37 5.129-16.23-76.843a5.005 5.005 0 012.09-5.171l.19-.122.19-.114 68.7-38.056-55.2-55.869a4.993 4.993 0 01-1.04-5.463l.09-.212.11-.209 37.22-69.159-76.64-17.158c-2-.446-3.5-2.057-3.84-4.044l-.03-.223-.02-.225-6.08-78.304-73.75 27.002a5.01 5.01 0 01-5.41-1.316l-.15-.175-.14-.184-47.45-62.589z" fill="#0089C5" fill-opacity=".25"/></g><g id="Object" transform="translate(1480 508)"><g id="Object/Trophy"><path id="Rectangle" fill="#FFCE00" d="M39 124h62v12H39z"/><path id="Rectangle Copy 2" fill="#FFCE00" d="M60 118h20v6H60z"/><path id="Rectangle Copy 3" fill="#FFCE00" d="M65 98h10v20H65z"/><path id="Rectangle (Stroke)" fill-rule="evenodd" clip-rule="evenodd" d="M11.352 62.69C8.488 43.36 23.466 26 43.006 26h55.411c19.54 0 34.518 17.36 31.655 36.69C127.747 78.38 114.279 90 98.417 90h-55.41c-15.862 0-29.33-11.62-31.655-27.31zM43.006 36c-13.434 0-23.73 11.935-21.762 25.224C22.842 72.011 32.1 80 43.006 80h55.411c10.905 0 20.164-7.989 21.763-18.776C122.148 47.935 111.851 36 98.417 36h-55.41z" fill="#FFCE00"/><g id="Path 48 + Path 48 Mask"><path id="Mask" fill-rule="evenodd" clip-rule="evenodd" d="M33 9h74l-5.641 69.096C100.026 94.426 86.384 107 70 107S39.974 94.426 38.64 78.096L33 9z" fill="#FFCE00"/><mask id="mask0_203_66493700c577c-46f3-4d8e-8416-42cd3eff080a" style="mask-type:alpha" maskUnits="userSpaceOnUse" x="33" y="9" width="74" height="98" fill="#fff"><path id="Mask_2" fill-rule="evenodd" clip-rule="evenodd" d="M33 9h74l-5.641 69.096C100.026 94.426 86.384 107 70 107S39.974 94.426 38.64 78.096L33 9z" fill="#fff"/></mask></g></g></g><g id="Master/Character/Side" transform="translate(300 200)"><g id="Master/Character/Side"><g id="Bodies" transform="translate(297 340.421)"><g id="Bodies/Blue A"><g id="Patterns"><path id="Mask" fill-rule="evenodd" clip-rule="evenodd" d="M362.086 371.318c20.533-11.706 39.739-27.408 50.11-48.647 10.37-21.241 10.15-48.77-5.117-66.814-13.151-15.546-34.279-21.415-54.265-25.314-65.534-12.782-133.492-13.013-199.11-.676-18.345 3.449-37.26 8.239-51.472 20.34-21.575 18.369-27.406 51.264-17.673 77.876 9.733 26.612 32.793 46.9 58.836 58.066 25.523 10.943 53.708 13.934 81.247 13.983 29.781.054 58.464.047 87.431-8.027 17.434-4.858 34.288-11.823 50.013-20.787" fill="#7192F0"/><mask id="mask0_203_4091723898522-aa4a-4b7d-abe0-8c4b11905554" style="mask-type:alpha" maskUnits="userSpaceOnUse" x="80" y="220" width="340" height="181" fill="#fff"><path id="Mask_2" fill-rule="evenodd" clip-rule="evenodd" d="M362.086 371.318c20.533-11.706 39.739-27.408 50.11-48.647 10.37-21.241 10.15-48.77-5.117-66.814-13.151-15.546-34.279-21.415-54.265-25.314-65.534-12.782-133.492-13.013-199.11-.676-18.345 3.449-37.26 8.239-51.472 20.34-21.575 18.369-27.406 51.264-17.673 77.876 9.733 26.612 32.793 46.9 58.836 58.066 25.523 10.943 53.708 13.934 81.247 13.983 29.781.054 58.464.047 87.431-8.027 17.434-4.858 34.288-11.823 50.013-20.787" fill="#fff"/></mask><g mask="url(#mask0_203_4091723898522-aa4a-4b7d-abe0-8c4b11905554)"><g id="Patterns_2"><g id="Group" fill="#fff"><path id="Path 51" d="M527.949 211.503l.102.994-500 51-.102-.994 500-51z"/><path id="Path 52" d="M28.06 295.504l500 60-.12.992-500-60 .12-.992z"/><path id="Path 53" d="M28.048 325.502l500 48-.096.996-500-48 .096-.996z"/><path id="Path 54" d="M28.014 383.5l500 14-.028 1-500-14 .028-1z"/><path id="Path 59" d="M28.02 283.5l500 20-.04 1-500-20 .04-1z"/></g></g></g></g><g id="Patterns_3"><path id="Mask_3" fill-rule="evenodd" clip-rule="evenodd" d="M173 432.67c6.305-16.93 21.413-25.616 45.304-29.306 22.39-3.457 62.495-5.522 85.319-4.151 17.587 1.057 30.691 5.28 41.19 15.453 26.62 25.796-16.585 50.946-46.081 59.734-29.828 8.888-74.515 9.156-101.758-4.156-16.55-8.087-29.462-22.837-23.974-37.574" fill="#418FE7"/><mask id="mask1_203_4091723898522-aa4a-4b7d-abe0-8c4b11905554" style="mask-type:alpha" maskUnits="userSpaceOnUse" x="171" y="398" width="183" height="83" fill="#fff"><path id="Mask_4" fill-rule="evenodd" clip-rule="evenodd" d="M173 432.67c6.305-16.93 21.413-25.616 45.304-29.306 22.39-3.457 62.495-5.522 85.319-4.151 17.587 1.057 30.691 5.28 41.19 15.453 26.62 25.796-16.585 50.946-46.081 59.734-29.828 8.888-74.515 9.156-101.758-4.156-16.55-8.087-29.462-22.837-23.974-37.574" fill="#fff"/></mask><g mask="url(#mask1_203_4091723898522-aa4a-4b7d-abe0-8c4b11905554)"><g id="Patterns_4"><g id="Group_2" fill="#fff"><path id="Path 49" d="M358.072 209.012l-6.984 291-1-.024 6.984-291 1 .024z"/><path id="Path 50" d="M325.479 499.976l-.998.048-13.968-291 .998-.048 13.968 291z"/><path id="Path 51_2" d="M305.107 499.949l-.994.102-29.682-291 .994-.102 29.682 291z"/><path id="Path 52_2" d="M256.218 209.06l-34.92 291-.993-.12 34.92-291 .993.12z"/><path id="Path 53_2" d="M238.76 209.048l-27.936 291-.996-.096 27.936-291 .996.096z"/><path id="Path 54_2" d="M205.006 209.014l-8.148 291-1-.028 8.148-291 1 .028z"/><path id="Path 55" d="M176.486 499.954l-.996.092-26.772-291 .996-.092 26.772 291z"/><path id="Path 59_2" d="M263.206 209.02l-11.64 291-1-.04 11.64-291 1 .04z"/></g></g></g></g><g id="Patterns_5"><path id="Mask_5" fill-rule="evenodd" clip-rule="evenodd" d="M120.01 191.589c-29.395-27.218-39.704-74.804-19.772-109.555 17.713-30.884 53.796-46.476 88.754-53.226 19.605-3.785 40.571-5.315 58.958 2.468 16.478 6.973 29.303 20.922 37.754 36.693 15.002 27.997 16.957 62.653 5.199 92.159-9.386 23.551-30.178 49.485-54.889 58.197-20.176 7.114-51.822 2.816-71.726-2.633-16.365-4.482-31.793-12.543-44.278-24.103" fill="#418FE7"/><mask id="mask2_203_4091723898522-aa4a-4b7d-abe0-8c4b11905554" style="mask-type:alpha" maskUnits="userSpaceOnUse" x="89" y="25" width="210" height="198" fill="#fff"><path id="Mask_6" fill-rule="evenodd" clip-rule="evenodd" d="M120.01 191.589c-29.395-27.218-39.704-74.804-19.772-109.555 17.713-30.884 53.796-46.476 88.754-53.226 19.605-3.785 40.571-5.315 58.958 2.468 16.478 6.973 29.303 20.922 37.754 36.693 15.002 27.997 16.957 62.653 5.199 92.159-9.386 23.551-30.178 49.485-54.889 58.197-20.176 7.114-51.822 2.816-71.726-2.633-16.365-4.482-31.793-12.543-44.278-24.103" fill="#fff"/></mask><g mask="url(#mask2_203_4091723898522-aa4a-4b7d-abe0-8c4b11905554)"><g id="Patterns_6"><g id="Group_3" fill="#fff"><path id="Path 48" d="M590.465 263.074l-.693.722L229.148-82.687l.693-.72 360.624 346.481z"/><path id="Path 49_2" d="M212.178-65.715l345.068 362.039-.724.69L211.454-65.025l.724-.69z"/><path id="Path 50_2" d="M526.108 327.412l-.672.74L154.912-8.431l.672-.74 370.524 336.583z"/><path id="Path 51_3" d="M501.339 352.143l-.632.775-389.616-317.49.632-.776 389.616 317.491z"/><path id="Path 52_3" d="M88.466 58.065l311.127 395.98-.786.618L87.68 58.683l.786-.618z"/><path id="Path 53_3" d="M67.245 79.27l319.613 387.494-.772.636L66.474 79.905l.771-.636z"/><path id="Path 54_3" d="M26.21 120.256l343.655 363.453-.727.687L25.484 120.943l.727-.687z"/><path id="Path 55_2" d="M345.072 508.417l-.639.769-386.08-321.027.639-.769 386.08 321.027z"/><path id="Path 56" d="M304.087 549.453l-.693.721-360.625-346.483.693-.721 360.625 346.483z"/><path id="Path 57" d="M281.458 572.079l-.691.723-361.332-345.775.692-.723 361.331 345.775z"/><path id="Path 59_3" d="M96.925 49.55l339.411 367.695-.734.678L96.19 50.228l.735-.678z"/></g></g></g></g><g id="Patterns_7"><path id="Mask_7" fill-rule="evenodd" clip-rule="evenodd" d="M300.791 200.575c-12.796-19.615-12.563-47.55 2.37-65.59 14.934-18.041 44.182-23.039 63.1-9.233 11.372 8.3 18.063 21.818 20.838 35.62 2.616 13.016 2.024 26.89-3.191 39.1-5.816 13.615-20.106 30.401-36.169 29.018-18.349-1.581-37.016-13.689-46.948-28.915" fill="#64BBF6"/><mask id="mask3_203_4091723898522-aa4a-4b7d-abe0-8c4b11905554" style="mask-type:alpha" maskUnits="userSpaceOnUse" x="291" y="117" width="98" height="113" fill="#fff"><path id="Mask_8" fill-rule="evenodd" clip-rule="evenodd" d="M300.791 200.575c-12.796-19.615-12.563-47.55 2.37-65.59 14.934-18.041 44.182-23.039 63.1-9.233 11.372 8.3 18.063 21.818 20.838 35.62 2.616 13.016 2.024 26.89-3.191 39.1-5.816 13.615-20.106 30.401-36.169 29.018-18.349-1.581-37.016-13.689-46.948-28.915" fill="#fff"/></mask><g mask="url(#mask3_203_4091723898522-aa4a-4b7d-abe0-8c4b11905554)"><g id="Patterns_8"><g id="Group_4" fill="#fff"><path id="Path 51_4" d="M286.252 89.05l.995-.1 17.85 174.999-.995.102-17.85-175z"/><path id="Path 52_4" d="M315.653 263.94l21-175 .993.12-21 175-.993-.12z"/><path id="Path 53_4" d="M326.152 263.952l16.8-175 .995.096-16.8 175-.995-.096z"/><path id="Path 54_4" d="M346.45 263.986l4.9-175 1 .028-4.9 175-1-.028z"/><path id="Path 55_3" d="M363.602 89.046l.996-.092 16.1 175-.996.092-16.1-175z"/><path id="Path 56_2" d="M383.9 89.01l1-.02 3.5 175-1 .02-3.5-175z"/><path id="Path 59_4" d="M311.45 263.98l7-175 .999.04-7 175-.999-.04z"/></g></g></g></g><g id="Patterns_9"><path id="Mask_9" fill-rule="evenodd" clip-rule="evenodd" d="M298.869 96.947c-12.468-17.475-11.84-43.16 1.427-60.036 13.267-16.875 37.04-19.552 57.01-11.676 19.968 7.876 32.506 26.63 30.803 48.028-3.684 46.293-62.474 61.199-89.24 23.684" fill="#7192F0"/><mask id="mask4_203_4091723898522-aa4a-4b7d-abe0-8c4b11905554" style="mask-type:alpha" maskUnits="userSpaceOnUse" x="289" y="21" width="100" height="98" fill="#fff"><path id="Mask_10" fill-rule="evenodd" clip-rule="evenodd" d="M298.869 96.947c-12.468-17.475-11.84-43.16 1.427-60.036 13.267-16.875 37.04-19.552 57.01-11.676 19.968 7.876 32.506 26.63 30.803 48.028-3.684 46.293-62.474 61.199-89.24 23.684" fill="#fff"/></mask><g mask="url(#mask4_203_4091723898522-aa4a-4b7d-abe0-8c4b11905554)"><g id="Patterns_10"><g id="Group_5" fill="#fff"><path id="Path 49_3" d="M273.012 24.016l227 5.448-.024 1-227-5.448.024-1z"/><path id="Path 50_3" d="M499.976 49.44l.048 1-227 10.895-.048-.998 227-10.896z"/><path id="Path 51_5" d="M499.949 65.333l.102.994-227 23.154-.102-.994 227-23.154z"/><path id="Path 52_5" d="M273.06 103.47l227 27.24-.12.992-227-27.24.12-.992z"/><path id="Path 53_5" d="M273.048 117.088l227 21.792-.096.996-227-21.792.096-.996z"/><path id="Path 59_5" d="M273.02 98.018l227 9.08-.04 1-227-9.08.04-1z"/></g></g></g></g></g></g><g id="Upper/Side" transform="translate(0 235)"><g id="Upper/Side/Running"><path id="Combined Shape" fill-rule="evenodd" clip-rule="evenodd" d="M884.953 48l.706.005c23.517.333 42.869 18.06 44.647 45.455l.296 4.612c1.446 22.822 2.398 42.278 2.979 66.016l.104 4.528c.757 35.391.185 68.85-2.091 99.213l-.198 2.57c-2.984 37.959-8.563 69.114-17.199 91.952-10.547 27.891-25.676 43.236-45.991 43.236-53.209 0-117.426-46.785-193.211-139.98a4.003 4.003 0 01.579-5.63 4 4 0 015.629.579c74.388 91.477 136.908 137.027 187.003 137.027 31.131 0 49.224-47.846 55.408-130.352 2.351-31.359 2.868-66.126 1.967-102.947l-.12-4.669c-.627-23.085-1.633-42.424-3.14-65.636-1.503-23.163-17.369-37.696-36.775-37.97-17.956-.255-31.187 11.8-31.391 31.614 20.782.643 34.25 6.564 36.4 17.859 9.571 1.406 14.151-5.101 14.542-21.903a4 4 0 117.999.186c-.488 21.019-8.51 31.72-23.259 29.709-1.629 3.397-5.149 5.829-10.141 7.241-6.026 1.703-14.684 2.142-26.098 1.398a4.002 4.002 0 01.52-7.988l1.172.073c18.843 1.108 27.484-1.384 27.566-5.351v-.128c-.066-7.97-11.486-13.117-32.383-13.15l-.019.002a15.156 15.156 0 00-2.095.456 17.679 17.679 0 00-5.43 2.641c-4.996 3.61-8.026 9.729-8.026 19.451 0 14.106 12.959 22.47 40.798 24.716a4.002 4.002 0 013.575 4.898l-6.029 25.931c-11.941 51.484-21.406 93.061-28.395 124.727-.838 3.797-6.051 4.289-7.584.715-35.403-82.525-88.708-131.856-160.071-148.382a4.003 4.003 0 011.804-7.799c70.305 16.282 123.691 63.249 160.026 140.565l.631 1.357 2.549-11.397c6.499-28.969 14.582-64.278 24.251-105.927l3.987-17.152-.891-.103c-27.607-3.281-42.338-13.704-42.648-31.57l-.005-.579c0-12.256 4.233-20.803 11.343-25.94a25.574 25.574 0 017.348-3.678l.561-.169-.001-.441c.091-24.026 16.4-39.56 38.14-39.886l.661-.005zM254.61 64.805c41.86-31.406 124.147-9.048 247.533 65.819a4.004 4.004 0 011.346 5.498 4 4 0 01-5.496 1.346c-120.672-73.22-200.423-94.889-238.582-66.26-38.113 28.596-38.113 107.906 1.427 237.776a4.004 4.004 0 01-.974 3.971l-.158.152-10.203 9.307c-12.548 11.444-15.879 29.851-8.193 44.95l.236.457.933 1.773a40.04 40.04 0 0039.581 21.185l.695-.079c14.975-1.747 26.268-14.438 26.268-29.52v-18.011a4.001 4.001 0 017.997-.2l.005.2v14.681l2.096.389c7.768 1.439 15.231-3.694 16.669-11.464.159-.859.239-1.731.239-2.605a26.815 26.815 0 00-17.731-25.233l-.381-.134-14.193-4.867a4.002 4.002 0 01-2.658-4.384l.63-4.199c9.975-66.761 14.439-112.681 13.405-137.551l-.036-.812-.02-.097a3.961 3.961 0 01-.057-.475l-.01-.263a4.041 4.041 0 014.047-4.093c1.576 0 2.948.914 3.599 2.252l.093.208.249.291c.216.247.48.538.786.866l.387.41.544.563c1.696 1.741 3.974 3.92 6.633 6.319l.446.402c8.317 7.465 18.678 15.664 30.292 23.666 32.546 22.421 68.804 39.377 106.808 47.153a4.002 4.002 0 01-1.603 7.842c-39.163-8.013-76.375-25.415-109.743-48.403-11.901-8.198-22.531-16.61-31.098-24.3a209.86 209.86 0 01-2.282-2.078l-.892-.83-.002.598c-.179 26.023-4.462 67.372-12.84 124.18l-.928 6.243 11.038 3.787a34.82 34.82 0 0123.516 32.493l.003.446c0 1.363-.125 2.723-.373 4.063-2.221 11.996-13.649 19.96-25.631 17.941l-.363-.064-.939-.175-.042.332c-2.251 16.659-15.409 30.068-32.432 32.314l-.569.07-.202.024c-19.527 2.279-38.45-7.573-47.801-24.828l-.281-.525-.933-1.773c-9.588-18.224-5.797-40.583 9.189-54.628l.457-.423 8.338-7.606-.468-1.55c-38.876-129.296-38.862-209.774 1.384-241.578l1.245-.959z" fill="#001D2D"/></g></g><g id="Heads" transform="translate(501.137 165.421)"><g id="Heads/Wide"><g id="Patterns"><path id="Mask" fill-rule="evenodd" clip-rule="evenodd" d="M57.366 40.325c-18.192 4.708-35.599 14.438-46.655 29.66C-.346 85.204-4.097 106.33 3.883 123.37c5.985 12.779 17.776 22.118 30.68 27.784 12.903 5.666 26.976 8.038 40.924 10.023 26.308 3.745 53.811 6.178 78.878-2.653 25.067-8.833 46.983-31.869 46.373-58.485-.471-20.63-14.375-39.258-32.042-49.865-31.134-18.693-76.995-18.736-111.33-9.85" fill="#FF996B"/><mask id="mask0_203_43638adb7771f-24af-4b13-adc4-494de073d748" style="mask-type:alpha" maskUnits="userSpaceOnUse" x="-1" y="34" width="202" height="131" fill="#fff"><path id="Mask_2" fill-rule="evenodd" clip-rule="evenodd" d="M57.366 40.325c-18.192 4.708-35.599 14.438-46.655 29.66C-.346 85.204-4.097 106.33 3.883 123.37c5.985 12.779 17.776 22.118 30.68 27.784 12.903 5.666 26.976 8.038 40.924 10.023 26.308 3.745 53.811 6.178 78.878-2.653 25.067-8.833 46.983-31.869 46.373-58.485-.471-20.63-14.375-39.258-32.042-49.865-31.134-18.693-76.995-18.736-111.33-9.85" fill="#fff"/></mask><g mask="url(#mask0_203_43638adb7771f-24af-4b13-adc4-494de073d748)"><g id="Patterns_2"><g id="Group" fill="#fff"><path id="Path 7" d="M291.108 147.73c-35.75 43.173-65.366 64.782-88.925 64.782-7.616 0-15.277-.656-23.861-1.945l-1.463-.225c-3.434-.537-7.043-1.176-11.206-1.971l-3.403-.66-11.429-2.284c-24.929-4.967-41.023-7.066-61.773-7.066-15.405 0-29.59 1.81-49.244 5.66l-2.823.562c-2.73.554-13.7 2.777-16.864 3.377l-1.451.272c-5.461 1.012-9.787 1.664-13.665 2.025-9.927.924-16.84-.139-21.737-3.789l-.28-.214.614-.789c4.577 3.562 11.163 4.674 20.743 3.847l.567-.05c4.012-.374 8.518-1.063 14.294-2.147l3.122-.604c5.315-1.05 15.266-3.072 15.078-3.034l1.112-.221c20.284-4.01 34.765-5.895 50.534-5.895 20.157 0 35.934 1.973 59.577 6.612l14.083 2.809c.772.151 1.507.294 2.234.434l1.78.34c4.366.827 8.127 1.477 11.749 2.022 8.538 1.283 16.149 1.934 23.712 1.934 22.938 0 51.993-21.032 87.09-63.138l1.065-1.282.77.638z"/><path id="Path 10" d="M291.105 138.504c-19.734 23.45-42.973 39.5-69.708 48.143-9.303 3.008-20.641 3.799-34.998 2.794l-2.171-.162c-9.154-.717-16.385-1.694-34.336-4.537l-14.022-2.23c-8.929-1.401-15.069-2.285-21.614-3.086-23.686-2.899-42.256-3.055-58.754.304l-.784.163c-36.693 7.751-60.54 4.588-71.5-9.602l-.329-.433.803-.596c10.402 14.012 33.629 17.343 69.722 9.882l1.097-.229c16.296-3.443 34.527-3.442 57.617-.75l2.249.269c6.886.842 13.321 1.776 23.007 3.304l15.711 2.497c16.515 2.594 23.294 3.462 32.513 4.147 14.65 1.088 26.136.335 35.481-2.686 26.251-8.487 49.11-24.165 68.581-47.044l.67-.792.765.644z"/><path id="Path 11" d="M290.751 125.993l-.056.998c-14.668-.815-26.248 3.123-42.829 12.872l-1.769 1.05c-.591.353-1.206.723-1.871 1.126l-6.374 3.881c-12.252 7.442-19.974 11.438-29.331 14.58-11.823 3.97-24.15 5.446-38.068 4.111l-.91-.091c-34.446-3.591-68.555-1.447-108.733 4.831l-2.802.444c-8.039 1.299-27.556 4.647-30.985 5.181-18.447 2.871-33.079-3.208-43.817-18.207l-.324-.457.818-.575c10.44 14.867 24.618 20.968 42.612 18.335l.557-.084c3.51-.547 23.973-4.059 31.593-5.279l.56-.089c40.42-6.401 74.686-8.683 109.224-5.238l1.401.143c14.147 1.475 26.61.038 38.556-3.973 8.724-2.93 16.029-6.616 27.024-13.215l8.876-5.392c.777-.47 1.489-.896 2.183-1.309l.346-.205c16.88-10.009 28.659-14.16 43.473-13.471l.646.033z"/><path id="Path 12" fill-rule="evenodd" clip-rule="evenodd" d="M38.232 131.534c9.525 1.232 17.242 3.995 20.967 7.778 4.372 4.441 3.128 9.949-4.271 15.872-14.462 11.577-28.714 15.634-39.956 12.395-10.349-2.981-16.81-11.935-16.81-23.244 0-10.495 19.29-15.49 40.07-12.801zm-22.983 35.084c10.897 3.14 24.826-.825 39.054-12.215 6.984-5.591 8.078-10.433 4.183-14.39-3.53-3.587-11.06-6.281-20.383-7.488-20.224-2.617-38.94 2.23-38.94 11.81 0 10.871 6.173 19.428 16.086 22.283z"/><path id="Path 12_2" fill-rule="evenodd" clip-rule="evenodd" d="M35.18 137.993c6.03.788 10.921 2.556 13.3 4.998 2.836 2.91 2.027 6.529-2.703 10.354-9.142 7.393-18.17 9.989-25.308 7.912-6.592-1.918-10.708-7.682-10.708-14.948 0-6.836 12.243-10.039 25.419-8.316zm-14.431 22.304c6.79 1.976 15.492-.527 24.4-7.729 4.318-3.493 4.98-6.453 2.615-8.88-2.186-2.242-6.886-3.942-12.714-4.704-12.622-1.65-24.289 1.402-24.289 7.325 0 6.831 3.832 12.197 9.988 13.988z"/><path id="Path 12_3" fill-rule="evenodd" clip-rule="evenodd" d="M31.942 145.106c2.324.299 4.216.971 5.169 1.931 1.216 1.226.864 2.773-1.041 4.287-6.933 5.508-14.012 3.484-14.012-2.841 0-2.702 4.415-3.939 9.307-3.443l.577.066zm-8.884 3.377c0 5.373 6.043 7.1 12.39 2.058 1.487-1.182 1.687-2.059.953-2.799-.76-.766-2.464-1.371-4.586-1.644-4.559-.585-8.757.494-8.757 2.385z"/><path id="Path 13" d="M290.746 116.149l-.047.999-2.589-.115c-27.025-1.136-48.96.049-67.313 3.256-14.771 2.582-26.461 6.237-38.844 11.601l-.954.416c-3.276 1.438-15.893 7.362-19.088 8.736-12.923 5.556-23.442 7.726-37.846 6.868-20.361-1.213-34.626-5.358-51.13-13.334l-1.19-.582c-2.14-1.067-11.339-5.706-14.09-6.988-9.984-4.651-17.932-6.782-27.635-6.782-20.934 0-36.25 6.956-46.005 20.866l-.312.451-.825-.565c9.937-14.501 25.67-21.752 47.142-21.752 9.626 0 17.556 2.063 27.32 6.536l.737.34c2.98 1.389 13.432 6.669 14.47 7.176 16.747 8.184 31.021 12.411 51.577 13.636 13.963.831 24.204-1.21 36.657-6.475l.735-.314c3.176-1.366 15.788-7.287 19.081-8.733 12.809-5.622 24.794-9.423 40.028-12.086 18.72-3.271 41.132-4.446 68.819-3.215l1.302.06z"/><path id="Path 14" fill-rule="evenodd" clip-rule="evenodd" d="M203.592 130.854c17.879-4.721 34.61-5.996 36.545-2.124 1.231 2.465-.531 5.251-4.659 8.354-2.843 2.137-6.755 4.389-11.651 6.814l-.204.1c-3.129 1.538-9.624 4.472-12.977 5.986a285.78 285.78 0 00-2.017.915l-.607.298c-5.045 2.458-12.035 4.952-18.056 5.936-9.204 1.504-15.438-.509-17.166-7.135-1.738-6.667 10.566-13.652 29.617-18.829l1.175-.315zm20.392 11.849c4.565-2.286 8.225-4.413 10.894-6.419 3.775-2.837 5.296-5.243 4.364-7.107-1.583-3.168-18.172-1.904-35.394 2.644l-.571.152c-18.765 5.027-31.038 11.909-29.509 17.773 1.561 5.986 7.278 7.831 16.037 6.4 6.122-1 13.307-3.607 18.303-6.106.122-.061.955-.438 2.191-.996 3.311-1.496 9.511-4.298 12.67-5.839l1.015-.502z"/><path id="Path 14_2" fill-rule="evenodd" clip-rule="evenodd" d="M198.776 137.715c9.688-2.544 18.641-3.222 19.755-1.005.728 1.449-.269 3.017-2.553 4.724-1.531 1.144-3.627 2.344-6.25 3.636l-.328.159c-1.747.843-5.018 2.312-6.724 3.078-.506.228-.875.393-1.024.462l-.507.245c-2.696 1.288-6.364 2.578-9.539 3.094-5.011.814-8.455-.291-9.416-3.955-.973-3.712 5.554-7.431 15.73-10.209l.856-.229zm11.45 5.987c2.136-1.089 3.866-2.107 5.153-3.069 1.93-1.442 2.684-2.628 2.258-3.474-.739-1.47-9.057-.886-17.799 1.315l-.808.208c-10.028 2.633-16.641 6.285-15.873 9.217.793 3.024 3.722 3.964 8.289 3.222 3.239-.526 7.049-1.901 9.694-3.216.067-.034.521-.238 1.192-.539 1.854-.833 5.364-2.411 6.954-3.194l.94-.47z"/><path id="Path 15" d="M290.872 107.557l-.298.955c-21.846-6.822-40.498-9.45-58.074-8.709l-1.422.067c-12.728.653-23.65 2.798-40.376 7.362l-2.217.609-7.333 2.041c-18.491 5.121-28.778 7.358-42.084 8.564l-.636.057c-18.108 1.585-37.226.212-59.375-4.788l-1.19-.271c-66.695-15.37-100.372-2.192-101.433 39.468l-.022 1.271-1-.009c.41-43.039 34.095-57.072 100.653-42.165l2.027.46c22.555 5.198 41.928 6.642 60.253 5.038l1.26-.115c12.723-1.193 22.808-3.377 40.412-8.233l8.536-2.374 1.889-.519c17.411-4.75 28.578-6.894 42.016-7.462 17.394-.734 35.825 1.809 57.301 8.408l1.113.345z"/><path id="Path 16" d="M304.025 88.034l-.781.625c-15.734-19.68-32.259-27.193-51.769-25.395-8.265.762-17.07 3.153-27.508 7.23l-1.302.514c-3.495 1.393-7.191 2.975-11.443 4.882l-2.437 1.1a887.224 887.224 0 00-3.956 1.815l-10.064 4.668c-25.067 11.589-40.241 17.095-57.69 19.52-43.921 6.104-94.663-2.291-152.225-25.174l-1.746-.698.373-.928c58.132 23.35 109.285 31.949 153.461 25.809l1.219-.175c16.618-2.464 31.433-7.852 55.311-18.857l11.884-5.507a682.736 682.736 0 013.836-1.753l2.419-1.088c4.458-1.99 8.314-3.621 11.996-5.06 10.518-4.108 19.409-6.522 27.781-7.293 19.656-1.812 36.366 5.678 52.163 25.171l.478.594z"/><path id="Path 17" d="M298.361 62.694l-.52.854c-12.336-7.513-25.416-12.286-46.751-14.465-30.53-3.117-70.584.917-122.228 14.12l-1.568.402C50.054 83.538-4.498 81.117-36.356 56.272l-.958-.76.628-.778c31.096 25.054 84.896 27.91 161.404 8.498l2.326-.595c52.51-13.55 93.182-17.71 124.148-14.548 21.194 2.164 34.344 6.885 46.65 14.29l.519.315z"/><path id="Path 18" fill-rule="evenodd" clip-rule="evenodd" d="M64.453 12.786c16.597 0 32.628 5.682 42.519 14.117 9.587 8.174 10.869 16.988 1.969 21.287-9.115 4.404-30.415 9.115-50.285 10.996l-1.384.127c-24.22 2.138-41.887-.133-47.33-7.587-12.18-16.676 18.925-38.94 54.51-38.94zm-6.581 45.469c19.957-1.826 41.54-6.572 50.634-10.965 8.09-3.908 6.935-11.852-2.182-19.627-9.708-8.277-25.508-13.877-41.871-13.877-34.923 0-65.17 21.65-53.704 37.35 5.144 7.045 22.583 9.286 46.435 7.18l.688-.061z"/><path id="Path 18_2" fill-rule="evenodd" clip-rule="evenodd" d="M63.346 27.312c11.114 0 21.852 2.875 28.49 7.15 6.546 4.217 7.461 8.973 1.288 11.225-6.052 2.209-20.108 4.568-33.302 5.535l-1.274.09c-16.245 1.083-28.056-.064-31.747-3.882-4.044-4.182-1.313-9.315 6.34-13.453 7.558-4.086 18.795-6.665 30.205-6.665zM59.113 50.27c13.292-.93 27.623-3.316 33.668-5.522 5.19-1.894 4.476-5.603-1.487-9.444-6.469-4.167-17.019-6.992-27.948-6.992-11.251 0-22.325 2.542-29.729 6.545-7.16 3.872-9.531 8.327-6.097 11.878 3.306 3.42 14.485 4.582 29.79 3.653l1.803-.118z"/><path id="Path 18_3" fill-rule="evenodd" clip-rule="evenodd" d="M76.034 39.197c1.558.766 2.533 1.6 2.75 2.456.263 1.045-.553 1.833-2.166 2.282-7.952 2.215-28.813 3.276-32.206.598-1.116-.881-1.318-1.987-.581-3.044.622-.891 1.903-1.734 3.703-2.477 3.675-1.517 9.125-2.471 14.657-2.471 5.393 0 10.606 1.065 13.843 2.656zm-31.002 4.551c3.044 2.403 23.672 1.353 31.318-.776l.196-.058c1.007-.31 1.355-.67 1.268-1.016-.123-.488-.906-1.157-2.22-1.803-3.091-1.52-8.155-2.554-13.403-2.554-5.408 0-10.73.932-14.276 2.396-1.639.676-2.775 1.423-3.264 2.124-.425.61-.331 1.125.38 1.687z"/><path id="Path 19" d="M304.057 51.163l-.843.538c-5.024-7.87-14.775-12.292-29.549-14.18l-.655-.081c-11.441-1.39-21.901-1.357-46.839-.393l-7.002.268c-8.396.31-14.335.457-20.132.465h-.544c-14.538 0-25.122-2.468-36.866-8.021l-.679-.324c-5.093-2.45-24.191-13.15-26.796-14.53-12.864-6.816-25.579-12.44-41.303-17.86a346.97 346.97 0 00-5.187-1.741C45.665-18.435 7.888-4.98-25.756 35.739l-1.018 1.242-.776-.63C6.596-5.64 45.133-19.662 87.973-5.648a355.23 355.23 0 015.202 1.747c15.324 5.282 27.806 10.76 40.339 17.339l1.47.778c3.676 1.988 21.528 11.974 26.398 14.317 11.661 5.61 22.048 8.15 36.286 8.244l1.91.001c5.071-.015 10.308-.137 17.26-.38l15.193-.571c20.835-.742 30.536-.665 41.099.619 15.185 1.845 25.335 6.293 30.693 14.357l.234.358z"/></g></g></g></g></g></g><g id="Eyes" transform="translate(582 235.421)"><g id="Eyes/Tiny"><path id="Fill 1" d="M75.53 28.9c3.189.532 6.683-1.098 8.139-3.984C86.888 18.535 79.472 13 73.598 15.7c-6.168 2.837-4.678 12.1 1.932 13.2" fill="#001D2D"/><path id="Fill 4" d="M24.92 28.9c-3.19.532-6.684-1.098-8.14-3.984C13.56 18.535 20.976 13 26.85 15.7c6.168 2.836 4.68 12.099-1.93 13.2" fill="#001D2D"/><path id="Fill 5" fill-rule="evenodd" clip-rule="evenodd" d="M32.592 37.556c-2.547.002-5.157.015-7.547.877-2.391.86-4.558 2.759-4.973 5.22-.38 2.251.783 4.549 2.497 6.096 1.713 1.545 3.914 2.46 6.106 3.237 12.753 4.517 26.878 5.246 40.046 2.065 2.638-.637 5.294-1.455 7.477-3.037 2.184-1.582 3.845-4.06 3.801-6.72-.063-3.821-3.633-6.885-7.43-7.766-5.151-1.195-11.83.013-17.208.002-7.59-.014-15.18.017-22.77.026" fill="#FFD6CE"/><path id="Fill 6" fill-rule="evenodd" clip-rule="evenodd" d="M30.088 44.086l10.259.3c3.408.084 6.809.173 10.203.185 3.393.035 6.778-.001 10.15-.08 3.372-.091 6.724-.251 10.077-.482l.029-.002c1.104-.077 2.082.524 2.185 1.34.088.697-.488 1.325-1.343 1.544-3.423.876-6.97 1.38-10.511 1.696-3.547.324-7.105.427-10.65.411-3.544-.042-7.078-.201-10.586-.528-3.507-.32-6.994-.773-10.416-1.464l-.005-.001c-1.07-.216-1.7-1.033-1.409-1.825.25-.68 1.103-1.12 2.017-1.094" fill="#E5A193"/></g></g><g id="Lower/Side" transform="translate(0 700)"><g id="Lower/Side/Walking"><path id="Legs" fill-rule="evenodd" clip-rule="evenodd" d="M552.038 183.301a4 4 0 00-.977-5.574 4.004 4.004 0 00-5.576.977c-39.159 55.777-91.196 113.462-150.898 170.406-38.608 36.824-74.612 67.928-103.118 90.852l-1.754 1.408a13.992 13.992 0 00-5.072 13.11l4.125 26.114.021.166c.246 2.419-2.605 3.969-4.509 2.369l-48.64-40.872-.206-.179a7.575 7.575 0 01-1.003-10.149c34.013-45.692 73.637-99.969 111.598-153.743l3.16-4.48c58.615-83.193 99.342-145.69 114.439-177.934a4.004 4.004 0 00-7.251-3.391c-14.521 31.014-53.808 91.476-110.256 171.777l-3.477 4.941c-36.767 52.183-75.306 105.094-108.922 150.368l-5.713 7.685c-4.927 6.619-3.839 15.924 2.48 21.231l48.639 40.872.23.188c7.615 6.083 18.855-.37 17.317-10.098l-4.125-26.115-.033-.245a5.99 5.99 0 012.205-5.371c28.943-23.186 65.805-54.957 105.391-92.715l1.8-1.719c59.298-56.718 111.015-114.174 150.125-169.879zm125.179-49.639a4.001 4.001 0 00-5.659-.006 4.004 4.004 0 00-.006 5.661c48.13 48.25 95.902 109.513 141.614 178.196 29.255 43.958 53.437 84.432 71.019 116.334l1.629 2.966a13.994 13.994 0 0012.029 7.272l26.434.472.168.008c2.424.178 3.456 3.254 1.549 4.852l-48.697 40.803-.212.172a7.575 7.575 0 01-10.169-.774c-40.177-42.582-88.256-92.575-135.891-140.49l-4.285-4.304c-69.635-69.893-122.524-119.237-151.074-139.294a4 4 0 00-5.574.975 4.005 4.005 0 00.975 5.577c28.593 20.087 82.905 70.895 154.284 142.692l1.929 1.941c44.373 44.674 89.045 91.055 127.24 131.437l6.577 6.961c5.662 6.002 15.014 6.545 21.339 1.244l48.696-40.803.226-.193c7.313-6.444 2.909-18.633-6.938-18.808l-26.434-.473-.248-.009a5.99 5.99 0 01-4.906-3.105c-17.448-31.872-41.693-72.662-71.175-117.134l-1.83-2.756c-45.979-69.084-94.057-130.738-142.61-179.414z" fill="#001D2D"/></g></g><g id="Head Accesory" transform="scale(-1 1) rotate(45 -208.97 -563.98)"><g id="Head Accesory/Cap"><path id="Fill 1" fill-rule="evenodd" clip-rule="evenodd" d="M111.985 154C77.141 154 58 169.852 58 199.969v.001h138.699a2.97 2.97 0 000-5.939h-57.877C139.985 176.21 146.829 154 111.985 154" fill="#FF7272"/></g></g></g></g><g id="Master/Character/Side" transform="matrix(-1 0 0 1 2800 200)"><g id="Master/Character/Side"><g id="Bodies" transform="translate(297 340.421)"><g id="Bodies/Purple B"><g id="Patterns"><path id="Mask" fill-rule="evenodd" clip-rule="evenodd" d="M317.963 454.34c186.973-75.997 141.517-311.921-26.058-310.528-167.574 1.393-206.695 37.701-227.436 127.757-22.704 98.585 66.52 258.767 253.494 182.771" fill="#7344BE"/><mask id="mask0_203_421189d36df47-717e-4525-ad56-167bad04b6f0" style="mask-type:alpha" maskUnits="userSpaceOnUse" x="61" y="143" width="379" height="332" fill="#fff"><path id="Mask_2" fill-rule="evenodd" clip-rule="evenodd" d="M317.963 454.34c186.973-75.997 141.517-311.921-26.058-310.528-167.574 1.393-206.695 37.701-227.436 127.757-22.704 98.585 66.52 258.767 253.494 182.771" fill="#fff"/></mask><g mask="url(#mask0_203_421189d36df47-717e-4525-ad56-167bad04b6f0)"><g id="Patterns_2"><g id="Group" fill="#fff"><path id="Path 7" d="M323.323 478.547l-17.796-3.557c-40.1-7.985-66.157-11.412-99.379-11.489L205 463.5c-25.332 0-48.632 3.004-81.119 9.396l-27.668 5.554a516.61 516.61 0 01-3.379.657l-2.672.5c-8.435 1.556-15.196 2.581-21.258 3.17l-.624.059c-16.146 1.502-27.348-.236-35.241-6.177l-.346-.264.614-.79c7.666 5.963 18.726 7.738 34.88 6.236l1.248-.122c5.87-.595 12.428-1.598 20.548-3.096l4.218-.798c7.425-1.445 26.362-5.288 26.86-5.39l3.921-.774c31.445-6.146 54.322-9.081 79.002-9.159L205 462.5c33.467 0 59.505 3.343 99.343 11.236l16.982 3.396c1.949.387 3.699.731 5.382 1.058l3.728.717c7.462 1.419 13.829 2.526 19.953 3.445 13.901 2.088 26.296 3.148 38.612 3.148 37.427 0 84.746-34.23 141.88-102.733l1.735-2.086.77.638C475.297 451.425 427.194 486.5 389 486.5c-12.37 0-24.813-1.065-38.76-3.159l-1.681-.256c-5.907-.913-12.105-2.007-19.336-3.391l-3.681-.712c-.72-.14-1.456-.285-2.219-.435z"/><path id="Path 10" d="M533.382 366.322c-32.059 38.07-69.804 64.124-113.228 78.154-15.155 4.896-33.656 6.168-57.12 4.504l-2.155-.159c-15.743-1.2-27.533-2.798-58.966-7.785l-19.104-3.04c-14.845-2.338-24.977-3.81-35.571-5.122l-1.201-.148c-38.739-4.738-69.078-4.972-96.046.578l-.888.185c-59.57 12.576-98.242 7.45-115.974-15.49l-.53-.701.802-.596c17.012 22.9 54.9 28.331 113.707 16.182l1.789-.373c26.724-5.642 56.665-5.586 94.713-1.084l3.751.455c10.806 1.338 21.129 2.842 36.447 5.259l20.343 3.237c30.536 4.833 41.972 6.345 57.87 7.526 23.863 1.772 42.581.545 57.825-4.38 42.81-13.831 80.078-39.398 111.811-76.712l.96-1.134.765.644z"/><path id="Path 11" d="M533.028 346.501l-.056.998c-23.791-1.322-42.598 5.015-69.363 20.688l-2.492 1.472a760.892 760.892 0 00-5.592 3.367l-8.676 5.283-2.631 1.591c-18.406 11.073-30.499 17.208-45.009 22.078-19.288 6.472-39.403 8.859-62.14 6.632l-1.121-.113c-56.243-5.858-111.926-2.329-177.583 7.958l-5.643.902c-13.956 2.278-43.306 7.306-48.645 8.137-29.886 4.649-53.565-5.184-70.96-29.466l-.526-.741.818-.575c17.052 24.266 40.233 34.231 69.622 29.929l1.496-.231c7.324-1.17 40.461-6.852 51.689-8.629 65.937-10.435 121.795-14.133 178.129-8.453l1.707.175c23.054 2.401 43.368.06 62.839-6.474 14.877-4.992 27.216-11.332 46.555-23.039l10.593-6.445a622.638 622.638 0 015.412-3.247l1.658-.976c26.643-15.602 45.505-22.025 69.185-20.86l.734.039z"/><path id="Path 12" fill-rule="evenodd" clip-rule="evenodd" d="M122.314 355.504c15.428 1.995 27.92 6.464 33.917 12.551 6.962 7.067 4.985 15.812-6.919 25.335-23.447 18.758-46.524 25.323-64.7 20.09C67.917 408.674 57.5 394.245 57.5 376c0-16.772 31.191-24.844 64.814-20.496zm-37.426 57.015c17.832 5.134 40.587-1.339 63.8-19.909 11.489-9.192 13.315-17.271 6.831-23.853-5.628-5.713-17.367-10.024-31.957-12.076l-1.376-.185C89.119 352.22 58.5 360.144 58.5 376c0 17.807 10.13 31.839 26.388 36.519z"/><path id="Path 12_2" fill-rule="evenodd" clip-rule="evenodd" d="M117.35 366.002c9.744 1.273 17.639 4.126 21.448 8.032 4.465 4.579 3.195 10.255-4.369 16.368-14.795 11.957-29.375 16.147-40.876 12.803-10.583-3.078-17.189-12.322-17.189-23.996 0-10.825 19.731-15.984 40.986-13.207zm-23.517 36.242c11.153 3.244 25.407-.853 39.967-12.619 7.153-5.781 8.276-10.797 4.282-14.893-3.615-3.708-11.32-6.492-20.861-7.738-20.702-2.705-39.857 2.303-39.857 12.215 0 11.239 6.321 20.084 16.469 23.035z"/><path id="Path 12_3" fill-rule="evenodd" clip-rule="evenodd" d="M112.086 377.564c3.716.477 6.735 1.549 8.224 3.049 1.827 1.841 1.302 4.146-1.666 6.503-5.621 4.463-11.188 6.034-15.607 4.772-4.105-1.173-6.673-4.704-6.673-9.145 0-4.278 7.576-6.224 15.722-5.179zm-14.722 5.179c0 9.03 10.152 11.931 20.658 3.589 2.55-2.025 2.923-3.659 1.578-5.014-1.295-1.305-4.126-2.31-7.642-2.762-7.588-.973-14.594.826-14.594 4.187z"/><path id="Path 13" d="M533.023 330.5l-.046.999-2.982-.134c-44.54-1.935-80.623-.021-110.775 5.245-24.216 4.23-43.35 10.232-63.668 19.059l-1.948.857c-6.147 2.746-24.08 11.148-29.711 13.612l-.513.223c-20.975 9.012-38.036 12.529-61.41 11.138-33.233-1.978-56.461-8.762-83.44-21.836l-1.108-.54c-2.391-1.181-18.212-9.163-23.149-11.479l-.197-.092C137.802 339.974 124.833 336.5 109 336.5c-34.165 0-59.183 11.364-75.108 34.09l-.48.693-.824-.566C48.687 347.239 74.178 335.5 109 335.5c15.705 0 28.624 3.384 44.607 10.733l1.293.601c5.313 2.507 21.48 10.668 23.127 11.472 27.272 13.32 50.526 20.202 84.003 22.195 23.207 1.381 40.115-2.104 60.955-11.059l1.103-.482c6.5-2.88 24.907-11.508 29.933-13.713 20.81-9.129 40.278-15.299 65.027-19.622 30.563-5.338 67.185-7.239 112.479-5.193l1.496.068z"/><path id="Path 14" fill-rule="evenodd" clip-rule="evenodd" d="M391.372 354.392c28.873-7.62 56.039-9.688 59.075-3.616 1.91 3.819-.881 8.229-7.484 13.189-4.31 3.237-10.141 6.641-17.383 10.287l-1.518.758c-4.935 2.443-15.82 7.357-21.406 9.879-1.69.763-2.895 1.307-3.303 1.497l-.753.37c-8.198 4.02-19.666 8.129-29.519 9.737-14.83 2.422-24.807-.797-27.565-11.367-2.812-10.782 17.984-22.324 49.856-30.734zm33.006 19.345c7.542-3.765 13.583-7.266 17.984-10.572 6.251-4.694 8.8-8.723 7.191-11.941-2.685-5.369-29.71-3.311-57.925 4.134l-.934.249c-30.713 8.222-50.767 19.465-48.21 29.267 2.59 9.929 12.051 12.981 26.435 10.633 9.993-1.632 21.707-5.879 29.857-9.954l.077-.037c.357-.168 1.635-.745 3.456-1.568 5.448-2.46 15.758-7.115 20.841-9.604l1.228-.607z"/><path id="Path 14_2" fill-rule="evenodd" clip-rule="evenodd" d="M384.491 365.297c15.186-3.877 29.151-4.864 30.818-1.549 1.089 2.167-.456 4.595-4.061 7.287-2.47 1.845-5.865 3.788-10.115 5.879-2.642 1.3-8.467 3.915-11.437 5.249-.885.397-1.516.68-1.735.781l-.57.278c-4.378 2.115-10.427 4.258-15.642 5.104-8.011 1.301-13.451-.444-14.961-6.199-1.555-5.925 9.607-12.085 26.752-16.584l.951-.246zm16.768 10.439c3.934-1.96 7.09-3.783 9.391-5.502 3.25-2.427 4.552-4.473 3.765-6.037-1.307-2.599-14.843-1.658-29.227 1.956l-1.394.358c-16.509 4.331-27.362 10.321-26.039 15.362 1.342 5.115 6.267 6.695 13.834 5.466 5.302-.861 11.528-3.105 15.855-5.256.106-.053.832-.379 1.907-.862 2.79-1.253 7.936-3.563 10.738-4.911l1.17-.574z"/><path id="Path 15" d="M533.149 316.523l-.298.954c-35.563-11.099-65.935-15.376-94.557-14.168l-1.62.073c-20.989 1.018-38.837 4.493-66.282 11.971l-4.985 1.372-9.815 2.733c-30.758 8.533-47.603 12.211-69.582 14.181l-.719.064c-29.559 2.586-60.778.322-96.99-7.893l-1.413-.323c-108.637-25.019-163.62-3.515-165.352 64.444l-.036 2.074-1-.01c.67-70.406 56.346-92.877 166.612-67.482 36.243 8.347 67.445 10.743 96.943 8.292l1.149-.098c21.3-1.864 37.627-5.291 66.195-13.129l15.517-4.308 3.217-.883c28.213-7.687 46.329-11.158 68.119-12.077 28.398-1.198 58.501 2.979 93.625 13.818l1.272.395z"/><path id="Path 16" d="M554.391 284.688l-.781.624c-25.653-32.066-52.631-44.323-84.469-41.391-13.476 1.241-27.824 5.134-44.824 11.771l-1.511.594c-6.072 2.405-12.493 5.152-19.976 8.517l-4.322 1.957c-1.483.675-3.024 1.382-4.7 2.155l-17.003 7.879-4.813 2.212c-37.906 17.32-61.718 25.711-88.923 29.489-71.374 9.913-153.846-3.723-247.416-40.897l-2.84-1.134.373-.928c94.592 37.97 177.84 51.956 249.745 41.969 27.933-3.88 52.306-12.655 92.24-31.058l16.495-7.645c3.351-1.549 6.137-2.825 8.858-4.056l2.828-1.274c7.718-3.458 14.315-6.258 20.601-8.712 17.08-6.668 31.514-10.584 45.096-11.835 31.861-2.934 58.937 9.194 84.565 40.799l.777.964z"/><path id="Path 17" d="M545.26 243.573l-.52.854c-8.522-5.187-16.102-9.023-26.333-12.754-14.007-5.108-30.38-8.816-49.833-10.801-49.692-5.07-114.872 1.49-198.897 22.957l-2.552.655C141.588 276.859 52.959 272.929 1.242 232.622l-1.556-1.233.627-.778c51.18 41.21 140.033 45.536 266.562 12.905 85.367-22.016 151.478-28.773 201.801-23.638 19.534 1.993 35.988 5.719 50.073 10.855 9.969 3.636 17.442 7.372 25.684 12.339l.827.501z"/><path id="Path 18" fill-rule="evenodd" clip-rule="evenodd" d="M165 162.5c26.919 0 52.919 9.209 68.949 22.869 15.445 13.162 17.49 27.216 3.268 34.081-15.129 7.304-51.013 15.144-83.923 18.048-39.276 3.466-67.938-.216-76.698-12.203C57.012 198.495 107.331 162.5 165 162.5zm-11.794 74.002c32.8-2.894 68.577-10.711 83.577-17.952 13.411-6.475 11.493-19.658-3.482-32.419C217.455 172.627 191.686 163.5 165 163.5c-57.005 0-106.467 35.382-87.596 61.205 8.46 11.578 36.894 15.23 75.802 11.797z"/><path id="Path 18_2" fill-rule="evenodd" clip-rule="evenodd" d="M163.2 186.11c18.017 0 35.422 4.657 46.166 11.573 10.463 6.735 11.889 14.138 2.157 17.687-9.905 3.612-33.083 7.481-54.693 9.022l-1.454.101c-26.313 1.753-45.478-.106-51.387-6.214-6.257-6.467-2.227-14.403 9.502-20.969l.735-.404c12.242-6.616 30.467-10.796 48.974-10.796zm-7.167 37.336c21.73-1.499 45.236-5.401 55.148-9.015l.265-.099c8.283-3.155 7.208-9.255-2.027-15.419l-.595-.389c-10.574-6.807-27.791-11.414-45.624-11.414-18.348 0-36.41 4.143-48.499 10.675-11.8 6.377-15.768 13.829-9.993 19.799 5.608 5.797 24.627 7.642 50.601 5.911l.724-.049z"/><path id="Path 18_3" fill-rule="evenodd" clip-rule="evenodd" d="M183.698 205.396c2.456 1.207 3.982 2.51 4.305 3.787.375 1.486-.822 2.641-3.302 3.332-4.644 1.292-15.283 2.67-25.431 3.273l-1.717.095c-12.772.649-22.032-.036-24.953-2.341-1.689-1.332-1.983-2.945-.882-4.523.969-1.39 3.008-2.73 5.884-3.916 5.938-2.448 14.761-3.993 23.719-3.993 8.726 0 17.158 1.722 22.377 4.286zm-50.479 7.361c5.061 3.992 38.682 2.282 51.214-1.206 2.026-.563 2.804-1.315 2.6-2.123-.229-.908-1.563-2.047-3.776-3.135-5.073-2.492-13.355-4.183-21.936-4.183-8.834 0-17.529 1.522-23.337 3.918-2.716 1.119-4.61 2.364-5.446 3.563-.789 1.131-.603 2.153.681 3.166z"/><path id="Path 19" d="M554.421 224.731l-.842.538c-8.268-12.941-24.312-20.174-48.604-23.229l-.746-.092c-17.315-2.103-33.241-2.204-67.985-.949l-19.756.749c-14.011.515-23.809.752-33.488.752-23.708 0-40.925-4.039-60.092-13.135l-.835-.399c-8.272-3.977-39.325-21.362-43.569-23.61-20.935-11.086-41.63-20.234-67.219-29.048a562.467 562.467 0 00-8.44-2.833c-68.433-22.372-130.004-.455-184.799 65.819l-1.658 2.022-.776-.632c55.457-68.151 118-90.894 187.543-68.159 2.865.936 5.682 1.882 8.456 2.837 25.127 8.655 45.55 17.634 66.102 28.446l1.714.908c5.654 3.047 35.088 19.507 43.08 23.349C341.878 197.378 359.103 201.5 383 201.5l1.853-.003c9.491-.03 19.349-.289 33.409-.815l15.66-.599c36.009-1.33 52.318-1.286 69.861.804l.567.068c24.724 3.003 41.188 10.248 49.81 23.372l.261.404z"/><path id="Path 20" d="M564 181.5c-39.531 0-77.503-5.004-116.885-14.625l-2.751-.678c-28.956-7.2-55.375-15.791-96.154-30.541l-28.297-10.281c-2.973-1.076-5.68-2.05-8.296-2.986l-2.395-.856c-13.162-4.692-24.27-8.491-34.876-11.885l-1.025-.327c-26.937-8.577-50.403-14.398-73.395-17.827-75.06-11.193-134.109 12.145-177.22 70.036l-1.302 1.765-.808-.59c43.445-59.486 103.296-83.56 179.478-72.2 22.607 3.372 45.662 9.047 71.997 17.371l1.553.492c9.905 3.155 20.203 6.649 32.166 10.885l3.767 1.338c2.778.99 5.597 2.002 8.677 3.114l30.315 11.01c42.036 15.204 68.793 23.858 98.803 31.189 38.664 9.444 75.958 14.431 114.709 14.592l1.939.004v1z"/><path id="Path 21" d="M545.004 152.5l-.008 1c-81.298-.661-152.791-27.5-214.459-80.509l-1.866-1.614c-45.043-39.231-107.764-53.52-169.818-40.388C96.349 44.216 41.573 83.642 9.407 141.481l-.968 1.758-.878-.478c32.17-59.058 87.668-99.33 151.085-112.75 62.351-13.195 125.393 1.167 170.682 40.612 61.291 53.382 132.359 80.663 213.222 81.849l2.454.028z"/></g></g></g></g><g id="Patterns_3"><path id="Mask_3" fill-rule="evenodd" clip-rule="evenodd" d="M404.798 78.403c-1.112-72.354-299.939-66.905-306.377-1.356-6.437 65.549 47.515 73.297 111.678 69.357 54.479-3.345 195.812 4.353 194.699-68.001" fill="#B164E7"/><mask id="mask1_203_421189d36df47-717e-4525-ad56-167bad04b6f0" style="mask-type:alpha" maskUnits="userSpaceOnUse" x="97" y="26" width="308" height="122" fill="#fff"><path id="Mask_4" fill-rule="evenodd" clip-rule="evenodd" d="M404.798 78.403c-1.112-72.354-299.939-66.905-306.377-1.356-6.437 65.549 47.515 73.297 111.678 69.357 54.479-3.345 195.812 4.353 194.699-68.001" fill="#fff"/></mask><g mask="url(#mask1_203_421189d36df47-717e-4525-ad56-167bad04b6f0)"><g id="Patterns_4"><g id="Group_2" fill="#fff"><path id="Path 4" d="M375.397-84.396c9.161 70.27 22.028 116.96 38.562 140.03 25.099 35.023 9.151 141.065-28.363 186.698l-1.143 1.364-.76-.649c38.056-44.527 54.508-151.87 29.453-186.83-16.491-23.012-29.301-69.126-38.464-138.378l-.277-2.105.992-.13z"/><path id="Path 5" d="M366.884-84.361c3.492 57.639 12.22 110.034 26.185 157.185 13.874 46.845 5.435 106.735-25.286 179.671l-.938 2.214-.92-.391c31.404-73.745 40.122-134.15 26.185-181.21-13.816-46.651-22.514-98.418-26.094-155.3l-.13-2.109.998-.06z"/><path id="Path 6" fill-rule="evenodd" clip-rule="evenodd" d="M360.633 122.786c.361-30.548 4.929-52.943 12.759-54.777 7.976-1.867 14.121 6.722 17.695 22.444 3.198 14.07 3.947 32.568 1.999 48.116-2.328 18.57-4.791 31.735-7.939 40.292-3.977 10.81-9.093 13.592-15.21 6.506-5.857-6.784-9.498-32.504-9.319-60.843l.015-1.738zm31.46 15.659c1.935-15.436 1.191-33.817-1.981-47.77-3.463-15.234-9.291-23.378-16.492-21.692-6.957 1.629-11.451 23.012-11.96 52.029l-.027 1.786c-.339 28.751 3.312 55.256 9.061 61.916 5.475 6.342 9.758 4.013 13.515-6.199l.148-.406c2.896-8.065 5.22-20.215 7.404-37.059l.332-2.605z"/><path id="Path 6_2" fill-rule="evenodd" clip-rule="evenodd" d="M370.349 124.24c.231-19.454 2.612-33.525 6.831-34.736 4.289-1.232 7.498 4.026 9.414 13.702l.164.852c1.676 9.042 2.068 20.926 1.047 30.917-1.219 11.927-2.509 20.382-4.16 25.885-1.001 3.338-2.114 5.479-3.432 6.357-1.568 1.046-3.263.294-4.973-2.136-3.089-4.387-4.995-20.866-4.906-39.061l.015-1.78zm16.461 10.633c1.012-9.898.622-21.687-1.036-30.633-1.789-9.652-4.786-14.79-8.318-13.775-7.618 2.187-8.216 64.357-1.399 74.041 1.438 2.042 2.59 2.553 3.601 1.879 1.063-.709 2.091-2.686 3.029-5.813 1.56-5.196 2.803-13.137 3.971-24.234l.152-1.465z"/><path id="Path 7_2" d="M358.361 64.594l2.245-11.233c.254-1.29.483-2.46.704-3.61l.362-1.898c.88-4.655 1.573-8.664 2.153-12.525 1.366-9.103 2.06-17.218 2.06-25.28 0-24.465-22.4-55.442-67.241-92.858l-1.365-1.136.638-.77c45.964 38.101 68.968 69.663 68.968 94.763 0 8.117-.698 16.28-2.072 25.43l-.238 1.558c-.532 3.4-1.156 6.959-1.92 11.002l-.974 5.038-2.34 11.714c-5.289 26.574-7.524 43.731-7.524 65.853 0 16.15 1.864 31.042 5.825 51.458l4.208 21.045.189.979c1.196 6.309 1.966 11.226 2.395 15.588l.05.521c.984 10.581-.149 17.947-4.037 23.158l-.219.287-.789-.613c3.873-4.983 5.03-12.192 4.049-22.739l-.102-1.039c-.38-3.674-1.004-7.768-1.919-12.774l-.55-2.926c-.917-4.737-3.634-18.126-3.589-17.901l-.45-2.278c-4.121-21.05-6.061-36.245-6.061-52.766 0-22.2 2.242-39.415 7.544-66.048z"/><path id="Path 10_2" d="M288.094-84.713c24.964 21.032 42.051 45.797 51.252 74.29 3.203 9.918 4.044 22.01 2.971 37.326l-.224 2.966c-.723 8.985-1.72 16.473-4.363 33.285l-2.749 17.32c-1.515 9.655-2.465 16.255-3.325 23.293-3.089 25.263-3.254 45.068.329 62.664l.168.81c8.251 39.101 4.885 64.51-10.212 76.182l-.461.35-.596-.803c14.933-11.098 18.482-35.868 10.535-74.352l-.244-1.17c-3.726-17.655-3.663-37.442-.653-62.636l.265-2.171c.851-6.85 1.808-13.436 3.315-23.014l2.738-17.251c2.697-17.185 3.641-24.48 4.363-33.962l.053-.697c1.159-15.62.357-27.868-2.862-37.834-9.041-27.998-25.748-52.376-50.129-73.14l-.816-.692.645-.764z"/><path id="Path 11_2" d="M274.825-84.359l.998.056c-.881 15.87 3.449 28.35 14.166 46.444l1.363 2.281c.403.67.835 1.384 1.311 2.168l3.32 5.453.865 1.432C304.22-14.287 308.284-6.3 311.504 3.3c4.23 12.61 5.801 25.758 4.372 40.604l-.093.93c-3.826 36.752-1.536 73.143 5.161 116.019l.605 3.796c1.474 9.049 4.819 28.581 5.368 32.111 3.055 19.651-3.413 35.235-19.373 46.674l-.487.346-.575-.819c15.843-11.138 22.344-26.267 19.535-45.464l-.227-1.451c-.909-5.605-4.447-26.263-5.577-33.405l-.51-3.262c-6.43-41.708-8.646-77.338-5.057-113.249l.143-1.4c1.57-15.084.04-28.374-4.233-41.112l-.372-1.091c-3.198-9.223-7.299-17.138-14.622-29.248l-4.306-7.081a428.485 428.485 0 01-2.128-3.548c-10.662-18.003-15.078-30.558-14.337-46.359l.034-.65z"/><path id="Path 13_2" d="M264.343-84.355l.999.047-.12 2.679c-1.214 28.846.046 52.255 3.465 71.84 2.753 15.766 6.652 28.242 12.375 41.46l.423.97c1.502 3.426 7.602 16.437 9.213 20.143l.088.203c5.915 13.77 8.224 24.978 7.311 40.327-1.292 21.714-5.711 36.922-14.215 54.529l-1.095 2.22c-1.637 3.27-5.56 11.078-6.865 13.857l-.08.17c-4.955 10.646-7.224 19.122-7.224 29.471 0 22.334 7.417 38.675 22.25 49.078l.461.32-.565.825c-15.431-10.586-23.146-27.347-23.146-50.223 0-10.268 2.2-18.724 6.972-29.145l.513-1.104c1.692-3.577 6.951-13.999 7.473-15.067 8.716-17.855 13.219-33.075 14.523-54.99.886-14.901-1.292-25.827-6.91-39.118l-.322-.755c-1.454-3.387-7.76-16.83-9.298-20.34-5.986-13.651-10.033-26.424-12.867-42.659-3.485-19.961-4.735-43.862-3.421-73.391l.062-1.347z"/><path id="Path 14_3" fill-rule="evenodd" clip-rule="evenodd" d="M279.999 8.536c-5.021-19.036-6.378-36.865-2.278-38.916 2.605-1.303 5.56.568 8.855 4.956 2.274 3.03 4.671 7.197 7.252 12.415l.102.206c1.635 3.33 4.763 10.262 6.378 13.84.502 1.115.858 1.904.977 2.159l.306.622c2.619 5.377 5.279 12.835 6.327 19.257 1.599 9.796-.539 16.424-7.574 18.26-7.07 1.846-14.502-11.26-20.01-31.548l-.335-1.25zm12.614-21.742c-2.435-4.868-4.7-8.77-6.837-11.617-3.03-4.036-5.603-5.665-7.608-4.662-3.328 1.665-2.102 18.686 2.512 36.664l.286 1.102c5.372 20.365 12.792 33.74 19.126 32.087 6.394-1.67 8.365-7.781 6.839-17.132-1.066-6.53-3.842-14.192-6.505-19.52-.065-.13-.465-1.016-1.059-2.332-1.596-3.536-4.589-10.167-6.229-13.53l-.525-1.06z"/><path id="Path 14_4" fill-rule="evenodd" clip-rule="evenodd" d="M287.305 13.67c-2.702-10.305-3.424-19.843-1.087-21.02l.148-.068c1.483-.628 3.091.435 4.842 2.78 1.216 1.63 2.494 3.863 3.868 6.657.855 1.74 2.575 5.573 3.446 7.513.219.49.385.858.469 1.043l.264.547c1.377 2.875 2.761 6.805 3.313 10.204.864 5.327-.308 8.982-4.188 10-3.931 1.032-7.89-5.937-10.844-16.792l-.231-.865zm6.622-11.717c-1.254-2.507-2.421-4.52-3.52-5.992-1.544-2.069-2.819-2.88-3.739-2.417-1.591.8-.965 9.694 1.392 19.046l.213.826c2.808 10.71 6.703 17.77 9.853 16.943 3.24-.85 4.247-3.99 3.454-8.873-.56-3.456-2.025-7.52-3.427-10.342l-.033-.07c-.078-.17-.273-.604-.54-1.197-.832-1.856-2.367-5.274-3.241-7.087l-.412-.837z"/><path id="Path 15_2" d="M255.194-84.48l.954.298c-7.265 23.29-10.064 43.176-9.274 61.914.601 14.257 2.878 26.111 7.937 44.66l2.773 10c5.473 19.773 7.858 30.75 9.143 44.963l.058.649c1.718 19.643.172 40.402-5.386 64.547-16.369 71.11-2.329 107.03 42.056 108.162l1.354.024-.009.999c-45.802-.436-60.734-36.319-44.866-107.249l.491-2.16c5.535-24.045 7.072-44.699 5.364-64.236l-.117-1.286c-1.311-14.046-3.751-25.063-9.302-45.052l-1.999-7.186-.781-2.857c-4.898-18.076-7.12-29.832-7.715-43.936-.782-18.547 1.928-38.202 8.963-61.106l.356-1.148z"/><path id="Path 16_2" d="M234.395-98.485l.625.78c-20.964 16.779-28.968 34.404-27.052 55.212.811 8.814 3.357 18.203 7.7 29.331l.52 1.322c1.587 3.99 3.404 8.222 5.629 13.163l2.017 4.43 5.654 12.215c12.339 26.716 18.2 42.889 20.782 61.484 6.499 46.811-2.439 100.892-26.803 162.245l-.743 1.861-.928-.372c24.864-61.97 34.021-116.503 27.483-163.597l-.179-1.256c-2.53-17.117-7.962-32.43-18.882-56.378l-7.511-16.26c-.431-.94-.835-1.825-1.229-2.695l-.941-2.086c-2.308-5.148-4.171-9.535-5.801-13.712-4.374-11.208-6.943-20.683-7.764-29.603-1.928-20.94 6.042-38.742 26.79-55.574l.633-.51z"/><path id="Path 17_2" d="M207.42-92.456l.855.52-.626 1.04c-7.643 12.854-12.522 26.659-14.781 48.807-3.32 32.547.976 75.246 15.035 130.299l.429 1.672c21.221 82.324 18.644 140.463-7.803 174.41l-.808 1.022-.779-.627c26.685-33.157 29.727-90.514 9.055-172.076l-.634-2.48c-14.427-55.968-18.856-99.318-15.49-132.321 2.275-22.302 7.203-36.244 14.916-49.216l.631-1.05z"/><path id="Path 18_4" fill-rule="evenodd" clip-rule="evenodd" d="M154.283 156.858c0-17.683 6.047-34.763 15.023-45.301 8.692-10.204 18.049-11.566 22.614-2.105 4.69 9.719 9.71 32.447 11.709 53.637l.131 1.426c2.275 25.805-.141 44.63-8.065 50.423-17.725 12.959-41.412-20.169-41.412-58.08zm48.417 7.036c-1.943-21.282-7-44.307-11.681-54.008-4.174-8.65-12.66-7.415-20.951 2.319-8.819 10.354-14.785 27.203-14.785 44.653 0 37.247 23.074 69.517 39.822 57.272 7.514-5.493 9.902-24.09 7.658-49.527l-.063-.709z"/><path id="Path 18_5" fill-rule="evenodd" clip-rule="evenodd" d="M169.751 158.038c0-11.841 3.059-23.28 7.609-30.351 4.477-6.958 9.507-7.927 11.894-1.38 2.426 6.657 5.024 22.404 5.986 36.848l.077 1.199c1.018 16.685-.239 28.782-4.199 32.615-4.434 4.29-9.877 1.391-14.274-6.751-4.348-8.05-7.093-20.023-7.093-32.18zm24.447 4.53c-.99-14.177-3.532-29.467-5.884-35.918-2.028-5.564-6.011-4.797-10.113 1.579-4.441 6.901-7.45 18.153-7.45 29.809 0 11.998 2.708 23.808 6.973 31.704 4.131 7.649 8.896 10.188 12.698 6.508 3.744-3.623 4.951-16.064 3.82-33.029l-.044-.653z"/><path id="Path 18_6" fill-rule="evenodd" clip-rule="evenodd" d="M182.403 144.528c.811-1.652 1.693-2.685 2.593-2.913 1.091-.275 1.917.581 2.391 2.285 2.356 8.467 3.486 30.695.643 34.3-.928 1.177-2.087 1.388-3.198.613-.943-.658-1.837-2.019-2.626-3.932-1.613-3.914-2.628-9.719-2.628-15.611 0-5.744 1.133-11.296 2.825-14.742zm4.172.211l-.151-.571c-.348-1.249-.77-1.687-1.183-1.583-.531.134-1.249.975-1.941 2.384-1.62 3.299-2.722 8.701-2.722 14.301 0 5.768.993 11.445 2.553 15.229.722 1.752 1.521 2.969 2.274 3.494.664.463 1.231.36 1.84-.412 2.51-3.183 1.497-24.273-.67-32.842z"/><path id="Path 19_2" d="M195.131-98.516l.539.843c-8.394 5.365-13.108 15.776-15.117 31.55l-.171 1.407c-1.348 11.55-1.339 22.457-.421 46.835l.402 10.52c.312 8.599.461 14.765.469 20.793l.001.548c0 15.503-2.631 26.784-8.551 39.309l-.332.697c-2.48 5.16-12.9 23.816-15.184 28.027l-.287.535c-7.258 13.713-13.248 27.269-19.019 44.031a372.161 372.161 0 00-1.855 5.529c-14.633 44.78-.3 85.062 43.065 120.932l1.323 1.086-.631.775c-44.699-36.389-59.625-77.453-44.707-123.104a366.664 366.664 0 011.859-5.544c5.633-16.359 11.475-29.678 18.494-43.058l.861-1.624c2.261-4.173 12.709-22.878 15.179-28.018 5.98-12.443 8.686-23.527 8.782-38.725l.001-1.942c-.015-5.294-.139-10.753-.387-17.928l-.621-16.593c-.796-22.3-.715-32.659.654-43.94 1.965-16.19 6.704-27.005 15.294-32.706l.36-.235z"/><path id="Path 20_2" d="M167.075-104.649c0 25.924-3.28 50.824-9.586 76.648l-.556 2.254c-4.484 17.96-9.808 34.506-18.628 59.054L129.534 57.5c-.618 1.715-1.191 3.314-1.754 4.893l-.749 2.11c-2.829 7.986-5.154 14.834-7.249 21.414-5.617 17.646-9.428 33.018-11.672 48.077-7.324 49.133 7.94 87.771 45.814 115.988l1.154.852-.59.807c-39.022-28.512-54.82-67.803-47.368-117.795 2.254-15.117 6.077-30.539 11.709-48.232l.833-2.595c1.975-6.096 4.172-12.507 6.798-19.899l2.133-5.958 6.883-18.961 2.252-6.245c8.955-24.974 14.258-41.635 18.79-60.193 6.154-25.202 9.417-49.515 9.553-74.763l.004-1.648h1z"/><path id="Path 21_2" d="M147.732-92.2l1 .008C148.295-38.329 130.345 8.975 94.89 49.7c-53.383 61.319-32.203 164.586 44.684 208.311l2.346 1.307-.478.878C62.096 216.956 39.784 111.475 94.136 49.043c34.945-40.14 52.802-86.678 53.578-139.636l.018-1.607z"/></g></g></g></g></g></g><g id="Upper/Side" transform="translate(0 235)"><g id="Upper/Side/Presenting"><path id="Combined Shape" fill-rule="evenodd" clip-rule="evenodd" d="M665.894 149.27a3.996 3.996 0 005.082 2.48c96.11-33.109 186.673-70.737 271.687-112.886a4.006 4.006 0 001.625-1.478L963.69 6.081a3.998 3.998 0 10-6.796-4.215L938.093 32.2l-2.197 1.086c-83.768 41.35-172.941 78.316-267.521 110.898a4.003 4.003 0 00-2.481 5.086zm33.152 127.994l161.797 91.589 41.609-4.245a4 4 0 014.358 3.377l.026.199a4.001 4.001 0 01-3.375 4.361l-.198.025-42.874 4.374a3.989 3.989 0 01-2.154-.382l-.22-.116-356.988-202.081a4.003 4.003 0 01-1.512-5.453 3.997 3.997 0 015.261-1.613l.188.1 186.121 105.358c147.342-90.132 257.819-165.92 331.395-227.326a3.994 3.994 0 015.63.509 3.995 3.995 0 01-.51 5.636c-73.293 61.17-182.801 136.387-328.554 225.688zM989.124 61.926a3.997 3.997 0 01-5.6-.788 4.004 4.004 0 01.623-5.47l.167-.133 35.886-27.047a3.998 3.998 0 015.6.788 4.008 4.008 0 01-.62 5.471l-.17.132-35.886 27.047zm-26.642-22.828a3.998 3.998 0 005.626.58l35.282-28.693.17-.138a4.019 4.019 0 00.42-5.491 4.002 4.002 0 00-5.629-.58l-35.286 28.693-.161.138a4.004 4.004 0 00-.422 5.49zm16.994 11.376a3.997 3.997 0 01-5.621-.619 4.002 4.002 0 01.459-5.487l.162-.137 40.454-32.44a3.995 3.995 0 015.62.62 3.997 3.997 0 01-.46 5.487l-.16.137-40.454 32.44zM486.256 303.53a4 4 0 014.954-2.408l.195.068 404.86 152.061a4.002 4.002 0 01-2.615 7.56l-.195-.067-404.86-152.061a4.003 4.003 0 01-2.339-5.153zm381.705 122.606a4.002 4.002 0 00-2.378 7.639l49.983 17.007.196.061a4 4 0 002.378-7.638l-49.983-17.007-.196-.062zm2.094-13.364a3.999 3.999 0 014.822-2.664l.198.057 59.979 19.008a4.002 4.002 0 01-2.217 7.687l-.197-.057-59.98-19.008a4.003 4.003 0 01-2.605-5.023zm7.682-20.705a3.998 3.998 0 00-4.723 2.835 4 4 0 002.782 4.926l53.982 15.006.199.051a4.002 4.002 0 001.941-7.762l-53.981-15.006-.2-.05z" fill="#001D2D"/></g></g><g id="Heads" transform="translate(501.137 165.421)"><g id="Heads/Wide"><g id="Patterns"><path id="Mask" fill-rule="evenodd" clip-rule="evenodd" d="M57.366 40.325c-18.192 4.708-35.599 14.438-46.655 29.66C-.346 85.204-4.097 106.33 3.883 123.37c5.985 12.779 17.776 22.118 30.68 27.784 12.903 5.666 26.976 8.038 40.924 10.023 26.308 3.745 53.811 6.178 78.878-2.653 25.067-8.833 46.983-31.869 46.373-58.485-.471-20.63-14.375-39.258-32.042-49.865-31.134-18.693-76.995-18.736-111.33-9.85" fill="#FF996B"/><mask id="mask0_203_43638adb7771f-24af-4b13-adc4-494de073d748" style="mask-type:alpha" maskUnits="userSpaceOnUse" x="-1" y="34" width="202" height="131" fill="#fff"><path id="Mask_2" fill-rule="evenodd" clip-rule="evenodd" d="M57.366 40.325c-18.192 4.708-35.599 14.438-46.655 29.66C-.346 85.204-4.097 106.33 3.883 123.37c5.985 12.779 17.776 22.118 30.68 27.784 12.903 5.666 26.976 8.038 40.924 10.023 26.308 3.745 53.811 6.178 78.878-2.653 25.067-8.833 46.983-31.869 46.373-58.485-.471-20.63-14.375-39.258-32.042-49.865-31.134-18.693-76.995-18.736-111.33-9.85" fill="#fff"/></mask><g mask="url(#mask0_203_43638adb7771f-24af-4b13-adc4-494de073d748)"><g id="Patterns_2"><g id="Group" fill="#fff"><path id="Path 7" d="M291.108 147.73c-35.75 43.173-65.366 64.782-88.925 64.782-7.616 0-15.277-.656-23.861-1.945l-1.463-.225c-3.434-.537-7.043-1.176-11.206-1.971l-3.403-.66-11.429-2.284c-24.929-4.967-41.023-7.066-61.773-7.066-15.405 0-29.59 1.81-49.244 5.66l-2.823.562c-2.73.554-13.7 2.777-16.864 3.377l-1.451.272c-5.461 1.012-9.787 1.664-13.665 2.025-9.927.924-16.84-.139-21.737-3.789l-.28-.214.614-.789c4.577 3.562 11.163 4.674 20.743 3.847l.567-.05c4.012-.374 8.518-1.063 14.294-2.147l3.122-.604c5.315-1.05 15.266-3.072 15.078-3.034l1.112-.221c20.284-4.01 34.765-5.895 50.534-5.895 20.157 0 35.934 1.973 59.577 6.612l14.083 2.809c.772.151 1.507.294 2.234.434l1.78.34c4.366.827 8.127 1.477 11.749 2.022 8.538 1.283 16.149 1.934 23.712 1.934 22.938 0 51.993-21.032 87.09-63.138l1.065-1.282.77.638z"/><path id="Path 10" d="M291.105 138.504c-19.734 23.45-42.973 39.5-69.708 48.143-9.303 3.008-20.641 3.799-34.998 2.794l-2.171-.162c-9.154-.717-16.385-1.694-34.336-4.537l-14.022-2.23c-8.929-1.401-15.069-2.285-21.614-3.086-23.686-2.899-42.256-3.055-58.754.304l-.784.163c-36.693 7.751-60.54 4.588-71.5-9.602l-.329-.433.803-.596c10.402 14.012 33.629 17.343 69.722 9.882l1.097-.229c16.296-3.443 34.527-3.442 57.617-.75l2.249.269c6.886.842 13.321 1.776 23.007 3.304l15.711 2.497c16.515 2.594 23.294 3.462 32.513 4.147 14.65 1.088 26.136.335 35.481-2.686 26.251-8.487 49.11-24.165 68.581-47.044l.67-.792.765.644z"/><path id="Path 11" d="M290.751 125.993l-.056.998c-14.668-.815-26.248 3.123-42.829 12.872l-1.769 1.05c-.591.353-1.206.723-1.871 1.126l-6.374 3.881c-12.252 7.442-19.974 11.438-29.331 14.58-11.823 3.97-24.15 5.446-38.068 4.111l-.91-.091c-34.446-3.591-68.555-1.447-108.733 4.831l-2.802.444c-8.039 1.299-27.556 4.647-30.985 5.181-18.447 2.871-33.079-3.208-43.817-18.207l-.324-.457.818-.575c10.44 14.867 24.618 20.968 42.612 18.335l.557-.084c3.51-.547 23.973-4.059 31.593-5.279l.56-.089c40.42-6.401 74.686-8.683 109.224-5.238l1.401.143c14.147 1.475 26.61.038 38.556-3.973 8.724-2.93 16.029-6.616 27.024-13.215l8.876-5.392c.777-.47 1.489-.896 2.183-1.309l.346-.205c16.88-10.009 28.659-14.16 43.473-13.471l.646.033z"/><path id="Path 12" fill-rule="evenodd" clip-rule="evenodd" d="M38.232 131.534c9.525 1.232 17.242 3.995 20.967 7.778 4.372 4.441 3.128 9.949-4.271 15.872-14.462 11.577-28.714 15.634-39.956 12.395-10.349-2.981-16.81-11.935-16.81-23.244 0-10.495 19.29-15.49 40.07-12.801zm-22.983 35.084c10.897 3.14 24.826-.825 39.054-12.215 6.984-5.591 8.078-10.433 4.183-14.39-3.53-3.587-11.06-6.281-20.383-7.488-20.224-2.617-38.94 2.23-38.94 11.81 0 10.871 6.173 19.428 16.086 22.283z"/><path id="Path 12_2" fill-rule="evenodd" clip-rule="evenodd" d="M35.18 137.993c6.03.788 10.921 2.556 13.3 4.998 2.836 2.91 2.027 6.529-2.703 10.354-9.142 7.393-18.17 9.989-25.308 7.912-6.592-1.918-10.708-7.682-10.708-14.948 0-6.836 12.243-10.039 25.419-8.316zm-14.431 22.304c6.79 1.976 15.492-.527 24.4-7.729 4.318-3.493 4.98-6.453 2.615-8.88-2.186-2.242-6.886-3.942-12.714-4.704-12.622-1.65-24.289 1.402-24.289 7.325 0 6.831 3.832 12.197 9.988 13.988z"/><path id="Path 12_3" fill-rule="evenodd" clip-rule="evenodd" d="M31.942 145.106c2.324.299 4.216.971 5.169 1.931 1.216 1.226.864 2.773-1.041 4.287-6.933 5.508-14.012 3.484-14.012-2.841 0-2.702 4.415-3.939 9.307-3.443l.577.066zm-8.884 3.377c0 5.373 6.043 7.1 12.39 2.058 1.487-1.182 1.687-2.059.953-2.799-.76-.766-2.464-1.371-4.586-1.644-4.559-.585-8.757.494-8.757 2.385z"/><path id="Path 13" d="M290.746 116.149l-.047.999-2.589-.115c-27.025-1.136-48.96.049-67.313 3.256-14.771 2.582-26.461 6.237-38.844 11.601l-.954.416c-3.276 1.438-15.893 7.362-19.088 8.736-12.923 5.556-23.442 7.726-37.846 6.868-20.361-1.213-34.626-5.358-51.13-13.334l-1.19-.582c-2.14-1.067-11.339-5.706-14.09-6.988-9.984-4.651-17.932-6.782-27.635-6.782-20.934 0-36.25 6.956-46.005 20.866l-.312.451-.825-.565c9.937-14.501 25.67-21.752 47.142-21.752 9.626 0 17.556 2.063 27.32 6.536l.737.34c2.98 1.389 13.432 6.669 14.47 7.176 16.747 8.184 31.021 12.411 51.577 13.636 13.963.831 24.204-1.21 36.657-6.475l.735-.314c3.176-1.366 15.788-7.287 19.081-8.733 12.809-5.622 24.794-9.423 40.028-12.086 18.72-3.271 41.132-4.446 68.819-3.215l1.302.06z"/><path id="Path 14" fill-rule="evenodd" clip-rule="evenodd" d="M203.592 130.854c17.879-4.721 34.61-5.996 36.545-2.124 1.231 2.465-.531 5.251-4.659 8.354-2.843 2.137-6.755 4.389-11.651 6.814l-.204.1c-3.129 1.538-9.624 4.472-12.977 5.986a285.78 285.78 0 00-2.017.915l-.607.298c-5.045 2.458-12.035 4.952-18.056 5.936-9.204 1.504-15.438-.509-17.166-7.135-1.738-6.667 10.566-13.652 29.617-18.829l1.175-.315zm20.392 11.849c4.565-2.286 8.225-4.413 10.894-6.419 3.775-2.837 5.296-5.243 4.364-7.107-1.583-3.168-18.172-1.904-35.394 2.644l-.571.152c-18.765 5.027-31.038 11.909-29.509 17.773 1.561 5.986 7.278 7.831 16.037 6.4 6.122-1 13.307-3.607 18.303-6.106.122-.061.955-.438 2.191-.996 3.311-1.496 9.511-4.298 12.67-5.839l1.015-.502z"/><path id="Path 14_2" fill-rule="evenodd" clip-rule="evenodd" d="M198.776 137.715c9.688-2.544 18.641-3.222 19.755-1.005.728 1.449-.269 3.017-2.553 4.724-1.531 1.144-3.627 2.344-6.25 3.636l-.328.159c-1.747.843-5.018 2.312-6.724 3.078-.506.228-.875.393-1.024.462l-.507.245c-2.696 1.288-6.364 2.578-9.539 3.094-5.011.814-8.455-.291-9.416-3.955-.973-3.712 5.554-7.431 15.73-10.209l.856-.229zm11.45 5.987c2.136-1.089 3.866-2.107 5.153-3.069 1.93-1.442 2.684-2.628 2.258-3.474-.739-1.47-9.057-.886-17.799 1.315l-.808.208c-10.028 2.633-16.641 6.285-15.873 9.217.793 3.024 3.722 3.964 8.289 3.222 3.239-.526 7.049-1.901 9.694-3.216.067-.034.521-.238 1.192-.539 1.854-.833 5.364-2.411 6.954-3.194l.94-.47z"/><path id="Path 15" d="M290.872 107.557l-.298.955c-21.846-6.822-40.498-9.45-58.074-8.709l-1.422.067c-12.728.653-23.65 2.798-40.376 7.362l-2.217.609-7.333 2.041c-18.491 5.121-28.778 7.358-42.084 8.564l-.636.057c-18.108 1.585-37.226.212-59.375-4.788l-1.19-.271c-66.695-15.37-100.372-2.192-101.433 39.468l-.022 1.271-1-.009c.41-43.039 34.095-57.072 100.653-42.165l2.027.46c22.555 5.198 41.928 6.642 60.253 5.038l1.26-.115c12.723-1.193 22.808-3.377 40.412-8.233l8.536-2.374 1.889-.519c17.411-4.75 28.578-6.894 42.016-7.462 17.394-.734 35.825 1.809 57.301 8.408l1.113.345z"/><path id="Path 16" d="M304.025 88.034l-.781.625c-15.734-19.68-32.259-27.193-51.769-25.395-8.265.762-17.07 3.153-27.508 7.23l-1.302.514c-3.495 1.393-7.191 2.975-11.443 4.882l-2.437 1.1a887.224 887.224 0 00-3.956 1.815l-10.064 4.668c-25.067 11.589-40.241 17.095-57.69 19.52-43.921 6.104-94.663-2.291-152.225-25.174l-1.746-.698.373-.928c58.132 23.35 109.285 31.949 153.461 25.809l1.219-.175c16.618-2.464 31.433-7.852 55.311-18.857l11.884-5.507a682.736 682.736 0 013.836-1.753l2.419-1.088c4.458-1.99 8.314-3.621 11.996-5.06 10.518-4.108 19.409-6.522 27.781-7.293 19.656-1.812 36.366 5.678 52.163 25.171l.478.594z"/><path id="Path 17" d="M298.361 62.694l-.52.854c-12.336-7.513-25.416-12.286-46.751-14.465-30.53-3.117-70.584.917-122.228 14.12l-1.568.402C50.054 83.538-4.498 81.117-36.356 56.272l-.958-.76.628-.778c31.096 25.054 84.896 27.91 161.404 8.498l2.326-.595c52.51-13.55 93.182-17.71 124.148-14.548 21.194 2.164 34.344 6.885 46.65 14.29l.519.315z"/><path id="Path 18" fill-rule="evenodd" clip-rule="evenodd" d="M64.453 12.786c16.597 0 32.628 5.682 42.519 14.117 9.587 8.174 10.869 16.988 1.969 21.287-9.115 4.404-30.415 9.115-50.285 10.996l-1.384.127c-24.22 2.138-41.887-.133-47.33-7.587-12.18-16.676 18.925-38.94 54.51-38.94zm-6.581 45.469c19.957-1.826 41.54-6.572 50.634-10.965 8.09-3.908 6.935-11.852-2.182-19.627-9.708-8.277-25.508-13.877-41.871-13.877-34.923 0-65.17 21.65-53.704 37.35 5.144 7.045 22.583 9.286 46.435 7.18l.688-.061z"/><path id="Path 18_2" fill-rule="evenodd" clip-rule="evenodd" d="M63.346 27.312c11.114 0 21.852 2.875 28.49 7.15 6.546 4.217 7.461 8.973 1.288 11.225-6.052 2.209-20.108 4.568-33.302 5.535l-1.274.09c-16.245 1.083-28.056-.064-31.747-3.882-4.044-4.182-1.313-9.315 6.34-13.453 7.558-4.086 18.795-6.665 30.205-6.665zM59.113 50.27c13.292-.93 27.623-3.316 33.668-5.522 5.19-1.894 4.476-5.603-1.487-9.444-6.469-4.167-17.019-6.992-27.948-6.992-11.251 0-22.325 2.542-29.729 6.545-7.16 3.872-9.531 8.327-6.097 11.878 3.306 3.42 14.485 4.582 29.79 3.653l1.803-.118z"/><path id="Path 18_3" fill-rule="evenodd" clip-rule="evenodd" d="M76.034 39.197c1.558.766 2.533 1.6 2.75 2.456.263 1.045-.553 1.833-2.166 2.282-7.952 2.215-28.813 3.276-32.206.598-1.116-.881-1.318-1.987-.581-3.044.622-.891 1.903-1.734 3.703-2.477 3.675-1.517 9.125-2.471 14.657-2.471 5.393 0 10.606 1.065 13.843 2.656zm-31.002 4.551c3.044 2.403 23.672 1.353 31.318-.776l.196-.058c1.007-.31 1.355-.67 1.268-1.016-.123-.488-.906-1.157-2.22-1.803-3.091-1.52-8.155-2.554-13.403-2.554-5.408 0-10.73.932-14.276 2.396-1.639.676-2.775 1.423-3.264 2.124-.425.61-.331 1.125.38 1.687z"/><path id="Path 19" d="M304.057 51.163l-.843.538c-5.024-7.87-14.775-12.292-29.549-14.18l-.655-.081c-11.441-1.39-21.901-1.357-46.839-.393l-7.002.268c-8.396.31-14.335.457-20.132.465h-.544c-14.538 0-25.122-2.468-36.866-8.021l-.679-.324c-5.093-2.45-24.191-13.15-26.796-14.53-12.864-6.816-25.579-12.44-41.303-17.86a346.97 346.97 0 00-5.187-1.741C45.665-18.435 7.888-4.98-25.756 35.739l-1.018 1.242-.776-.63C6.596-5.64 45.133-19.662 87.973-5.648a355.23 355.23 0 015.202 1.747c15.324 5.282 27.806 10.76 40.339 17.339l1.47.778c3.676 1.988 21.528 11.974 26.398 14.317 11.661 5.61 22.048 8.15 36.286 8.244l1.91.001c5.071-.015 10.308-.137 17.26-.38l15.193-.571c20.835-.742 30.536-.665 41.099.619 15.185 1.845 25.335 6.293 30.693 14.357l.234.358z"/></g></g></g></g></g></g><g id="Eyes" transform="translate(582 235.421)"><g id="Eyes/Joy" fill="#001D2D"><path id="Stroke 1" d="M85.155 32.453a4 4 0 004.278-3.7l.073-1.044c.392-5.925.228-9.056-1.086-12.77C86.418 9.278 81.41 4.963 75.673 5c-5.542.039-10.38 4.129-12.467 9.56-1.442 3.76-1.655 6.904-1.446 13.33a4 4 0 107.995-.259l-.037-1.354c-.102-4.44.108-6.637.957-8.85.997-2.595 3.148-4.414 5.052-4.427 1.967-.013 4.197 1.908 5.151 4.608.898 2.535.977 5.044.576 10.567a4 4 0 003.7 4.278z"/><path id="Stroke 3" d="M16.334 32.462l.2-.01a4 4 0 003.7-4.278l-.064-.918c-.324-4.892-.206-7.258.64-9.648.956-2.7 3.186-4.621 5.15-4.608 1.906.013 4.058 1.832 5.053 4.424l.157.43c.793 2.295.928 4.736.762 9.775a4 4 0 007.996.263l.031-1.039c.153-5.724-.114-8.74-1.476-12.295-2.086-5.43-6.924-9.52-12.469-9.558-5.734-.038-10.74 4.276-12.745 9.938-1.39 3.927-1.493 7.202-1.014 13.814a4 4 0 004.08 3.71z"/><path id="Fill 4" fill-rule="evenodd" clip-rule="evenodd" d="M66.847 43.407l-.125.076c-2.513 1.505-4.96 2.685-7.5 3.461a26.255 26.255 0 01-7.722 1.182 26.062 26.062 0 01-7.72-1.183c-2.54-.778-4.989-1.962-7.496-3.472l-.128-.078a2.756 2.756 0 00-2.876.024 2.706 2.706 0 00-.859 3.748c1.928 3.045 4.83 5.541 8.165 7.24 3.34 1.697 7.125 2.592 10.91 2.595 3.786.005 7.574-.888 10.918-2.584 3.335-1.693 6.239-4.187 8.166-7.237.53-.84.579-1.943.028-2.85a2.75 2.75 0 00-3.76-.922"/></g></g><g id="Lower/Side" transform="translate(0 700)"><g id="Lower/Side/Presenting"><path id="Legs" fill-rule="evenodd" clip-rule="evenodd" d="M659.116 66.34a4.003 4.003 0 00-7.896 1.322c18.421 109.874 42.191 229.948 71.31 360.225l1.789 7.989a4.001 4.001 0 003.519 3.105l45.538 4.424.221.028a3.997 3.997 0 011.264 7.488l-71.173 37.649-.093.045a4.005 4.005 0 01-5.318-1.941c-62.969-135.331-106.601-228.355-130.9-279.083l-3.274-6.821a2502.426 2502.426 0 0014.99-131.422 4.002 4.002 0 00-3.64-4.332 4.002 4.002 0 00-4.336 3.637c-11.538 132.058-33.533 262.68-65.984 391.868a3.998 3.998 0 001.569 4.238l28.226 19.977.183.137a3.999 3.999 0 011.507 3.127l-.005.2a4.002 4.002 0 01-3.998 3.8h-71.737l-.516-14.95c-6.761-196.442-10.212-325.778-10.351-387.959l-.005-3.838c0-2.209-1.792-4-4.003-4a4.001 4.001 0 00-4.003 4c0 60.1 3.383 188.71 10.148 385.882l.863 25.004a4.002 4.002 0 004.001 3.861h75.603l.305-.004c6.491-.162 11.704-5.471 11.704-11.996l-.005-.353a11.999 11.999 0 00-5.063-9.439l-25.993-18.397 1.276-5.12c19.668-79.353 35.406-159.246 47.215-239.679 21.963 45.938 58.54 123.846 109.725 233.714l19.238 41.321c2.797 6.01 9.939 8.616 15.953 5.822a9.976 9.976 0 00.556-.276l71.081-37.601.272-.149c5.659-3.179 7.778-10.306 4.723-16.071l-.166-.303a12.007 12.007 0 00-9.286-6.026l-42.652-4.145-2.043-9.135c-28.684-128.608-52.13-247.217-70.339-355.823z" fill="#001D2D"/></g></g><g id="Head Accesory" transform="scale(-1 1) rotate(45 -208.97 -563.98)"><g id="Head Accesory/Bow" fill-rule="evenodd" clip-rule="evenodd"><path id="Path 182" d="M95.829 134.999s-30.896-26.482-38.62-17.654c-7.724 8.827 0 23.171 0 23.171s-15.448 22.069 2.207 26.483c17.655 4.413 36.413-19.862 36.413-19.862s22.068 23.172 44.137 19.862c22.068-3.311 0-26.483 0-26.483s16.551-30.895 2.207-34.206c-14.345-3.31-46.344 28.689-46.344 28.689z" fill="#A98AFF"/><path id="Combined Shape" d="M134.911 122.586a1 1 0 00-1.325-.496l-29.824 13.556C102.338 123.924 95 128 95 128s-7-5-7 9l.001.407-17.663-6.348-.112-.033a1 1 0 00-.564 1.915l18.385 6.607c.043 1.123.115 2.171.212 3.145l-20.673 9.397-.103.054a1 1 0 00.931 1.766l20.105-9.138c1.178 7.687 4.135 9.792 6.481 8.228 1.052 0 2.013.123 2.88.234 3.489.447 5.486.703 5.992-7.999l29.79 10.706.112.033a.999.999 0 00.564-1.915l-30.378-10.917c.027-.958.04-2.003.04-3.142 0-.793-.019-1.539-.057-2.239l30.471-13.851.103-.054a1 1 0 00.394-1.27z" fill="#7344BE"/></g></g></g></g><g id="Plants" transform="translate(300 878)"><g id="Plants/Basic"><path id="Path 132" d="M202.814 16.485c8.998-10.573 23.027-9.858 31.333 1.595 8.306 11.453 7.745 29.308-1.253 39.88-21.17 24.871-31.061 48.286-31.297 70.637l-.004.818c0 39.759-16.788 81.02-48.85 124.642-9.624 13.095-26.278 11.595-34.358-3.096l-.517-.956c-8.306-15.618-18.251-46.6-31.11-95.421l-.808-3.075c-11.17-42.653-24.523-69.146-38.682-80.313l-.472-.366c-10.5-8.02-13.906-25.355-7.605-38.72 6.3-13.366 19.92-17.7 30.421-9.68 24.836 18.965 43.701 55.776 57.978 109.594l1.906 7.234c4.22 15.923 8.088 29.689 11.541 41.174l.528 1.75.371-.7c10.175-19.413 15.146-36.598 15.306-51.333l.004-.734c0-40.119 15.75-77.898 45.568-112.93z" fill="#82D1C4"/><path id="Path 132_2" d="M104.215 42.852c8.619-9.525 20.964-7.175 27.572 5.249C154.306 90.436 166 130.743 166 169.279c0 39.122-12.037 77.593-35.09 115.155-5.385 8.774-13.959 11.87-21.577 7.791-19.724-10.559-33.074-24.208-39.226-43.604-7.1-22.385-2.735-45.655 9.773-66.894l.44-.74c1.022-1.706 1.816-3.239 2.393-4.569l.202-.481-.048-.058c-.8-.966-1.851-2.024-3.158-3.14l-.445-.374c-4.074-3.372-9.846-6.751-17.244-9.95-10.403-4.498-16.306-20.3-13.185-35.295 3.12-14.994 14.084-23.503 24.487-19.005 21.68 9.375 36.447 21.598 44.185 39.655 9.657 22.537 8.988 41.281 9.157 22.465l.004-.956c0-24.453-8.408-53.434-26.095-86.686-6.608-12.424-4.978-30.217 3.642-39.741z" fill="#59BCAB"/><path id="Path 132_3" d="M104.131 25.782C107.643 9.62 119.979.448 131.685 5.297c11.706 4.848 18.348 21.881 14.837 38.044l-.614 2.853c-9.766 45.81-11.733 76.652-7.808 89.787l1.836 5.848c3.652 11.698 7.998 26.124 13.044 43.295l3.426 11.714.178-.579c1.749-5.844 2.605-12.52 2.669-20.222l.004-.929c0-28.332 9.632-51.04 27.547-63.106 14.642-9.862 33.729-12.005 57.744-7.961 12.131 2.043 20.766 17.277 19.287 34.028-1.479 16.75-12.513 28.673-24.644 26.63l-1.759-.284c-15.353-2.368-25.905-1.075-31.224 2.508-2.174 1.464-2.664 2.5-2.693 7.656l-.002.529c0 45.789-16.25 80.91-46.511 100.892-11.581 7.648-25.43.128-30.136-16.365l-4.816-16.82c-9.158-31.862-16.574-56.914-22.226-75.096l-2.147-6.844c-9.597-30.29-6.75-74.321 6.454-135.093z" fill="#42AB99"/><path id="Rectangle" fill-rule="evenodd" clip-rule="evenodd" d="M60 240h140v14.894a52.169 52.169 0 01-16.474 38.045A26.083 26.083 0 01165.68 300H94.32a26.086 26.086 0 01-17.846-7.061A52.169 52.169 0 0160 254.894V240z" fill="#E4EDF1"/><path id="Combined Shape" fill-rule="evenodd" clip-rule="evenodd" d="M182 254a4 4 0 00-4-4h-19l-.2.005A4 4 0 00159 258h19l.2-.005A4 4 0 00182 254zm4 14a4 4 0 00-4-4h-9l-.2.005A4 4 0 00173 272h9l.2-.005A4 4 0 00186 268zm-27 2a4 4 0 01.2 7.995l-.2.005h-13a4 4 0 01-.2-7.995l.2-.005h13zm11 18a4 4 0 00-4-4h-13l-.2.005A4 4 0 00153 292h13l.2-.005A4 4 0 00170 288z" fill="#B9CCD4"/></g></g></g></svg>