<svg width="8" height="8" viewBox="0 0 8 8" fill="none" xmlns="http://www.w3.org/2000/svg"><path d="M0 4.119c-.017-1.67.69-2.92 2.15-3.678C4.524-.792 7.398.686 7.811 3.316A3.93 3.93 0 014.76 7.792C2.586 8.272.394 6.786.048 4.598.024 4.446.016 4.292 0 4.12zm1.025 1.553c.804 1.24 1.943 1.801 3.41 1.615 1.848-.234 3.144-2.047 2.828-3.91C6.934 1.43 5.014.176 3.111.655a3.388 3.388 0 00-2.086 5.016z" fill="#C25939"/><path d="M3.212 5.868c-.061.166-.114.318-.174.467-.086.212-.24.271-.43.148a8.221 8.221 0 01-.653-.47c-.188-.15-.185-.319 0-.47.474-.385.953-.763 1.43-1.146.076-.062.163-.123.253-.063.108.073.077.197.04.296-.148.41-.307.815-.466 1.238zM1.708 2.507c.543.348 1.074.69 1.601 1.035.087.056.208.118.164.246-.049.14-.182.126-.308.12-.556-.022-1.113-.04-1.67-.058-.373-.012-.467-.142-.357-.5.063-.205.126-.41.196-.613.058-.17.16-.282.374-.23zm3.329 2.356l.83.693c.207.174.211.328-.002.492a8.533 8.533 0 01-.627.438c-.223.141-.375.081-.464-.17-.197-.555-.394-1.112-.589-1.668-.038-.107-.095-.231.026-.31.108-.072.2.013.286.083.175.146.353.288.54.442zm.097-1.708c.32-.211.626-.416.936-.617.18-.116.344-.078.421.121.103.269.191.545.26.824.049.198-.064.32-.27.33-.616.034-1.232.067-1.848.098-.104.005-.21-.01-.247-.127-.034-.11.05-.175.128-.227.2-.134.405-.263.62-.402zM4.438 2.05c-.115.416-.226.816-.333 1.217-.026.098-.06.186-.175.188-.116.002-.156-.092-.182-.184-.169-.606-.335-1.213-.504-1.82-.047-.17.018-.289.179-.322.323-.066.654-.06.977-.006.185.03.24.163.193.35-.048.187-.1.374-.155.577zm.032.447c.12-.323.232-.632.349-.94.086-.227.239-.288.44-.155.23.151.451.315.664.489.164.134.156.307-.01.443-.473.385-.95.767-1.426 1.15-.08.064-.173.129-.272.058-.1-.07-.067-.181-.032-.277.091-.252.187-.502.287-.768zM3.31 5.976c.134-.445.265-.874.398-1.303a.6.6 0 01.07-.165c.085-.121.195-.116.27.011.067.112.077.242.106.365l.36 1.482c.072.3-.028.432-.341.427a11.78 11.78 0 01-.743-.038c-.209-.016-.305-.16-.248-.36.039-.136.082-.27.127-.42zm-.476-4.563c.088.052.116.129.146.203.225.553.448 1.107.671 1.66.038.095.087.2-.013.277-.106.083-.203.014-.29-.052-.482-.365-.964-.729-1.443-1.097-.185-.141-.192-.322-.012-.473.2-.168.41-.324.622-.478a.303.303 0 01.319-.04zm.317 3.029c-.455.297-.897.588-1.342.875-.226.146-.386.088-.475-.172a15.172 15.172 0 01-.215-.69c-.072-.25.005-.384.263-.4.635-.039 1.27-.074 1.907-.068.077.001.151.017.183.098.032.083-.02.144-.077.19-.072.06-.154.106-.244.167zm3.165.962c-.107.04-.184 0-.258-.05L4.521 4.327c-.079-.053-.17-.112-.139-.22.034-.12.148-.123.25-.118.63.028 1.258.056 1.886.087.153.007.252.105.234.247a2.65 2.65 0 01-.342 1.015c-.016.027-.052.04-.094.067z" fill="#C25939"/></svg>