<svg viewBox="182 143 780 611" xmlns="http://www.w3.org/2000/svg" overflow="visible" width="780" height="611"><g id="Master/Composition/Sticker" stroke="none" stroke-width="1" fill="none" fill-rule="evenodd"><g id="Stickers" fill="#000"><g id="Stickers/Watermeloon" stroke="none" stroke-width="1" fill="none" fill-rule="evenodd"><g id="Ink" transform="translate(185 144)" fill="#000"><path d="M565.414 451.418c-184.158 191.199-503.4 55.053-436.974-216.69 11.152-46.14 36.69-33.405-9.154-63.261-2.94-1.788-4.271 1.966-5.47 4.51-13.099 30.49-24.39 62.69-28.654 95.64-29.33 214.047 219.877 356.104 403.247 267.46 35.948-17.857 70.324-40.84 95.755-72.15 1.225-7.778-12.78-12.58-18.75-15.51M369.25 517.145c60.541-.175 113.89-17.437 158.706-56.649 4.463-6.125 25.845-20.292 13.802-26.24-119.03-68.942-235.491-142.523-351.163-216.62-9.487-6.105-19.077-12.05-28.688-17.957-8.271-2.078-7.235 13.833-10.62 18.94-23.113 70.418-14.894 152.564 34.082 210.333 44.328 55.252 113.785 87.483 183.88 88.193m2.087 73.763c-119.35 2.933-240.533-63.551-287.764-175.757C47.9 336.284 41.627 215.902 116.892 159c23.905 3.55 46.655 20.267 69.302 29.676 79.247 44.65 153.994 97.029 232.895 142.303 62.439 41.518 131.692 74.488 188.56 123.41 5.189 5.584-6.655 9.442-.918 18.767 3.522 19.103-29.406 36.737-41.49 49.44-55.185 43.59-124.137 65.465-193.905 68.31" id="Fill-1"/><path d="M126.07 47.893c-35.84 2.954-26.12-56.243 3.228-46.89 22.884 8.983 25.394 44.322-3.227 46.89" id="Fill-3"/><path d="M292 171.572c-.883 29.93-34.193 28.18-40.97 4.947-1.302-22.389 40.77-32.267 40.97-4.947" id="Fill-5"/><path d="M589.973 252.683c-.7 11.599-9.927 31.241-23.561 21.852-5.315-4.555-13.39-7.63-12.315-15.932-1.191-23.956 37.072-35.612 35.876-5.92" id="Fill-7"/><path d="M174.88 574.218c10.51-1.662 22.275 10.148 19.782 19.049-4.692 6.63-8.594 18.595-18.675 15.11-1.434-.372-3.306-1.173-3.892-2.335-3.503-6.649-12.067-8.717-12.84-16.978-1.997-7.984 8.162-16.548 15.624-14.846" id="Fill-9"/><path d="M642.159 559.793c3.79 1.879 8.038 7.16 6.528 11.228-4.905 7.692-10.235 18.446-21.398 15.472-9.69-1.559-3.03-15.161-13.875-16.715-.072-3.07 4.692-5.473-.677-6.926-6.25-3.498 6.182-7.014 8.774-8.92 6.822-2.95 19.456-3.653 20.99 6.229-2.622.134-4.47.914-5.27 3.558 3.356 2.87 5.062-.675 4.928-3.926" id="Fill-14"/><path d="M601.095 364.407c-.296-6.868 8.33-17.293 15.852-15.113 7.792 2.243 20.74 5.27 17.56 16.271-4.721 20.047-35.429 18.795-33.412-1.158" id="Fill-16"/><path d="M760.74 468.98c.394 2.706-.094 5.281-.676 7.915 9.367-1.21 2.839 4.721 1.122 9.189-14.507 19.568-35.933-.88-30.248-20.897 1.196-5.454 7.577-.78 10.349-5.187 8.95 2.467 7.38 15.282 19.454 8.98" id="Fill-18"/><path d="M442.412 263c18.512 2.712 19.523 23.685 2.36 29.976-18.275 7.333-32.327-27.024-2.36-29.976" id="Fill-20"/><path d="M.741 485.654c-5.16-12.274 18.073-15.456 25.249-10.254 7.396 5.517 3.602 21.007-3.615 25.688-9.622 3.771-25.014-4.69-21.634-15.434" id="Fill-22"/><path d="M76.578 126c-8.121-2.44-15.936-15.54-5.7-20.363 4.332-10.31 11.32-4.094 17.439-.053 8.293 7.804-4.64 17.361-11.74 20.416" id="Fill-24"/><path d="M714.963 340.91c-11.367-1.75-5.782-4.096-8.132-10.767-3.224-3.95 3.79-6.37 6.435-8.067 11.208-1.526 16.403 20.5 1.697 18.834" id="Fill-26"/><path d="M200.405 293.633c-5.653 0-11.307-.076-16.959.02-11.799-.56-16.525-16.98-4.187-20.99 15.163-2.216 43.806-14.714 55.22-2.121.825 2.47 2.568 4.353 5.114 4.553 2.758-.208 4.945 6.726 4.29 8.321-8.499 14.564-29.099 8.413-43.423 11.584-.02-.456-.037-.911-.055-1.367" id="Fill-28"/><path d="M272 410.47c4.8-17.125 21.617-49.733 42.107-49.456 2.217-.288 5.816 4.057 4.675 5.86-2.375 10.17-3.25 19.122-11.02 27.039-8.529 9.199-12.676 25.747-24.668 30.087-7.504-.309-11.141-3.758-11.094-13.53" id="Fill-30"/><path d="M379.597 411.42c1.524 21.72-16.475 74.338-29.597 30.888.158-14.608 1.956-52.098 25.024-41.422 5.223 1.41 5.475 8.32 4.573 10.534" id="Fill-32"/><path d="M220.006 360c-10.095-.122-6.598-5.872-5.64-10.992-1.427-6.079 1.855-9.849 5.87-13.364 8.739-7.524 37.82-26.508 45.764-12.805-.628 3.99 1.085 8.784-3.256 11.885-13.078 8.72-27.043 22.977-42.738 25.276" id="Fill-34"/><path d="M456 440.412c-9.82 28.407-49.38-31.523-25.403-39.412 15.943 4.705 22.604 23.846 25.403 39.412" id="Fill-36"/></g></g></g></g></svg>